<?xml version="1.0" standalone="no"?>
<!DOCTYPE svg PUBLIC "-//W3C//DTD SVG 1.1//EN" "http://www.w3.org/Graphics/SVG/1.1/DTD/svg11.dtd" >
<svg>
<metadata>
Created by FontForge 20090914 at Wed Mar  1 08:38:31 2017
 By www-data
Copyright (c) 1992 Adobe Systems Incorporated.  All Rights Reserved.Myriad is a trademark of Adobe Systems Incorporated.
</metadata>
<defs>
<font id="MyriadSetPro-Ultralight" horiz-adv-x="0" >
  <font-face 
    font-family="MyriadSetPro-Ultralight"
    font-weight="300"
    font-stretch="normal"
    units-per-em="1000"
    panose-1="2 0 1 3 5 0 0 2 0 4"
    ascent="800"
    descent="-200"
    x-height="476"
    cap-height="674"
    bbox="-646.001 -319 1115 1093"
    underline-thickness="50"
    underline-position="-50"
    unicode-range="U+000A-U+FB06"
  />
<missing-glyph horiz-adv-x="500" 
d="M80 0v754h356v-754h-356zM104 25h307v706h-307v-706z" />
    <glyph glyph-name="ff" unicode="ff" horiz-adv-x="514" 
d="M284 731c42.667 0 86.999 -10.6689 132.999 -32.002c28.667 21.333 60.334 32 95.001 32c11.333 0 21.833 -1.16699 31.5 -3.5s18.167 -5.16602 25.5 -8.49902l-6 -18c-14.667 5.33301 -33 8 -55 8c-26 0 -47.167 -5.16699 -63.5 -15.5s-29 -24.166 -38 -41.499
s-15 -37.333 -18 -60s-4.5 -46.667 -4.5 -72v-40h132v-19h-132v-461h-22v461h-246v-461h-22v461h-72v19h72v40c0 66 16.833 117.667 50.5 155s80.167 56 139.5 56zM361.999 518.998c0 30.667 3.00195 59.5 9.00195 86.5s15.667 51.833 29 74.5
c-16.667 7.33301 -35.834 14 -57.501 20s-43.167 9 -64.5 9c-28.667 0 -53.334 -4.83301 -74.001 -14.5s-37.5 -23 -50.5 -40s-22.5 -37 -28.5 -60s-9 -47.833 -9 -74.5v-40h246v39z" />
    <glyph glyph-name="fi" unicode="fi" horiz-adv-x="476" 
d="M96 0l0.000976562 460.999h-72v19h72v43c0 30 3.5 57.667 10.5 83s17.667 47.333 32 66s32.5 33.167 54.5 43.5s48.333 15.5 79 15.5c17.333 0 34.833 -2.66699 52.5 -8s32.167 -11.666 43.5 -18.999c-2 -5.33301 -3.5 -8.83301 -4.5 -10.5s-2.16699 -3.16699 -3.5 -4.5
l-2 -3c-10.667 6.66699 -24 12.167 -40 16.5s-34.333 6.5 -55 6.5c-28.667 0 -52.334 -5 -71.001 -15s-33.5 -23.667 -44.5 -41s-18.667 -37.5 -23 -60.5s-6.5 -47.167 -6.5 -72.5v-40h278v-480h-22v461h-256v-461h-22z" />
    <glyph glyph-name="fl" unicode="fl" horiz-adv-x="476" 
d="M96 0l-0.00390625 461.001h-72v19h72v34c0 38 4.83301 71.333 14.5 100s25.167 52.667 46.5 72c16.667 14 35.334 25 56.001 33s46 12 76 12c20 0 39.5 -2.33301 58.5 -7s35.167 -10.334 48.5 -17.001v-707h-22v689h-2c-11.333 6 -24.666 10.833 -39.999 14.5
s-33.666 5.5 -54.999 5.5c-30.667 0 -56.167 -5.16699 -76.5 -15.5s-36.666 -24.166 -48.999 -41.499s-21 -37.333 -26 -60s-7.5 -46.334 -7.5 -71.001v-41h131v-19h-131v-461h-22z" />
    <glyph glyph-name=".notdef" horiz-adv-x="500" 
d="M80 0v754h356v-754h-356zM104 25h307v706h-307v-706z" />
    <glyph glyph-name=".null" 
 />
    <glyph glyph-name=".null" 
 />
    <glyph glyph-name="uni000A" unicode="&#xa;" horiz-adv-x="214" 
 />
    <glyph glyph-name="space" unicode=" " horiz-adv-x="219" 
 />
    <glyph glyph-name="exclam" unicode="!" horiz-adv-x="206" 
d="M96 183l-9 491h32l-7 -491h-16zM128 14c0 -6.66699 -2.16699 -12.5 -6.5 -17.5s-10.166 -7.5 -17.499 -7.5s-13.166 2.5 -17.499 7.5s-6.5 10.833 -6.5 17.5c0 7.33301 2.16699 13.5 6.5 18.5s10.166 7.5 17.499 7.5s13.166 -2.5 17.499 -7.5s6.5 -11.167 6.5 -18.5z" />
    <glyph glyph-name="quotedbl" unicode="&#x22;" horiz-adv-x="300" 
d="M104 691l-6 -201h-14c-2 35.333 -3.66699 69 -5 101s-3 65.333 -5 100h30zM232 691c-2 -34 -3.83301 -67.668 -5.5 -101.001s-3.16699 -66.666 -4.5 -99.999h-13l-7 201h30z" />
    <glyph glyph-name="numbersign" unicode="#" horiz-adv-x="458" 
d="M288 232l23 190h-133l-24 -190h134zM103 0l26 212h-85v20h89l23 190h-90v19h93l27 208h21l-26 -208h134l27 208h20l-26 -208h85v-19h-89l-22 -190h90v-19h-93l-14 -106c-4.66699 -36 -9 -71.667 -13 -107h-23l27 213h-133c-4 -34.667 -8.33301 -70 -13 -106l-14 -107h-21
z" />
    <glyph glyph-name="dollar" unicode="$" horiz-adv-x="479" 
d="M223 -87l0.00488281 107.002c-27.333 0 -53.5 3.33301 -78.5 10s-45.833 16 -62.5 28c2 4.66699 3.66699 8.16699 5 10.5l5 8.5c17.333 -10.667 37.333 -19.167 60 -25.5s45.667 -9.5 69 -9.5c19.333 0 37.666 3.5 54.999 10.5s32.666 16.5 45.999 28.5s24 26 32 42
s12 33 12 51c0 37.333 -10.333 67.666 -31 90.999s-51 44.666 -91 63.999c-47.333 20 -84.5 42.333 -111.5 67s-40.5 56.667 -40.5 96c0 38.667 12.667 70.5 38 95.5s58.666 40.5 99.999 46.5v106h22v-105c28 -1.33301 51.5 -5.33301 70.5 -12s34.5 -13.667 46.5 -21
l-11 -18c-11.333 7.33301 -26.833 13.833 -46.5 19.5s-42.167 8.5 -67.5 8.5c-22.667 0 -42.334 -4.33301 -59.001 -13s-30.334 -19.167 -41.001 -31.5s-18.5 -25.166 -23.5 -38.499s-7.5 -24.333 -7.5 -33c0 -18 2.66699 -33.667 8 -47s13.666 -25.5 24.999 -36.5
s25.333 -21.5 42 -31.5s36.667 -20.333 60 -31c22.667 -10.667 42.834 -21.5 60.501 -32.5s32.5 -23.333 44.5 -37s21.167 -28.834 27.5 -45.501s9.5 -35.667 9.5 -57c0 -18.667 -3 -36.667 -9 -54s-15.167 -33 -27.5 -47s-27.5 -26 -45.5 -36s-39 -17 -63 -21v-107h-22z
" />
    <glyph glyph-name="percent" unicode="%" horiz-adv-x="730" 
d="M164 -13l385 676h22l-385 -676h-22zM571 382c18 0 34.999 -3.83203 50.999 -11.499s30 -19.167 42 -34.5s21.5 -35 28.5 -59s10.5 -52 10.5 -84c0 -34 -3.5 -63.333 -10.5 -88s-16.5 -45.334 -28.5 -62.001s-26 -29 -42 -37s-33.333 -12 -52 -12
c-16.667 0 -32.667 4 -48 12s-29 20 -41 36s-21.5 35.833 -28.5 59.5s-10.5 51.167 -10.5 82.5c0 34 3.5 63.5 10.5 88.5s16.333 45.5 28 61.5s25.334 28 41.001 36s32.167 12 49.5 12zM571.999 362.001c-17.333 0 -32.6641 -4.50098 -45.9971 -13.501
s-24.833 -21.333 -34.5 -37s-17 -34 -22 -55s-7.5 -43.5 -7.5 -67.5c0.666992 -54.667 11 -97.5 31 -128.5s46 -46.5 78 -46.5c19.333 0 36.166 5 50.499 15s26.166 23.167 35.499 39.5s16.166 35.166 20.499 56.499s6.5 43.333 6.5 66s-2.16699 44.334 -6.5 65.001
s-11 38.834 -20 54.501s-20.5 28.167 -34.5 37.5s-31 14 -51 14zM169.001 660c18 0 35 -3.83105 51 -11.498s29.833 -19.167 41.5 -34.5s21 -34.833 28 -58.5s10.5 -51.834 10.5 -84.501c0 -34 -3.5 -63.333 -10.5 -88s-16.5 -45 -28.5 -61s-26 -28 -42 -36s-33 -12 -51 -12
c-16.667 0 -32.667 3.66699 -48 11s-29 18.666 -41 33.999s-21.667 34.833 -29 58.5s-11 52.167 -11 85.5c0 34 3.5 63.333 10.5 88s16.5 45.167 28.5 61.5s25.833 28.333 41.5 36s32.167 11.5 49.5 11.5zM170.001 641.002c-17.333 0 -32.8301 -4.5 -46.4971 -13.5
s-25.334 -21.333 -35.001 -37s-17.167 -34.167 -22.5 -55.5s-8 -44 -8 -68c-0.666992 -25.333 1.5 -48.5 6.5 -69.5s12.167 -39.167 21.5 -54.5s20.833 -27.333 34.5 -36s29.167 -13 46.5 -13c19.333 0 36.166 4.5 50.499 13.5s26.166 21.333 35.499 37
s16.333 34.167 21 55.5s7 44.333 7 69c0 22.667 -2.16699 44.5 -6.5 65.5s-11 39.333 -20 55s-20.5 28.167 -34.5 37.5s-30.667 14 -50 14z" />
    <glyph glyph-name="ampersand" unicode="&#x26;" horiz-adv-x="553" 
d="M507 0l-34.498 37.502l-42.5 45.5c-36 -34.667 -70.667 -58.334 -104 -71.001s-67.666 -19 -102.999 -19c-26.667 0 -51.334 4.5 -74.001 13.5s-42.167 21.5 -58.5 37.5s-29.166 35 -38.499 57s-14 45.667 -14 71c0 45.333 13.167 84.833 39.5 118.5s59.5 62.5 99.5 86.5
c-20 30 -35.5 57.167 -46.5 81.5s-16.5 48.833 -16.5 73.5c0 19.333 3.16699 38.166 9.5 56.499s15.666 34.666 27.999 48.999s27.333 25.833 45 34.5s38.167 13 61.5 13c16.667 0 32.167 -3 46.5 -9s27 -14.5 38 -25.5s19.667 -24.333 26 -40s9.5 -33.5 9.5 -53.5
c0 -35.333 -12.667 -68 -38 -98s-68 -60.333 -128 -91l213 -252c21.333 32 39.166 66.667 53.499 104s25.166 79.333 32.499 126h22c-9.33301 -51.333 -21.5 -97.166 -36.5 -137.499s-33.5 -75.833 -55.5 -106.5l39.5 -41.5l26 -28l17.5 -19l13 -13.5h-30zM225.002 13.002
c38 0 73.167 8 105.5 24s59.833 36.667 82.5 62l-78.5 90l-59 69.5l-45.5 54.5l-39 46l-41 -28.5c-15.333 -11 -29.833 -24 -43.5 -39s-25 -32 -34 -51s-13.5 -40.167 -13.5 -63.5c0 -24.667 4.16699 -47 12.5 -67s19.833 -37.167 34.5 -51.5s32.167 -25.5 52.5 -33.5
s42.5 -12 66.5 -12zM250.002 665.002c-24.667 0 -44.668 -5.66992 -60.001 -17.0029s-27.166 -24.5 -35.499 -39.5s-13.833 -29.5 -16.5 -43.5s-4 -24 -4 -30c0 -15.333 2 -29.666 6 -42.999s9 -26.166 15 -38.499s12.833 -24.166 20.5 -35.499l23.5 -34
c22.667 12 43.667 24.167 63 36.5s36 25.166 50 38.499s25 27.833 33 43.5s12 32.834 12 51.501c0 14 -2.16699 27.5 -6.5 40.5s-10.833 24.833 -19.5 35.5s-19.667 19.167 -33 25.5s-29.333 9.5 -48 9.5z" />
    <glyph glyph-name="quotesingle" unicode="'" horiz-adv-x="177" 
d="M109 691c-2 -36 -3.66699 -70.333 -5 -103s-3 -67 -5 -103h-20c-2 34 -3.33301 68.5 -4 103.5s-1.66699 69.167 -3 102.5h37z" />
    <glyph glyph-name="parenleft" unicode="(" horiz-adv-x="264" 
d="M236 697c-19.333 -26 -37.167 -53.835 -53.5 -83.502s-30.333 -61.5 -42 -95.5s-20.667 -70.5 -27 -109.5s-9.5 -81.167 -9.5 -126.5c0 -44 3.5 -85.167 10.5 -123.5s16.5 -74.333 28.5 -108s26 -65.167 42 -94.5s33 -57 51 -83h-20
c-17.333 21.333 -34.166 45.666 -50.499 72.999s-31 57.833 -44 91.5s-23.5 70.834 -31.5 111.501s-12 85.334 -12 134.001c0 49.333 4 94.5 12 135.5s18.5 78.333 31.5 112s27.667 64.334 44 92.001s33.166 52.5 50.499 74.5h20z" />
    <glyph glyph-name="parenright" unicode=")" horiz-adv-x="264" 
d="M32 -127c19.333 26 37 53.4971 53 82.4971s29.833 60.333 41.5 94s20.667 69.834 27 108.501s9.5 81 9.5 127c0 45.333 -3.16699 87.333 -9.5 126s-15.333 74.834 -27 108.501s-25.5 65.167 -41.5 94.5s-33.667 57 -53 83h20c16.667 -22 33.334 -46.5 50.001 -73.5
s31.5 -57.333 44.5 -91s23.5 -71 31.5 -112s12 -86.167 12 -135.5s-4 -94.166 -12 -134.499s-18.5 -77.333 -31.5 -111s-27.833 -64.167 -44.5 -91.5s-33.334 -52.333 -50.001 -75h-20z" />
    <glyph glyph-name="asterisk" unicode="*" horiz-adv-x="389" 
d="M294 667l-92.001 -132l155 9v-27l-153 10l43.5 -63.5c15.667 -23 31.167 -44.5 46.5 -64.5l-28 -17l-68 139l-77 -140c-4.66699 2.66699 -8.5 5.5 -11.5 8.5s-6.16699 5.5 -9.5 7.5l89 127c-22 -2 -46.667 -3.5 -74 -4.5s-53 -2.16699 -77 -3.5v28l152 -11
c-13.333 18 -28.166 39.333 -44.499 64l-45.5 68c5.33301 3.33301 9.83301 6 13.5 8s7.5 4.33301 11.5 7l72 -141l34 70.5l36 71.5z" />
    <glyph glyph-name="plus" unicode="+" horiz-adv-x="596" 
d="M314 528v-253h244v-21h-244v-254h-23v254h-244v21h244v253h23z" />
    <glyph glyph-name="comma" unicode="," horiz-adv-x="150" 
d="M33 -128c3.33301 7.33301 7.16602 19.001 11.499 35.001s8.83301 33.5 13.5 52.5s8.83398 38 12.501 57s6.5 35.5 8.5 49.5l37 10c-3.33301 -16.667 -8.16602 -35.834 -14.499 -57.501s-12.833 -42.5 -19.5 -62.5s-12.834 -37.5 -18.501 -52.5s-9.5 -24.167 -11.5 -27.5z
" />
    <glyph glyph-name="uni002D" unicode="-" horiz-adv-x="297" 
d="M263 285v-26h-226v26h226z" />
    <glyph glyph-name="period" unicode="." horiz-adv-x="152" 
d="M106 19c0 -6.66699 -2.16699 -12.5 -6.5 -17.5s-10.166 -7.5 -17.499 -7.5s-13.166 2.5 -17.499 7.5s-6.5 10.833 -6.5 17.5c0 7.33301 2.16699 13.5 6.5 18.5s10.166 7.5 17.499 7.5s13.166 -2.5 17.499 -7.5s6.5 -11.167 6.5 -18.5z" />
    <glyph glyph-name="slash" unicode="/" horiz-adv-x="346" 
d="M4 -41l311 726h28l-314 -726h-25z" />
    <glyph glyph-name="zero" unicode="0" horiz-adv-x="460" 
d="M231 661c26.667 0 51.6689 -5.83301 75.002 -17.5s43.666 -30.667 60.999 -57s30.833 -60.333 40.5 -102s14.5 -92.5 14.5 -152.5s-4.83301 -111.667 -14.5 -155s-23.167 -78.833 -40.5 -106.5s-37.833 -48.167 -61.5 -61.5s-49.167 -20 -76.5 -20
s-52.666 6.5 -75.999 19.5s-43.5 33.167 -60.5 60.5s-30.333 62 -40 104s-14.5 92 -14.5 150c0 62 5 114.5 15 157.5s23.667 77.833 41 104.5s37.666 46 60.999 58s48.666 18 75.999 18zM230.002 642c-26 0 -49.5 -6.16797 -70.5 -18.501s-39 -31.5 -54 -57.5
s-26.667 -59.167 -35 -99.5s-12.5 -88.5 -12.5 -144.5c0 -102 15.667 -179.833 47 -233.5s73 -80.5 125 -80.5c54 0 96.167 27.333 126.5 82s45.5 134 45.5 238c0 54 -4.16699 100.833 -12.5 140.5s-20 72.334 -35 98.001s-33 44.667 -54 57s-44.5 18.5 -70.5 18.5z" />
    <glyph glyph-name="one" unicode="1" horiz-adv-x="460" 
d="M233 624h-2l-102 -64l-9 18l112 72h21v-650h-20v624z" />
    <glyph glyph-name="two" unicode="2" horiz-adv-x="460" 
d="M47 0l-0.000976562 16.001l53 59c46 46 85.667 87.5 119 124.5s60.833 71.333 82.5 103s37.834 62 48.501 91s16 58.833 16 89.5c0 18.667 -2.16699 37.334 -6.5 56.001s-12.166 35.5 -23.499 50.5s-26.333 27.167 -45 36.5s-42.667 14 -72 14
c-15.333 0 -29.833 -1.83301 -43.5 -5.5s-26.167 -8.33398 -37.5 -14.001s-21.5 -11.667 -30.5 -18s-16.5 -12.5 -22.5 -18.5l-13 13c19.333 18.667 41.333 34 66 46s53 18 85 18s58.5 -5.66699 79.5 -17s37.833 -25.666 50.5 -42.999s21.5 -36.333 26.5 -57
s7.5 -40.334 7.5 -59.001c0 -32 -5.5 -63 -16.5 -93s-27.333 -61.333 -49 -94s-48.834 -67.334 -81.501 -104.001l-114 -122l-46 -49v-2h327v-21h-360z" />
    <glyph glyph-name="three" unicode="3" horiz-adv-x="479" 
d="M62 49c11.333 -8.66699 28.8291 -17.1631 52.4961 -25.4961s50.834 -12.5 81.501 -12.5c35.333 0 64.333 5.66699 87 17s40.334 25.5 53.001 42.5s21.334 35.167 26.001 54.5s7 37 7 53c-0.666992 29.333 -6.83398 54.5 -18.501 75.5s-27 38.167 -46 51.5
s-40.5 23.166 -64.5 29.499s-48.667 9.5 -74 9.5h-34v21h37c19.333 0 39.333 2.66699 60 8s39.334 14 56.001 26s30.334 27.167 41.001 45.5s16 40.5 16 66.5c0 17.333 -2.33301 33.666 -7 48.999s-12.334 29 -23.001 41s-24.334 21.5 -41.001 28.5s-37 10.5 -61 10.5
s-46.5 -4.5 -67.5 -13.5s-38.5 -19.5 -52.5 -31.5l-10 20c12.667 10.667 30.334 21 53.001 31s48 15 76 15c28.667 0 52.834 -4.33301 72.501 -13s35.5 -20 47.5 -34s20.667 -29.833 26 -47.5s8 -35.5 8 -53.5c0 -36 -9.33301 -67.667 -28 -95
s-49.334 -47.666 -92.001 -60.999v-2c20 -4 39 -10.833 57 -20.5s33.667 -21.834 47 -36.501s23.833 -31.834 31.5 -51.501s11.5 -41.834 11.5 -66.501c0 -22.667 -3.16699 -45.5 -9.5 -68.5s-17.333 -43.5 -33 -61.5s-36.667 -32.667 -63 -44s-59.166 -17 -98.499 -17
c-30 0 -56.333 4 -79 12s-40 16.333 -52 25z" />
    <glyph glyph-name="four" unicode="4" horiz-adv-x="479" 
d="M317 0v201h-309v14l327 435h2v-429h103v-20h-103v-201h-20zM317 221v291v44c0 14 0.666992 28 2 42l-3 1c-10 -18.667 -19.5 -33.5 -28.5 -44.5s-17.167 -21.833 -24.5 -32.5l-225 -299v-2h279z" />
    <glyph glyph-name="five" unicode="5" horiz-adv-x="479" 
d="M382 630h-238.001l-37 -233c11.333 1.33301 21.666 2.5 30.999 3.5s21.666 1.5 36.999 1.5c25.333 0 50.333 -3.66699 75 -11s46.667 -19.166 66 -35.499s35 -37.333 47 -63s18 -57.167 18 -94.5c0 -32.667 -5.5 -62 -16.5 -88s-25.5 -48 -43.5 -66
s-38.667 -31.667 -62 -41s-47.666 -14 -72.999 -14c-30.667 0 -58.167 3.83301 -82.5 11.5s-42.5 16.167 -54.5 25.5l8 23c14 -9.33301 31.5 -18.166 52.5 -26.499s46.5 -12.5 76.5 -12.5c25.333 0 48.666 4.66699 69.999 14s39.833 22.166 55.5 38.499s27.834 36 36.501 59
s13 47.833 13 74.5c0 27.333 -3.83301 52.166 -11.5 74.499s-19.167 41.833 -34.5 58.5s-34.666 29.5 -57.999 38.5s-51 13.5 -83 13.5c-19.333 0 -36.666 -1 -51.999 -3l-39 -5l42 277h257v-20z" />
    <glyph glyph-name="six" unicode="6" horiz-adv-x="479" 
d="M235 419c30 0 56.6709 -5.16895 80.0039 -15.502s43 -24.833 59 -43.5s28.167 -40.667 36.5 -66s12.5 -52.666 12.5 -81.999c0 -27.333 -4 -54.333 -12 -81s-19.833 -50.5 -35.5 -71.5s-35.334 -38 -59.001 -51s-51.167 -19.5 -82.5 -19.5c-26 0 -50.833 5.5 -74.5 16.5
s-44.5 27.833 -62.5 50.5s-32.333 50.834 -43 84.501s-16 72.834 -16 117.501c0 60 7.66699 114.167 23 162.5s37.166 89.666 65.499 123.999s62.666 61.5 102.999 81.5s85.833 31.667 136.5 35l1 -21c-40.667 -1.33301 -78.834 -9.33301 -114.501 -24s-67 -35.667 -94 -63
s-49 -60.5 -66 -99.5s-27.5 -83.5 -31.5 -133.5h2c14.667 26 36.5 49 65.5 69s64.5 30 106.5 30zM239.004 9.99805c23.333 0 45 4.66895 65 14.002s37.333 22.5 52 39.5s26 38 34 63s12 52.833 12 83.5c0 32 -4.33301 59.833 -13 83.5s-20.667 43.167 -36 58.5
s-33.333 26.833 -54 34.5s-42.667 11.5 -66 11.5c-34 0 -65.333 -8.83301 -94 -26.5s-51.667 -42.5 -69 -74.5c-2.66699 -5.33301 -5.16699 -11.833 -7.5 -19.5s-3.5 -14.834 -3.5 -21.501c0 -36.667 4 -70.167 12 -100.5s19.667 -56.333 35 -78s34 -38.334 56 -50.001
s47.333 -17.5 76 -17.5h1z" />
    <glyph glyph-name="seven" unicode="7" horiz-adv-x="479" 
d="M416 650v-18l-293 -632h-21l290 628v2h-328v20h352z" />
    <glyph glyph-name="eight" unicode="8" horiz-adv-x="479" 
d="M240 661c24 0 45.6689 -4.16211 65.002 -12.4951s35.833 -19.5 49.5 -33.5s24 -30.167 31 -48.5s10.5 -37.5 10.5 -57.5c0 -14 -1.83301 -28.333 -5.5 -43s-10 -29 -19 -43s-21 -27.333 -36 -40s-34.167 -24.334 -57.5 -35.001v-4c48 -20 83.333 -43.667 106 -71
s34 -62 34 -104c0 -30.667 -5.16699 -57.334 -15.5 -80.001s-24.333 -41.334 -42 -56.001s-37.834 -25.667 -60.501 -33s-46 -11 -70 -11c-26.667 0 -51.5 4 -74.5 12s-42.833 19.5 -59.5 34.5s-29.667 33 -39 54s-14 44.167 -14 69.5c0 46 12.5 84.333 37.5 115
s58.833 54.667 101.5 72v4c-40 17.333 -68.667 39.166 -86 65.499s-26 54.166 -26 83.499c0 26 4.33301 49 13 69s20.667 37 36 51s33.166 24.5 53.499 31.5s42.5 10.5 66.5 10.5h1zM229.002 11.0049c52 0 93.166 13.666 123.499 40.999s45.5 64 45.5 110
c0 50 -15.5 88.5 -46.5 115.5s-75.5 48.167 -133.5 63.5c-50 -15.333 -88.167 -38.666 -114.5 -69.999s-39.5 -66.333 -39.5 -105c-0.666992 -20.667 2.5 -40.5 9.5 -59.5s17.5 -35.5 31.5 -49.5s31.333 -25.167 52 -33.5s44.334 -12.5 71.001 -12.5h1zM234.001 639.004
c-22.667 0 -42.8359 -3.5 -60.5029 -10.5s-32.667 -16.667 -45 -29s-21.666 -26.5 -27.999 -42.5s-9.5 -33 -9.5 -51c-0.666992 -43.333 13 -77 41 -101s65.333 -41.333 112 -52c38 14.667 69.167 34.167 93.5 58.5s36.5 56.5 36.5 96.5c0 16 -2.5 31.833 -7.5 47.5
s-13.167 29.667 -24.5 42s-25.666 22.333 -42.999 30s-38.666 11.5 -63.999 11.5h-1z" />
    <glyph glyph-name="nine" unicode="9" horiz-adv-x="460" 
d="M100 10c2.66699 -0.666992 4.33496 -0.832031 5.00195 -0.499023s2.66699 0.5 6 0.5c32.667 0 65.167 5.66699 97.5 17s62 29.833 89 55.5s50 58.834 69 99.501s31.5 90.334 37.5 149.001h-2c-21.333 -31.333 -46.666 -54.333 -75.999 -69s-62 -22 -98 -22
c-30 0 -56.167 5.66699 -78.5 17s-40.833 26.166 -55.5 44.499s-25.5 39.166 -32.5 62.499s-10.5 47 -10.5 71c0 30 4.16699 58.667 12.5 86s20.666 51.333 36.999 72s36.666 37.167 60.999 49.5s52.166 18.5 83.499 18.5c24 0 47 -5.5 69 -16.5s41.167 -28 57.5 -51
s29.333 -52 39 -87s14.5 -76.167 14.5 -123.5c0 -70 -9.16699 -130 -27.5 -180s-42.333 -90.833 -72 -122.5s-63.5 -54.834 -101.5 -69.501s-77 -22 -117 -22h-7v21zM235.001 639.002c-24 0 -46.001 -5 -66.001 -15s-37.167 -24 -51.5 -42s-25.666 -39.5 -33.999 -64.5
s-12.5 -52.5 -12.5 -82.5c0 -27.333 4 -51.666 12 -72.999s19 -39.5 33 -54.5s30.5 -26.333 49.5 -34s39.833 -11.5 62.5 -11.5c38 0 71.667 8.83301 101 26.5s52 40.5 68 68.5c2 3.33301 3.83301 7.16602 5.5 11.499s2.5 8.83301 2.5 13.5
c-0.666992 79.333 -15 142 -43 188s-70 69 -126 69h-1z" />
    <glyph glyph-name="colon" unicode=":" horiz-adv-x="136" 
d="M97 19c0 -6.66699 -2.16699 -12.5 -6.5 -17.5s-10.166 -7.5 -17.499 -7.5s-13.166 2.5 -17.499 7.5s-6.5 10.833 -6.5 17.5c0 7.33301 2.16699 13.5 6.5 18.5s10.166 7.5 17.499 7.5s13.166 -2.5 17.499 -7.5s6.5 -11.167 6.5 -18.5zM97 406
c0 -6.66699 -2.16699 -12.5 -6.5 -17.5s-10.166 -7.5 -17.499 -7.5s-13.166 2.5 -17.499 7.5s-6.5 10.833 -6.5 17.5c0 7.33301 2.16699 13.5 6.5 18.5s10.166 7.5 17.499 7.5s13.166 -2.5 17.499 -7.5s6.5 -11.167 6.5 -18.5z" />
    <glyph glyph-name="semicolon" unicode=";" horiz-adv-x="152" 
d="M117 406c0 -6.66699 -2.16699 -12.5 -6.5 -17.5s-10.166 -7.5 -17.499 -7.5s-13.166 2.5 -17.499 7.5s-6.5 10.833 -6.5 17.5c0 7.33301 2.16699 13.5 6.5 18.5s10.166 7.5 17.499 7.5s13.166 -2.5 17.499 -7.5s6.5 -11.167 6.5 -18.5zM33 -128
c3.33301 7.33301 7.16602 19.001 11.499 35.001s8.83301 33.5 13.5 52.5s8.83398 38 12.501 57s6.5 35.5 8.5 49.5l37 10c-3.33301 -16.667 -8.16602 -35.834 -14.499 -57.501s-12.833 -42.5 -19.5 -62.5s-12.834 -37.5 -18.501 -52.5s-9.5 -24.167 -11.5 -27.5z" />
    <glyph glyph-name="less" unicode="&#x3c;" horiz-adv-x="596" 
d="M79 276l223.5 122.5l223.5 121.5v-23l-433 -232l433 -235v-23l-113.5 61.5l-110 60.5l-110 60.5l-113.5 61.5v25z" />
    <glyph glyph-name="equal" unicode="=" horiz-adv-x="596" 
d="M47 355v21h511v-21h-511zM47 160v20h511v-20h-511z" />
    <glyph glyph-name="greater" unicode="&#x3e;" horiz-adv-x="596" 
d="M526 251l-223.5 -121.5l-223.5 -122.5v23l433 233l-433 234v23l113.5 -61.5l110 -60.5l110 -60.5l113.5 -61.5v-25z" />
    <glyph glyph-name="question" unicode="?" horiz-adv-x="375" 
d="M152 179l0.00390625 2.99902c0 1.33301 -0.166992 2.83301 -0.5 4.5s-0.5 3.16699 -0.5 4.5c-0.666992 4 -1.33398 8.83301 -2.00098 14.5s-1 11.167 -1 16.5c0 22 5.66699 47.167 17 75.5s26.666 55.5 45.999 81.5c25.333 32 46.166 60.833 62.499 86.5
s24.5 53.167 24.5 82.5c0 36 -10.833 64 -32.5 84s-53.167 30 -94.5 30c-17.333 0 -34.333 -2.83301 -51 -8.5s-31.667 -12.5 -45 -20.5l-11 20c15.333 11.333 32.666 19.666 51.999 24.999s41 8 65 8s45 -3.83301 63 -11.5s33 -17.667 45 -30s21 -26.666 27 -42.999
s9 -33.166 9 -50.499c0 -30.667 -8 -59.667 -24 -87s-37 -57 -63 -89c-21.333 -27.333 -37.5 -53.333 -48.5 -78s-16.5 -49.334 -16.5 -74.001c0 -6.66699 0.5 -13.167 1.5 -19.5s1.83301 -11.166 2.5 -14.499c0 -1.33301 0.166992 -3 0.5 -5s0.5 -3.66699 0.5 -5h-26z
M164.004 -11.001c-20 0 -29.999 11.667 -29.999 35c0 10.667 3 19.167 9 25.5s13.333 9.5 22 9.5c9.33301 0 16.666 -3.16699 21.999 -9.5s8 -14.833 8 -25.5c0 -11.333 -2.83301 -20 -8.5 -26s-13.167 -9 -22.5 -9z" />
    <glyph glyph-name="at" unicode="@" horiz-adv-x="693" 
d="M479 488c-7.33301 2.66699 -15.999 5 -25.999 7s-24 3 -42 3c-28.667 0 -55.5 -5.83301 -80.5 -17.5s-46.833 -27.667 -65.5 -48s-33.334 -44 -44.001 -71s-16 -55.833 -16 -86.5c0 -26.667 7 -48.834 21 -66.501s35.667 -26.5 65 -26.5c19.333 0 37.833 5.66699 55.5 17
s33.667 25.333 48 42s26.333 34.834 36 54.501s16.5 38.167 20.5 55.5zM492.001 28c-24 -14 -50.1689 -24.3359 -78.502 -31.0029s-57.5 -10 -87.5 -10c-40 0 -77.667 7.16699 -113 21.5s-66 34.833 -92 61.5s-46.5 59 -61.5 97s-22.5 80.667 -22.5 128
c0 52.667 8.33301 102.667 25 150s40.334 88.833 71.001 124.5s67.834 64 111.501 85s92.5 31.5 146.5 31.5c42 0 79.667 -7.16699 113 -21.5s61.666 -34 84.999 -59s41.166 -54.833 53.499 -89.5s18.5 -72.334 18.5 -113.001c0 -39.333 -4.5 -74.166 -13.5 -104.499
s-21 -55.833 -36 -76.5s-32 -36.5 -51 -47.5s-38.167 -16.5 -57.5 -16.5c-8 0 -16.333 2 -25 6s-16.167 10.167 -22.5 18.5s-11.333 18.833 -15 31.5s-4.5 27.667 -2.5 45l-3 -1c-21.333 -34 -44.5 -58.667 -69.5 -74s-53.5 -23 -85.5 -23c-12 0 -23.833 2.66699 -35.5 8
s-22.167 13 -31.5 23s-16.833 22.167 -22.5 36.5s-8.5 30.5 -8.5 48.5c0 30.667 6 60.667 18 90s28.5 55.333 49.5 78s46 40.834 75 54.501s60.5 20.5 94.5 20.5c18 0 33.833 -1.33301 47.5 -4s27.167 -6.66699 40.5 -12l-39 -178c-6 -28 -9 -52 -9 -72
c0 -24 4.5 -41.833 13.5 -53.5s20.833 -17.834 35.5 -18.501c15.333 -0.666992 30.833 4 46.5 14s29.667 24.333 42 43s22.5 40.834 30.5 66.501s12 53.834 12 84.501c0 40.667 -5.66699 78 -17 112s-27.666 63.333 -48.999 88s-47.333 43.667 -78 57s-65.667 20 -105 20
c-44 0 -85.833 -9.16699 -125.5 -27.5s-74.667 -44 -105 -77s-54.5 -72.333 -72.5 -118s-27 -95.834 -27 -150.501c0 -42 7 -80.667 21 -116s33.333 -65.666 58 -90.999s53.334 -45.166 86.001 -59.499s68 -21.5 106 -21.5c32 0 60 4.16699 84 12.5s46.667 18.833 68 31.5z
" />
    <glyph glyph-name="A" unicode="A" horiz-adv-x="558" 
d="M33 0l245 674h11l246 -674h-24l-92 251h-272l-93 -251h-21zM155 272h259l-130 354z" />
    <glyph glyph-name="B" unicode="B" horiz-adv-x="469" 
d="M84 666c19.333 3.33301 38.334 6.33008 57.001 8.99707s38 4 58 4c63.333 0 112.333 -13 147 -39s52 -67.333 52 -124c0 -16.667 -3.16699 -33.667 -9.5 -51s-15.333 -33.166 -27 -47.499s-25.834 -26.666 -42.501 -36.999s-35.334 -17.166 -56.001 -20.499
c31.333 -6 57.333 -15.333 78 -28s37.334 -27 50.001 -43s21.5 -33 26.5 -51s7.5 -35.333 7.5 -52c0 -62.667 -21.667 -110.167 -65 -142.5s-105.333 -48.5 -186 -48.5c-14.667 0 -29.167 0.5 -43.5 1.5s-29.833 2.16699 -46.5 3.5v666zM102.001 19.9971
c11.333 -1.33301 22.834 -2.33301 34.501 -3s23.5 -1 35.5 -1c71.333 0 127.666 13.333 168.999 40s62 70 62 130c0 48.667 -16.667 87 -50 115s-80 44 -140 48h-111v-329zM102.002 369.997l111.001 -0.000976562c23.333 0 45 3.83301 65 11.5s37.5 18 52.5 31
s26.667 28.333 35 46s12.5 36.834 12.5 57.501c0 50 -15.333 86.167 -46 108.5s-75.334 33.5 -134.001 33.5c-17.333 0 -33.833 -1 -49.5 -3l-46.5 -6v-279z" />
    <glyph glyph-name="C" unicode="C" horiz-adv-x="548" 
d="M513 21c-22.667 -10 -48.665 -17.835 -77.998 -23.502s-59.333 -8.5 -90 -8.5c-47.333 1.33301 -90 10 -128 26s-70.167 38.833 -96.5 68.5s-46.666 65.834 -60.999 108.501s-21.5 91.334 -21.5 146.001c0 52 7.83301 99.333 23.5 142s38 79.167 67 109.5
s64.167 53.833 105.5 70.5s87.666 25 138.999 25c24 0 47.333 -2.16699 70 -6.5s44.667 -12.166 66 -23.499l-7 -20c-20.667 9.33301 -42.334 16.333 -65.001 21s-42.667 7 -60 7c-48 0 -91.667 -7.16699 -131 -21.5s-72.833 -35.333 -100.5 -63s-49 -61.667 -64 -102
s-22.5 -86.5 -22.5 -138.5c0 -50 6.33301 -95 19 -135s31.334 -74.333 56.001 -103s54.667 -50.667 90 -66s75.666 -23 120.999 -23c30 0 59.167 2.66699 87.5 8s53.166 12.666 74.499 21.999z" />
    <glyph glyph-name="D" unicode="D" horiz-adv-x="620" 
d="M84 664c16 3.33301 32.168 6.00098 48.501 8.00098s32.166 3.5 47.499 4.5s30 1.66699 44 2s26.333 0.5 37 0.5c102 0 180.833 -28.667 236.5 -86s83.5 -141 83.5 -251c0 -56.667 -8.83301 -106.334 -26.5 -149.001s-41.5 -78.667 -71.5 -108
c-36.667 -35.333 -78.5 -59 -125.5 -71s-99.167 -18 -156.5 -18c-15.333 0 -33.333 0.333008 -54 1s-41.667 1.66699 -63 3v664zM259.001 658.001c-28 0 -54.333 -0.831055 -79 -2.49805s-49.667 -4.83398 -75 -9.50098v-625c8 -0.666992 16.833 -1.33398 26.5 -2.00098
s19 -1.16699 28 -1.5s17.167 -0.5 24.5 -0.5h17c54 0 103.333 5.5 148 16.5s84.667 33.167 120 66.5c29.333 27.333 51.833 62.5 67.5 105.5s23.5 88.5 23.5 136.5c0 105.333 -26.333 184.333 -79 237s-126.667 79 -222 79z" />
    <glyph glyph-name="E" unicode="E" horiz-adv-x="442" 
d="M407 21v-21h-323v674h307v-21h-286v-286h270v-21h-270v-325h302z" />
    <glyph glyph-name="F" unicode="F" horiz-adv-x="434" 
d="M105 359h261v-21h-261v-338h-21v674h306v-21h-285v-294z" />
    <glyph glyph-name="G" unicode="G" horiz-adv-x="595" 
d="M513 301l-166.003 -0.000976562v21h188v-297c-58 -24 -116.667 -36 -176 -36c-48 0 -91.667 8 -131 24s-73.166 39 -101.499 69s-50.166 66.333 -65.499 109s-23 91 -23 145c0 51.333 8.16699 98.5 24.5 141.5s39.333 79.833 69 110.5s65 54.5 106 71.5
s85.833 25.5 134.5 25.5c23.333 0 47.833 -2.16699 73.5 -6.5s48.5 -12.166 68.5 -23.499l-6 -19c-19.333 10 -41.333 17.167 -66 21.5s-48 6.5 -70 6.5c-36.667 0 -73.667 -6.33301 -111 -19s-71 -32.334 -101 -59.001s-54.333 -60.667 -73 -102s-28 -90.666 -28 -147.999
c0 -50 7 -95.167 21 -135.5s33.833 -74.5 59.5 -102.5s56.834 -49.5 93.501 -64.5s78 -22.5 124 -22.5c29.333 0 56.833 2.33301 82.5 7s50.167 11.667 73.5 21v262z" />
    <glyph glyph-name="H" unicode="H" horiz-adv-x="602" 
d="M84 674h21v-301h392v301h21v-674h-21v352h-392v-352h-21v674z" />
    <glyph glyph-name="I" unicode="I" horiz-adv-x="195" 
d="M87 674h21v-674h-21v674z" />
    <glyph glyph-name="J" unicode="J" horiz-adv-x="316" 
d="M14 22c7.33301 -3.33301 17.498 -6.33301 30.498 -9s24.5 -4 34.5 -4c23.333 0 45 4.83301 65 14.5s36.333 23.5 49 41.5c6.66699 10 11.834 21.833 15.501 35.5s6.33398 27.667 8.00098 42s2.66699 28.333 3 42s0.5 25.834 0.5 36.501v453h21v-453
c0 -11.333 -0.166992 -24.333 -0.5 -39s-1.5 -29.667 -3.5 -45s-5.16699 -30.333 -9.5 -45s-10.5 -28 -18.5 -40c-14 -20.667 -32.333 -36.334 -55 -47.001s-47.334 -16 -74.001 -16c-10.667 0 -22.667 1.16699 -36 3.5s-24.666 5.5 -33.999 9.5z" />
    <glyph glyph-name="K" unicode="K" horiz-adv-x="459" 
d="M84 674h21v-350h2l34 38.5l34 38.5l247 273h27l-259 -285l282 -389h-26l-270 374l-71 -77v-297h-21v674z" />
    <glyph glyph-name="L" unicode="L" horiz-adv-x="427" 
d="M409 0h-322v674h21v-653h301v-21z" />
    <glyph glyph-name="M" unicode="M" horiz-adv-x="747" 
d="M65 0l47 674h21l238 -637l241 637h24l47 -674h-21l-45 632l-240 -635h-14l-235 627l-42 -624h-21z" />
    <glyph glyph-name="N" unicode="N" horiz-adv-x="609" 
d="M84 674h13l407 -629v629h21v-674h-16l-404 624v-624h-21v674z" />
    <glyph glyph-name="O" unicode="O" horiz-adv-x="639" 
d="M321 666c-38 0 -73 -8.33301 -105 -25s-59.5 -39.5 -82.5 -68.5s-41 -63.667 -54 -104s-19.5 -83.833 -19.5 -130.5c0 -46 6 -89 18 -129s29 -74.833 51 -104.5s48.833 -53.167 80.5 -70.5s67.5 -26 107.5 -26c39.333 0 75.166 8.33301 107.499 25s60 39.667 83 69
s40.667 64 53 104s18.5 83.333 18.5 130c0 49.333 -6.16699 94.333 -18.5 135s-29.666 75.5 -51.999 104.5s-49.5 51.333 -81.5 67s-67.333 23.5 -106 23.5zM321 685c42 0 80.3359 -8.49902 115.003 -25.499s64.167 -40.667 88.5 -71s43.166 -67 56.499 -110
s20 -90.5 20 -142.5c0 -50 -6.83301 -96.167 -20.5 -138.5s-33.167 -79 -58.5 -110s-55.666 -55.167 -90.999 -72.5s-74.333 -26 -117 -26c-43.333 0 -82 9 -116 27s-62.833 42.667 -86.5 74s-41.834 68.166 -54.501 110.499s-19 88.166 -19 137.499c0 50 7 96.333 21 139
s33.667 79.334 59 110.001s55.166 54.667 89.499 72s72.166 26 113.499 26z" />
    <glyph glyph-name="P" unicode="P" horiz-adv-x="477" 
d="M84 663c17.333 5.33301 35.667 9.16797 55 11.501s38.333 3.5 57 3.5c76.667 0 134.334 -16.5 173.001 -49.5s58 -78.5 58 -136.5c0 -20.667 -3.83301 -42.834 -11.5 -66.501s-20.834 -45.5 -39.501 -65.5s-43.167 -36.5 -73.5 -49.5s-68.5 -19.5 -114.5 -19.5
c-13.333 0 -27.5 0.833008 -42.5 2.5s-28.5 4.16699 -40.5 7.5v-301h-21v663zM272.001 652.002c-22 4 -44.6699 6 -68.0029 6c-20 0 -38.667 -1 -56 -3s-31.666 -4.33301 -42.999 -7v-324c10 -4 22.833 -7 38.5 -9s31.167 -3.33301 46.5 -4c26.667 0 50.334 2.5 71.001 7.5
s38.834 11.667 54.501 20s28.667 17.833 39 28.5s18.833 21.334 25.5 32.001c17.333 28.667 26 59.667 26 93c0 37.333 -10.5 70.666 -31.5 99.999s-55.167 49.333 -102.5 60z" />
    <glyph glyph-name="Q" unicode="Q" horiz-adv-x="639" 
d="M321 685c42 0 80.333 -8.50293 115 -25.5029s64.167 -40.667 88.5 -71s43.166 -67 56.499 -110s20 -90.5 20 -142.5c0 -49.333 -7 -95.166 -21 -137.499s-34.333 -79.5 -61 -111.5c-36.667 -46.667 -84.334 -76.667 -143.001 -90l195 -47l-4 -19l-245 58h-9
c-38 0 -73.667 8.33301 -107 25s-62.666 40.334 -87.999 71.001c-26.667 32 -46.667 69.167 -60 111.5s-20 89.5 -20 141.5c0 50 7 96.333 21 139s33.667 79.334 59 110.001s55.333 54.667 90 72s72.334 26 113.001 26zM580 335.997c0 49.333 -6.16699 94.167 -18.5 134.5
s-30 74.833 -53 103.5s-50.333 50.667 -82 66s-67.167 23 -106.5 23c-38 0 -73 -8.16699 -105 -24.5s-59.5 -38.833 -82.5 -67.5s-41 -62.834 -54 -102.501s-19.5 -83.167 -19.5 -130.5c0 -48 6.16699 -92.167 18.5 -132.5s29.666 -74.833 51.999 -103.5s49 -51 80 -67
s65.167 -24 102.5 -24c40 0 76.333 8 109 24s60.834 38.333 84.501 67s42 62.834 55 102.501s19.5 83.5 19.5 131.5z" />
    <glyph glyph-name="R" unicode="R" horiz-adv-x="473" 
d="M84 664c19.333 4 39.333 7.5 60 10.5s42.334 4.5 65.001 4.5c25.333 0 50.833 -2.5 76.5 -7.5s48.667 -14 69 -27s37 -31.167 50 -54.5s19.5 -53.666 19.5 -90.999c0 -42 -12.167 -78.167 -36.5 -108.5s-56.833 -50.833 -97.5 -61.5c56 -21.333 91.333 -68.333 106 -141
l18.5 -78l12.5 -53.5c3.33301 -14.333 6.5 -25.833 9.5 -34.5s6.16699 -16 9.5 -22h-24c-2.66699 7.33301 -5.33398 15.333 -8.00098 24s-5.83398 20 -9.50098 34s-7.66699 31.167 -12 51.5s-10.166 45.5 -17.499 75.5c-10.667 45.333 -28.667 79.166 -54 101.499
s-61.333 33.5 -108 33.5h-108v-320h-21v664zM399 542c-5.33301 23.333 -14.5 42.5 -27.5 57.5s-28.333 26.833 -46 35.5s-36.667 14.667 -57 18s-40.833 5 -61.5 5c-19.333 0 -37.833 -1 -55.5 -3s-33.167 -4.33301 -46.5 -7v-307h116c26 0 50.167 3.66699 72.5 11
s41.5 17.833 57.5 31.5s28.667 30.5 38 50.5s14 43 14 69c0 14.667 -1.33301 27.667 -4 39z" />
    <glyph glyph-name="S" unicode="S" horiz-adv-x="432" 
d="M48 54c16 -13.333 37.3301 -24.334 63.9971 -33.001s52.667 -13 78 -13c24.667 0 47.5 3.83301 68.5 11.5s39.333 18.834 55 33.501s27.834 32.167 36.501 52.5s13 42.833 13 67.5c0 21.333 -3.33301 40.333 -10 57s-16.5 31.667 -29.5 45s-29.167 25.666 -48.5 36.999
s-42 22.333 -68 33c-30.667 13.333 -55.834 26.666 -75.501 39.999s-35.167 27.166 -46.5 41.499s-19.166 29 -23.499 44s-6.5 30.5 -6.5 46.5c0 24 4.66699 46.167 14 66.5s22.166 37.833 38.499 52.5s35.333 26.167 57 34.5s44.834 12.5 69.501 12.5
c17.333 0 36.166 -2.33301 56.499 -7s39.166 -12.667 56.499 -24l-7 -19c-15.333 10.667 -32.833 18.334 -52.5 23.001s-37.5 7 -53.5 7c-22 0 -42.667 -3.5 -62 -10.5s-36.166 -16.667 -50.499 -29s-25.666 -27.166 -33.999 -44.499s-12.5 -36.666 -12.5 -57.999
c0 -20.667 3.66699 -38.667 11 -54s17.333 -29.166 30 -41.499s27.667 -23.333 45 -33s36 -19.167 56 -28.5c28 -12 52.333 -24 73 -36s37.834 -25.5 51.501 -40.5s24 -31.667 31 -50s10.5 -39.5 10.5 -63.5c0 -26.667 -4.83301 -51.5 -14.5 -74.5
s-23.167 -42.667 -40.5 -59s-37.666 -29.166 -60.999 -38.499s-49 -14 -77 -14c-14.667 0 -29.5 1.16699 -44.5 3.5s-29.167 5.66602 -42.5 9.99902s-25.333 9.16602 -36 14.499s-19 11 -25 17z" />
    <glyph glyph-name="T" unicode="T" horiz-adv-x="435" 
d="M450 650h-222v-650h-21v650h-222v21h465v-21z" />
    <glyph glyph-name="U" unicode="U" horiz-adv-x="601" 
d="M105 674l0.000976562 -406.002c0 -49.333 4.83301 -90.666 14.5 -123.999s23 -60 40 -80s37.167 -34.167 60.5 -42.5s48.666 -12.5 75.999 -12.5c28 0 54.167 4.16699 78.5 12.5s45.5 22.5 63.5 42.5s32.167 46.333 42.5 79s15.5 73 15.5 121v410h21v-404
c0 -54 -5.83301 -99 -17.5 -135s-27.667 -64.833 -48 -86.5s-44 -37 -71 -46s-55.833 -13.5 -86.5 -13.5c-28.667 0 -55.667 4.33301 -81 13s-47.5 23.667 -66.5 45s-34.167 49.833 -45.5 85.5s-17 80.834 -17 135.501v406h21z" />
    <glyph glyph-name="V" unicode="V" horiz-adv-x="473" 
d="M484 674l-248 -674h-14l-222 674h24l206 -632l230 632h24z" />
    <glyph glyph-name="W" unicode="W" horiz-adv-x="791" 
d="M787 674l-204 -674h-16l-169 626l-187 -626h-16l-180 674h21l167 -624l187 624h19l166 -626l191 626h21z" />
    <glyph glyph-name="X" unicode="X" horiz-adv-x="521" 
d="M251 341l-209 333h26l193 -315l199 315h23l-208 -333l211 -341h-24l-201 320l-203 -320h-24z" />
    <glyph glyph-name="Y" unicode="Y" horiz-adv-x="473" 
d="M475 674l-225 -381v-293h-21v293l-211 381h24l198 -357l209 357h26z" />
    <glyph glyph-name="Z" unicode="Z" horiz-adv-x="515" 
d="M36 21l416 632v1h-382v20h407v-19l-415 -634v-1h421v-20h-447v21z" />
    <glyph glyph-name="bracketleft" unicode="[" horiz-adv-x="264" 
d="M100 -115v801h152v-17h-128v-767h128v-17h-152z" />
    <glyph glyph-name="backslash" unicode="\" horiz-adv-x="343" 
d="M318 -41l-308 726h25l310 -726h-27z" />
    <glyph glyph-name="bracketright" unicode="]" horiz-adv-x="264" 
d="M169 686v-801h-153v17h128v767h-128v17h153z" />
    <glyph glyph-name="asciicircum" unicode="^" horiz-adv-x="596" 
d="M495 202l-191 434l-193 -434h-26l201 447h33l201 -447h-25z" />
    <glyph glyph-name="underscore" unicode="_" horiz-adv-x="500" 
d="M501 -98v-21h-494v21h494z" />
    <glyph glyph-name="grave" unicode="`" horiz-adv-x="300" 
d="M91 677c13.333 -20.667 29.168 -43.667 47.501 -69s34.166 -48.333 47.499 -69h-20l-12.5 16l-29.5 38l-36 45.5l-32 38.5h35z" />
    <glyph glyph-name="a" unicode="a" horiz-adv-x="428" 
d="M334 0c-0.666992 6.66699 -1.49805 18 -2.49805 34s-1.5 32.667 -1.5 50c-17.333 -25.333 -32 -42.833 -44 -52.5s-24.167 -17.334 -36.5 -23.001s-24.666 -9.66699 -36.999 -12s-23.833 -3.5 -34.5 -3.5c-18.667 0 -36.334 2.33301 -53.001 7s-31.167 12.167 -43.5 22.5
s-22.166 23.5 -29.499 39.5s-11 35.333 -11 58c0 24 4.5 46.333 13.5 67s24 38.667 45 54s48.5 27.5 82.5 36.5s76 13.5 126 13.5h19v33c0 10 -1 23.333 -3 40s-7.5 33 -16.5 49s-22 29.667 -39 41s-39.833 17 -68.5 17c-40 0 -79.333 -13.333 -118 -40l-11 16
c20 15.333 41 26.5 63 33.5s43.667 10.5 65 10.5c25.333 0 46.666 -4 63.999 -12s31.666 -18 42.999 -30s20 -25.333 26 -40s10.167 -28.667 12.5 -42s3.66602 -25 3.99902 -35s0.5 -16.667 0.5 -20v-106v-34c0 -17.333 0.166992 -36.666 0.5 -57.999s1 -42.5 2 -63.5
s2.5 -37.833 4.5 -50.5h-22zM305.002 79c4 6 7.49707 11.6641 10.4971 16.9971s5.33301 12.166 7 20.499s2.83398 18.833 3.50098 31.5s1 29.334 1 50.001v72c-14.667 0.666992 -24.667 1 -30 1c-24 0 -49.667 -2 -77 -6s-52.666 -11.5 -75.999 -22.5
s-42.833 -26.333 -58.5 -46s-23.5 -45.167 -23.5 -76.5c0 -19.333 3.16699 -35.666 9.5 -48.999s14.833 -24.333 25.5 -33s23 -15 37 -19s28.667 -6 44 -6c8 0 17.167 0.833008 27.5 2.5s21 4.83398 32 9.50098s22.333 11.334 34 20.001s22.834 20 33.501 34z" />
    <glyph glyph-name="b" unicode="b" horiz-adv-x="518" 
d="M274 10c27.333 0 51.999 5.66797 73.999 17.001s40.833 27 56.5 47s27.834 43.667 36.501 71s13 57.333 13 90c0 34.667 -4.16699 66.167 -12.5 94.5s-20.333 52.666 -36 72.999s-34.834 36 -57.501 47s-48.667 16.5 -78 16.5c-26 0 -49.167 -5.33301 -69.5 -16
s-37.666 -24.334 -51.999 -41.001s-25.333 -35.167 -33 -55.5s-11.5 -40.166 -11.5 -59.499v-112c0 -21.333 3.66699 -42.333 11 -63s18.333 -39 33 -55s32.5 -29 53.5 -39s45.167 -15 72.5 -15zM102.999 95.001c0 -19.333 -0.166016 -37.165 -0.499023 -53.498
s-1.16602 -30.166 -2.49902 -41.499h-21c1.33301 11.333 2.33301 26.666 3 45.999s1.16699 38.666 1.5 57.999s0.5 36.333 0.5 51v23v531h20v-333c6 12 13.833 24.667 23.5 38s21.334 25.5 35.001 36.5s29.834 20 48.501 27s40.334 10.5 65.001 10.5
c30.667 0 58.167 -6.16699 82.5 -18.5s45.166 -29.833 62.499 -52.5s30.666 -49.334 39.999 -80.001s14 -64.667 14 -102c0 -34.667 -4.83301 -67 -14.5 -97s-23.334 -56 -41.001 -78s-38.834 -39.333 -63.501 -52s-52 -19 -82 -19c-42.667 0 -77.834 10.333 -105.501 31
s-49.5 45.667 -65.5 75z" />
    <glyph glyph-name="c" unicode="c" horiz-adv-x="428" 
d="M388 439c-15.333 9.33301 -33.001 16.5 -53.001 21.5s-41.333 7.5 -64 7.5c-26 0 -51.333 -5.16699 -76 -15.5s-46.667 -25.166 -66 -44.499s-35 -43.333 -47 -72s-18 -61.334 -18 -98.001s5.33301 -69.167 16 -97.5s24.834 -52.166 42.501 -71.499s38 -33.833 61 -43.5
s46.833 -14.5 71.5 -14.5c50.667 0 94.667 9.33301 132 28l5 -21c-19.333 -9.33301 -41 -16.333 -65 -21s-48.333 -7 -73 -7c-27.333 0 -53.666 5.16699 -78.999 15.5s-47.833 26 -67.5 47s-35.334 47 -47.001 78s-17.5 66.833 -17.5 107.5c0 40 6.5 75.5 19.5 106.5
s30.333 57.333 52 79s46.167 38 73.5 49s55 16.5 83 16.5c24 0 47.167 -2.83301 69.5 -8.5s40.5 -12.834 54.5 -21.501z" />
    <glyph glyph-name="d" unicode="d" horiz-adv-x="518" 
d="M417 0c-1.33301 11.333 -2.16309 25.665 -2.49609 42.998s-0.5 35.666 -0.5 54.999c-15.333 -32 -38 -58.167 -68 -78.5s-63.667 -30.5 -101 -30.5c-24.667 0 -49.167 5.33301 -73.5 16s-46 26.334 -65 47.001s-34.333 46.5 -46 77.5s-17.5 66.5 -17.5 106.5
c0 36 5.33301 69.333 16 100s25.167 57.167 43.5 79.5s40.166 40 65.499 53s52.666 19.5 81.999 19.5c37.333 0 70.166 -9.33301 98.499 -28s50.166 -42 65.499 -70v319h20v-531v-23c0 -14.667 0.166992 -31.667 0.5 -51s0.833008 -38.666 1.5 -57.999
s1.66699 -34.666 3 -45.999h-22zM245.003 9.99902c25.333 0 48.334 5.16797 69.001 15.501s38.5 23.666 53.5 39.999s26.5 35.166 34.5 56.499s12 43 12 65v127c0 18 -4 36 -12 54s-19.333 34.333 -34 49s-32 26.667 -52 36s-42 14 -66 14
c-24.667 0 -48.334 -5.16699 -71.001 -15.5s-42.667 -25.5 -60 -45.5c-18.667 -21.333 -32.5 -46.666 -41.5 -75.999s-13.5 -60.666 -13.5 -93.999c0 -32.667 4.5 -62.834 13.5 -90.501s21.5 -51.5 37.5 -71.5s35.167 -35.667 57.5 -47s46.5 -17 72.5 -17z" />
    <glyph glyph-name="e" unicode="e" horiz-adv-x="468" 
d="M394 19c-20 -10.667 -41.334 -18.3311 -64.001 -22.998s-47 -7 -73 -7c-33.333 0.666992 -63.166 7 -89.499 19s-48.666 28.667 -66.999 50s-32.5 47.166 -42.5 77.499s-15 64.5 -15 102.5c0 36 5.16699 69.333 15.5 100s24.666 57 42.999 79s40 39.333 65 52
s52.5 19.334 82.5 20.001c28 0 51.5 -5 70.5 -15s34.833 -21.667 47.5 -35c12 -12 21.667 -26 29 -42c7.33301 -14 14 -34 20 -60s9 -53 9 -81h-361v-18c0 -74.667 18.5 -131.334 55.5 -170.001s87.833 -58 152.5 -58c21.333 0 42 2.66699 62 8s38 12.666 54 21.999z
M248.999 468.003c-24 0 -46.501 -4.66699 -67.501 -14s-39.5 -22.333 -55.5 -39s-29.167 -36.667 -39.5 -60s-17.166 -49 -20.499 -77l338 -2c-2.66699 18.667 -5 34.167 -7 46.5s-4 21.5 -6 27.5c-9.33301 34 -26.333 62.167 -51 84.5s-55 33.5 -91 33.5z" />
    <glyph glyph-name="f" unicode="f" horiz-adv-x="224" 
d="M283 685c-14.667 9.33301 -31.334 14.001 -50.001 14.001c-26.667 0 -48.334 -4.83301 -65.001 -14.5s-29.667 -22.834 -39 -39.501s-15.666 -35.5 -18.999 -56.5s-5 -43.167 -5 -66.5v-46h132v-19h-132v-457h-21v457h-69v19h69v46c0 16 1.16699 35.333 3.5 58
s8.5 44.167 18.5 64.5s25 37.833 45 52.5s47.667 22 83 22c9.33301 0 18.833 -1.16699 28.5 -3.5s17.834 -5.5 24.501 -9.5z" />
    <glyph glyph-name="g" unicode="g" horiz-adv-x="515" 
d="M96 -148c18 -14 39.166 -24 63.499 -30s46.833 -9 67.5 -9c59.333 0 105.166 17.667 137.499 53s48.5 90.666 48.5 165.999v71c-16 -32 -38.5 -57.667 -67.5 -77s-61.833 -29 -98.5 -29c-30 0 -57.5 6.33301 -82.5 19s-46.5 29.834 -64.5 51.501s-32 47.167 -42 76.5
s-15 60.666 -15 93.999c0 36 5.33301 69.167 16 99.5s25.5 56.833 44.5 79.5s41.333 40.334 67 53.001s53.834 19 84.501 19c36.667 0 68.5 -9.66699 95.5 -29s47.833 -42.333 62.5 -69c0 16 0.333008 31.833 1 47.5s1.66699 28.167 3 37.5h19
c-0.666992 -12 -1.16699 -28 -1.5 -48s-0.5 -39.5 -0.5 -58.5v-49v-21.5v-267c0 -78 -18 -137.5 -54 -178.5s-87 -61.5 -153 -61.5c-22 0 -45.167 3 -69.5 9s-47.166 16.333 -68.499 31zM412.999 238l-0.000976562 77.002c0 18 -3.83301 36 -11.5 54s-18.5 34.333 -32.5 49
s-30.667 26.667 -50 36s-40.666 14 -63.999 14c-28 0 -53.667 -5.83301 -77 -17.5s-43.5 -27.667 -60.5 -48s-30.167 -44.5 -39.5 -72.5s-14 -58.667 -14 -92c0 -38 5.5 -70.667 16.5 -98s25.167 -50 42.5 -68s36.833 -31.333 58.5 -40s43.5 -13 65.5 -13
c23.333 0 45 4.5 65 13.5s37.5 21.167 52.5 36.5s26.833 33.166 35.5 53.499s13 42.166 13 65.499v50z" />
    <glyph glyph-name="h" unicode="h" horiz-adv-x="506" 
d="M99 0l-20 -0.000976562v708h20v-325c17.333 34.667 39.833 61 67.5 79s61.5 27 101.5 27c34 0 63.667 -9.16699 89 -27.5s44.333 -43.5 57 -75.5c5.33301 -16 8.83301 -32.167 10.5 -48.5s2.5 -31.833 2.5 -46.5v-291h-20v291c0 23.333 -1.16699 41.833 -3.5 55.5
s-6.16602 26.5 -11.499 38.5c-2.66699 6 -7 13.833 -13 23.5s-14 18.834 -24 27.501s-22.333 16.167 -37 22.5s-32.334 9.5 -53.001 9.5c-30 0 -55.5 -5.83301 -76.5 -17.5s-38.167 -26.167 -51.5 -43.5s-23 -35.833 -29 -55.5s-9 -37.167 -9 -52.5v-299z" />
    <glyph glyph-name="i" unicode="i" horiz-adv-x="183" 
d="M81 476v-476h21v476h-21zM113 622c0 -5.33301 -1.83203 -9.83301 -5.49902 -13.5s-8.83398 -5.5 -15.501 -5.5c-7.33301 0 -12.833 1.83301 -16.5 5.5s-5.5 8.16699 -5.5 13.5c0 13.333 7.33301 20 22 20c14 0 21 -6.66699 21 -20z" />
    <glyph glyph-name="j" unicode="j" horiz-adv-x="211" 
d="M-42 -184c31.333 0 55.998 6.33398 73.998 19.001s31.5 29 40.5 49s14.667 42 17 66s3.5 47.667 3.5 71v455h21v-455c0 -24 -1.33301 -49.167 -4 -75.5s-9.16699 -50.5 -19.5 -72.5s-25.666 -40.333 -45.999 -55s-48.166 -22.334 -83.499 -23.001zM124.998 622.001
c0 -5.33301 -1.83203 -9.83301 -5.49902 -13.5s-8.83398 -5.5 -15.501 -5.5c-7.33301 0 -12.833 1.83301 -16.5 5.5s-5.5 8.16699 -5.5 13.5c0 13.333 7.33301 20 22 20c14 0 21 -6.66699 21 -20z" />
    <glyph glyph-name="k" unicode="k" horiz-adv-x="382" 
d="M150 264l-50 -53v-211h-21v708h21v-467l230 235h28l-192 -198l222 -278h-27z" />
    <glyph glyph-name="l" unicode="l" horiz-adv-x="195" 
d="M108 708v-708h-21v708h21z" />
    <glyph glyph-name="m" unicode="m" horiz-adv-x="791" 
d="M84 304l0.000976562 33.9961c0 16 -0.166992 33 -0.5 51s-0.833008 35.167 -1.5 51.5s-1.66699 28.166 -3 35.499h22c1.33301 -10 2.16602 -23.167 2.49902 -39.5s0.5 -33.166 0.5 -50.499c12.667 29.333 32.334 53.833 59.001 73.5s56 29.5 88 29.5
c72.667 0 122 -38 148 -114c12 36.667 32.167 64.834 60.5 84.501s59.166 29.5 92.499 29.5c70.667 0 119.334 -34.333 146.001 -103c6.66699 -16 10.5 -32.167 11.5 -48.5s1.5 -31.833 1.5 -46.5v-291h-21v291c0 60.667 -13 105.334 -39 134.001s-59 43 -99 43
c-28 0 -50.5 -5.66699 -67.5 -17s-29.5 -21.666 -37.5 -30.999c-9.33301 -11.333 -16.666 -22 -21.999 -32s-9.33301 -20 -12 -30s-4.33398 -20.333 -5.00098 -31s-1 -22.667 -1 -36v-291h-21v291c0 62.667 -12.333 107.834 -37 135.501s-56.667 41.5 -96 41.5
c-26.667 0 -49.334 -5.83301 -68.001 -17.5s-34 -26 -46 -43s-20.667 -35.333 -26 -55s-8 -37.5 -8 -53.5v-299h-21v304z" />
    <glyph glyph-name="n" unicode="n" horiz-adv-x="510" 
d="M102 476c1.33301 -10 2.00195 -23.167 2.00195 -39.5v-50.5c17.333 33.333 39.833 58.833 67.5 76.5s61.167 26.5 100.5 26.5c34 0 63.667 -9.16699 89 -27.5s44.333 -43.5 57 -75.5c5.33301 -16 8.66602 -32.167 9.99902 -48.5s2 -31.833 2 -46.5v-291h-20v291
c0 23.333 -1.16699 41.833 -3.5 55.5s-6.16602 26.5 -11.499 38.5c-2.66699 6 -6.83398 13.833 -12.501 23.5s-13.5 18.834 -23.5 27.501s-22.333 16.167 -37 22.5s-32.334 9.5 -53.001 9.5c-29.333 0 -54.5 -5.83301 -75.5 -17.5s-38.167 -26.167 -51.5 -43.5
s-23 -35.833 -29 -55.5s-9 -37.167 -9 -52.5v-299h-20v304v34c0 16 -0.166992 33 -0.5 51s-0.833008 35.167 -1.5 51.5s-1.66699 28.166 -3 35.499h23z" />
    <glyph glyph-name="o" unicode="o" horiz-adv-x="509" 
d="M445 237c0 34 -4.50098 65 -13.501 93s-21.833 52.167 -38.5 72.5s-36.5 36.166 -59.5 47.499s-48.5 17 -76.5 17s-53.667 -5.83301 -77 -17.5s-43.666 -27.667 -60.999 -48s-30.833 -44.5 -40.5 -72.5s-14.5 -58.667 -14.5 -92c0 -36.667 5.16699 -69.167 15.5 -97.5
s24 -52.166 41 -71.499s36.667 -33.833 59 -43.5s45.5 -14.5 69.5 -14.5c30 0 57.167 5.66699 81.5 17s45 27.166 62 47.499s30 44.333 39 72s13.5 57.834 13.5 90.501zM256.999 488c30 0 57.8291 -6.16797 83.4961 -18.501s47.834 -29.5 66.501 -51.5
s33.167 -48.333 43.5 -79s15.5 -64.667 15.5 -102c0 -36 -5.5 -69.167 -16.5 -99.5s-26.167 -56.5 -45.5 -78.5s-42.166 -39.333 -68.499 -52s-55.166 -19 -86.499 -19s-59.666 6.5 -84.999 19.5s-47 30.833 -65 53.5s-31.833 49.167 -41.5 79.5s-14.5 62.5 -14.5 96.5
c0 36 5.5 69.167 16.5 99.5s26 56.833 45 79.5s41.5 40.334 67.5 53.001s54.333 19 85 19z" />
    <glyph glyph-name="p" unicode="p" horiz-adv-x="515" 
d="M270 -11c-42 0 -76.5 9.33398 -103.5 28.001s-48.5 43.667 -64.5 75v-290h-21v497c0 0.666992 0.166992 7.5 0.5 20.5s0.5 28.667 0.5 47s-0.166992 37.5 -0.5 57.5s-1.16602 37.333 -2.49902 52h21c1.33301 -11.333 2 -27 2 -47v-54c6 12 13.833 24.667 23.5 38
s21.167 25.5 34.5 36.5s29.333 20.167 48 27.5s40 11 64 11c30.667 0 58.334 -6.16699 83.001 -18.5s45.667 -29.833 63 -52.5s30.666 -49.334 39.999 -80.001s14 -64.667 14 -102c0 -34.667 -5 -67 -15 -97s-23.833 -56 -41.5 -78s-38.834 -39.333 -63.501 -52
s-52 -19 -82 -19zM272 10.001c27.333 0 52.001 5.66895 74.001 17.002s40.667 27 56 47s27.333 43.667 36 71s13 57.333 13 90c0 34.667 -4 66.167 -12 94.5s-19.833 52.666 -35.5 72.999s-34.834 36 -57.501 47s-48.667 16.5 -78 16.5c-25.333 0 -48 -5.33301 -68 -16
s-37.167 -24.334 -51.5 -41.001s-25.5 -35 -33.5 -55s-12.333 -39.667 -13 -59v-113c0 -21.333 3.66699 -42.333 11 -63s18.333 -39 33 -55s32.5 -29 53.5 -39s45.167 -15 72.5 -15z" />
    <glyph glyph-name="q" unicode="q" horiz-adv-x="517" 
d="M415 390l0.00195312 46.999c0 15.333 0.666992 28.333 2 39h21c-0.666992 -12 -1.33398 -28 -2.00098 -48s-1.16699 -39.5 -1.5 -58.5s-0.5 -35.333 -0.5 -49v-21.5v-497h-21v296c-16 -34 -38.833 -60.667 -68.5 -80s-62.5 -29 -98.5 -29
c-24.667 0 -49.167 5.33301 -73.5 16s-46.166 26.334 -65.499 47.001s-34.833 46.5 -46.5 77.5s-17.5 66.5 -17.5 106.5c0 36 5.33301 69.333 16 100s25.334 57.167 44.001 79.5s40.667 40 66 53s52.666 19.5 81.999 19.5c37.333 0 70.166 -9 98.499 -27
s50.166 -41.667 65.499 -71zM246.002 9.99902c26 0 49.166 5.16797 69.499 15.501s37.833 23.666 52.5 39.999s25.834 35.166 33.501 56.499s11.5 43 11.5 65v127c0 18 -3.83301 36 -11.5 54s-18.5 34.333 -32.5 49s-31 26.667 -51 36s-42.333 14 -67 14
c-25.333 0 -49.333 -5.16699 -72 -15.5s-42.667 -25.5 -60 -45.5c-18.667 -21.333 -32.5 -46.666 -41.5 -75.999s-13.5 -60.666 -13.5 -93.999c0 -32.667 4.5 -62.834 13.5 -90.501s21.5 -51.5 37.5 -71.5s35.167 -35.667 57.5 -47s46.833 -17 73.5 -17z" />
    <glyph glyph-name="r" unicode="r" horiz-adv-x="268" 
d="M255 468c-3.33301 0.666992 -6.16895 0.999023 -8.50195 0.999023h-6.5c-24.667 0 -45.5 -6.5 -62.5 -19.5s-31 -29 -42 -48s-19 -39.167 -24 -60.5s-7.5 -40.666 -7.5 -57.999v-283h-21v301v22c0 14 -0.166992 30.333 -0.5 49l-1 57
c-0.333008 19.333 -1.16602 35 -2.49902 47h21c1.33301 -11.333 2.33301 -26.5 3 -45.5s1 -36.5 1 -52.5c4.66699 14 11.167 27.667 19.5 41s18.333 25.333 30 36s24.834 19.167 39.501 25.5s31 9.5 49 9.5h13v-22z" />
    <glyph glyph-name="s" unicode="s" horiz-adv-x="344" 
d="M271 442c-11.333 8 -24.834 14.1709 -40.501 18.5039s-31.167 6.5 -46.5 6.5c-9.33301 0 -20.166 -1.5 -32.499 -4.5s-24.166 -8.33301 -35.499 -16s-21 -17.834 -29 -30.501s-12 -28.667 -12 -48c0 -26 8.33301 -47.333 25 -64s43.667 -32 81 -46c16 -6 31 -13 45 -21
s26.167 -17.5 36.5 -28.5s18.5 -23.5 24.5 -37.5s9 -30.333 9 -49c0 -12.667 -2.33301 -26.667 -7 -42s-12.834 -29.833 -24.501 -43.5s-27 -25 -46 -34s-42.5 -13.5 -70.5 -13.5c-19.333 0 -37.5 2.83301 -54.5 8.5s-33.167 13.5 -48.5 23.5l7 20
c13.333 -8.66699 28.166 -15.834 44.499 -21.501s33.5 -8.5 51.5 -8.5c24.667 0 45.167 3.66699 61.5 11s29.333 16.5 39 27.5s16.5 23 20.5 36s6 24.833 6 35.5c0 16.667 -2.5 31 -7.5 43s-12 22.5 -21 31.5s-19.833 17 -32.5 24s-26.667 13.5 -42 19.5
c-13.333 5.33301 -27 11.333 -41 18s-26.667 14.667 -38 24s-20.666 21 -27.999 35s-11 31 -11 51c0 23.333 4.66699 42.666 14 57.999s20.833 27.666 34.5 36.999s28 16 43 20s27.833 6 38.5 6c36 0 67.333 -8.66699 94 -26z" />
    <glyph glyph-name="t" unicode="t" horiz-adv-x="287" 
d="M255 3c-22 -8 -42.001 -12 -60.001 -12c-23.333 0 -41.333 4.83301 -54 14.5s-22 22.334 -28 38.001s-9.66699 33.667 -11 54s-2 40.833 -2 61.5v298h-82v21h82v91l21 7v-98h140v-21h-140v-298c0 -20 0.333008 -39 1 -57s3.33398 -33.833 8.00098 -47.5
s12.167 -24.334 22.5 -32.001s24.833 -11.5 43.5 -11.5c16 0 33.333 3.66699 52 11z" />
    <glyph glyph-name="u" unicode="u" horiz-adv-x="502" 
d="M402 0c-1.33301 10.667 -1.99902 24.4961 -1.99902 41.4961v51.5c-10.667 -21.333 -25.667 -40.666 -45 -57.999c-10 -9.33301 -24.833 -19 -44.5 -29s-42.834 -15 -69.501 -15c-50.667 0 -90.167 16.833 -118.5 50.5s-42.5 82.834 -42.5 147.501v289h21v-289
c0 -59.333 12.5 -103.666 37.5 -132.999s59.167 -44 102.5 -44c24.667 0 45.334 4.5 62.001 13.5s29.667 17.5 39 25.5c18.667 16 32.667 34.833 42 56.5s14.666 44.834 15.999 69.501v301h21v-66v-235v-79v-55c0 -18 0.666992 -32.333 2 -43h-21z" />
    <glyph glyph-name="v" unicode="v" horiz-adv-x="423" 
d="M201 0l-184 476h23l171 -441l176 441h24l-189 -476h-21z" />
    <glyph glyph-name="w" unicode="w" horiz-adv-x="695" 
d="M361 476l148 -437l144 437h21l-155 -476h-19l-152 446l-159 -446h-19l-145 476h21l135 -437l154 437h26z" />
    <glyph glyph-name="x" unicode="x" horiz-adv-x="394" 
d="M349 0l-156 225l-156 -225h-24l169 243l-158 233h27l145 -214l147 214h25l-162 -233l167 -243h-24z" />
    <glyph glyph-name="y" unicode="y" horiz-adv-x="410" 
d="M20 -200c11.333 4.66699 24.001 11.834 38.001 21.501s28.5 22.667 43.5 39s29.833 36.5 44.5 60.5s28.667 53 42 87l5 11l-180 457h22l169 -428l28 69l36 89l38 94.5l34 86l24.5 63c6.33301 16.333 9.5 25.166 9.5 26.499h24l-164 -410
c-7.33301 -17.333 -13 -31.166 -17 -41.499l-8 -20.5c-14 -36 -28.833 -66.833 -44.5 -92.5s-31.334 -47.334 -47.001 -65.001s-31.167 -31.667 -46.5 -42s-30 -18.5 -44 -24.5z" />
    <glyph glyph-name="z" unicode="z" horiz-adv-x="378" 
d="M36 476h330v-21l-320 -434h320v-21h-352v16l325 439h-303v21z" />
    <glyph glyph-name="braceleft" unicode="{" horiz-adv-x="264" 
d="M36 294c18.667 0.666992 33.668 3.83496 45.001 9.50195s20.166 12.667 26.499 21s10.5 17.666 12.5 27.999s3 21.166 3 32.499c0 27.333 -2.66699 53.666 -8 78.999l-2 12c-2.66699 15.333 -5 30.333 -7 45s-3 29 -3 43c0 21.333 3.5 39.666 10.5 54.999
s16.5 28 28.5 38s26 17.333 42 22s33.333 7 52 7h2v-17h-8c-38.667 -1.33301 -65.667 -11 -81 -29s-23 -44.667 -23 -80c0 -12.667 0.833008 -24.334 2.5 -35.001s3.16699 -21.334 4.5 -32.001l4 -31c1.33301 -11.333 2.83301 -22.666 4.5 -33.999s2.5 -22.666 2.5 -33.999
c0 -31.333 -5.83301 -55.833 -17.5 -73.5s-33.5 -29.167 -65.5 -34.5c30 -5.33301 51.333 -16.5 64 -33.5s19 -41.5 19 -73.5c0 -10 -0.833008 -20.667 -2.5 -32s-3.16699 -22.666 -4.5 -33.999c-2 -21.333 -4.33301 -39.666 -7 -54.999s-4 -30.666 -4 -45.999
c0 -71.333 34.667 -108 104 -110h8v-17h-2c-18 0 -35.167 2.33301 -51.5 7s-30.5 12 -42.5 22s-21.5 23.167 -28.5 39.5s-10.5 36.5 -10.5 60.5c0 30 3.33301 59 10 87s10 57 10 87c0 9.33301 -1.16699 19.166 -3.5 29.499s-6.83301 19.833 -13.5 28.5s-15.5 16 -26.5 22
s-25.5 9.33301 -43.5 10v16z" />
    <glyph glyph-name="bar" unicode="|" horiz-adv-x="210" 
d="M118 752v-1010h-23v1010h23z" />
    <glyph glyph-name="braceright" unicode="}" horiz-adv-x="264" 
d="M232 278c-18 -0.666992 -32.498 -4 -43.498 -10s-19.833 -13.333 -26.5 -22s-11.167 -18.167 -13.5 -28.5s-3.5 -20.166 -3.5 -29.499c0 -15.333 0.833008 -30.666 2.5 -45.999s3.83398 -30 6.50098 -44l2 -12c2 -12 3.66699 -24.167 5 -36.5s2 -24.5 2 -36.5
c0 -25.333 -3.33301 -46.166 -10 -62.499s-15.834 -29.333 -27.501 -39s-25.667 -16.5 -42 -20.5s-33.833 -6 -52.5 -6l-1 17h7c36 2 62.167 11.5 78.5 28.5s24.5 43.5 24.5 79.5c0 12.667 -0.833008 24.834 -2.5 36.501s-3.16699 23.167 -4.5 34.5l-4 30
c-1.33301 11.333 -2.83301 22.666 -4.5 33.999s-2.5 22 -2.5 32c0 30 5.83301 54.833 17.5 74.5s31.167 31.167 58.5 34.5c-28 7.33301 -47.333 19.5 -58 36.5s-16 40.833 -16 71.5c0 11.333 0.833008 22.666 2.5 33.999s3.16699 22.666 4.5 33.999
c2 20 4.33301 37.5 7 52.5s4 30.167 4 45.5c0 35.333 -8 62 -24 80s-43 27.667 -81 29h-7l1 17c19.333 0 37.166 -2 53.499 -6s30.5 -10.833 42.5 -20.5s21.333 -22.334 28 -38.001s10 -34.834 10 -57.501c0 -29.333 -3.33301 -58.5 -10 -87.5s-10 -59.5 -10 -91.5
c0 -11.333 1 -22.166 3 -32.499s6.16699 -19.666 12.5 -27.999s15.166 -15.333 26.499 -21s26.333 -8.83398 45 -9.50098v-16z" />
    <glyph glyph-name="asciitilde" unicode="~" horiz-adv-x="596" 
d="M61 229c0 34 9.33203 60.998 27.999 80.998s42.334 30 71.001 30c26.667 0 52 -4.66699 76 -14s47.667 -19.666 71 -30.999s46.833 -21.666 70.5 -30.999s48.5 -14 74.5 -14c24 0 42 8.16699 54 24.5s18.667 37.833 20 64.5h18c0 -19.333 -2.83301 -36 -8.5 -50
s-13 -25.5 -22 -34.5s-19.167 -15.667 -30.5 -20s-23 -6.5 -35 -6.5c-26.667 0 -52 4.66699 -76 14s-47.5 19.5 -70.5 30.5s-46.333 21.167 -70 30.5s-48.167 14 -73.5 14c-50 0 -76 -29.333 -78 -88h-19z" />
    <glyph glyph-name="uni00A0.nbspace" unicode="&#xa0;" horiz-adv-x="214" 
 />
    <glyph glyph-name="exclamdown" unicode="&#xa1;" horiz-adv-x="206" 
d="M113 297l7 -493h-34l7 493h20zM104 467c7.33301 0 13.167 -2.33301 17.5 -7s6.5 -11.667 6.5 -21s-2.33301 -16.333 -7 -21s-10.667 -7 -18 -7c-16 0 -24 9.33301 -24 28s8.33301 28 25 28z" />
    <glyph glyph-name="cent" unicode="&#xa2;" horiz-adv-x="479" 
d="M271 -16l-0.00390625 106.001c-35.333 3.33301 -64 10.166 -86 20.499s-41.667 24.833 -59 43.5c-17.333 17.333 -30.833 40.166 -40.5 68.499s-14.5 62.5 -14.5 102.5c0 32.667 4.83301 62.834 14.5 90.501s23.334 52 41.001 73s38.834 38.333 63.501 52
s51.667 22.5 81 26.5v105h20v-105c25.333 0 47.833 -2.5 67.5 -7.5s35.167 -10.5 46.5 -16.5l-9 -19c-11.333 6 -26.5 11 -45.5 15s-40.167 6 -63.5 6c-29.333 0 -55.833 -6 -79.5 -18s-43.834 -28.167 -60.501 -48.5s-29.5 -43.833 -38.5 -70.5
s-13.5 -54.334 -13.5 -83.001c0 -34.667 4.66699 -65.167 14 -91.5s22.333 -48.5 39 -66.5s36.334 -31.5 59.001 -40.5s47.667 -13.5 75 -13.5c28.667 0 52.334 2.5 71.001 7.5s34.334 10.167 47.001 15.5l5 -19c-9.33301 -5.33301 -23.833 -10.666 -43.5 -15.999
s-43.167 -9 -70.5 -11v-106h-20z" />
    <glyph glyph-name="sterling" unicode="&#xa3;" horiz-adv-x="479" 
d="M64 0l-0.000976562 13.002c40 22 69.833 51 89.5 87s29.5 75.333 29.5 118c0 17.333 -0.666992 33.666 -2 48.999s-3.66602 33.333 -6.99902 54h-106v19h106c-4.66699 21.333 -8.5 44.333 -11.5 69s-4.5 47.667 -4.5 69c0 28 4.16699 53.167 12.5 75.5
s19.833 41.5 34.5 57.5s32 28.167 52 36.5s41.333 12.5 64 12.5c21.333 0 39.666 -1.66699 54.999 -5s28 -7.66602 38 -12.999l-10 -21c-9.33301 5.33301 -21.5 9.83301 -36.5 13.5s-32.167 5.5 -51.5 5.5c-45.333 0 -78.5 -14.833 -99.5 -44.5s-31.5 -67.5 -31.5 -113.5
c0 -28 1.5 -53.333 4.5 -76s6.5 -44.667 10.5 -66h147v-19h-144c0 -2.66699 0.166992 -7 0.5 -13s0.5 -10.333 0.5 -13c1.33301 -11.333 2.33301 -22.833 3 -34.5s1 -22.834 1 -33.501c0 -41.333 -7.83301 -79.333 -23.5 -114s-38.167 -64.334 -67.5 -89.001
c52 0 105.833 -0.333008 161.5 -1s109.834 -1 162.501 -1v-22h-377z" />
    <glyph glyph-name="currency" unicode="&#xa4;" horiz-adv-x="479" 
d="M102 408c6 38 15.6709 72.5 29.0039 103.5s29.833 57.5 49.5 79.5s42.667 39 69 51s55.5 18 87.5 18c28 0 51.833 -2.83301 71.5 -8.5s34.167 -11.167 43.5 -16.5c-2 -5.33301 -3.33301 -9.5 -4 -12.5s-1.66699 -6.16699 -3 -9.5c-14.667 8.66699 -31.334 15 -50.001 19
s-38 6 -58 6c-56.667 0 -103 -19.667 -139 -59s-60.667 -96.333 -74 -171h269l-7 -24h-264c-1.33301 -13.333 -2.16602 -24.666 -2.49902 -33.999s-0.5 -19.666 -0.5 -30.999v-16c0 -4.66699 0.666992 -13.334 2 -26.001h240l-7 -23h-233
c11.333 -77.333 34.166 -137 68.499 -179s79.833 -63 136.5 -63c17.333 0 35.166 2.83301 53.499 8.5s35.166 12.5 50.499 20.5l7 -21c-13.333 -9.33301 -30 -16.833 -50 -22.5s-42.333 -8.5 -67 -8.5c-26.667 0 -52.167 5.16699 -76.5 15.5s-46.333 26.166 -66 47.499
s-36.5 48.833 -50.5 82.5s-23.667 73.5 -29 119.5h-65l4 23h60c-1.33301 12.667 -2 21.5 -2 26.5v16.5c0 11.333 0.166992 21.5 0.5 30.5s1.16602 20.167 2.49902 33.5h-66l6 24h64z" />
    <glyph glyph-name="yen" unicode="&#xa5;" horiz-adv-x="479" 
d="M226 0v191.999h-160v16h160v101h-160v17h146l-86.5 161l-86.5 162h27l123 -234l25 -44.5c8 -14.333 15 -29.166 21 -44.499h3c8 14.667 17 30.167 27 46.5l27 45.5l127 231h27l-186 -323h146v-17h-160v-101h160v-16h-160v-192h-20z" />
    <glyph glyph-name="brokenbar" unicode="&#xa6;" horiz-adv-x="210" 
d="M118 170v-340h-20v340h20zM118 675v-340h-20v340h20z" />
    <glyph glyph-name="section" unicode="&#xa7;" horiz-adv-x="486" 
d="M97 357c0 -11.333 1.99902 -22.168 5.99902 -32.501s10.833 -20.333 20.5 -30s22.667 -19.167 39 -28.5s36.5 -18.333 60.5 -27c26 -10 48.167 -19.167 66.5 -27.5s35.5 -17.5 51.5 -27.5c17.333 14.667 30.833 30.834 40.5 48.501s14.5 36.834 14.5 57.501
c0 25.333 -8.33301 47.5 -25 66.5s-45 36.167 -85 51.5c-21.333 7.33301 -42.166 15.166 -62.499 23.499s-39.833 18.833 -58.5 31.5c-23.333 -19.333 -40.5 -37 -51.5 -53s-16.5 -33.667 -16.5 -53zM366.999 635.998c-12 8 -26.9971 14.5049 -44.9971 19.5049
s-39 7.5 -63 7.5c-16.667 0 -32.667 -2.33301 -48 -7s-29 -11.334 -41 -20.001s-21.5 -19.167 -28.5 -31.5s-10.5 -26.5 -10.5 -42.5c0 -24 7.16699 -43.5 21.5 -58.5s32.166 -27.833 53.499 -38.5s44.5 -20.5 69.5 -29.5s48.167 -19.333 69.5 -31
s39.166 -26.167 53.499 -43.5s21.5 -39.333 21.5 -66c0 -25.333 -5.66699 -48 -17 -68s-27.666 -39 -48.999 -57c9.33301 -8.66699 18.333 -20.834 27 -36.501s13 -33.167 13 -52.5c0 -44 -15.5 -77.833 -46.5 -101.5s-70.5 -35.5 -118.5 -35.5
c-27.333 0 -51.833 3.16699 -73.5 9.5s-39.5 14.166 -53.5 23.499l11 20c11.333 -9.33301 27.166 -17 47.499 -23s44.833 -9 73.5 -9c16.667 0 33.167 2.33301 49.5 7s31 11.5 44 20.5s23.333 20.333 31 34s11.5 29.5 11.5 47.5c0 27.333 -7.33301 49.333 -22 66
s-33 30.667 -55 42s-45.667 21.5 -71 30.5s-49 19.333 -71 31s-40.333 26 -55 43s-22 39.5 -22 67.5c0 16.667 5.16699 35.5 15.5 56.5s30.166 42.833 59.499 65.5c-13.333 9.33301 -23.5 20.666 -30.5 33.999s-10.833 27.666 -11.5 42.999c-1.33301 40 12 71.333 40 94
s65 34 111 34c26 0 49.333 -2.5 70 -7.5s37.667 -11.833 51 -20.5z" />
    <glyph glyph-name="dieresis" unicode="&#xa8;" horiz-adv-x="300" 
d="M45 617c0 6 2 11 6 15s8.66699 6 14 6s10 -2 14 -6s6 -9 6 -15c0 -5.33301 -2 -10 -6 -14s-8.66699 -6 -14 -6s-10 2 -14 6s-6 8.66699 -6 14zM223 617c0 6 2 11 6 15s8.66699 6 14 6s10 -2 14 -6s6 -9 6 -15c0 -5.33301 -2 -10 -6 -14s-8.66699 -6 -14 -6s-10 2 -14 6
s-6 8.66699 -6 14z" />
    <glyph glyph-name="copyright" unicode="&#xa9;" horiz-adv-x="677" 
d="M340 648c42 0 81.332 -7.99805 117.999 -23.998s68.5 -37.833 95.5 -65.5s48.167 -60.334 63.5 -98.001s23 -77.834 23 -120.501c0 -43.333 -7.66699 -83.833 -23 -121.5s-36.166 -70.5 -62.499 -98.5s-57.666 -50 -93.999 -66s-75.5 -24 -117.5 -24s-81.333 8 -118 24
s-68.334 38 -95.001 66s-47.667 60.833 -63 98.5s-23 78.167 -23 121.5c0 42.667 7.5 82.667 22.5 120s35.833 70 62.5 98s58 50 94 66s75 24 117 24zM462.999 476.002c-8.66699 4 -20.8369 8.32617 -36.5039 12.9932s-35.167 7 -58.5 7c-27.333 0 -51 -4.33301 -71 -13
s-36.667 -20.167 -50 -34.5s-23.166 -31.166 -29.499 -50.499s-9.5 -39.666 -9.5 -60.999c0 -22 3.33301 -42.667 10 -62s16.834 -36.333 30.501 -51s30.5 -26.167 50.5 -34.5s43.667 -12.5 71 -12.5c42.667 0 76.667 7.33301 102 22
c1.33301 -3.33301 2 -6.16602 2 -8.49902s0.666992 -5.16602 2 -8.49902c-17.333 -10 -36.166 -16.833 -56.499 -20.5s-40.166 -5.5 -59.499 -5.5c-28 0 -53 4.5 -75 13.5s-40.5 21.5 -55.5 37.5s-26.5 34.833 -34.5 56.5s-12 45.167 -12 70.5c0 28 5 53.333 15 76
s23.5 41.834 40.5 57.501s36.667 27.834 59 36.501s45.5 13 69.5 13c23.333 0 44 -2.16699 62 -6.5s32 -9.16602 42 -14.499zM339.996 626.995c-38 0.666992 -73.4971 -6.49902 -106.497 -21.499s-61.667 -35.667 -86 -62s-43.5 -57.333 -57.5 -93s-21 -73.834 -21 -114.501
c0 -40 7 -77.5 21 -112.5s33.333 -65.167 58 -90.5s53.667 -45.333 87 -60s69.666 -22 108.999 -22c38 -0.666992 73.5 6.16602 106.5 20.499s61.667 34.5 86 60.5s43.5 56.833 57.5 92.5s21 74.167 21 115.5c0 40.667 -7 78.5 -21 113.5s-33.333 65.333 -58 91
s-53.834 45.834 -87.501 60.501s-69.834 22 -108.501 22z" />
    <glyph glyph-name="ordfeminine" unicode="&#xaa;" horiz-adv-x="321" 
d="M253 273l-6.99805 54.0029c-8.66699 -14 -22.834 -27.333 -42.501 -40s-40.5 -19 -62.5 -19c-29.333 0 -52.666 8.5 -69.999 25.5s-26 37.167 -26 60.5c0 32.667 16 59.167 48 79.5s79.667 29.166 143 26.499h12v17c0 8 -1.16699 17.333 -3.5 28s-6.83301 21 -13.5 31
s-16.167 18.333 -28.5 25s-28.5 10 -48.5 10c-14.667 0 -28.667 -2 -42 -6s-24.666 -9.66699 -33.999 -17l-8 14c13.333 9.33301 27.166 16 41.499 20s28.833 6 43.5 6c21.333 0 39 -3.33301 53 -10s25.167 -15.834 33.5 -27.501s14.166 -25.334 17.499 -41.001
s5 -32.5 5 -50.5l1 -116c0 -12 0.166992 -24.5 0.5 -37.5s1.16602 -24.167 2.49902 -33.5zM248.002 443.003h-8.99805c-18.667 0.666992 -38.334 0.166992 -59.001 -1.5s-39.5 -5.66699 -56.5 -12s-31.167 -15.333 -42.5 -27s-17 -27.167 -17 -46.5
c0 -23.333 8 -40.833 24 -52.5s34.667 -17.5 56 -17.5c19.333 0 36.666 4.83301 51.999 14.5s27.333 20.167 36 31.5c10.667 13.333 16 24.333 16 33v78z" />
    <glyph glyph-name="guillemotleft" unicode="&#xab;" horiz-adv-x="388" 
d="M65 249l137 -174h-25l-136 174l69 87.5l67 86.5h25zM214 249l138 -174h-26l-135 174l135 174h24z" />
    <glyph glyph-name="logicalnot" unicode="&#xac;" horiz-adv-x="596" 
d="M558 376v-242h-24v221h-487v21h511z" />
    <glyph glyph-name="uni00AD" unicode="&#xad;" horiz-adv-x="596" 
d="M558 278v-25h-512v25h512z" />
    <glyph glyph-name="registered" unicode="&#xae;" horiz-adv-x="510" 
d="M256 682c30 0 58.332 -5.5 84.999 -16.5s50 -26.333 70 -46s35.667 -43.167 47 -70.5s17 -57.333 17 -90c0 -31.333 -5.66699 -60.666 -17 -87.999s-26.666 -51 -45.999 -71s-42.166 -35.833 -68.499 -47.5s-54.833 -17.5 -85.5 -17.5s-59.167 5.83301 -85.5 17.5
s-49.333 27.5 -69 47.5s-35.167 43.667 -46.5 71s-17 56.666 -17 87.999c0 30.667 5.5 59.667 16.5 87s26.167 51 45.5 71s42.166 35.833 68.499 47.5s54.833 17.5 85.5 17.5zM256.999 662c-26.667 0 -51.833 -5.33105 -75.5 -15.998s-44.334 -25.167 -62.001 -43.5
s-31.667 -39.833 -42 -64.5s-15.5 -51 -15.5 -79s5.16699 -54.333 15.5 -79s24.5 -46.334 42.5 -65.001s39 -33.334 63 -44.001s49.667 -16 77 -16c26 0 50.833 5.33301 74.5 16s44.334 25.167 62.001 43.5s31.667 39.833 42 64.5s15.5 51 15.5 79s-5.16699 54.5 -15.5 79.5
s-24.333 46.667 -42 65s-38.5 32.833 -62.5 43.5s-49.667 16 -77 16zM207 331.002l-24.001 0.00195312l1 246c10.667 2.66699 21.834 4.33398 33.501 5.00098s21.167 1 28.5 1c12 0 23.5 -1.33301 34.5 -4s20.833 -6.66699 29.5 -12s15.667 -12.5 21 -21.5
s8 -19.833 8 -32.5c0 -16.667 -5 -29.5 -15 -38.5s-23.333 -16.167 -40 -21.5c15.333 -4 26.5 -11.333 33.5 -22s11.833 -24.667 14.5 -42c4 -18.667 7 -31.834 9 -39.501s4 -13.834 6 -18.501h-23c-2.66699 4 -5.33398 11.833 -8.00098 23.5s-5.33398 24.5 -8.00098 38.5
c-3.33301 17.333 -10.166 29.666 -20.499 36.999s-25.166 11 -44.499 11h-36v-110zM206.999 459.004l37.001 0.000976562c19.333 0 36.166 3.83301 50.499 11.5s21.5 21.167 21.5 40.5c0 13.333 -5.16699 25.666 -15.5 36.999s-29.833 17 -58.5 17
c-8 0 -14.667 -0.166992 -20 -0.5s-10.333 -0.833008 -15 -1.5v-104z" />
    <glyph glyph-name="macron" unicode="&#xaf;" horiz-adv-x="300" 
d="M249 621v-18h-194v18h194z" />
    <glyph glyph-name="degree" unicode="&#xb0;" horiz-adv-x="293" 
d="M155 686c18 0 34.002 -3.16895 48.002 -9.50195s25.833 -14.666 35.5 -24.999s17 -22.5 22 -36.5s7.5 -28.333 7.5 -43c0 -18 -3.33301 -34.333 -10 -49s-15.5 -27.167 -26.5 -37.5s-23.5 -18.333 -37.5 -24s-28.333 -8.5 -43 -8.5c-16.667 0 -31.834 3 -45.501 9
s-25.5 14.167 -35.5 24.5s-17.667 22.333 -23 36s-8 28.167 -8 43.5c0 17.333 3 33.333 9 48s14.167 27.334 24.5 38.001s22.666 19 36.999 25s29.5 9 45.5 9zM151.002 670.998c-16 0 -29.998 -3.16797 -41.998 -9.50098s-21.833 -14.5 -29.5 -24.5
s-13.5 -21.167 -17.5 -33.5s-6 -24.5 -6 -36.5c0 -28.667 9.16699 -52.167 27.5 -70.5s41.166 -27.5 68.499 -27.5c28 0 51.5 9.33301 70.5 28s28.5 43 28.5 73c0 10.667 -1.66699 21.834 -5 33.501s-9 22.5 -17 32.5s-18.333 18.333 -31 25s-28.334 10 -47.001 10z" />
    <glyph glyph-name="plusminus" unicode="&#xb1;" horiz-adv-x="596" 
d="M312 565v-216h246v-18h-246v-224h-20v224h-243v18h243v216h20zM558 17v-17h-509v17h509z" />
    <glyph glyph-name="twosuperior" unicode="&#xb2;" horiz-adv-x="330" 
d="M61 291l56 53.0059c43.333 42 77.5 79.333 102.5 112s37.5 64 37.5 94c0 25.333 -7.16699 46.666 -21.5 63.999s-39.5 26 -75.5 26c-17.333 0 -32.166 -3 -44.499 -9s-23.166 -12.333 -32.499 -19l-9 14c10.667 9.33301 23.334 17.166 38.001 23.499s31.667 9.5 51 9.5
c20 0 37.333 -3.16699 52 -9.5s26.667 -14.5 36 -24.5s16.166 -20.833 20.499 -32.5s6.5 -22.834 6.5 -33.501c0 -18.667 -3.16699 -36.834 -9.5 -54.501s-15.333 -35.334 -27 -53.001s-25.834 -35.334 -42.501 -53.001s-35.334 -36.167 -56.001 -55.5l-51 -49h193v-20h-224
v17z" />
    <glyph glyph-name="threesuperior" unicode="&#xb3;" horiz-adv-x="316" 
d="M74 636c10 6 22.5029 11.5 37.5029 16.5s31.167 7.5 48.5 7.5c34.667 0 59.834 -8.66699 75.501 -26s23.5 -36.333 23.5 -57c0 -22 -7 -42.333 -21 -61s-37 -30.667 -69 -36c36 -3.33301 63 -14.333 81 -33s27 -41.667 27 -69c0 -13.333 -2.83301 -26.5 -8.5 -39.5
s-14.334 -24.667 -26.001 -35s-26 -18.666 -43 -24.999s-36.5 -9.5 -58.5 -9.5c-18 0 -34.833 2 -50.5 6s-28.5 9 -38.5 15l6 14c10 -5.33301 21.667 -9.83301 35 -13.5s28.666 -5.5 45.999 -5.5c20.667 0 38.5 2.83301 53.5 8.5s27.333 13 37 22s16.667 19 21 30
s6.5 21.5 6.5 31.5c0 17.333 -4 32 -12 44s-18.333 21.667 -31 29s-27 12.666 -43 15.999s-32 5 -48 5h-11v17h13c10.667 0 22.667 1.5 36 4.5s26 8 38 15s22 16 30 27s12 24.5 12 40.5c0 8.66699 -1.66699 17 -5 25s-8.33301 15.167 -15 21.5s-15.334 11.5 -26.001 15.5
s-23.334 6 -38.001 6c-15.333 0 -30 -2 -44 -6s-25.333 -8.66699 -34 -14z" />
    <glyph glyph-name="acute" unicode="&#xb4;" horiz-adv-x="300" 
d="M250 677c-19.333 -21.333 -38.167 -44.168 -56.5 -68.501s-36.833 -47.166 -55.5 -68.499h-19l94 137h37z" />
    <glyph glyph-name="uni00B5" unicode="&#xb5;" horiz-adv-x="519" 
d="M444 113c0 -20 0.168945 -39.666 0.501953 -58.999s1.16602 -37.333 2.49902 -54h-28l-4 95c-16 -34 -37.833 -60.167 -65.5 -78.5s-62.834 -27.5 -105.501 -27.5c-6.66699 0 -15.167 0.5 -25.5 1.5s-21 3.66699 -32 8s-21.833 10.666 -32.5 18.999
s-19.667 19.833 -27 34.5l-11 16c0 -42 -0.333008 -87.5 -1 -136.5s-1 -94.5 -1 -136.5h-33v685h33v-284c0 -22.667 2.16699 -45 6.5 -67s12 -41.5 23 -58.5s25.333 -30.667 43 -41s40.167 -15.5 67.5 -15.5c22 0 42.5 4.66699 61.5 14s35.5 21.333 49.5 36
s25 31.167 33 49.5s12 36.5 12 54.5v312h34v-367z" />
    <glyph glyph-name="paragraph" unicode="&#xb6;" horiz-adv-x="486" 
d="M256 -53l-0.000976562 325.999h-18c-22 0 -44.5 3.83301 -67.5 11.5s-43.833 19.334 -62.5 35.001s-34 35.167 -46 58.5s-18.333 50.666 -19 81.999c-0.666992 26 3 51.667 11 77s21.833 48.333 41.5 69s46.334 37.334 80.001 50.001s75.5 19 125.5 19
c20 0 37.333 -0.5 52 -1.5s27.667 -2.16699 39 -3.5v-723h-21v708h-93v-708h-22z" />
    <glyph glyph-name="periodcentered" unicode="&#xb7;" horiz-adv-x="173" 
d="M87 237c-9.33301 0 -16.833 3.49902 -22.5 10.499s-8.5 15.5 -8.5 25.5s3 18.5 9 25.5s13.667 10.5 23 10.5s16.833 -3.5 22.5 -10.5s8.5 -15.5 8.5 -25.5c0 -11.333 -3 -20.166 -9 -26.499s-13.667 -9.5 -23 -9.5z" />
    <glyph glyph-name="cedilla" unicode="&#xb8;" horiz-adv-x="300" 
d="M176 2l-31.999 -55.002c18 -3.33301 32.667 -11.166 44 -23.499s17 -26.166 17 -41.499c0 -24.667 -7.83301 -41.667 -23.5 -51s-35.167 -14 -58.5 -14c-16.667 0 -33.334 3.66699 -50.001 11l6 19c7.33301 -3.33301 14.833 -5.83301 22.5 -7.5s16.167 -2.5 25.5 -2.5
c14.667 0 27.5 3 38.5 9s16.5 17.667 16.5 35c-1.33301 17.333 -8 29.5 -20 36.5s-28.333 12.167 -49 15.5l39 69h24z" />
    <glyph glyph-name="onesuperior" unicode="&#xb9;" horiz-adv-x="288" 
d="M159 274l0.00195312 368.002l-75 -37l-4 12c13.333 7.33301 25.666 13.666 36.999 18.999s23.666 11.666 36.999 18.999h20v-381h-15z" />
    <glyph glyph-name="ordmasculine" unicode="&#xba;" horiz-adv-x="334" 
d="M171 589c44 0 78.502 -14.835 103.502 -44.502s37.5 -68.167 37.5 -115.5c0 -28 -4.33301 -52.167 -13 -72.5s-20 -37.166 -34 -50.499s-29.5 -23.166 -46.5 -29.499s-33.5 -9.5 -49.5 -9.5c-20 0 -38.833 3.66699 -56.5 11s-32.834 17.833 -45.501 31.5
s-22.667 30.334 -30 50.001s-11 41.5 -11 65.5c0 25.333 4.16699 48.166 12.5 68.499s19.166 37.5 32.499 51.5s28.833 24.833 46.5 32.5s35.5 11.5 53.5 11.5zM170.002 569.998c-21.333 0 -39.833 -4.33398 -55.5 -13.001s-28.5 -19.834 -38.5 -33.501s-17.333 -29 -22 -46
s-7 -34.167 -7 -51.5c0 -20 3.33301 -38.667 10 -56s15.834 -32.333 27.501 -45s24.834 -22.5 39.501 -29.5s30 -10.5 46 -10.5c18 0 34.5 3.5 49.5 10.5s28 16.833 39 29.5s19.5 27.834 25.5 45.501s9 36.834 9 57.501c0 15.333 -2.16699 31.333 -6.5 48s-11.333 32 -21 46
s-22.334 25.5 -38.001 34.5s-34.834 13.5 -57.501 13.5z" />
    <glyph glyph-name="guillemotright" unicode="&#xbb;" horiz-adv-x="388" 
d="M42 423h25l136 -174l-68.5 -86.5l-67.5 -87.5h-25l137 174zM191 423h26l68 -87.5l68 -87.5l-69 -86l-67 -87h-25l136 174z" />
    <glyph glyph-name="onequarter" unicode="&#xbc;" horiz-adv-x="706" 
d="M109 -11l383 672h25l-383 -672h-25zM119 626h-2l-102 -64l-9 18l112 72h21v-384h-20v358zM579 -2v121h-209v14l227 295h2v-289h73v-20h-73v-121h-20zM579 139c0 144 0.666992 223 2 237c-12 -18 -72.333 -96.333 -181 -235v-2h179z" />
    <glyph glyph-name="onehalf" unicode="&#xbd;" horiz-adv-x="411" 
d="M109 -11l383 672h25l-383 -672h-25zM119 626h-2l-102 -64l-9 18l112 72h21v-384h-20v358zM415 22l56 53.0059c43.333 42 77.5 79.333 102.5 112s37.5 64 37.5 94c0 25.333 -7.16699 46.666 -21.5 63.999s-39.5 26 -75.5 26c-17.333 0 -32.166 -3 -44.499 -9
s-23.166 -12.333 -32.499 -19l-9 14c10.667 9.33301 23.334 17.166 38.001 23.499s31.667 9.5 51 9.5c20 0 37.333 -3.16699 52 -9.5s26.667 -14.5 36 -24.5s16.166 -20.833 20.499 -32.5s6.5 -22.834 6.5 -33.501c0 -18.667 -3.16699 -36.834 -9.5 -54.501
s-15.333 -35.334 -27 -53.001s-25.834 -35.334 -42.501 -53.001s-35.334 -36.167 -56.001 -55.5l-51 -49h193v-20h-224v17z" />
    <glyph glyph-name="threequarters" unicode="&#xbe;" horiz-adv-x="706" 
d="M109 -11l383 672h25l-383 -672h-25zM579 -2v121h-209v14l227 295h2v-289h73v-20h-73v-121h-20zM579 139c0 144 0.666992 223 2 237c-12 -18 -72.333 -96.333 -181 -235v-2h179zM74 636c10 6 22.5029 11.5 37.5029 16.5s31.167 7.5 48.5 7.5
c34.667 0 59.834 -8.66699 75.501 -26s23.5 -36.333 23.5 -57c0 -22 -7 -42.333 -21 -61s-37 -30.667 -69 -36c36 -3.33301 63 -14.333 81 -33s27 -41.667 27 -69c0 -13.333 -2.83301 -26.5 -8.5 -39.5s-14.334 -24.667 -26.001 -35s-26 -18.666 -43 -24.999
s-36.5 -9.5 -58.5 -9.5c-18 0 -34.833 2 -50.5 6s-28.5 9 -38.5 15l6 14c10 -5.33301 21.667 -9.83301 35 -13.5s28.666 -5.5 45.999 -5.5c20.667 0 38.5 2.83301 53.5 8.5s27.333 13 37 22s16.667 19 21 30s6.5 21.5 6.5 31.5c0 17.333 -4 32 -12 44s-18.333 21.667 -31 29
s-27 12.666 -43 15.999s-32 5 -48 5h-11v17h13c10.667 0 22.667 1.5 36 4.5s26 8 38 15s22 16 30 27s12 24.5 12 40.5c0 8.66699 -1.66699 17 -5 25s-8.33301 15.167 -15 21.5s-15.334 11.5 -26.001 15.5s-23.334 6 -38.001 6c-15.333 0 -30 -2 -44 -6
s-25.333 -8.66699 -34 -14z" />
    <glyph glyph-name="questiondown" unicode="&#xbf;" horiz-adv-x="375" 
d="M244 288v-3c0 -1.33301 0.166992 -2.66602 0.5 -3.99902s0.5 -2.66602 0.5 -3.99902c0.666992 -4 1.33398 -8.83301 2.00098 -14.5s1 -11.167 1 -16.5c0 -22 -5.66699 -47.167 -17 -75.5s-26.666 -55.5 -45.999 -81.5c-25.333 -32 -46 -61.167 -62 -87.5
s-24 -53.5 -24 -81.5c0 -36 10.667 -64.167 32 -84.5s52.666 -30.5 93.999 -30.5c17.333 0 34.666 2.33301 51.999 7s32.666 11 45.999 19l9 -16c-15.333 -11.333 -32.666 -19.666 -51.999 -24.999s-41 -8 -65 -8s-45 3.83301 -63 11.5s-33 17.667 -45 30
s-21 26.666 -27 42.999s-9 33.166 -9 50.499c0 30 8 58.833 24 86.5s37 57.5 63 89.5c42 52 63 102.667 63 152c0 6.66699 -0.166992 13.167 -0.5 19.5s-0.833008 11.166 -1.5 14.499c0 1.33301 -0.333008 2.83301 -1 4.5s-1 3.16699 -1 4.5h27zM231 472
c7.33301 0 13.167 -2.33301 17.5 -7s6.5 -11.667 6.5 -21s-2.33301 -16.333 -7 -21s-10.667 -7 -18 -7c-16 0 -24 9.33301 -24 28s8.33301 28 25 28z" />
    <glyph glyph-name="Agrave" unicode="&#xc0;" horiz-adv-x="558" 
d="M33 0l245 674h11l246 -674h-24l-92 251h-272l-93 -251h-21zM155 272h259l-130 354zM240 824c13.333 -20.667 29.168 -43.667 47.501 -69s34.166 -48.333 47.499 -69h-20l-12.5 16l-29.5 38l-36 45.5l-32 38.5h35z" />
    <glyph glyph-name="Aacute" unicode="&#xc1;" horiz-adv-x="574" 
d="M33 0l245 674h11l246 -674h-24l-92 251h-272l-93 -251h-21zM155 272h259l-130 354zM404 846c-19.333 -21.333 -38.167 -44.168 -56.5 -68.501s-36.833 -47.166 -55.5 -68.499h-19l94 137h37z" />
    <glyph glyph-name="Acircumflex" unicode="&#xc2;" horiz-adv-x="558" 
d="M33 0l245 674h11l246 -674h-24l-92 251h-272l-93 -251h-21zM155 272h259l-130 354zM297 814l7.5 -9l18 -22.5l22.5 -29l22.5 -29c7 -9 13 -16.333 18 -22l7.5 -8.5h-24l-84 107l-88 -107h-21l95 120h26z" />
    <glyph glyph-name="Atilde" unicode="&#xc3;" horiz-adv-x="574" 
d="M33 0l245 674h11l246 -674h-24l-92 251h-272l-93 -251h-21zM155 272h259l-130 354zM184 723c1.33301 18 6.16602 33.833 14.499 47.5s20.166 20.5 35.499 20.5c10 0 19.333 -2.16699 28 -6.5s17.167 -9 25.5 -14s16.833 -9.5 25.5 -13.5s18 -6 28 -6
c21.333 0 33 14.333 35 43h16c-1.33301 -18 -5.83301 -32.667 -13.5 -44s-20.167 -17 -37.5 -17c-10 0 -19.333 2 -28 6s-17.167 8.5 -25.5 13.5s-16.666 9.5 -24.999 13.5s-17.5 6 -27.5 6c-11.333 0 -19.166 -4.83301 -23.499 -14.5s-7.83301 -21.167 -10.5 -34.5h-17z
" />
    <glyph glyph-name="Adieresis" unicode="&#xc4;" horiz-adv-x="558" 
d="M33 0l245 674h11l246 -674h-24l-92 251h-272l-93 -251h-21zM155 272h259l-130 354zM182 775c0 6 2 11 6 15s8.66699 6 14 6s10 -2 14 -6s6 -9 6 -15c0 -5.33301 -2 -10 -6 -14s-8.66699 -6 -14 -6s-10 2 -14 6s-6 8.66699 -6 14zM360 775c0 6 2 11 6 15s8.66699 6 14 6
s10 -2 14 -6s6 -9 6 -15c0 -5.33301 -2 -10 -6 -14s-8.66699 -6 -14 -6s-10 2 -14 6s-6 8.66699 -6 14z" />
    <glyph glyph-name="Aring" unicode="&#xc5;" horiz-adv-x="558" 
d="M33 0l245 674h11l246 -674h-24l-92 251h-272l-93 -251h-21zM155 272h259l-130 354zM374 736c0 -12 -2.16992 -23 -6.50293 -33s-10.333 -18.833 -18 -26.5s-16.5 -13.667 -26.5 -18s-20.667 -6.5 -32 -6.5s-22.166 2.16699 -32.499 6.5s-19.166 10.333 -26.499 18
s-13.166 16.5 -17.499 26.5s-6.5 21 -6.5 33c0 23.333 8 43 24 59s35.667 24 59 24s43 -8 59 -24s24 -35.667 24 -59zM228.997 736c0 -18.667 6 -33.834 18 -45.501s26.667 -17.5 44 -17.5c18 0 33 5.83301 45 17.5s18 26.834 18 45.501c0 17.333 -6 32.166 -18 44.499
s-27 18.5 -45 18.5c-17.333 0 -32 -6.16699 -44 -18.5s-18 -27.166 -18 -44.499z" />
    <glyph glyph-name="AE" unicode="&#xc6;" horiz-adv-x="724" 
d="M8 0l156.999 332.999l159 341h350v-1v-19h-295l30 -290h254v-20h-249l39 -324h243v-20h-268l-33 279h-233l-66.5 -146l-37.5 -81c-8.66699 -18.667 -14.667 -31.167 -18 -37.5s-5.66602 -11.166 -6.99902 -14.499h-25zM390.999 297.999l-35 361h-17l-164 -361h216z" />
    <glyph glyph-name="Ccedilla" unicode="&#xc7;" horiz-adv-x="548" 
d="M513 21c-22.667 -10 -48.665 -17.835 -77.998 -23.502s-59.333 -8.5 -90 -8.5c-47.333 1.33301 -90 10 -128 26s-70.167 38.833 -96.5 68.5s-46.666 65.834 -60.999 108.501s-21.5 91.334 -21.5 146.001c0 52 7.83301 99.333 23.5 142s38 79.167 67 109.5
s64.167 53.833 105.5 70.5s87.666 25 138.999 25c24 0 47.333 -2.16699 70 -6.5s44.667 -12.166 66 -23.499l-7 -20c-20.667 9.33301 -42.334 16.333 -65.001 21s-42.667 7 -60 7c-48 0 -91.667 -7.16699 -131 -21.5s-72.833 -35.333 -100.5 -63s-49 -61.667 -64 -102
s-22.5 -86.5 -22.5 -138.5c0 -50 6.33301 -95 19 -135s31.334 -74.333 56.001 -103s54.667 -50.667 90 -66s75.666 -23 120.999 -23c30 0 59.167 2.66699 87.5 8s53.166 12.666 74.499 21.999zM346.002 3.99805l-31.999 -55.002c18 -3.33301 32.667 -11.166 44 -23.499
s17 -26.166 17 -41.499c0 -24.667 -7.83301 -41.667 -23.5 -51s-35.167 -14 -58.5 -14c-16.667 0 -33.334 3.66699 -50.001 11l6 19c7.33301 -3.33301 14.833 -5.83301 22.5 -7.5s16.167 -2.5 25.5 -2.5c14.667 0 27.5 3 38.5 9s16.5 17.667 16.5 35
c-1.33301 17.333 -8 29.5 -20 36.5s-28.333 12.167 -49 15.5l39 69h24z" />
    <glyph glyph-name="Egrave" unicode="&#xc8;" horiz-adv-x="456" 
d="M407 21v-21h-323v674h307v-21h-286v-286h270v-21h-270v-325h302zM188 847c13.333 -20.667 29.168 -43.667 47.501 -69s34.166 -48.333 47.499 -69h-20l-12.5 16l-29.5 38l-36 45.5l-32 38.5h35z" />
    <glyph glyph-name="Eacute" unicode="&#xc9;" horiz-adv-x="442" 
d="M407 21v-21h-323v674h307v-21h-286v-286h270v-21h-270v-325h302zM346 846c-19.333 -21.333 -38.167 -44.168 -56.5 -68.501s-36.833 -47.166 -55.5 -68.499h-19l94 137h37z" />
    <glyph glyph-name="Ecircumflex" unicode="&#xca;" horiz-adv-x="456" 
d="M256 831l7.5 -9l18 -22.5l22.5 -29l22.5 -29c7 -9 13 -16.333 18 -22l7.5 -8.5h-24l-84 107l-88 -107h-21l95 120h26zM407 21v-21h-323v674h307v-21h-286v-286h270v-21h-270v-325h302z" />
    <glyph glyph-name="Edieresis" unicode="&#xcb;" horiz-adv-x="442" 
d="M407 21v-21h-323v674h307v-21h-286v-286h270v-21h-270v-325h302zM138 764c0 6 2 11 6 15s8.66699 6 14 6s10 -2 14 -6s6 -9 6 -15c0 -5.33301 -2 -10 -6 -14s-8.66699 -6 -14 -6s-10 2 -14 6s-6 8.66699 -6 14zM316 764c0 6 2 11 6 15s8.66699 6 14 6s10 -2 14 -6
s6 -9 6 -15c0 -5.33301 -2 -10 -6 -14s-8.66699 -6 -14 -6s-10 2 -14 6s-6 8.66699 -6 14z" />
    <glyph glyph-name="Igrave" unicode="&#xcc;" horiz-adv-x="208" 
d="M109.142 673.991v-673.991h-22v673.991h22zM26 847c13.333 -20.667 29.168 -43.667 47.501 -69s34.166 -48.333 47.499 -69h-20l-12.5 16l-29.5 38l-36 45.5l-32 38.5h35z" />
    <glyph glyph-name="Iacute" unicode="&#xcd;" horiz-adv-x="208" 
d="M215 846c-19.333 -21.333 -38.167 -44.168 -56.5 -68.501s-36.833 -47.166 -55.5 -68.499h-19l94 137h37zM109.141 673.989v-673.991h-22v673.991h22z" />
    <glyph glyph-name="Icircumflex" unicode="&#xce;" horiz-adv-x="208" 
d="M109.142 673.991v-673.991h-22v673.991h22zM113 831l7.5 -9l18 -22.5l22.5 -29l22.5 -29c7 -9 13 -16.333 18 -22l7.5 -8.5h-24l-84 107l-88 -107h-21l95 120h26z" />
    <glyph glyph-name="Idieresis" unicode="&#xcf;" horiz-adv-x="208" 
d="M109.142 673.991v-673.991h-22v673.991h22zM-10 764c0 6 2 11 6 15s8.66699 6 14 6s10 -2 14 -6s6 -9 6 -15c0 -5.33301 -2 -10 -6 -14s-8.66699 -6 -14 -6s-10 2 -14 6s-6 8.66699 -6 14zM168 764c0 6 2 11 6 15s8.66699 6 14 6s10 -2 14 -6s6 -9 6 -15
c0 -5.33301 -2 -10 -6 -14s-8.66699 -6 -14 -6s-10 2 -14 6s-6 8.66699 -6 14z" />
    <glyph glyph-name="Eth" unicode="&#xd0;" horiz-adv-x="636" 
d="M-4 353l88.001 0.000976562v311c16 3.33301 32.167 6 48.5 8s32.166 3.5 47.499 4.5s30 1.66699 44 2s26.333 0.5 37 0.5c102 0 180.833 -28.667 236.5 -86s83.5 -141 83.5 -251c0 -56.667 -8.83301 -106.334 -26.5 -149.001s-41.5 -78.667 -71.5 -108
c-36.667 -35.333 -78.5 -59 -125.5 -71s-99.167 -18 -156.5 -18c-15.333 0 -33.333 0.333008 -54 1s-41.667 1.66699 -63 3v334h-88v19zM259.001 658.001c-28 0 -54.333 -0.831055 -79 -2.49805s-49.667 -4.83398 -75 -9.50098v-293h229v-19h-229v-313
c8 -0.666992 16.833 -1.33398 26.5 -2.00098s19 -1.16699 28 -1.5s17.167 -0.5 24.5 -0.5h17c54 0 103.333 5.5 148 16.5s84.667 33.167 120 66.5c29.333 27.333 51.833 62.5 67.5 105.5s23.5 88.5 23.5 136.5c0 105.333 -26.333 184.333 -79 237s-126.667 79 -222 79z" />
    <glyph glyph-name="Ntilde" unicode="&#xd1;" horiz-adv-x="609" 
d="M84 674h13l407 -629v629h21v-674h-16l-404 624v-624h-21v674zM225 729c1.33301 18 6.16602 33.833 14.499 47.5s20.166 20.5 35.499 20.5c10 0 19.333 -2.16699 28 -6.5s17.167 -9 25.5 -14s16.833 -9.5 25.5 -13.5s18 -6 28 -6c21.333 0 33 14.333 35 43h16
c-1.33301 -18 -5.83301 -32.667 -13.5 -44s-20.167 -17 -37.5 -17c-10 0 -19.333 2 -28 6s-17.167 8.5 -25.5 13.5s-16.666 9.5 -24.999 13.5s-17.5 6 -27.5 6c-11.333 0 -19.166 -4.83301 -23.499 -14.5s-7.83301 -21.167 -10.5 -34.5h-17z" />
    <glyph glyph-name="Ograve" unicode="&#xd2;" horiz-adv-x="654" 
d="M321 666c-38 0 -73 -8.33301 -105 -25s-59.5 -39.5 -82.5 -68.5s-41 -63.667 -54 -104s-19.5 -83.833 -19.5 -130.5c0 -46 6 -89 18 -129s29 -74.833 51 -104.5s48.833 -53.167 80.5 -70.5s67.5 -26 107.5 -26c39.333 0 75.166 8.33301 107.499 25s60 39.667 83 69
s40.667 64 53 104s18.5 83.333 18.5 130c0 49.333 -6.16699 94.333 -18.5 135s-29.666 75.5 -51.999 104.5s-49.5 51.333 -81.5 67s-67.333 23.5 -106 23.5zM321 685c42 0 80.3359 -8.49902 115.003 -25.499s64.167 -40.667 88.5 -71s43.166 -67 56.499 -110
s20 -90.5 20 -142.5c0 -50 -6.83301 -96.167 -20.5 -138.5s-33.167 -79 -58.5 -110s-55.666 -55.167 -90.999 -72.5s-74.333 -26 -117 -26c-43.333 0 -82 9 -116 27s-62.833 42.667 -86.5 74s-41.834 68.166 -54.501 110.499s-19 88.166 -19 137.499c0 50 7 96.333 21 139
s33.667 79.334 59 110.001s55.166 54.667 89.499 72s72.166 26 113.499 26zM263.003 847.001c13.333 -20.667 29.168 -43.667 47.501 -69s34.166 -48.333 47.499 -69h-20l-12.5 16l-29.5 38l-36 45.5l-32 38.5h35z" />
    <glyph glyph-name="Oacute" unicode="&#xd3;" horiz-adv-x="639" 
d="M321 666c-38 0 -73 -8.33301 -105 -25s-59.5 -39.5 -82.5 -68.5s-41 -63.667 -54 -104s-19.5 -83.833 -19.5 -130.5c0 -46 6 -89 18 -129s29 -74.833 51 -104.5s48.833 -53.167 80.5 -70.5s67.5 -26 107.5 -26c39.333 0 75.166 8.33301 107.499 25s60 39.667 83 69
s40.667 64 53 104s18.5 83.333 18.5 130c0 49.333 -6.16699 94.333 -18.5 135s-29.666 75.5 -51.999 104.5s-49.5 51.333 -81.5 67s-67.333 23.5 -106 23.5zM321 685c42 0 80.3359 -8.49902 115.003 -25.499s64.167 -40.667 88.5 -71s43.166 -67 56.499 -110
s20 -90.5 20 -142.5c0 -50 -6.83301 -96.167 -20.5 -138.5s-33.167 -79 -58.5 -110s-55.666 -55.167 -90.999 -72.5s-74.333 -26 -117 -26c-43.333 0 -82 9 -116 27s-62.833 42.667 -86.5 74s-41.834 68.166 -54.501 110.499s-19 88.166 -19 137.499c0 50 7 96.333 21 139
s33.667 79.334 59 110.001s55.166 54.667 89.499 72s72.166 26 113.499 26zM441.003 847.001c-19.333 -21.333 -38.167 -44.168 -56.5 -68.501s-36.833 -47.166 -55.5 -68.499h-19l94 137h37z" />
    <glyph glyph-name="Ocircumflex" unicode="&#xd4;" horiz-adv-x="654" 
d="M321 666c-38 0 -73 -8.33301 -105 -25s-59.5 -39.5 -82.5 -68.5s-41 -63.667 -54 -104s-19.5 -83.833 -19.5 -130.5c0 -46 6 -89 18 -129s29 -74.833 51 -104.5s48.833 -53.167 80.5 -70.5s67.5 -26 107.5 -26c39.333 0 75.166 8.33301 107.499 25s60 39.667 83 69
s40.667 64 53 104s18.5 83.333 18.5 130c0 49.333 -6.16699 94.333 -18.5 135s-29.666 75.5 -51.999 104.5s-49.5 51.333 -81.5 67s-67.333 23.5 -106 23.5zM321 685c42 0 80.3359 -8.49902 115.003 -25.499s64.167 -40.667 88.5 -71s43.166 -67 56.499 -110
s20 -90.5 20 -142.5c0 -50 -6.83301 -96.167 -20.5 -138.5s-33.167 -79 -58.5 -110s-55.666 -55.167 -90.999 -72.5s-74.333 -26 -117 -26c-43.333 0 -82 9 -116 27s-62.833 42.667 -86.5 74s-41.834 68.166 -54.501 110.499s-19 88.166 -19 137.499c0 50 7 96.333 21 139
s33.667 79.334 59 110.001s55.166 54.667 89.499 72s72.166 26 113.499 26zM332.003 831.001l7.5 -9l18 -22.5l22.5 -29l22.5 -29c7 -9 13 -16.333 18 -22l7.5 -8.5h-24l-84 107l-88 -107h-21l95 120h26z" />
    <glyph glyph-name="Otilde" unicode="&#xd5;" horiz-adv-x="639" 
d="M321 666c-38 0 -73 -8.33301 -105 -25s-59.5 -39.5 -82.5 -68.5s-41 -63.667 -54 -104s-19.5 -83.833 -19.5 -130.5c0 -46 6 -89 18 -129s29 -74.833 51 -104.5s48.833 -53.167 80.5 -70.5s67.5 -26 107.5 -26c39.333 0 75.166 8.33301 107.499 25s60 39.667 83 69
s40.667 64 53 104s18.5 83.333 18.5 130c0 49.333 -6.16699 94.333 -18.5 135s-29.666 75.5 -51.999 104.5s-49.5 51.333 -81.5 67s-67.333 23.5 -106 23.5zM321 685c42 0 80.3359 -8.49902 115.003 -25.499s64.167 -40.667 88.5 -71s43.166 -67 56.499 -110
s20 -90.5 20 -142.5c0 -50 -6.83301 -96.167 -20.5 -138.5s-33.167 -79 -58.5 -110s-55.666 -55.167 -90.999 -72.5s-74.333 -26 -117 -26c-43.333 0 -82 9 -116 27s-62.833 42.667 -86.5 74s-41.834 68.166 -54.501 110.499s-19 88.166 -19 137.499c0 50 7 96.333 21 139
s33.667 79.334 59 110.001s55.166 54.667 89.499 72s72.166 26 113.499 26zM222.003 726.001c1.33301 18 6.16602 33.833 14.499 47.5s20.166 20.5 35.499 20.5c10 0 19.333 -2.16699 28 -6.5s17.167 -9 25.5 -14s16.833 -9.5 25.5 -13.5s18 -6 28 -6
c21.333 0 33 14.333 35 43h16c-1.33301 -18 -5.83301 -32.667 -13.5 -44s-20.167 -17 -37.5 -17c-10 0 -19.333 2 -28 6s-17.167 8.5 -25.5 13.5s-16.666 9.5 -24.999 13.5s-17.5 6 -27.5 6c-11.333 0 -19.166 -4.83301 -23.499 -14.5s-7.83301 -21.167 -10.5 -34.5h-17z
" />
    <glyph glyph-name="Odieresis" unicode="&#xd6;" horiz-adv-x="639" 
d="M321 666c-38 0 -73 -8.33301 -105 -25s-59.5 -39.5 -82.5 -68.5s-41 -63.667 -54 -104s-19.5 -83.833 -19.5 -130.5c0 -46 6 -89 18 -129s29 -74.833 51 -104.5s48.833 -53.167 80.5 -70.5s67.5 -26 107.5 -26c39.333 0 75.166 8.33301 107.499 25s60 39.667 83 69
s40.667 64 53 104s18.5 83.333 18.5 130c0 49.333 -6.16699 94.333 -18.5 135s-29.666 75.5 -51.999 104.5s-49.5 51.333 -81.5 67s-67.333 23.5 -106 23.5zM321 685c42 0 80.3359 -8.49902 115.003 -25.499s64.167 -40.667 88.5 -71s43.166 -67 56.499 -110
s20 -90.5 20 -142.5c0 -50 -6.83301 -96.167 -20.5 -138.5s-33.167 -79 -58.5 -110s-55.666 -55.167 -90.999 -72.5s-74.333 -26 -117 -26c-43.333 0 -82 9 -116 27s-62.833 42.667 -86.5 74s-41.834 68.166 -54.501 110.499s-19 88.166 -19 137.499c0 50 7 96.333 21 139
s33.667 79.334 59 110.001s55.166 54.667 89.499 72s72.166 26 113.499 26zM216.003 775.001c0 6 2 11 6 15s8.66699 6 14 6s10 -2 14 -6s6 -9 6 -15c0 -5.33301 -2 -10 -6 -14s-8.66699 -6 -14 -6s-10 2 -14 6s-6 8.66699 -6 14zM394.003 775.001c0 6 2 11 6 15
s8.66699 6 14 6s10 -2 14 -6s6 -9 6 -15c0 -5.33301 -2 -10 -6 -14s-8.66699 -6 -14 -6s-10 2 -14 6s-6 8.66699 -6 14z" />
    <glyph glyph-name="multiply" unicode="&#xd7;" horiz-adv-x="596" 
d="M68 517l235 -240l117 119.5l117 120.5l17 -16l-236 -240l117.5 -120l117.5 -120l-17 -17l-233 239l-118 -119l-117 -120l-17 17l235 240l-117.5 119l-117.5 121z" />
    <glyph glyph-name="Oslash" unicode="&#xd8;" horiz-adv-x="654" 
d="M131 80c-26 34 -46.498 71.998 -61.498 113.998s-22.5 87.667 -22.5 137c0 55.333 7.5 105 22.5 149s35.667 81.167 62 111.5s57.166 53.5 92.499 69.5s73.333 24 114 24c30.667 0 60.5 -5.33301 89.5 -16s58.833 -29 89.5 -55c1.33301 2 2.66602 3.66699 3.99902 5
s3.83301 4.5 7.5 9.5s9 12.667 16 23l30.5 44.5l14 -10l-61 -86c25.333 -34 46.5 -72.833 63.5 -116.5s25.5 -90.5 25.5 -140.5c0 -59.333 -8 -111.166 -24 -155.499s-37.5 -81.166 -64.5 -110.499s-57.833 -51.333 -92.5 -66s-70.667 -22 -108 -22
c-31.333 0 -62.833 6.66699 -94.5 20s-62.167 32.333 -91.5 57l-63 -83l-12 9zM330.002 8.99805c42.667 0 80.499 9.33496 113.499 28.002s60.833 43.5 83.5 74.5s39.834 66.167 51.501 105.5s17.5 79.666 17.5 120.999c0 40 -6.33301 81.333 -19 124s-32.667 83 -60 121
l-365 -499c24 -22.667 51.167 -40.834 81.5 -54.501s62.5 -20.5 96.5 -20.5zM66.001 332c0 -43.333 6.83105 -85.666 20.498 -126.999s32.834 -78 57.501 -110l361 503c-25.333 23.333 -52 40.833 -80 52.5s-59 17.5 -93 17.5c-44 0 -82.667 -9.83301 -116 -29.5
s-61.166 -45.334 -83.499 -77.001s-39 -67.667 -50 -108s-16.5 -80.833 -16.5 -121.5z" />
    <glyph glyph-name="Ugrave" unicode="&#xd9;" horiz-adv-x="613" 
d="M105 674l0.000976562 -406.002c0 -49.333 4.83301 -90.666 14.5 -123.999s23 -60 40 -80s37.167 -34.167 60.5 -42.5s48.666 -12.5 75.999 -12.5c28 0 54.167 4.16699 78.5 12.5s45.5 22.5 63.5 42.5s32.167 46.333 42.5 79s15.5 73 15.5 121v410h21v-404
c0 -54 -5.83301 -99 -17.5 -135s-27.667 -64.833 -48 -86.5s-44 -37 -71 -46s-55.833 -13.5 -86.5 -13.5c-28.667 0 -55.667 4.33301 -81 13s-47.5 23.667 -66.5 45s-34.167 49.833 -45.5 85.5s-17 80.834 -17 135.501v406h21zM253.001 846.998
c13.333 -20.667 29.168 -43.667 47.501 -69s34.166 -48.333 47.499 -69h-20l-12.5 16l-29.5 38l-36 45.5l-32 38.5h35z" />
    <glyph glyph-name="Uacute" unicode="&#xda;" horiz-adv-x="601" 
d="M105 674l0.000976562 -406.002c0 -49.333 4.83301 -90.666 14.5 -123.999s23 -60 40 -80s37.167 -34.167 60.5 -42.5s48.666 -12.5 75.999 -12.5c28 0 54.167 4.16699 78.5 12.5s45.5 22.5 63.5 42.5s32.167 46.333 42.5 79s15.5 73 15.5 121v410h21v-404
c0 -54 -5.83301 -99 -17.5 -135s-27.667 -64.833 -48 -86.5s-44 -37 -71 -46s-55.833 -13.5 -86.5 -13.5c-28.667 0 -55.667 4.33301 -81 13s-47.5 23.667 -66.5 45s-34.167 49.833 -45.5 85.5s-17 80.834 -17 135.501v406h21zM397.001 846.998
c-19.333 -21.333 -38.167 -44.168 -56.5 -68.501s-36.833 -47.166 -55.5 -68.499h-19l94 137h37z" />
    <glyph glyph-name="Ucircumflex" unicode="&#xdb;" horiz-adv-x="613" 
d="M105 674l0.000976562 -406.002c0 -49.333 4.83301 -90.666 14.5 -123.999s23 -60 40 -80s37.167 -34.167 60.5 -42.5s48.666 -12.5 75.999 -12.5c28 0 54.167 4.16699 78.5 12.5s45.5 22.5 63.5 42.5s32.167 46.333 42.5 79s15.5 73 15.5 121v410h21v-404
c0 -54 -5.83301 -99 -17.5 -135s-27.667 -64.833 -48 -86.5s-44 -37 -71 -46s-55.833 -13.5 -86.5 -13.5c-28.667 0 -55.667 4.33301 -81 13s-47.5 23.667 -66.5 45s-34.167 49.833 -45.5 85.5s-17 80.834 -17 135.501v406h21zM319.001 830.998l7.5 -9l18 -22.5l22.5 -29
l22.5 -29c7 -9 13 -16.333 18 -22l7.5 -8.5h-24l-84 107l-88 -107h-21l95 120h26z" />
    <glyph glyph-name="Udieresis" unicode="&#xdc;" horiz-adv-x="601" 
d="M105 674l0.000976562 -406.002c0 -49.333 4.83301 -90.666 14.5 -123.999s23 -60 40 -80s37.167 -34.167 60.5 -42.5s48.666 -12.5 75.999 -12.5c28 0 54.167 4.16699 78.5 12.5s45.5 22.5 63.5 42.5s32.167 46.333 42.5 79s15.5 73 15.5 121v410h21v-404
c0 -54 -5.83301 -99 -17.5 -135s-27.667 -64.833 -48 -86.5s-44 -37 -71 -46s-55.833 -13.5 -86.5 -13.5c-28.667 0 -55.667 4.33301 -81 13s-47.5 23.667 -66.5 45s-34.167 49.833 -45.5 85.5s-17 80.834 -17 135.501v406h21zM202.001 775.998c0 6 2 11 6 15
s8.66699 6 14 6s10 -2 14 -6s6 -9 6 -15c0 -5.33301 -2 -10 -6 -14s-8.66699 -6 -14 -6s-10 2 -14 6s-6 8.66699 -6 14zM380.001 775.998c0 6 2 11 6 15s8.66699 6 14 6s10 -2 14 -6s6 -9 6 -15c0 -5.33301 -2 -10 -6 -14s-8.66699 -6 -14 -6s-10 2 -14 6s-6 8.66699 -6 14z
" />
    <glyph glyph-name="Yacute" unicode="&#xdd;" horiz-adv-x="473" 
d="M475 674l-225 -381v-293h-21v293l-211 381h24l198 -357l209 357h26zM373 845c-19.333 -21.333 -38.167 -44.168 -56.5 -68.501s-36.833 -47.166 -55.5 -68.499h-19l94 137h37z" />
    <glyph glyph-name="Thorn" unicode="&#xde;" horiz-adv-x="492" 
d="M92 674h20.999v-146c24.667 5.33301 46.5 8.66602 65.5 9.99902s36.167 2 51.5 2c38.667 0 71.667 -4.66699 99 -14s50 -22.666 68 -39.999c14.667 -14.667 26 -32 34 -52s12 -41.667 12 -65c0 -31.333 -5.66699 -59.333 -17 -84s-27.333 -45.5 -48 -62.5
s-45.5 -29.833 -74.5 -38.5s-61.167 -13 -96.5 -13c-13.333 0 -28.166 0.666992 -44.499 2s-32.833 3.33301 -49.5 6v-179h-21v674zM112.999 202c20.667 -5.33301 38.168 -8.33301 52.501 -9s28.833 -1 43.5 -1c68 0 120.333 15 157 45s55 71.667 55 125
c0 27.333 -4.83301 51 -14.5 71s-23 36.5 -40 49.5s-37.333 22.5 -61 28.5s-49.834 9 -78.501 9c-23.333 0 -45 -1.33301 -65 -4s-36.333 -5.66699 -49 -9v-305z" />
    <glyph glyph-name="germandbls" unicode="&#xdf;" horiz-adv-x="508" 
d="M87 0l0.00195312 474.005c0 57.333 6 102.666 18 135.999s28.667 59.666 50 78.999v-1c16.667 14.667 34.334 25.334 53.001 32.001s40 10 64 10c18.667 0 37 -3.16699 55 -9.5s34.167 -16 48.5 -29s25.833 -29.333 34.5 -49s13 -42.5 13 -68.5
c0 -17.333 -2.16699 -33.333 -6.5 -48s-9.16602 -25.667 -14.499 -33c-26.667 -10.667 -47.167 -24.5 -61.5 -41.5s-21.5 -37.167 -21.5 -60.5c0 -11.333 1.5 -21 4.5 -29s7 -15.667 12 -23s11 -14.5 18 -21.5l23.5 -23.5l7 -7l31 -32c10 -10.667 18.667 -22 26 -34
s13.333 -25 18 -39s7 -29.333 7 -46c0 -44.667 -14.5 -80.334 -43.5 -107.001s-67.833 -40 -116.5 -40c-16.667 0 -33.5 1.66699 -50.5 5s-32.167 7.66602 -45.5 12.999c1.33301 5.33301 2.66602 9.33301 3.99902 12s2.66602 6 3.99902 10c30 -12.667 60 -19 90 -19
c43.333 0 76.166 11.667 98.499 35s33.5 51 33.5 83c0 28 -6 52.833 -18 74.5s-28 42.167 -48 61.5c-22.667 21.333 -41.167 41.666 -55.5 60.999s-21.5 41 -21.5 65c0 25.333 7.66699 48.833 23 70.5s38.666 39.5 69.999 53.5c6 16.667 9 34.667 9 54
c0 48 -12.5 83.5 -37.5 106.5s-57.167 34.5 -96.5 34.5c-49.333 0 -87.5 -18.333 -114.5 -55s-40.5 -97.334 -40.5 -182.001v-472h-23z" />
    <glyph glyph-name="agrave" unicode="&#xe0;" horiz-adv-x="446" 
d="M334 0c-0.666992 6.66699 -1.49805 18 -2.49805 34s-1.5 32.667 -1.5 50c-17.333 -25.333 -32 -42.833 -44 -52.5s-24.167 -17.334 -36.5 -23.001s-24.666 -9.66699 -36.999 -12s-23.833 -3.5 -34.5 -3.5c-18.667 0 -36.334 2.33301 -53.001 7s-31.167 12.167 -43.5 22.5
s-22.166 23.5 -29.499 39.5s-11 35.333 -11 58c0 24 4.5 46.333 13.5 67s24 38.667 45 54s48.5 27.5 82.5 36.5s76 13.5 126 13.5h19v33c0 10 -1 23.333 -3 40s-7.5 33 -16.5 49s-22 29.667 -39 41s-39.833 17 -68.5 17c-40 0 -79.333 -13.333 -118 -40l-11 16
c20 15.333 41 26.5 63 33.5s43.667 10.5 65 10.5c25.333 0 46.666 -4 63.999 -12s31.666 -18 42.999 -30s20 -25.333 26 -40s10.167 -28.667 12.5 -42s3.66602 -25 3.99902 -35s0.5 -16.667 0.5 -20v-106v-34c0 -17.333 0.166992 -36.666 0.5 -57.999s1 -42.5 2 -63.5
s2.5 -37.833 4.5 -50.5h-22zM305.002 79c4 6 7.49707 11.6641 10.4971 16.9971s5.33301 12.166 7 20.499s2.83398 18.833 3.50098 31.5s1 29.334 1 50.001v72c-14.667 0.666992 -24.667 1 -30 1c-24 0 -49.667 -2 -77 -6s-52.666 -11.5 -75.999 -22.5
s-42.833 -26.333 -58.5 -46s-23.5 -45.167 -23.5 -76.5c0 -19.333 3.16699 -35.666 9.5 -48.999s14.833 -24.333 25.5 -33s23 -15 37 -19s28.667 -6 44 -6c8 0 17.167 0.833008 27.5 2.5s21 4.83398 32 9.50098s22.333 11.334 34 20.001s22.834 20 33.501 34z
M137.999 677.997c13.333 -20.667 29.168 -43.667 47.501 -69s34.166 -48.333 47.499 -69h-20l-12.5 16l-29.5 38l-36 45.5l-32 38.5h35z" />
    <glyph glyph-name="aacute" unicode="&#xe1;" horiz-adv-x="428" 
d="M334 0c-0.666992 6.66699 -1.49805 18 -2.49805 34s-1.5 32.667 -1.5 50c-17.333 -25.333 -32 -42.833 -44 -52.5s-24.167 -17.334 -36.5 -23.001s-24.666 -9.66699 -36.999 -12s-23.833 -3.5 -34.5 -3.5c-18.667 0 -36.334 2.33301 -53.001 7s-31.167 12.167 -43.5 22.5
s-22.166 23.5 -29.499 39.5s-11 35.333 -11 58c0 24 4.5 46.333 13.5 67s24 38.667 45 54s48.5 27.5 82.5 36.5s76 13.5 126 13.5h19v33c0 10 -1 23.333 -3 40s-7.5 33 -16.5 49s-22 29.667 -39 41s-39.833 17 -68.5 17c-40 0 -79.333 -13.333 -118 -40l-11 16
c20 15.333 41 26.5 63 33.5s43.667 10.5 65 10.5c25.333 0 46.666 -4 63.999 -12s31.666 -18 42.999 -30s20 -25.333 26 -40s10.167 -28.667 12.5 -42s3.66602 -25 3.99902 -35s0.5 -16.667 0.5 -20v-106v-34c0 -17.333 0.166992 -36.666 0.5 -57.999s1 -42.5 2 -63.5
s2.5 -37.833 4.5 -50.5h-22zM305.002 79c4 6 7.49707 11.6641 10.4971 16.9971s5.33301 12.166 7 20.499s2.83398 18.833 3.50098 31.5s1 29.334 1 50.001v72c-14.667 0.666992 -24.667 1 -30 1c-24 0 -49.667 -2 -77 -6s-52.666 -11.5 -75.999 -22.5
s-42.833 -26.333 -58.5 -46s-23.5 -45.167 -23.5 -76.5c0 -19.333 3.16699 -35.666 9.5 -48.999s14.833 -24.333 25.5 -33s23 -15 37 -19s28.667 -6 44 -6c8 0 17.167 0.833008 27.5 2.5s21 4.83398 32 9.50098s22.333 11.334 34 20.001s22.834 20 33.501 34z
M315.999 676.997c-19.333 -21.333 -38.167 -44.168 -56.5 -68.501s-36.833 -47.166 -55.5 -68.499h-19l94 137h37z" />
    <glyph glyph-name="acircumflex" unicode="&#xe2;" horiz-adv-x="446" 
d="M334 0c-0.666992 6.66699 -1.49805 18 -2.49805 34s-1.5 32.667 -1.5 50c-17.333 -25.333 -32 -42.833 -44 -52.5s-24.167 -17.334 -36.5 -23.001s-24.666 -9.66699 -36.999 -12s-23.833 -3.5 -34.5 -3.5c-18.667 0 -36.334 2.33301 -53.001 7s-31.167 12.167 -43.5 22.5
s-22.166 23.5 -29.499 39.5s-11 35.333 -11 58c0 24 4.5 46.333 13.5 67s24 38.667 45 54s48.5 27.5 82.5 36.5s76 13.5 126 13.5h19v33c0 10 -1 23.333 -3 40s-7.5 33 -16.5 49s-22 29.667 -39 41s-39.833 17 -68.5 17c-40 0 -79.333 -13.333 -118 -40l-11 16
c20 15.333 41 26.5 63 33.5s43.667 10.5 65 10.5c25.333 0 46.666 -4 63.999 -12s31.666 -18 42.999 -30s20 -25.333 26 -40s10.167 -28.667 12.5 -42s3.66602 -25 3.99902 -35s0.5 -16.667 0.5 -20v-106v-34c0 -17.333 0.166992 -36.666 0.5 -57.999s1 -42.5 2 -63.5
s2.5 -37.833 4.5 -50.5h-22zM305.002 79c4 6 7.49707 11.6641 10.4971 16.9971s5.33301 12.166 7 20.499s2.83398 18.833 3.50098 31.5s1 29.334 1 50.001v72c-14.667 0.666992 -24.667 1 -30 1c-24 0 -49.667 -2 -77 -6s-52.666 -11.5 -75.999 -22.5
s-42.833 -26.333 -58.5 -46s-23.5 -45.167 -23.5 -76.5c0 -19.333 3.16699 -35.666 9.5 -48.999s14.833 -24.333 25.5 -33s23 -15 37 -19s28.667 -6 44 -6c8 0 17.167 0.833008 27.5 2.5s21 4.83398 32 9.50098s22.333 11.334 34 20.001s22.834 20 33.501 34z
M216.999 659.997l7.5 -9l18 -22.5l22.5 -29l22.5 -29c7 -9 13 -16.333 18 -22l7.5 -8.5h-24l-84 107l-88 -107h-21l95 120h26z" />
    <glyph glyph-name="atilde" unicode="&#xe3;" horiz-adv-x="446" 
d="M334 0c-0.666992 6.66699 -1.49805 18 -2.49805 34s-1.5 32.667 -1.5 50c-17.333 -25.333 -32 -42.833 -44 -52.5s-24.167 -17.334 -36.5 -23.001s-24.666 -9.66699 -36.999 -12s-23.833 -3.5 -34.5 -3.5c-18.667 0 -36.334 2.33301 -53.001 7s-31.167 12.167 -43.5 22.5
s-22.166 23.5 -29.499 39.5s-11 35.333 -11 58c0 24 4.5 46.333 13.5 67s24 38.667 45 54s48.5 27.5 82.5 36.5s76 13.5 126 13.5h19v33c0 10 -1 23.333 -3 40s-7.5 33 -16.5 49s-22 29.667 -39 41s-39.833 17 -68.5 17c-40 0 -79.333 -13.333 -118 -40l-11 16
c20 15.333 41 26.5 63 33.5s43.667 10.5 65 10.5c25.333 0 46.666 -4 63.999 -12s31.666 -18 42.999 -30s20 -25.333 26 -40s10.167 -28.667 12.5 -42s3.66602 -25 3.99902 -35s0.5 -16.667 0.5 -20v-106v-34c0 -17.333 0.166992 -36.666 0.5 -57.999s1 -42.5 2 -63.5
s2.5 -37.833 4.5 -50.5h-22zM305.002 79c4 6 7.49707 11.6641 10.4971 16.9971s5.33301 12.166 7 20.499s2.83398 18.833 3.50098 31.5s1 29.334 1 50.001v72c-14.667 0.666992 -24.667 1 -30 1c-24 0 -49.667 -2 -77 -6s-52.666 -11.5 -75.999 -22.5
s-42.833 -26.333 -58.5 -46s-23.5 -45.167 -23.5 -76.5c0 -19.333 3.16699 -35.666 9.5 -48.999s14.833 -24.333 25.5 -33s23 -15 37 -19s28.667 -6 44 -6c8 0 17.167 0.833008 27.5 2.5s21 4.83398 32 9.50098s22.333 11.334 34 20.001s22.834 20 33.501 34z
M105.999 564.997c1.33301 18 6.16602 33.833 14.499 47.5s20.166 20.5 35.499 20.5c10 0 19.333 -2.16699 28 -6.5s17.167 -9 25.5 -14s16.833 -9.5 25.5 -13.5s18 -6 28 -6c21.333 0 33 14.333 35 43h16c-1.33301 -18 -5.83301 -32.667 -13.5 -44s-20.167 -17 -37.5 -17
c-10 0 -19.333 2 -28 6s-17.167 8.5 -25.5 13.5s-16.666 9.5 -24.999 13.5s-17.5 6 -27.5 6c-11.333 0 -19.166 -4.83301 -23.499 -14.5s-7.83301 -21.167 -10.5 -34.5h-17z" />
    <glyph glyph-name="adieresis" unicode="&#xe4;" horiz-adv-x="446" 
d="M334 0c-0.666992 6.66699 -1.49805 18 -2.49805 34s-1.5 32.667 -1.5 50c-17.333 -25.333 -32 -42.833 -44 -52.5s-24.167 -17.334 -36.5 -23.001s-24.666 -9.66699 -36.999 -12s-23.833 -3.5 -34.5 -3.5c-18.667 0 -36.334 2.33301 -53.001 7s-31.167 12.167 -43.5 22.5
s-22.166 23.5 -29.499 39.5s-11 35.333 -11 58c0 24 4.5 46.333 13.5 67s24 38.667 45 54s48.5 27.5 82.5 36.5s76 13.5 126 13.5h19v33c0 10 -1 23.333 -3 40s-7.5 33 -16.5 49s-22 29.667 -39 41s-39.833 17 -68.5 17c-40 0 -79.333 -13.333 -118 -40l-11 16
c20 15.333 41 26.5 63 33.5s43.667 10.5 65 10.5c25.333 0 46.666 -4 63.999 -12s31.666 -18 42.999 -30s20 -25.333 26 -40s10.167 -28.667 12.5 -42s3.66602 -25 3.99902 -35s0.5 -16.667 0.5 -20v-106v-34c0 -17.333 0.166992 -36.666 0.5 -57.999s1 -42.5 2 -63.5
s2.5 -37.833 4.5 -50.5h-22zM305.002 79c4 6 7.49707 11.6641 10.4971 16.9971s5.33301 12.166 7 20.499s2.83398 18.833 3.50098 31.5s1 29.334 1 50.001v72c-14.667 0.666992 -24.667 1 -30 1c-24 0 -49.667 -2 -77 -6s-52.666 -11.5 -75.999 -22.5
s-42.833 -26.333 -58.5 -46s-23.5 -45.167 -23.5 -76.5c0 -19.333 3.16699 -35.666 9.5 -48.999s14.833 -24.333 25.5 -33s23 -15 37 -19s28.667 -6 44 -6c8 0 17.167 0.833008 27.5 2.5s21 4.83398 32 9.50098s22.333 11.334 34 20.001s22.834 20 33.501 34z
M105.999 607.997c0 6 2 11 6 15s8.66699 6 14 6s10 -2 14 -6s6 -9 6 -15c0 -5.33301 -2 -10 -6 -14s-8.66699 -6 -14 -6s-10 2 -14 6s-6 8.66699 -6 14zM283.999 607.997c0 6 2 11 6 15s8.66699 6 14 6s10 -2 14 -6s6 -9 6 -15c0 -5.33301 -2 -10 -6 -14s-8.66699 -6 -14 -6
s-10 2 -14 6s-6 8.66699 -6 14z" />
    <glyph glyph-name="aring" unicode="&#xe5;" horiz-adv-x="446" 
d="M334 0c-0.666992 6.66699 -1.49805 18 -2.49805 34s-1.5 32.667 -1.5 50c-17.333 -25.333 -32 -42.833 -44 -52.5s-24.167 -17.334 -36.5 -23.001s-24.666 -9.66699 -36.999 -12s-23.833 -3.5 -34.5 -3.5c-18.667 0 -36.334 2.33301 -53.001 7s-31.167 12.167 -43.5 22.5
s-22.166 23.5 -29.499 39.5s-11 35.333 -11 58c0 24 4.5 46.333 13.5 67s24 38.667 45 54s48.5 27.5 82.5 36.5s76 13.5 126 13.5h19v33c0 10 -1 23.333 -3 40s-7.5 33 -16.5 49s-22 29.667 -39 41s-39.833 17 -68.5 17c-40 0 -79.333 -13.333 -118 -40l-11 16
c20 15.333 41 26.5 63 33.5s43.667 10.5 65 10.5c25.333 0 46.666 -4 63.999 -12s31.666 -18 42.999 -30s20 -25.333 26 -40s10.167 -28.667 12.5 -42s3.66602 -25 3.99902 -35s0.5 -16.667 0.5 -20v-106v-34c0 -17.333 0.166992 -36.666 0.5 -57.999s1 -42.5 2 -63.5
s2.5 -37.833 4.5 -50.5h-22zM305.002 79c4 6 7.49707 11.6641 10.4971 16.9971s5.33301 12.166 7 20.499s2.83398 18.833 3.50098 31.5s1 29.334 1 50.001v72c-14.667 0.666992 -24.667 1 -30 1c-24 0 -49.667 -2 -77 -6s-52.666 -11.5 -75.999 -22.5
s-42.833 -26.333 -58.5 -46s-23.5 -45.167 -23.5 -76.5c0 -19.333 3.16699 -35.666 9.5 -48.999s14.833 -24.333 25.5 -33s23 -15 37 -19s28.667 -6 44 -6c8 0 17.167 0.833008 27.5 2.5s21 4.83398 32 9.50098s22.333 11.334 34 20.001s22.834 20 33.501 34z
M287.999 621.997c0 -12 -2.16992 -23 -6.50293 -33s-10.333 -18.833 -18 -26.5s-16.5 -13.667 -26.5 -18s-20.667 -6.5 -32 -6.5s-22.166 2.16699 -32.499 6.5s-19.166 10.333 -26.499 18s-13.166 16.5 -17.499 26.5s-6.5 21 -6.5 33c0 23.333 8 43 24 59s35.667 24 59 24
s43 -8 59 -24s24 -35.667 24 -59zM142.996 621.997c0 -18.667 6 -33.834 18 -45.501s26.667 -17.5 44 -17.5c18 0 33 5.83301 45 17.5s18 26.834 18 45.501c0 17.333 -6 32.166 -18 44.499s-27 18.5 -45 18.5c-17.333 0 -32 -6.16699 -44 -18.5s-18 -27.166 -18 -44.499z
" />
    <glyph glyph-name="ae" unicode="&#xe6;" horiz-adv-x="739" 
d="M365 263c-1.33301 -41.333 2.33496 -77.8369 11.002 -109.504s21.167 -58.334 37.5 -80.001s36.166 -38 59.499 -49s49 -16.5 77 -16.5c33.333 0 59.5 2.83301 78.5 8.5s33.167 11.167 42.5 16.5l6 -18c-14 -7.33301 -32.167 -13.333 -54.5 -18s-48.5 -7 -78.5 -7
c-19.333 0 -38.166 3 -56.499 9s-35.5 15 -51.5 27s-30.333 26.833 -43 44.5s-22.334 37.834 -29.001 60.501l-3 7c-7.33301 -25.333 -17.166 -47.166 -29.499 -65.499s-26.666 -33.666 -42.999 -45.999s-34 -21.5 -53 -27.5s-38.5 -9 -58.5 -9
c-22.667 0 -42.167 3.5 -58.5 10.5s-29.833 16.167 -40.5 27.5s-18.5 24.5 -23.5 39.5s-7.5 30.167 -7.5 45.5c0 54.667 23.5 97 70.5 127s121.167 43.667 222.5 41h5v36c0 9.33301 -1.66699 22.5 -5 39.5s-10.166 34 -20.499 51s-25 31.667 -44 44s-44.167 18.5 -75.5 18.5
c-21.333 0 -41.333 -3.33301 -60 -10s-35 -14.667 -49 -24c-0.666992 1.33301 -1.33398 3.33301 -2.00098 6c-0.666992 2 -1.5 4.33301 -2.5 7l-3.5 9c21.333 10.667 43.166 18.5 65.499 23.5s41.166 7.5 56.499 7.5c42.667 0 77 -12.5 103 -37.5s43.333 -58.167 52 -99.5
l1 1c14.667 47.333 37.667 82 69 104s66 33 104 33c36 0 65.333 -8.16699 88 -24.5s40.167 -35.666 52.5 -57.999s20.666 -45.166 24.999 -68.499s6.5 -42.333 6.5 -57v-20zM345.001 262.996l-5.00195 0.000976562c-26.667 0.666992 -56 -0.166016 -88 -2.49902
s-61.667 -8.33301 -89 -18s-50.333 -24.334 -69 -44.001s-28 -46.167 -28 -79.5c0 -38 10.833 -65.833 32.5 -83.5s48.5 -26.5 80.5 -26.5c20.667 0 39.834 3.16699 57.501 9.5s33.334 15 47.001 26s25.167 23.333 34.5 37s16.333 28.167 21 43.5
c2.66699 6 4.16699 15.167 4.5 27.5s0.5 22.166 0.5 29.499zM685.999 280.997c0.666992 17.333 -1.49902 36.834 -6.49902 58.501s-13.667 42.167 -26 61.5s-28.5 35.666 -48.5 48.999s-44 20 -72 20s-52.333 -6.16699 -73 -18.5s-37.834 -27.833 -51.501 -46.5
s-24.167 -39 -31.5 -61s-11.333 -43 -12 -63h318h3z" />
    <glyph glyph-name="ccedilla" unicode="&#xe7;" horiz-adv-x="428" 
d="M388 439c-15.333 9.33301 -33.001 16.5 -53.001 21.5s-41.333 7.5 -64 7.5c-26 0 -51.333 -5.16699 -76 -15.5s-46.667 -25.166 -66 -44.499s-35 -43.333 -47 -72s-18 -61.334 -18 -98.001s5.33301 -69.167 16 -97.5s24.834 -52.166 42.501 -71.499s38 -33.833 61 -43.5
s46.833 -14.5 71.5 -14.5c50.667 0 94.667 9.33301 132 28l5 -21c-19.333 -9.33301 -41 -16.333 -65 -21s-48.333 -7 -73 -7c-27.333 0 -53.666 5.16699 -78.999 15.5s-47.833 26 -67.5 47s-35.334 47 -47.001 78s-17.5 66.833 -17.5 107.5c0 40 6.5 75.5 19.5 106.5
s30.333 57.333 52 79s46.167 38 73.5 49s55 16.5 83 16.5c24 0 47.167 -2.83301 69.5 -8.5s40.5 -12.834 54.5 -21.501zM263.999 -9l-31.999 -55.002c18 -3.33301 32.667 -11.166 44 -23.499s17 -26.166 17 -41.499c0 -24.667 -7.83301 -41.667 -23.5 -51
s-35.167 -14 -58.5 -14c-16.667 0 -33.334 3.66699 -50.001 11l6 19c7.33301 -3.33301 14.833 -5.83301 22.5 -7.5s16.167 -2.5 25.5 -2.5c14.667 0 27.5 3 38.5 9s16.5 17.667 16.5 35c-1.33301 17.333 -8 29.5 -20 36.5s-28.333 12.167 -49 15.5l39 69h24z" />
    <glyph glyph-name="egrave" unicode="&#xe8;" horiz-adv-x="474" 
d="M394 19c-20 -10.667 -41.334 -18.3311 -64.001 -22.998s-47 -7 -73 -7c-33.333 0.666992 -63.166 7 -89.499 19s-48.666 28.667 -66.999 50s-32.5 47.166 -42.5 77.499s-15 64.5 -15 102.5c0 36 5.16699 69.333 15.5 100s24.666 57 42.999 79s40 39.333 65 52
s52.5 19.334 82.5 20.001c28 0 51.5 -5 70.5 -15s34.833 -21.667 47.5 -35c12 -12 21.667 -26 29 -42c7.33301 -14 14 -34 20 -60s9 -53 9 -81h-361v-18c0 -74.667 18.5 -131.334 55.5 -170.001s87.833 -58 152.5 -58c21.333 0 42 2.66699 62 8s38 12.666 54 21.999z
M248.999 468.003c-24 0 -46.501 -4.66699 -67.501 -14s-39.5 -22.333 -55.5 -39s-29.167 -36.667 -39.5 -60s-17.166 -49 -20.499 -77l338 -2c-2.66699 18.667 -5 34.167 -7 46.5s-4 21.5 -6 27.5c-9.33301 34 -26.333 62.167 -51 84.5s-55 33.5 -91 33.5zM189.998 677.003
c13.333 -20.667 29.168 -43.667 47.501 -69s34.166 -48.333 47.499 -69h-20l-12.5 16l-29.5 38l-36 45.5l-32 38.5h35z" />
    <glyph glyph-name="eacute" unicode="&#xe9;" horiz-adv-x="468" 
d="M394 19c-20 -10.667 -41.334 -18.3311 -64.001 -22.998s-47 -7 -73 -7c-33.333 0.666992 -63.166 7 -89.499 19s-48.666 28.667 -66.999 50s-32.5 47.166 -42.5 77.499s-15 64.5 -15 102.5c0 36 5.16699 69.333 15.5 100s24.666 57 42.999 79s40 39.333 65 52
s52.5 19.334 82.5 20.001c28 0 51.5 -5 70.5 -15s34.833 -21.667 47.5 -35c12 -12 21.667 -26 29 -42c7.33301 -14 14 -34 20 -60s9 -53 9 -81h-361v-18c0 -74.667 18.5 -131.334 55.5 -170.001s87.833 -58 152.5 -58c21.333 0 42 2.66699 62 8s38 12.666 54 21.999z
M248.999 468.003c-24 0 -46.501 -4.66699 -67.501 -14s-39.5 -22.333 -55.5 -39s-29.167 -36.667 -39.5 -60s-17.166 -49 -20.499 -77l338 -2c-2.66699 18.667 -5 34.167 -7 46.5s-4 21.5 -6 27.5c-9.33301 34 -26.333 62.167 -51 84.5s-55 33.5 -91 33.5zM350.998 678.003
c-19.333 -21.333 -38.167 -44.168 -56.5 -68.501s-36.833 -47.166 -55.5 -68.499h-19l94 137h37z" />
    <glyph glyph-name="ecircumflex" unicode="&#xea;" horiz-adv-x="474" 
d="M394 19c-20 -10.667 -41.334 -18.3311 -64.001 -22.998s-47 -7 -73 -7c-33.333 0.666992 -63.166 7 -89.499 19s-48.666 28.667 -66.999 50s-32.5 47.166 -42.5 77.499s-15 64.5 -15 102.5c0 36 5.16699 69.333 15.5 100s24.666 57 42.999 79s40 39.333 65 52
s52.5 19.334 82.5 20.001c28 0 51.5 -5 70.5 -15s34.833 -21.667 47.5 -35c12 -12 21.667 -26 29 -42c7.33301 -14 14 -34 20 -60s9 -53 9 -81h-361v-18c0 -74.667 18.5 -131.334 55.5 -170.001s87.833 -58 152.5 -58c21.333 0 42 2.66699 62 8s38 12.666 54 21.999z
M248.999 468.003c-24 0 -46.501 -4.66699 -67.501 -14s-39.5 -22.333 -55.5 -39s-29.167 -36.667 -39.5 -60s-17.166 -49 -20.499 -77l338 -2c-2.66699 18.667 -5 34.167 -7 46.5s-4 21.5 -6 27.5c-9.33301 34 -26.333 62.167 -51 84.5s-55 33.5 -91 33.5zM262.998 664.003
l7.5 -9l18 -22.5l22.5 -29l22.5 -29c7 -9 13 -16.333 18 -22l7.5 -8.5h-24l-84 107l-88 -107h-21l95 120h26z" />
    <glyph glyph-name="edieresis" unicode="&#xeb;" horiz-adv-x="474" 
d="M394 19c-20 -10.667 -41.334 -18.3311 -64.001 -22.998s-47 -7 -73 -7c-33.333 0.666992 -63.166 7 -89.499 19s-48.666 28.667 -66.999 50s-32.5 47.166 -42.5 77.499s-15 64.5 -15 102.5c0 36 5.16699 69.333 15.5 100s24.666 57 42.999 79s40 39.333 65 52
s52.5 19.334 82.5 20.001c28 0 51.5 -5 70.5 -15s34.833 -21.667 47.5 -35c12 -12 21.667 -26 29 -42c7.33301 -14 14 -34 20 -60s9 -53 9 -81h-361v-18c0 -74.667 18.5 -131.334 55.5 -170.001s87.833 -58 152.5 -58c21.333 0 42 2.66699 62 8s38 12.666 54 21.999z
M248.999 468.003c-24 0 -46.501 -4.66699 -67.501 -14s-39.5 -22.333 -55.5 -39s-29.167 -36.667 -39.5 -60s-17.166 -49 -20.499 -77l338 -2c-2.66699 18.667 -5 34.167 -7 46.5s-4 21.5 -6 27.5c-9.33301 34 -26.333 62.167 -51 84.5s-55 33.5 -91 33.5zM147.998 610.003
c0 6 2 11 6 15s8.66699 6 14 6s10 -2 14 -6s6 -9 6 -15c0 -5.33301 -2 -10 -6 -14s-8.66699 -6 -14 -6s-10 2 -14 6s-6 8.66699 -6 14zM325.998 610.003c0 6 2 11 6 15s8.66699 6 14 6s10 -2 14 -6s6 -9 6 -15c0 -5.33301 -2 -10 -6 -14s-8.66699 -6 -14 -6s-10 2 -14 6
s-6 8.66699 -6 14z" />
    <glyph glyph-name="igrave" unicode="&#xec;" horiz-adv-x="206" 
d="M91 0v480h22v-480h-22zM26 677c13.333 -20.667 29.168 -43.667 47.501 -69s34.166 -48.333 47.499 -69h-20l-12.5 16l-29.5 38l-36 45.5l-32 38.5h35z" />
    <glyph glyph-name="iacute" unicode="&#xed;" horiz-adv-x="206" 
d="M91 0v480h22v-480h-22zM203 677c-19.333 -21.333 -38.167 -44.168 -56.5 -68.501s-36.833 -47.166 -55.5 -68.499h-19l94 137h37z" />
    <glyph glyph-name="icircumflex" unicode="&#xee;" horiz-adv-x="206" 
d="M91 0v480h22v-480h-22zM116 660l7.5 -9l18 -22.5l22.5 -29l22.5 -29c7 -9 13 -16.333 18 -22l7.5 -8.5h-24l-84 107l-88 -107h-21l95 120h26z" />
    <glyph glyph-name="idieresis" unicode="&#xef;" horiz-adv-x="206" 
d="M91 0v480h22v-480h-22zM-3 610c0 6 2 11 6 15s8.66699 6 14 6s10 -2 14 -6s6 -9 6 -15c0 -5.33301 -2 -10 -6 -14s-8.66699 -6 -14 -6s-10 2 -14 6s-6 8.66699 -6 14zM175 610c0 6 2 11 6 15s8.66699 6 14 6s10 -2 14 -6s6 -9 6 -15c0 -5.33301 -2 -10 -6 -14
s-8.66699 -6 -14 -6s-10 2 -14 6s-6 8.66699 -6 14z" />
    <glyph glyph-name="eth" unicode="&#xf0;" horiz-adv-x="510" 
d="M256 7c28.667 0 54.6689 6 78.002 18s43.333 28.667 60 50s29.5 46.333 38.5 75s13.5 59.667 13.5 93c0 32 -3.16699 62 -9.5 90s-16.833 52.333 -31.5 73s-33.834 37 -57.501 49s-52.834 18 -87.501 18c-34 0 -62.833 -7.66699 -86.5 -23s-43.167 -34.5 -58.5 -57.5
s-26.5 -48.5 -33.5 -76.5s-10.5 -54.333 -10.5 -79c0 -32 4.5 -62 13.5 -90s21.5 -52.333 37.5 -73s35.333 -37 58 -49s48 -18 76 -18zM121.002 566l130.997 64.0029c-19.333 15.333 -39.166 29.666 -59.499 42.999s-40.166 25 -59.499 35l12 17
c19.333 -10.667 39.833 -23.334 61.5 -38.001s42.834 -30 63.501 -46l59 30l60 30l10 -17l-112 -57c32 -28 59.833 -56.167 83.5 -84.5s42.834 -58.166 57.501 -89.499c14 -28.667 24.167 -59.334 30.5 -92.001s9.5 -70 9.5 -112c0 -46 -6.16699 -85.5 -18.5 -118.5
s-28.5 -60 -48.5 -81s-42.667 -36.333 -68 -46s-51 -14.5 -77 -14.5c-29.333 0 -56.5 5.83301 -81.5 17.5s-46.5 28.167 -64.5 49.5s-32.167 47.166 -42.5 77.499s-15.5 64.166 -15.5 101.499c0 41.333 6 78 18 110s27.667 58.833 47 80.5s41.333 38.167 66 49.5
s50 17 76 17c10.667 0 23.167 -0.666992 37.5 -2s29.166 -5.16602 44.499 -11.499s31 -16 47 -29s31 -30.833 45 -53.5l-21 50c-17.333 31.333 -37 61 -59 89s-50 55.333 -84 82l-140 -68z" />
    <glyph glyph-name="ntilde" unicode="&#xf1;" horiz-adv-x="510" 
d="M102 476c1.33301 -10 2.00195 -23.167 2.00195 -39.5v-50.5c17.333 33.333 39.833 58.833 67.5 76.5s61.167 26.5 100.5 26.5c34 0 63.667 -9.16699 89 -27.5s44.333 -43.5 57 -75.5c5.33301 -16 8.66602 -32.167 9.99902 -48.5s2 -31.833 2 -46.5v-291h-20v291
c0 23.333 -1.16699 41.833 -3.5 55.5s-6.16602 26.5 -11.499 38.5c-2.66699 6 -6.83398 13.833 -12.501 23.5s-13.5 18.834 -23.5 27.501s-22.333 16.167 -37 22.5s-32.334 9.5 -53.001 9.5c-29.333 0 -54.5 -5.83301 -75.5 -17.5s-38.167 -26.167 -51.5 -43.5
s-23 -35.833 -29 -55.5s-9 -37.167 -9 -52.5v-299h-20v304v34c0 16 -0.166992 33 -0.5 51s-0.833008 35.167 -1.5 51.5s-1.66699 28.166 -3 35.499h23zM159.002 574c1.33301 18 6.16602 33.833 14.499 47.5s20.166 20.5 35.499 20.5c10 0 19.333 -2.16699 28 -6.5
s17.167 -9 25.5 -14s16.833 -9.5 25.5 -13.5s18 -6 28 -6c21.333 0 33 14.333 35 43h16c-1.33301 -18 -5.83301 -32.667 -13.5 -44s-20.167 -17 -37.5 -17c-10 0 -19.333 2 -28 6s-17.167 8.5 -25.5 13.5s-16.666 9.5 -24.999 13.5s-17.5 6 -27.5 6
c-11.333 0 -19.166 -4.83301 -23.499 -14.5s-7.83301 -21.167 -10.5 -34.5h-17z" />
    <glyph glyph-name="ograve" unicode="&#xf2;" horiz-adv-x="509" 
d="M445 237c0 34 -4.50098 65 -13.501 93s-21.833 52.167 -38.5 72.5s-36.5 36.166 -59.5 47.499s-48.5 17 -76.5 17s-53.667 -5.83301 -77 -17.5s-43.666 -27.667 -60.999 -48s-30.833 -44.5 -40.5 -72.5s-14.5 -58.667 -14.5 -92c0 -36.667 5.16699 -69.167 15.5 -97.5
s24 -52.166 41 -71.499s36.667 -33.833 59 -43.5s45.5 -14.5 69.5 -14.5c30 0 57.167 5.66699 81.5 17s45 27.166 62 47.499s30 44.333 39 72s13.5 57.834 13.5 90.501zM256.999 488c30 0 57.8291 -6.16797 83.4961 -18.501s47.834 -29.5 66.501 -51.5
s33.167 -48.333 43.5 -79s15.5 -64.667 15.5 -102c0 -36 -5.5 -69.167 -16.5 -99.5s-26.167 -56.5 -45.5 -78.5s-42.166 -39.333 -68.499 -52s-55.166 -19 -86.499 -19s-59.666 6.5 -84.999 19.5s-47 30.833 -65 53.5s-31.833 49.167 -41.5 79.5s-14.5 62.5 -14.5 96.5
c0 36 5.5 69.167 16.5 99.5s26 56.833 45 79.5s41.5 40.334 67.5 53.001s54.333 19 85 19zM196.995 678.999c13.333 -20.667 29.168 -43.667 47.501 -69s34.166 -48.333 47.499 -69h-20l-12.5 16l-29.5 38l-36 45.5l-32 38.5h35z" />
    <glyph glyph-name="oacute" unicode="&#xf3;" horiz-adv-x="509" 
d="M445 237c0 34 -4.50098 65 -13.501 93s-21.833 52.167 -38.5 72.5s-36.5 36.166 -59.5 47.499s-48.5 17 -76.5 17s-53.667 -5.83301 -77 -17.5s-43.666 -27.667 -60.999 -48s-30.833 -44.5 -40.5 -72.5s-14.5 -58.667 -14.5 -92c0 -36.667 5.16699 -69.167 15.5 -97.5
s24 -52.166 41 -71.499s36.667 -33.833 59 -43.5s45.5 -14.5 69.5 -14.5c30 0 57.167 5.66699 81.5 17s45 27.166 62 47.499s30 44.333 39 72s13.5 57.834 13.5 90.501zM256.999 488c30 0 57.8291 -6.16797 83.4961 -18.501s47.834 -29.5 66.501 -51.5
s33.167 -48.333 43.5 -79s15.5 -64.667 15.5 -102c0 -36 -5.5 -69.167 -16.5 -99.5s-26.167 -56.5 -45.5 -78.5s-42.166 -39.333 -68.499 -52s-55.166 -19 -86.499 -19s-59.666 6.5 -84.999 19.5s-47 30.833 -65 53.5s-31.833 49.167 -41.5 79.5s-14.5 62.5 -14.5 96.5
c0 36 5.5 69.167 16.5 99.5s26 56.833 45 79.5s41.5 40.334 67.5 53.001s54.333 19 85 19zM355.995 676.999c-19.333 -21.333 -38.167 -44.168 -56.5 -68.501s-36.833 -47.166 -55.5 -68.499h-19l94 137h37z" />
    <glyph glyph-name="ocircumflex" unicode="&#xf4;" horiz-adv-x="509" 
d="M445 237c0 34 -4.50098 65 -13.501 93s-21.833 52.167 -38.5 72.5s-36.5 36.166 -59.5 47.499s-48.5 17 -76.5 17s-53.667 -5.83301 -77 -17.5s-43.666 -27.667 -60.999 -48s-30.833 -44.5 -40.5 -72.5s-14.5 -58.667 -14.5 -92c0 -36.667 5.16699 -69.167 15.5 -97.5
s24 -52.166 41 -71.499s36.667 -33.833 59 -43.5s45.5 -14.5 69.5 -14.5c30 0 57.167 5.66699 81.5 17s45 27.166 62 47.499s30 44.333 39 72s13.5 57.834 13.5 90.501zM256.999 488c30 0 57.8291 -6.16797 83.4961 -18.501s47.834 -29.5 66.501 -51.5
s33.167 -48.333 43.5 -79s15.5 -64.667 15.5 -102c0 -36 -5.5 -69.167 -16.5 -99.5s-26.167 -56.5 -45.5 -78.5s-42.166 -39.333 -68.499 -52s-55.166 -19 -86.499 -19s-59.666 6.5 -84.999 19.5s-47 30.833 -65 53.5s-31.833 49.167 -41.5 79.5s-14.5 62.5 -14.5 96.5
c0 36 5.5 69.167 16.5 99.5s26 56.833 45 79.5s41.5 40.334 67.5 53.001s54.333 19 85 19zM270.995 659.999l7.5 -9l18 -22.5l22.5 -29l22.5 -29c7 -9 13 -16.333 18 -22l7.5 -8.5h-24l-84 107l-88 -107h-21l95 120h26z" />
    <glyph glyph-name="otilde" unicode="&#xf5;" horiz-adv-x="509" 
d="M445 237c0 34 -4.50098 65 -13.501 93s-21.833 52.167 -38.5 72.5s-36.5 36.166 -59.5 47.499s-48.5 17 -76.5 17s-53.667 -5.83301 -77 -17.5s-43.666 -27.667 -60.999 -48s-30.833 -44.5 -40.5 -72.5s-14.5 -58.667 -14.5 -92c0 -36.667 5.16699 -69.167 15.5 -97.5
s24 -52.166 41 -71.499s36.667 -33.833 59 -43.5s45.5 -14.5 69.5 -14.5c30 0 57.167 5.66699 81.5 17s45 27.166 62 47.499s30 44.333 39 72s13.5 57.834 13.5 90.501zM256.999 488c30 0 57.8291 -6.16797 83.4961 -18.501s47.834 -29.5 66.501 -51.5
s33.167 -48.333 43.5 -79s15.5 -64.667 15.5 -102c0 -36 -5.5 -69.167 -16.5 -99.5s-26.167 -56.5 -45.5 -78.5s-42.166 -39.333 -68.499 -52s-55.166 -19 -86.499 -19s-59.666 6.5 -84.999 19.5s-47 30.833 -65 53.5s-31.833 49.167 -41.5 79.5s-14.5 62.5 -14.5 96.5
c0 36 5.5 69.167 16.5 99.5s26 56.833 45 79.5s41.5 40.334 67.5 53.001s54.333 19 85 19zM153.995 568.999c1.33301 18 6.16602 33.833 14.499 47.5s20.166 20.5 35.499 20.5c10 0 19.333 -2.16699 28 -6.5s17.167 -9 25.5 -14s16.833 -9.5 25.5 -13.5s18 -6 28 -6
c21.333 0 33 14.333 35 43h16c-1.33301 -18 -5.83301 -32.667 -13.5 -44s-20.167 -17 -37.5 -17c-10 0 -19.333 2 -28 6s-17.167 8.5 -25.5 13.5s-16.666 9.5 -24.999 13.5s-17.5 6 -27.5 6c-11.333 0 -19.166 -4.83301 -23.499 -14.5s-7.83301 -21.167 -10.5 -34.5h-17z
" />
    <glyph glyph-name="odieresis" unicode="&#xf6;" horiz-adv-x="509" 
d="M445 237c0 34 -4.50098 65 -13.501 93s-21.833 52.167 -38.5 72.5s-36.5 36.166 -59.5 47.499s-48.5 17 -76.5 17s-53.667 -5.83301 -77 -17.5s-43.666 -27.667 -60.999 -48s-30.833 -44.5 -40.5 -72.5s-14.5 -58.667 -14.5 -92c0 -36.667 5.16699 -69.167 15.5 -97.5
s24 -52.166 41 -71.499s36.667 -33.833 59 -43.5s45.5 -14.5 69.5 -14.5c30 0 57.167 5.66699 81.5 17s45 27.166 62 47.499s30 44.333 39 72s13.5 57.834 13.5 90.501zM256.999 488c30 0 57.8291 -6.16797 83.4961 -18.501s47.834 -29.5 66.501 -51.5
s33.167 -48.333 43.5 -79s15.5 -64.667 15.5 -102c0 -36 -5.5 -69.167 -16.5 -99.5s-26.167 -56.5 -45.5 -78.5s-42.166 -39.333 -68.499 -52s-55.166 -19 -86.499 -19s-59.666 6.5 -84.999 19.5s-47 30.833 -65 53.5s-31.833 49.167 -41.5 79.5s-14.5 62.5 -14.5 96.5
c0 36 5.5 69.167 16.5 99.5s26 56.833 45 79.5s41.5 40.334 67.5 53.001s54.333 19 85 19zM152.995 607.999c0 6 2 11 6 15s8.66699 6 14 6s10 -2 14 -6s6 -9 6 -15c0 -5.33301 -2 -10 -6 -14s-8.66699 -6 -14 -6s-10 2 -14 6s-6 8.66699 -6 14zM330.995 607.999
c0 6 2 11 6 15s8.66699 6 14 6s10 -2 14 -6s6 -9 6 -15c0 -5.33301 -2 -10 -6 -14s-8.66699 -6 -14 -6s-10 2 -14 6s-6 8.66699 -6 14z" />
    <glyph glyph-name="divide" unicode="&#xf7;" horiz-adv-x="596" 
d="M328 445c0 -7.33301 -2.33203 -13.833 -6.99902 -19.5s-10.667 -8.5 -18 -8.5s-13.333 2.83301 -18 8.5s-7 12.167 -7 19.5c0 8 2.33301 14.667 7 20s11 8 19 8c7.33301 0 13.166 -2.66699 17.499 -8s6.5 -12 6.5 -20zM46.001 254v21h511v-21h-511zM328.001 96
c0 -7.33301 -2.33203 -13.833 -6.99902 -19.5s-10.667 -8.5 -18 -8.5s-13.333 2.83301 -18 8.5s-7 12.167 -7 19.5c0 8 2.33301 14.667 7 20s11 8 19 8c7.33301 0 13.166 -2.66699 17.499 -8s6.5 -12 6.5 -20z" />
    <glyph glyph-name="oslash" unicode="&#xf8;" horiz-adv-x="520" 
d="M409 435c21.333 -23.333 38.5 -51.167 51.5 -83.5s19.5 -68.166 19.5 -107.499c0 -45.333 -6.66699 -84 -20 -116s-30.5 -58.333 -51.5 -79s-44.333 -35.834 -70 -45.501s-51.167 -14.5 -76.5 -14.5c-22 0 -44.167 4 -66.5 12s-43.833 19.333 -64.5 34l-40 -57l-10 8
l41 59c-21.333 23.333 -38.333 51 -51 83s-19 68 -19 108c0 41.333 5.83301 78 17.5 110s27.5 58.833 47.5 80.5s43 38 69 49s53.333 16.5 82 16.5c22.667 0 44.667 -3.83301 66 -11.5s42 -18.5 62 -32.5h5l38 54l11 -8zM267 470.999c-34 0 -63.333 -7 -88 -21
s-44.834 -32 -60.501 -54s-27.334 -46.833 -35.001 -74.5s-11.5 -55.5 -11.5 -83.5c0 -32 4.83301 -62.333 14.5 -91s24.834 -57 45.501 -85l255 365c-16 13.333 -34.167 24 -54.5 32s-42.166 12 -65.499 12zM459 241.999c0 25.333 -4.50195 53.167 -13.502 83.5
s-24.167 59.5 -45.5 87.5l-3 4l-253 -365c17.333 -14 36.333 -24.667 57 -32s41.667 -11 63 -11c28 0 53.833 5.83301 77.5 17.5s44.334 27.667 62.001 48s31.334 44.833 41.001 73.5s14.5 60 14.5 94z" />
    <glyph glyph-name="ugrave" unicode="&#xf9;" horiz-adv-x="519" 
d="M402 0c-1.33301 10.667 -1.99902 24.4961 -1.99902 41.4961v51.5c-10.667 -21.333 -25.667 -40.666 -45 -57.999c-10 -9.33301 -24.833 -19 -44.5 -29s-42.834 -15 -69.501 -15c-50.667 0 -90.167 16.833 -118.5 50.5s-42.5 82.834 -42.5 147.501v289h21v-289
c0 -59.333 12.5 -103.666 37.5 -132.999s59.167 -44 102.5 -44c24.667 0 45.334 4.5 62.001 13.5s29.667 17.5 39 25.5c18.667 16 32.667 34.833 42 56.5s14.666 44.834 15.999 69.501v301h21v-66v-235v-79v-55c0 -18 0.666992 -32.333 2 -43h-21zM197.001 678.996
c13.333 -20.667 29.168 -43.667 47.501 -69s34.166 -48.333 47.499 -69h-20l-12.5 16l-29.5 38l-36 45.5l-32 38.5h35z" />
    <glyph glyph-name="uacute" unicode="&#xfa;" horiz-adv-x="502" 
d="M402 0c-1.33301 10.667 -1.99902 24.4961 -1.99902 41.4961v51.5c-10.667 -21.333 -25.667 -40.666 -45 -57.999c-10 -9.33301 -24.833 -19 -44.5 -29s-42.834 -15 -69.501 -15c-50.667 0 -90.167 16.833 -118.5 50.5s-42.5 82.834 -42.5 147.501v289h21v-289
c0 -59.333 12.5 -103.666 37.5 -132.999s59.167 -44 102.5 -44c24.667 0 45.334 4.5 62.001 13.5s29.667 17.5 39 25.5c18.667 16 32.667 34.833 42 56.5s14.666 44.834 15.999 69.501v301h21v-66v-235v-79v-55c0 -18 0.666992 -32.333 2 -43h-21zM366.001 676.996
c-19.333 -21.333 -38.167 -44.168 -56.5 -68.501s-36.833 -47.166 -55.5 -68.499h-19l94 137h37z" />
    <glyph glyph-name="ucircumflex" unicode="&#xfb;" horiz-adv-x="519" 
d="M402 0c-1.33301 10.667 -1.99902 24.4961 -1.99902 41.4961v51.5c-10.667 -21.333 -25.667 -40.666 -45 -57.999c-10 -9.33301 -24.833 -19 -44.5 -29s-42.834 -15 -69.501 -15c-50.667 0 -90.167 16.833 -118.5 50.5s-42.5 82.834 -42.5 147.501v289h21v-289
c0 -59.333 12.5 -103.666 37.5 -132.999s59.167 -44 102.5 -44c24.667 0 45.334 4.5 62.001 13.5s29.667 17.5 39 25.5c18.667 16 32.667 34.833 42 56.5s14.666 44.834 15.999 69.501v301h21v-66v-235v-79v-55c0 -18 0.666992 -32.333 2 -43h-21zM271.001 659.996l7.5 -9
l18 -22.5l22.5 -29l22.5 -29c7 -9 13 -16.333 18 -22l7.5 -8.5h-24l-84 107l-88 -107h-21l95 120h26z" />
    <glyph glyph-name="udieresis" unicode="&#xfc;" horiz-adv-x="519" 
d="M153 608c0 6 2 11 6 15s8.66699 6 14 6s10 -2 14 -6s6 -9 6 -15c0 -5.33301 -2 -10 -6 -14s-8.66699 -6 -14 -6s-10 2 -14 6s-6 8.66699 -6 14zM331 608c0 6 2 11 6 15s8.66699 6 14 6s10 -2 14 -6s6 -9 6 -15c0 -5.33301 -2 -10 -6 -14s-8.66699 -6 -14 -6s-10 2 -14 6
s-6 8.66699 -6 14zM402 0c-1.33301 10.667 -1.99902 24.4961 -1.99902 41.4961v51.5c-10.667 -21.333 -25.667 -40.666 -45 -57.999c-10 -9.33301 -24.833 -19 -44.5 -29s-42.834 -15 -69.501 -15c-50.667 0 -90.167 16.833 -118.5 50.5s-42.5 82.834 -42.5 147.501v289h21
v-289c0 -59.333 12.5 -103.666 37.5 -132.999s59.167 -44 102.5 -44c24.667 0 45.334 4.5 62.001 13.5s29.667 17.5 39 25.5c18.667 16 32.667 34.833 42 56.5s14.666 44.834 15.999 69.501v301h21v-66v-235v-79v-55c0 -18 0.666992 -32.333 2 -43h-21z" />
    <glyph glyph-name="yacute" unicode="&#xfd;" horiz-adv-x="431" 
d="M330 675c-19.333 -21.333 -38.167 -44.168 -56.5 -68.501s-36.833 -47.166 -55.5 -68.499h-19l94 137h37zM19.999 -200.002c11.333 4.66699 24.001 11.834 38.001 21.501s28.5 22.667 43.5 39s29.833 36.5 44.5 60.5s28.667 53 42 87l5 11l-180 457h22l169 -428l28 69
l36 89l38 94.5l34 86l24.5 63c6.33301 16.333 9.5 25.166 9.5 26.499h24l-164 -410c-7.33301 -17.333 -13 -31.166 -17 -41.499l-8 -20.5c-14 -36 -28.833 -66.833 -44.5 -92.5s-31.334 -47.334 -47.001 -65.001s-31.167 -31.667 -46.5 -42s-30 -18.5 -44 -24.5z" />
    <glyph glyph-name="thorn" unicode="&#xfe;" horiz-adv-x="540" 
d="M112 672l-0.00195312 -308c14.667 44 39.167 76.333 73.5 97s74.5 31 120.5 31c26.667 0 52 -6.33301 76 -19s44.667 -30 62 -52s31.166 -47.833 41.499 -77.5s15.5 -61.5 15.5 -95.5c0 -46 -5.83301 -85.333 -17.5 -118s-27.167 -59.5 -46.5 -80.5
s-41.666 -36.333 -66.999 -46s-52 -14.5 -80 -14.5c-35.333 0 -69.166 10 -101.499 30s-57.166 49 -74.499 87c0 -23.333 -0.166992 -48.333 -0.5 -75s-0.5 -53.667 -0.5 -81s-0.166992 -54.333 -0.5 -81s-0.5 -52 -0.5 -76h-22v879h22zM111.998 193
c0 -16.667 2.33301 -32.333 7 -47c6 -20 14.833 -38.5 26.5 -55.5s25 -31.5 40 -43.5s31.667 -21.333 50 -28s37.5 -10 57.5 -10c28 0 53.5 5.66699 76.5 17s42.5 27.166 58.5 47.499s28.333 45.166 37 74.499s13 62 13 98c0 30 -4.16699 58.5 -12.5 85.5
s-20.333 50.833 -36 71.5s-35 37.167 -58 49.5s-49.167 18.5 -78.5 18.5c-19.333 0 -37.833 -3.16699 -55.5 -9.5s-34 -15.166 -49 -26.499s-28.333 -25.166 -40 -41.499s-20.5 -34.5 -26.5 -54.5c-3.33301 -9.33301 -5.83301 -19 -7.5 -29s-2.5 -19.667 -2.5 -29v-88z" />
    <glyph glyph-name="ydieresis" unicode="&#xff;" horiz-adv-x="410" 
d="M20 -200c11.333 4.66699 24.001 11.834 38.001 21.501s28.5 22.667 43.5 39s29.833 36.5 44.5 60.5s28.667 53 42 87l5 11l-180 457h22l169 -428l28 69l36 89l38 94.5l34 86l24.5 63c6.33301 16.333 9.5 25.166 9.5 26.499h24l-164 -410
c-7.33301 -17.333 -13 -31.166 -17 -41.499l-8 -20.5c-14 -36 -28.833 -66.833 -44.5 -92.5s-31.334 -47.334 -47.001 -65.001s-31.167 -31.667 -46.5 -42s-30 -18.5 -44 -24.5zM119.001 610c0 6 2 11 6 15s8.66699 6 14 6s10 -2 14 -6s6 -9 6 -15c0 -5.33301 -2 -10 -6 -14
s-8.66699 -6 -14 -6s-10 2 -14 6s-6 8.66699 -6 14zM297.001 610c0 6 2 11 6 15s8.66699 6 14 6s10 -2 14 -6s6 -9 6 -15c0 -5.33301 -2 -10 -6 -14s-8.66699 -6 -14 -6s-10 2 -14 6s-6 8.66699 -6 14z" />
    <glyph glyph-name="Amacron" unicode="&#x100;" horiz-adv-x="574" 
d="M33 0l245 674h11l246 -674h-24l-92 251h-272l-93 -251h-21zM155 272h259l-130 354zM405 752v-18h-229v18h229z" />
    <glyph glyph-name="amacron" unicode="&#x101;" horiz-adv-x="446" 
d="M334 0c-0.666992 6.66699 -1.49805 18 -2.49805 34s-1.5 32.667 -1.5 50c-17.333 -25.333 -32 -42.833 -44 -52.5s-24.167 -17.334 -36.5 -23.001s-24.666 -9.66699 -36.999 -12s-23.833 -3.5 -34.5 -3.5c-18.667 0 -36.334 2.33301 -53.001 7s-31.167 12.167 -43.5 22.5
s-22.166 23.5 -29.499 39.5s-11 35.333 -11 58c0 24 4.5 46.333 13.5 67s24 38.667 45 54s48.5 27.5 82.5 36.5s76 13.5 126 13.5h19v33c0 10 -1 23.333 -3 40s-7.5 33 -16.5 49s-22 29.667 -39 41s-39.833 17 -68.5 17c-40 0 -79.333 -13.333 -118 -40l-11 16
c20 15.333 41 26.5 63 33.5s43.667 10.5 65 10.5c25.333 0 46.666 -4 63.999 -12s31.666 -18 42.999 -30s20 -25.333 26 -40s10.167 -28.667 12.5 -42s3.66602 -25 3.99902 -35s0.5 -16.667 0.5 -20v-106v-34c0 -17.333 0.166992 -36.666 0.5 -57.999s1 -42.5 2 -63.5
s2.5 -37.833 4.5 -50.5h-22zM305.002 79c4 6 7.49707 11.6641 10.4971 16.9971s5.33301 12.166 7 20.499s2.83398 18.833 3.50098 31.5s1 29.334 1 50.001v72c-14.667 0.666992 -24.667 1 -30 1c-24 0 -49.667 -2 -77 -6s-52.666 -11.5 -75.999 -22.5
s-42.833 -26.333 -58.5 -46s-23.5 -45.167 -23.5 -76.5c0 -19.333 3.16699 -35.666 9.5 -48.999s14.833 -24.333 25.5 -33s23 -15 37 -19s28.667 -6 44 -6c8 0 17.167 0.833008 27.5 2.5s21 4.83398 32 9.50098s22.333 11.334 34 20.001s22.834 20 33.501 34z
M322.999 568.997v-18h-229v18h229z" />
    <glyph glyph-name="Abreve" unicode="&#x102;" horiz-adv-x="574" 
d="M33 0l245 674h11l246 -674h-24l-92 251h-272l-93 -251h-21zM155 272h259l-130 354zM199 837c4 -22 13.834 -40.498 29.501 -55.498s35.5 -22.5 59.5 -22.5c28 0 49.333 7.66699 64 23s22.667 33.666 24 54.999h20c-0.666992 -30 -10.834 -54 -30.501 -72
s-45.5 -27 -77.5 -27c-20 0 -36.833 3.66699 -50.5 11s-24.667 16.333 -33 27s-14.5 21.667 -18.5 33s-6 20.666 -6 27.999h19z" />
    <glyph glyph-name="abreve" unicode="&#x103;" horiz-adv-x="446" 
d="M334 0c-0.666992 6.66699 -1.49805 18 -2.49805 34s-1.5 32.667 -1.5 50c-17.333 -25.333 -32 -42.833 -44 -52.5s-24.167 -17.334 -36.5 -23.001s-24.666 -9.66699 -36.999 -12s-23.833 -3.5 -34.5 -3.5c-18.667 0 -36.334 2.33301 -53.001 7s-31.167 12.167 -43.5 22.5
s-22.166 23.5 -29.499 39.5s-11 35.333 -11 58c0 24 4.5 46.333 13.5 67s24 38.667 45 54s48.5 27.5 82.5 36.5s76 13.5 126 13.5h19v33c0 10 -1 23.333 -3 40s-7.5 33 -16.5 49s-22 29.667 -39 41s-39.833 17 -68.5 17c-40 0 -79.333 -13.333 -118 -40l-11 16
c20 15.333 41 26.5 63 33.5s43.667 10.5 65 10.5c25.333 0 46.666 -4 63.999 -12s31.666 -18 42.999 -30s20 -25.333 26 -40s10.167 -28.667 12.5 -42s3.66602 -25 3.99902 -35s0.5 -16.667 0.5 -20v-106v-34c0 -17.333 0.166992 -36.666 0.5 -57.999s1 -42.5 2 -63.5
s2.5 -37.833 4.5 -50.5h-22zM305.002 79c4 6 7.49707 11.6641 10.4971 16.9971s5.33301 12.166 7 20.499s2.83398 18.833 3.50098 31.5s1 29.334 1 50.001v72c-14.667 0.666992 -24.667 1 -30 1c-24 0 -49.667 -2 -77 -6s-52.666 -11.5 -75.999 -22.5
s-42.833 -26.333 -58.5 -46s-23.5 -45.167 -23.5 -76.5c0 -19.333 3.16699 -35.666 9.5 -48.999s14.833 -24.333 25.5 -33s23 -15 37 -19s28.667 -6 44 -6c8 0 17.167 0.833008 27.5 2.5s21 4.83398 32 9.50098s22.333 11.334 34 20.001s22.834 20 33.501 34z
M116.999 653.997c4 -22 13.834 -40.498 29.501 -55.498s35.5 -22.5 59.5 -22.5c28 0 49.333 7.66699 64 23s22.667 33.666 24 54.999h20c-0.666992 -30 -10.834 -54 -30.501 -72s-45.5 -27 -77.5 -27c-20 0 -36.833 3.66699 -50.5 11s-24.667 16.333 -33 27
s-14.5 21.667 -18.5 33s-6 20.666 -6 27.999h19z" />
    <glyph glyph-name="Aogonek" unicode="&#x104;" horiz-adv-x="574" 
d="M33 0l245 674h11l246 -674h-24l-92 251h-272l-93 -251h-21zM155 272h259l-130 354zM534 1c-11.333 -6 -22.8311 -14 -34.498 -24s-22.167 -20.667 -31.5 -32s-16.833 -22.833 -22.5 -34.5s-7.83398 -22.834 -6.50098 -33.501c2.66699 -20.667 9.33398 -34.5 20.001 -41.5
s23.667 -10.5 39 -10.5c6 0 12.667 0.333008 20 1s14.666 2.33398 21.999 5.00098l6 -17c-8 -3.33301 -17.333 -6 -28 -8s-20.667 -3 -30 -3c-20 0 -37 7.33301 -51 22s-21 32.667 -21 54c0 12 3.16699 24.333 9.5 37s14.166 24.667 23.499 36s19.5 21.333 30.5 30
s21.167 15 30.5 19h24z" />
    <glyph glyph-name="aogonek" unicode="&#x105;" horiz-adv-x="446" 
d="M334 0c-0.666992 6.66699 -1.49805 18 -2.49805 34s-1.5 32.667 -1.5 50c-17.333 -25.333 -32 -42.833 -44 -52.5s-24.167 -17.334 -36.5 -23.001s-24.666 -9.66699 -36.999 -12s-23.833 -3.5 -34.5 -3.5c-18.667 0 -36.334 2.33301 -53.001 7s-31.167 12.167 -43.5 22.5
s-22.166 23.5 -29.499 39.5s-11 35.333 -11 58c0 24 4.5 46.333 13.5 67s24 38.667 45 54s48.5 27.5 82.5 36.5s76 13.5 126 13.5h19v33c0 10 -1 23.333 -3 40s-7.5 33 -16.5 49s-22 29.667 -39 41s-39.833 17 -68.5 17c-40 0 -79.333 -13.333 -118 -40l-11 16
c20 15.333 41 26.5 63 33.5s43.667 10.5 65 10.5c25.333 0 46.666 -4 63.999 -12s31.666 -18 42.999 -30s20 -25.333 26 -40s10.167 -28.667 12.5 -42s3.66602 -25 3.99902 -35s0.5 -16.667 0.5 -20v-106v-34c0 -17.333 0.166992 -36.666 0.5 -57.999s1 -42.5 2 -63.5
s2.5 -37.833 4.5 -50.5h-22zM305.002 79c4 6 7.49707 11.6641 10.4971 16.9971s5.33301 12.166 7 20.499s2.83398 18.833 3.50098 31.5s1 29.334 1 50.001v72c-14.667 0.666992 -24.667 1 -30 1c-24 0 -49.667 -2 -77 -6s-52.666 -11.5 -75.999 -22.5
s-42.833 -26.333 -58.5 -46s-23.5 -45.167 -23.5 -76.5c0 -19.333 3.16699 -35.666 9.5 -48.999s14.833 -24.333 25.5 -33s23 -15 37 -19s28.667 -6 44 -6c8 0 17.167 0.833008 27.5 2.5s21 4.83398 32 9.50098s22.333 11.334 34 20.001s22.834 20 33.501 34z
M357.999 -0.00292969c-11.333 -6 -22.8311 -14 -34.498 -24s-22.167 -20.667 -31.5 -32s-16.833 -22.833 -22.5 -34.5s-7.83398 -22.834 -6.50098 -33.501c2.66699 -20.667 9.33398 -34.5 20.001 -41.5s23.667 -10.5 39 -10.5c6 0 12.667 0.333008 20 1
s14.666 2.33398 21.999 5.00098l6 -17c-8 -3.33301 -17.333 -6 -28 -8s-20.667 -3 -30 -3c-20 0 -37 7.33301 -51 22s-21 32.667 -21 54c0 12 3.16699 24.333 9.5 37s14.166 24.667 23.499 36s19.5 21.333 30.5 30s21.167 15 30.5 19h24z" />
    <glyph glyph-name="Cacute" unicode="&#x106;" horiz-adv-x="556" 
d="M513 21c-22.667 -10 -48.665 -17.835 -77.998 -23.502s-59.333 -8.5 -90 -8.5c-47.333 1.33301 -90 10 -128 26s-70.167 38.833 -96.5 68.5s-46.666 65.834 -60.999 108.501s-21.5 91.334 -21.5 146.001c0 52 7.83301 99.333 23.5 142s38 79.167 67 109.5
s64.167 53.833 105.5 70.5s87.666 25 138.999 25c24 0 47.333 -2.16699 70 -6.5s44.667 -12.166 66 -23.499l-7 -20c-20.667 9.33301 -42.334 16.333 -65.001 21s-42.667 7 -60 7c-48 0 -91.667 -7.16699 -131 -21.5s-72.833 -35.333 -100.5 -63s-49 -61.667 -64 -102
s-22.5 -86.5 -22.5 -138.5c0 -50 6.33301 -95 19 -135s31.334 -74.333 56.001 -103s54.667 -50.667 90 -66s75.666 -23 120.999 -23c30 0 59.167 2.66699 87.5 8s53.166 12.666 74.499 21.999zM325.002 870.998c-4 -4.66699 -11.333 -14.167 -22 -28.5l-34 -45l-32 -42.5
c-9.33301 -12.667 -14.333 -19.667 -15 -21l-17 1l87 136h33z" />
    <glyph glyph-name="cacute" unicode="&#x107;" horiz-adv-x="435" 
d="M388 439c-15.333 9.33301 -33.001 16.5 -53.001 21.5s-41.333 7.5 -64 7.5c-26 0 -51.333 -5.16699 -76 -15.5s-46.667 -25.166 -66 -44.499s-35 -43.333 -47 -72s-18 -61.334 -18 -98.001s5.33301 -69.167 16 -97.5s24.834 -52.166 42.501 -71.499s38 -33.833 61 -43.5
s46.833 -14.5 71.5 -14.5c50.667 0 94.667 9.33301 132 28l5 -21c-19.333 -9.33301 -41 -16.333 -65 -21s-48.333 -7 -73 -7c-27.333 0 -53.666 5.16699 -78.999 15.5s-47.833 26 -67.5 47s-35.334 47 -47.001 78s-17.5 66.833 -17.5 107.5c0 40 6.5 75.5 19.5 106.5
s30.333 57.333 52 79s46.167 38 73.5 49s55 16.5 83 16.5c24 0 47.167 -2.83301 69.5 -8.5s40.5 -12.834 54.5 -21.501zM266.999 678c-4 -4.66699 -11.333 -14.167 -22 -28.5l-34 -45l-32 -42.5c-9.33301 -12.667 -14.333 -19.667 -15 -21l-17 1l87 136h33z" />
    <glyph glyph-name="Ccircumflex" unicode="&#x108;" horiz-adv-x="556" 
d="M513 21c-22.667 -10 -48.665 -17.835 -77.998 -23.502s-59.333 -8.5 -90 -8.5c-47.333 1.33301 -90 10 -128 26s-70.167 38.833 -96.5 68.5s-46.666 65.834 -60.999 108.501s-21.5 91.334 -21.5 146.001c0 52 7.83301 99.333 23.5 142s38 79.167 67 109.5
s64.167 53.833 105.5 70.5s87.666 25 138.999 25c24 0 47.333 -2.16699 70 -6.5s44.667 -12.166 66 -23.499l-7 -20c-20.667 9.33301 -42.334 16.333 -65.001 21s-42.667 7 -60 7c-48 0 -91.667 -7.16699 -131 -21.5s-72.833 -35.333 -100.5 -63s-49 -61.667 -64 -102
s-22.5 -86.5 -22.5 -138.5c0 -50 6.33301 -95 19 -135s31.334 -74.333 56.001 -103s54.667 -50.667 90 -66s75.666 -23 120.999 -23c30 0 59.167 2.66699 87.5 8s53.166 12.666 74.499 21.999zM291.002 870.998l94 -136h-30l-76 120l-79 -120h-27l91 136h27z" />
    <glyph glyph-name="ccircumflex" unicode="&#x109;" horiz-adv-x="435" 
d="M388 439c-15.333 9.33301 -33.001 16.5 -53.001 21.5s-41.333 7.5 -64 7.5c-26 0 -51.333 -5.16699 -76 -15.5s-46.667 -25.166 -66 -44.499s-35 -43.333 -47 -72s-18 -61.334 -18 -98.001s5.33301 -69.167 16 -97.5s24.834 -52.166 42.501 -71.499s38 -33.833 61 -43.5
s46.833 -14.5 71.5 -14.5c50.667 0 94.667 9.33301 132 28l5 -21c-19.333 -9.33301 -41 -16.333 -65 -21s-48.333 -7 -73 -7c-27.333 0 -53.666 5.16699 -78.999 15.5s-47.833 26 -67.5 47s-35.334 47 -47.001 78s-17.5 66.833 -17.5 107.5c0 40 6.5 75.5 19.5 106.5
s30.333 57.333 52 79s46.167 38 73.5 49s55 16.5 83 16.5c24 0 47.167 -2.83301 69.5 -8.5s40.5 -12.834 54.5 -21.501zM232.999 678l94 -136h-30l-76 120l-79 -120h-27l91 136h27z" />
    <glyph glyph-name="Cdotaccent" unicode="&#x10a;" horiz-adv-x="556" 
d="M513 21c-22.667 -10 -48.665 -17.835 -77.998 -23.502s-59.333 -8.5 -90 -8.5c-47.333 1.33301 -90 10 -128 26s-70.167 38.833 -96.5 68.5s-46.666 65.834 -60.999 108.501s-21.5 91.334 -21.5 146.001c0 52 7.83301 99.333 23.5 142s38 79.167 67 109.5
s64.167 53.833 105.5 70.5s87.666 25 138.999 25c24 0 47.333 -2.16699 70 -6.5s44.667 -12.166 66 -23.499l-7 -20c-20.667 9.33301 -42.334 16.333 -65.001 21s-42.667 7 -60 7c-48 0 -91.667 -7.16699 -131 -21.5s-72.833 -35.333 -100.5 -63s-49 -61.667 -64 -102
s-22.5 -86.5 -22.5 -138.5c0 -50 6.33301 -95 19 -135s31.334 -74.333 56.001 -103s54.667 -50.667 90 -66s75.666 -23 120.999 -23c30 0 59.167 2.66699 87.5 8s53.166 12.666 74.499 21.999zM260.002 758.998c0 7.33301 2.33301 13.5 7 18.5s10.667 7.5 18 7.5
s13.5 -2.5 18.5 -7.5s7.5 -11.167 7.5 -18.5s-2.5 -13.333 -7.5 -18s-11.167 -7 -18.5 -7s-13.333 2.33301 -18 7s-7 10.667 -7 18z" />
    <glyph glyph-name="cdotaccent" unicode="&#x10b;" horiz-adv-x="435" 
d="M388 439c-15.333 9.33301 -33.001 16.5 -53.001 21.5s-41.333 7.5 -64 7.5c-26 0 -51.333 -5.16699 -76 -15.5s-46.667 -25.166 -66 -44.499s-35 -43.333 -47 -72s-18 -61.334 -18 -98.001s5.33301 -69.167 16 -97.5s24.834 -52.166 42.501 -71.499s38 -33.833 61 -43.5
s46.833 -14.5 71.5 -14.5c50.667 0 94.667 9.33301 132 28l5 -21c-19.333 -9.33301 -41 -16.333 -65 -21s-48.333 -7 -73 -7c-27.333 0 -53.666 5.16699 -78.999 15.5s-47.833 26 -67.5 47s-35.334 47 -47.001 78s-17.5 66.833 -17.5 107.5c0 40 6.5 75.5 19.5 106.5
s30.333 57.333 52 79s46.167 38 73.5 49s55 16.5 83 16.5c24 0 47.167 -2.83301 69.5 -8.5s40.5 -12.834 54.5 -21.501zM201.999 566c0 7.33301 2.33301 13.5 7 18.5s10.667 7.5 18 7.5s13.5 -2.5 18.5 -7.5s7.5 -11.167 7.5 -18.5s-2.5 -13.333 -7.5 -18
s-11.167 -7 -18.5 -7s-13.333 2.33301 -18 7s-7 10.667 -7 18z" />
    <glyph glyph-name="Ccaron" unicode="&#x10c;" horiz-adv-x="556" 
d="M513 21c-22.667 -10 -48.665 -17.835 -77.998 -23.502s-59.333 -8.5 -90 -8.5c-47.333 1.33301 -90 10 -128 26s-70.167 38.833 -96.5 68.5s-46.666 65.834 -60.999 108.501s-21.5 91.334 -21.5 146.001c0 52 7.83301 99.333 23.5 142s38 79.167 67 109.5
s64.167 53.833 105.5 70.5s87.666 25 138.999 25c24 0 47.333 -2.16699 70 -6.5s44.667 -12.166 66 -23.499l-7 -20c-20.667 9.33301 -42.334 16.333 -65.001 21s-42.667 7 -60 7c-48 0 -91.667 -7.16699 -131 -21.5s-72.833 -35.333 -100.5 -63s-49 -61.667 -64 -102
s-22.5 -86.5 -22.5 -138.5c0 -50 6.33301 -95 19 -135s31.334 -74.333 56.001 -103s54.667 -50.667 90 -66s75.666 -23 120.999 -23c30 0 59.167 2.66699 87.5 8s53.166 12.666 74.499 21.999zM321.002 733.998l-94.001 137h30l76 -120l51.5 79
c11.667 18 20.834 31.667 27.501 41h28l-46 -68.5l-46 -68.5h-27z" />
    <glyph glyph-name="ccaron" unicode="&#x10d;" horiz-adv-x="435" 
d="M388 439c-15.333 9.33301 -33.001 16.5 -53.001 21.5s-41.333 7.5 -64 7.5c-26 0 -51.333 -5.16699 -76 -15.5s-46.667 -25.166 -66 -44.499s-35 -43.333 -47 -72s-18 -61.334 -18 -98.001s5.33301 -69.167 16 -97.5s24.834 -52.166 42.501 -71.499s38 -33.833 61 -43.5
s46.833 -14.5 71.5 -14.5c50.667 0 94.667 9.33301 132 28l5 -21c-19.333 -9.33301 -41 -16.333 -65 -21s-48.333 -7 -73 -7c-27.333 0 -53.666 5.16699 -78.999 15.5s-47.833 26 -67.5 47s-35.334 47 -47.001 78s-17.5 66.833 -17.5 107.5c0 40 6.5 75.5 19.5 106.5
s30.333 57.333 52 79s46.167 38 73.5 49s55 16.5 83 16.5c24 0 47.167 -2.83301 69.5 -8.5s40.5 -12.834 54.5 -21.501zM247.999 551l-94.001 137h30l76 -120l51.5 79c11.667 18 20.834 31.667 27.501 41h28l-46 -68.5l-46 -68.5h-27z" />
    <glyph glyph-name="Dcaron" unicode="&#x10e;" horiz-adv-x="632" 
d="M84 664c16 3.33301 32.168 6.00098 48.501 8.00098s32.166 3.5 47.499 4.5s30 1.66699 44 2s26.333 0.5 37 0.5c102 0 180.833 -28.667 236.5 -86s83.5 -141 83.5 -251c0 -56.667 -8.83301 -106.334 -26.5 -149.001s-41.5 -78.667 -71.5 -108
c-36.667 -35.333 -78.5 -59 -125.5 -71s-99.167 -18 -156.5 -18c-15.333 0 -33.333 0.333008 -54 1s-41.667 1.66699 -63 3v664zM259.001 658.001c-28 0 -54.333 -0.831055 -79 -2.49805s-49.667 -4.83398 -75 -9.50098v-625c8 -0.666992 16.833 -1.33398 26.5 -2.00098
s19 -1.16699 28 -1.5s17.167 -0.5 24.5 -0.5h17c54 0 103.333 5.5 148 16.5s84.667 33.167 120 66.5c29.333 27.333 51.833 62.5 67.5 105.5s23.5 88.5 23.5 136.5c0 105.333 -26.333 184.333 -79 237s-126.667 79 -222 79zM280.001 726.003l-94.001 137h30l76 -120l51.5 79
c11.667 18 20.834 31.667 27.501 41h28l-46 -68.5l-46 -68.5h-27z" />
    <glyph glyph-name="dcaron" unicode="&#x10f;" horiz-adv-x="705" 
d="M417 0c-1.33301 11.333 -2.16309 25.665 -2.49609 42.998s-0.5 35.666 -0.5 54.999c-15.333 -32 -38 -58.167 -68 -78.5s-63.667 -30.5 -101 -30.5c-24.667 0 -49.167 5.33301 -73.5 16s-46 26.334 -65 47.001s-34.333 46.5 -46 77.5s-17.5 66.5 -17.5 106.5
c0 36 5.33301 69.333 16 100s25.167 57.167 43.5 79.5s40.166 40 65.499 53s52.666 19.5 81.999 19.5c37.333 0 70.166 -9.33301 98.499 -28s50.166 -42 65.499 -70v319h20v-531v-23c0 -14.667 0.166992 -31.667 0.5 -51s0.833008 -38.666 1.5 -57.999
s1.66699 -34.666 3 -45.999h-22zM245.003 9.99902c25.333 0 48.334 5.16797 69.001 15.501s38.5 23.666 53.5 39.999s26.5 35.166 34.5 56.499s12 43 12 65v127c0 18 -4 36 -12 54s-19.333 34.333 -34 49s-32 26.667 -52 36s-42 14 -66 14
c-24.667 0 -48.334 -5.16699 -71.001 -15.5s-42.667 -25.5 -60 -45.5c-18.667 -21.333 -32.5 -46.666 -41.5 -75.999s-13.5 -60.666 -13.5 -93.999c0 -32.667 4.5 -62.834 13.5 -90.501s21.5 -51.5 37.5 -71.5s35.167 -35.667 57.5 -47s46.5 -17 72.5 -17zM670.004 688
l-18 -59.5l-20 -63c-6.66699 -20.333 -13.167 -38.833 -19.5 -55.5s-11.5 -29 -15.5 -37h-8.5c-3 0 -5.16699 -0.333008 -6.5 -1c4.66699 12.667 9.66699 28.167 15 46.5l16 57c5.33301 19.667 10.333 39.167 15 58.5s8 36 10 50z" />
    <glyph glyph-name="Dcroat" unicode="&#x110;" horiz-adv-x="636" 
d="M-4 353l88.001 0.000976562v311c16 3.33301 32.167 6 48.5 8s32.166 3.5 47.499 4.5s30 1.66699 44 2s26.333 0.5 37 0.5c102 0 180.833 -28.667 236.5 -86s83.5 -141 83.5 -251c0 -56.667 -8.83301 -106.334 -26.5 -149.001s-41.5 -78.667 -71.5 -108
c-36.667 -35.333 -78.5 -59 -125.5 -71s-99.167 -18 -156.5 -18c-15.333 0 -33.333 0.333008 -54 1s-41.667 1.66699 -63 3v334h-88v19zM259.001 658.001c-28 0 -54.333 -0.831055 -79 -2.49805s-49.667 -4.83398 -75 -9.50098v-293h229v-19h-229v-313
c8 -0.666992 16.833 -1.33398 26.5 -2.00098s19 -1.16699 28 -1.5s17.167 -0.5 24.5 -0.5h17c54 0 103.333 5.5 148 16.5s84.667 33.167 120 66.5c29.333 27.333 51.833 62.5 67.5 105.5s23.5 88.5 23.5 136.5c0 105.333 -26.333 184.333 -79 237s-126.667 79 -222 79z" />
    <glyph glyph-name="dcroat" unicode="&#x111;" horiz-adv-x="532" 
d="M300 600l0.00195312 21.998h125v96h25v-96h77v-22h-77v-225c0 -62 0.166992 -114.333 0.5 -157s0.5 -76.834 0.5 -102.501s0.166992 -46.167 0.5 -61.5s0.666016 -26.666 0.999023 -33.999s0.833008 -14 1.5 -20h-22l-2 117l-18 -32
c-13.333 -27.333 -33.5 -49.666 -60.5 -66.999s-62.5 -26 -106.5 -26c-28 0 -53.833 5.66699 -77.5 17s-44.334 27.5 -62.001 48.5s-31.5 46.167 -41.5 75.5s-15 62.333 -15 99c0 40 5.33301 76 16 108s25.334 59.333 44.001 82s40.5 40 65.5 52s51.833 18 80.5 18
c19.333 0 37.666 -2.66699 54.999 -8s33 -12.166 47 -20.499s26 -18 36 -29s17.667 -22.167 23 -33.5l9 -18v217h-125zM425.002 293.998c0 15.333 -2.00098 30.6641 -6.00098 45.9971c-4 17.333 -10.833 33.833 -20.5 49.5s-21.5 29.334 -35.5 41.001s-30 21 -48 28
s-37.333 10.5 -58 10.5c-28 0 -53.333 -5.83301 -76 -17.5s-42 -27.667 -58 -48s-28.5 -44.833 -37.5 -73.5s-13.5 -60 -13.5 -94c0 -29.333 3.83301 -57.666 11.5 -84.999s19.334 -51.333 35.001 -72s34.834 -37.167 57.501 -49.5s49 -18.5 79 -18.5c18 0 35.667 3 53 9
s33.166 14.833 47.499 26.5s27 25.834 38 42.501s19.5 36 25.5 58c4 12.667 6 26.667 6 42v105z" />
    <glyph glyph-name="Emacron" unicode="&#x112;" horiz-adv-x="456" 
d="M407 21v-21h-323v674h307v-21h-286v-286h270v-21h-270v-325h302zM366 752v-18h-229v18h229z" />
    <glyph glyph-name="emacron" unicode="&#x113;" horiz-adv-x="474" 
d="M394 19c-20 -10.667 -41.334 -18.3311 -64.001 -22.998s-47 -7 -73 -7c-33.333 0.666992 -63.166 7 -89.499 19s-48.666 28.667 -66.999 50s-32.5 47.166 -42.5 77.499s-15 64.5 -15 102.5c0 36 5.16699 69.333 15.5 100s24.666 57 42.999 79s40 39.333 65 52
s52.5 19.334 82.5 20.001c28 0 51.5 -5 70.5 -15s34.833 -21.667 47.5 -35c12 -12 21.667 -26 29 -42c7.33301 -14 14 -34 20 -60s9 -53 9 -81h-361v-18c0 -74.667 18.5 -131.334 55.5 -170.001s87.833 -58 152.5 -58c21.333 0 42 2.66699 62 8s38 12.666 54 21.999z
M248.999 468.003c-24 0 -46.501 -4.66699 -67.501 -14s-39.5 -22.333 -55.5 -39s-29.167 -36.667 -39.5 -60s-17.166 -49 -20.499 -77l338 -2c-2.66699 18.667 -5 34.167 -7 46.5s-4 21.5 -6 27.5c-9.33301 34 -26.333 62.167 -51 84.5s-55 33.5 -91 33.5zM351.998 569.003
v-18h-229v18h229z" />
    <glyph glyph-name="Ebreve" unicode="&#x114;" horiz-adv-x="456" 
d="M407 21v-21h-323v674h307v-21h-286v-286h270v-21h-270v-325h302zM160 837c4 -22 13.834 -40.498 29.501 -55.498s35.5 -22.5 59.5 -22.5c28 0 49.333 7.66699 64 23s22.667 33.666 24 54.999h20c-0.666992 -30 -10.834 -54 -30.501 -72s-45.5 -27 -77.5 -27
c-20 0 -36.833 3.66699 -50.5 11s-24.667 16.333 -33 27s-14.5 21.667 -18.5 33s-6 20.666 -6 27.999h19z" />
    <glyph glyph-name="ebreve" unicode="&#x115;" horiz-adv-x="474" 
d="M394 19c-20 -10.667 -41.334 -18.3311 -64.001 -22.998s-47 -7 -73 -7c-33.333 0.666992 -63.166 7 -89.499 19s-48.666 28.667 -66.999 50s-32.5 47.166 -42.5 77.499s-15 64.5 -15 102.5c0 36 5.16699 69.333 15.5 100s24.666 57 42.999 79s40 39.333 65 52
s52.5 19.334 82.5 20.001c28 0 51.5 -5 70.5 -15s34.833 -21.667 47.5 -35c12 -12 21.667 -26 29 -42c7.33301 -14 14 -34 20 -60s9 -53 9 -81h-361v-18c0 -74.667 18.5 -131.334 55.5 -170.001s87.833 -58 152.5 -58c21.333 0 42 2.66699 62 8s38 12.666 54 21.999z
M248.999 468.003c-24 0 -46.501 -4.66699 -67.501 -14s-39.5 -22.333 -55.5 -39s-29.167 -36.667 -39.5 -60s-17.166 -49 -20.499 -77l338 -2c-2.66699 18.667 -5 34.167 -7 46.5s-4 21.5 -6 27.5c-9.33301 34 -26.333 62.167 -51 84.5s-55 33.5 -91 33.5zM145.998 654.003
c4 -22 13.834 -40.498 29.501 -55.498s35.5 -22.5 59.5 -22.5c28 0 49.333 7.66699 64 23s22.667 33.666 24 54.999h20c-0.666992 -30 -10.834 -54 -30.501 -72s-45.5 -27 -77.5 -27c-20 0 -36.833 3.66699 -50.5 11s-24.667 16.333 -33 27s-14.5 21.667 -18.5 33
s-6 20.666 -6 27.999h19z" />
    <glyph glyph-name="Edotaccent" unicode="&#x116;" horiz-adv-x="456" 
d="M407 21v-21h-323v674h307v-21h-286v-286h270v-21h-270v-325h302zM230 749c0 7.33301 2.33301 13.5 7 18.5s10.667 7.5 18 7.5s13.5 -2.5 18.5 -7.5s7.5 -11.167 7.5 -18.5s-2.5 -13.333 -7.5 -18s-11.167 -7 -18.5 -7s-13.333 2.33301 -18 7s-7 10.667 -7 18z" />
    <glyph glyph-name="edotaccent" unicode="&#x117;" horiz-adv-x="474" 
d="M394 19c-20 -10.667 -41.334 -18.3311 -64.001 -22.998s-47 -7 -73 -7c-33.333 0.666992 -63.166 7 -89.499 19s-48.666 28.667 -66.999 50s-32.5 47.166 -42.5 77.499s-15 64.5 -15 102.5c0 36 5.16699 69.333 15.5 100s24.666 57 42.999 79s40 39.333 65 52
s52.5 19.334 82.5 20.001c28 0 51.5 -5 70.5 -15s34.833 -21.667 47.5 -35c12 -12 21.667 -26 29 -42c7.33301 -14 14 -34 20 -60s9 -53 9 -81h-361v-18c0 -74.667 18.5 -131.334 55.5 -170.001s87.833 -58 152.5 -58c21.333 0 42 2.66699 62 8s38 12.666 54 21.999z
M248.999 468.003c-24 0 -46.501 -4.66699 -67.501 -14s-39.5 -22.333 -55.5 -39s-29.167 -36.667 -39.5 -60s-17.166 -49 -20.499 -77l338 -2c-2.66699 18.667 -5 34.167 -7 46.5s-4 21.5 -6 27.5c-9.33301 34 -26.333 62.167 -51 84.5s-55 33.5 -91 33.5zM215.998 566.003
c0 7.33301 2.33301 13.5 7 18.5s10.667 7.5 18 7.5s13.5 -2.5 18.5 -7.5s7.5 -11.167 7.5 -18.5s-2.5 -13.333 -7.5 -18s-11.167 -7 -18.5 -7s-13.333 2.33301 -18 7s-7 10.667 -7 18z" />
    <glyph glyph-name="Eogonek" unicode="&#x118;" horiz-adv-x="456" 
d="M407 21v-21h-323v674h307v-21h-286v-286h270v-21h-270v-325h302zM300 0c-11.333 -6 -22.8311 -14 -34.498 -24s-22.167 -20.667 -31.5 -32s-16.833 -22.833 -22.5 -34.5s-7.83398 -22.834 -6.50098 -33.501c2.66699 -20.667 9.33398 -34.5 20.001 -41.5
s23.667 -10.5 39 -10.5c6 0 12.667 0.333008 20 1s14.666 2.33398 21.999 5.00098l6 -17c-8 -3.33301 -17.333 -6 -28 -8s-20.667 -3 -30 -3c-20 0 -37 7.33301 -51 22s-21 32.667 -21 54c0 12 3.16699 24.333 9.5 37s14.166 24.667 23.499 36s19.5 21.333 30.5 30
s21.167 15 30.5 19h24z" />
    <glyph glyph-name="eogonek" unicode="&#x119;" horiz-adv-x="474" 
d="M394 19c-20 -10.667 -41.334 -18.3311 -64.001 -22.998s-47 -7 -73 -7c-33.333 0.666992 -63.166 7 -89.499 19s-48.666 28.667 -66.999 50s-32.5 47.166 -42.5 77.499s-15 64.5 -15 102.5c0 36 5.16699 69.333 15.5 100s24.666 57 42.999 79s40 39.333 65 52
s52.5 19.334 82.5 20.001c28 0 51.5 -5 70.5 -15s34.833 -21.667 47.5 -35c12 -12 21.667 -26 29 -42c7.33301 -14 14 -34 20 -60s9 -53 9 -81h-361v-18c0 -74.667 18.5 -131.334 55.5 -170.001s87.833 -58 152.5 -58c21.333 0 42 2.66699 62 8s38 12.666 54 21.999z
M248.999 468.003c-24 0 -46.501 -4.66699 -67.501 -14s-39.5 -22.333 -55.5 -39s-29.167 -36.667 -39.5 -60s-17.166 -49 -20.499 -77l338 -2c-2.66699 18.667 -5 34.167 -7 46.5s-4 21.5 -6 27.5c-9.33301 34 -26.333 62.167 -51 84.5s-55 33.5 -91 33.5zM285.998 -9.99707
c-11.333 -6 -22.8311 -14 -34.498 -24s-22.167 -20.667 -31.5 -32s-16.833 -22.833 -22.5 -34.5s-7.83398 -22.834 -6.50098 -33.501c2.66699 -20.667 9.33398 -34.5 20.001 -41.5s23.667 -10.5 39 -10.5c6 0 12.667 0.333008 20 1s14.666 2.33398 21.999 5.00098l6 -17
c-8 -3.33301 -17.333 -6 -28 -8s-20.667 -3 -30 -3c-20 0 -37 7.33301 -51 22s-21 32.667 -21 54c0 12 3.16699 24.333 9.5 37s14.166 24.667 23.499 36s19.5 21.333 30.5 30s21.167 15 30.5 19h24z" />
    <glyph glyph-name="Ecaron" unicode="&#x11a;" horiz-adv-x="456" 
d="M407 21v-21h-323v674h307v-21h-286v-286h270v-21h-270v-325h302zM238 723l-94.001 137h30l76 -120l51.5 79c11.667 18 20.834 31.667 27.501 41h28l-46 -68.5l-46 -68.5h-27z" />
    <glyph glyph-name="ecaron" unicode="&#x11b;" horiz-adv-x="474" 
d="M394 19c-20 -10.667 -41.334 -18.3311 -64.001 -22.998s-47 -7 -73 -7c-33.333 0.666992 -63.166 7 -89.499 19s-48.666 28.667 -66.999 50s-32.5 47.166 -42.5 77.499s-15 64.5 -15 102.5c0 36 5.16699 69.333 15.5 100s24.666 57 42.999 79s40 39.333 65 52
s52.5 19.334 82.5 20.001c28 0 51.5 -5 70.5 -15s34.833 -21.667 47.5 -35c12 -12 21.667 -26 29 -42c7.33301 -14 14 -34 20 -60s9 -53 9 -81h-361v-18c0 -74.667 18.5 -131.334 55.5 -170.001s87.833 -58 152.5 -58c21.333 0 42 2.66699 62 8s38 12.666 54 21.999z
M248.999 468.003c-24 0 -46.501 -4.66699 -67.501 -14s-39.5 -22.333 -55.5 -39s-29.167 -36.667 -39.5 -60s-17.166 -49 -20.499 -77l338 -2c-2.66699 18.667 -5 34.167 -7 46.5s-4 21.5 -6 27.5c-9.33301 34 -26.333 62.167 -51 84.5s-55 33.5 -91 33.5zM223.998 540.003
l-94.001 137h30l76 -120l51.5 79c11.667 18 20.834 31.667 27.501 41h28l-46 -68.5l-46 -68.5h-27z" />
    <glyph glyph-name="Gcircumflex" unicode="&#x11c;" horiz-adv-x="610" 
d="M513 301l-166.003 -0.000976562v21h188v-297c-58 -24 -116.667 -36 -176 -36c-48 0 -91.667 8 -131 24s-73.166 39 -101.499 69s-50.166 66.333 -65.499 109s-23 91 -23 145c0 51.333 8.16699 98.5 24.5 141.5s39.333 79.833 69 110.5s65 54.5 106 71.5
s85.833 25.5 134.5 25.5c23.333 0 47.833 -2.16699 73.5 -6.5s48.5 -12.166 68.5 -23.499l-6 -19c-19.333 10 -41.333 17.167 -66 21.5s-48 6.5 -70 6.5c-36.667 0 -73.667 -6.33301 -111 -19s-71 -32.334 -101 -59.001s-54.333 -60.667 -73 -102s-28 -90.666 -28 -147.999
c0 -50 7 -95.167 21 -135.5s33.833 -74.5 59.5 -102.5s56.834 -49.5 93.501 -64.5s78 -22.5 124 -22.5c29.333 0 56.833 2.33301 82.5 7s50.167 11.667 73.5 21v262zM303.997 867.999l94 -136h-30l-76 120l-79 -120h-27l91 136h27z" />
    <glyph glyph-name="gcircumflex" unicode="&#x11d;" horiz-adv-x="532" 
d="M96 -148c18 -14 39.166 -24 63.499 -30s46.833 -9 67.5 -9c59.333 0 105.166 17.667 137.499 53s48.5 90.666 48.5 165.999v71c-16 -32 -38.5 -57.667 -67.5 -77s-61.833 -29 -98.5 -29c-30 0 -57.5 6.33301 -82.5 19s-46.5 29.834 -64.5 51.501s-32 47.167 -42 76.5
s-15 60.666 -15 93.999c0 36 5.33301 69.167 16 99.5s25.5 56.833 44.5 79.5s41.333 40.334 67 53.001s53.834 19 84.501 19c36.667 0 68.5 -9.66699 95.5 -29s47.833 -42.333 62.5 -69c0 16 0.333008 31.833 1 47.5s1.66699 28.167 3 37.5h19
c-0.666992 -12 -1.16699 -28 -1.5 -48s-0.5 -39.5 -0.5 -58.5v-49v-21.5v-267c0 -78 -18 -137.5 -54 -178.5s-87 -61.5 -153 -61.5c-22 0 -45.167 3 -69.5 9s-47.166 16.333 -68.499 31zM412.999 238l-0.000976562 77.002c0 18 -3.83301 36 -11.5 54s-18.5 34.333 -32.5 49
s-30.667 26.667 -50 36s-40.666 14 -63.999 14c-28 0 -53.667 -5.83301 -77 -17.5s-43.5 -27.667 -60.5 -48s-30.167 -44.5 -39.5 -72.5s-14 -58.667 -14 -92c0 -38 5.5 -70.667 16.5 -98s25.167 -50 42.5 -68s36.833 -31.333 58.5 -40s43.5 -13 65.5 -13
c23.333 0 45 4.5 65 13.5s37.5 21.167 52.5 36.5s26.833 33.166 35.5 53.499s13 42.166 13 65.499v50zM258.998 678.002l94 -136h-30l-76 120l-79 -120h-27l91 136h27z" />
    <glyph glyph-name="Gbreve" unicode="&#x11e;" horiz-adv-x="610" 
d="M513 301l-166.003 -0.000976562v21h188v-297c-58 -24 -116.667 -36 -176 -36c-48 0 -91.667 8 -131 24s-73.166 39 -101.499 69s-50.166 66.333 -65.499 109s-23 91 -23 145c0 51.333 8.16699 98.5 24.5 141.5s39.333 79.833 69 110.5s65 54.5 106 71.5
s85.833 25.5 134.5 25.5c23.333 0 47.833 -2.16699 73.5 -6.5s48.5 -12.166 68.5 -23.499l-6 -19c-19.333 10 -41.333 17.167 -66 21.5s-48 6.5 -70 6.5c-36.667 0 -73.667 -6.33301 -111 -19s-71 -32.334 -101 -59.001s-54.333 -60.667 -73 -102s-28 -90.666 -28 -147.999
c0 -50 7 -95.167 21 -135.5s33.833 -74.5 59.5 -102.5s56.834 -49.5 93.501 -64.5s78 -22.5 124 -22.5c29.333 0 56.833 2.33301 82.5 7s50.167 11.667 73.5 21v262zM202.997 843.999c4 -22 13.834 -40.498 29.501 -55.498s35.5 -22.5 59.5 -22.5c28 0 49.333 7.66699 64 23
s22.667 33.666 24 54.999h20c-0.666992 -30 -10.834 -54 -30.501 -72s-45.5 -27 -77.5 -27c-20 0 -36.833 3.66699 -50.5 11s-24.667 16.333 -33 27s-14.5 21.667 -18.5 33s-6 20.666 -6 27.999h19z" />
    <glyph glyph-name="gbreve" unicode="&#x11f;" horiz-adv-x="532" 
d="M96 -148c18 -14 39.166 -24 63.499 -30s46.833 -9 67.5 -9c59.333 0 105.166 17.667 137.499 53s48.5 90.666 48.5 165.999v71c-16 -32 -38.5 -57.667 -67.5 -77s-61.833 -29 -98.5 -29c-30 0 -57.5 6.33301 -82.5 19s-46.5 29.834 -64.5 51.501s-32 47.167 -42 76.5
s-15 60.666 -15 93.999c0 36 5.33301 69.167 16 99.5s25.5 56.833 44.5 79.5s41.333 40.334 67 53.001s53.834 19 84.501 19c36.667 0 68.5 -9.66699 95.5 -29s47.833 -42.333 62.5 -69c0 16 0.333008 31.833 1 47.5s1.66699 28.167 3 37.5h19
c-0.666992 -12 -1.16699 -28 -1.5 -48s-0.5 -39.5 -0.5 -58.5v-49v-21.5v-267c0 -78 -18 -137.5 -54 -178.5s-87 -61.5 -153 -61.5c-22 0 -45.167 3 -69.5 9s-47.166 16.333 -68.499 31zM412.999 238l-0.000976562 77.002c0 18 -3.83301 36 -11.5 54s-18.5 34.333 -32.5 49
s-30.667 26.667 -50 36s-40.666 14 -63.999 14c-28 0 -53.667 -5.83301 -77 -17.5s-43.5 -27.667 -60.5 -48s-30.167 -44.5 -39.5 -72.5s-14 -58.667 -14 -92c0 -38 5.5 -70.667 16.5 -98s25.167 -50 42.5 -68s36.833 -31.333 58.5 -40s43.5 -13 65.5 -13
c23.333 0 45 4.5 65 13.5s37.5 21.167 52.5 36.5s26.833 33.166 35.5 53.499s13 42.166 13 65.499v50zM157.998 654.002c4 -22 13.834 -40.498 29.501 -55.498s35.5 -22.5 59.5 -22.5c28 0 49.333 7.66699 64 23s22.667 33.666 24 54.999h20
c-0.666992 -30 -10.834 -54 -30.501 -72s-45.5 -27 -77.5 -27c-20 0 -36.833 3.66699 -50.5 11s-24.667 16.333 -33 27s-14.5 21.667 -18.5 33s-6 20.666 -6 27.999h19z" />
    <glyph glyph-name="Gdotaccent" unicode="&#x120;" horiz-adv-x="610" 
d="M513 301l-166.003 -0.000976562v21h188v-297c-58 -24 -116.667 -36 -176 -36c-48 0 -91.667 8 -131 24s-73.166 39 -101.499 69s-50.166 66.333 -65.499 109s-23 91 -23 145c0 51.333 8.16699 98.5 24.5 141.5s39.333 79.833 69 110.5s65 54.5 106 71.5
s85.833 25.5 134.5 25.5c23.333 0 47.833 -2.16699 73.5 -6.5s48.5 -12.166 68.5 -23.499l-6 -19c-19.333 10 -41.333 17.167 -66 21.5s-48 6.5 -70 6.5c-36.667 0 -73.667 -6.33301 -111 -19s-71 -32.334 -101 -59.001s-54.333 -60.667 -73 -102s-28 -90.666 -28 -147.999
c0 -50 7 -95.167 21 -135.5s33.833 -74.5 59.5 -102.5s56.834 -49.5 93.501 -64.5s78 -22.5 124 -22.5c29.333 0 56.833 2.33301 82.5 7s50.167 11.667 73.5 21v262zM324.997 773.999c0 7.33301 2.33301 13.5 7 18.5s10.667 7.5 18 7.5s13.5 -2.5 18.5 -7.5
s7.5 -11.167 7.5 -18.5s-2.5 -13.333 -7.5 -18s-11.167 -7 -18.5 -7s-13.333 2.33301 -18 7s-7 10.667 -7 18z" />
    <glyph glyph-name="gdotaccent" unicode="&#x121;" horiz-adv-x="532" 
d="M96 -148c18 -14 39.166 -24 63.499 -30s46.833 -9 67.5 -9c59.333 0 105.166 17.667 137.499 53s48.5 90.666 48.5 165.999v71c-16 -32 -38.5 -57.667 -67.5 -77s-61.833 -29 -98.5 -29c-30 0 -57.5 6.33301 -82.5 19s-46.5 29.834 -64.5 51.501s-32 47.167 -42 76.5
s-15 60.666 -15 93.999c0 36 5.33301 69.167 16 99.5s25.5 56.833 44.5 79.5s41.333 40.334 67 53.001s53.834 19 84.501 19c36.667 0 68.5 -9.66699 95.5 -29s47.833 -42.333 62.5 -69c0 16 0.333008 31.833 1 47.5s1.66699 28.167 3 37.5h19
c-0.666992 -12 -1.16699 -28 -1.5 -48s-0.5 -39.5 -0.5 -58.5v-49v-21.5v-267c0 -78 -18 -137.5 -54 -178.5s-87 -61.5 -153 -61.5c-22 0 -45.167 3 -69.5 9s-47.166 16.333 -68.499 31zM412.999 238l-0.000976562 77.002c0 18 -3.83301 36 -11.5 54s-18.5 34.333 -32.5 49
s-30.667 26.667 -50 36s-40.666 14 -63.999 14c-28 0 -53.667 -5.83301 -77 -17.5s-43.5 -27.667 -60.5 -48s-30.167 -44.5 -39.5 -72.5s-14 -58.667 -14 -92c0 -38 5.5 -70.667 16.5 -98s25.167 -50 42.5 -68s36.833 -31.333 58.5 -40s43.5 -13 65.5 -13
c23.333 0 45 4.5 65 13.5s37.5 21.167 52.5 36.5s26.833 33.166 35.5 53.499s13 42.166 13 65.499v50zM227.998 566.002c0 7.33301 2.33301 13.5 7 18.5s10.667 7.5 18 7.5s13.5 -2.5 18.5 -7.5s7.5 -11.167 7.5 -18.5s-2.5 -13.333 -7.5 -18s-11.167 -7 -18.5 -7
s-13.333 2.33301 -18 7s-7 10.667 -7 18z" />
    <glyph glyph-name="Gcedilla" unicode="&#x122;" horiz-adv-x="610" 
d="M513 301l-166.003 -0.000976562v21h188v-297c-58 -24 -116.667 -36 -176 -36c-48 0 -91.667 8 -131 24s-73.166 39 -101.499 69s-50.166 66.333 -65.499 109s-23 91 -23 145c0 51.333 8.16699 98.5 24.5 141.5s39.333 79.833 69 110.5s65 54.5 106 71.5
s85.833 25.5 134.5 25.5c23.333 0 47.833 -2.16699 73.5 -6.5s48.5 -12.166 68.5 -23.499l-6 -19c-19.333 10 -41.333 17.167 -66 21.5s-48 6.5 -70 6.5c-36.667 0 -73.667 -6.33301 -111 -19s-71 -32.334 -101 -59.001s-54.333 -60.667 -73 -102s-28 -90.666 -28 -147.999
c0 -50 7 -95.167 21 -135.5s33.833 -74.5 59.5 -102.5s56.834 -49.5 93.501 -64.5s78 -22.5 124 -22.5c29.333 0 56.833 2.33301 82.5 7s50.167 11.667 73.5 21v262zM284.997 -268.001l14.501 43c5.66699 17.333 11.167 35.5 16.5 54.5l15.5 57c5 19 8.5 36.167 10.5 51.5
l30 8c-4.66699 -18.667 -10.334 -38.834 -17.001 -60.501l-20 -63.5c-6.66699 -20.667 -13 -39.167 -19 -55.5s-11 -28.166 -15 -35.499z" />
    <glyph glyph-name="gcedilla" unicode="&#x123;" horiz-adv-x="532" 
d="M96 -148c18 -14 39.166 -24 63.499 -30s46.833 -9 67.5 -9c59.333 0 105.166 17.667 137.499 53s48.5 90.666 48.5 165.999v71c-16 -32 -38.5 -57.667 -67.5 -77s-61.833 -29 -98.5 -29c-30 0 -57.5 6.33301 -82.5 19s-46.5 29.834 -64.5 51.501s-32 47.167 -42 76.5
s-15 60.666 -15 93.999c0 36 5.33301 69.167 16 99.5s25.5 56.833 44.5 79.5s41.333 40.334 67 53.001s53.834 19 84.501 19c36.667 0 68.5 -9.66699 95.5 -29s47.833 -42.333 62.5 -69c0 16 0.333008 31.833 1 47.5s1.66699 28.167 3 37.5h19
c-0.666992 -12 -1.16699 -28 -1.5 -48s-0.5 -39.5 -0.5 -58.5v-49v-21.5v-267c0 -78 -18 -137.5 -54 -178.5s-87 -61.5 -153 -61.5c-22 0 -45.167 3 -69.5 9s-47.166 16.333 -68.499 31zM412.999 238l-0.000976562 77.002c0 18 -3.83301 36 -11.5 54s-18.5 34.333 -32.5 49
s-30.667 26.667 -50 36s-40.666 14 -63.999 14c-28 0 -53.667 -5.83301 -77 -17.5s-43.5 -27.667 -60.5 -48s-30.167 -44.5 -39.5 -72.5s-14 -58.667 -14 -92c0 -38 5.5 -70.667 16.5 -98s25.167 -50 42.5 -68s36.833 -31.333 58.5 -40s43.5 -13 65.5 -13
c23.333 0 45 4.5 65 13.5s37.5 21.167 52.5 36.5s26.833 33.166 35.5 53.499s13 42.166 13 65.499v50zM216.998 548.002c4.66699 18 10.499 37.3311 17.499 57.998s14 40.334 21 59.001s13.833 35.667 20.5 51s12 27 16 35l21 2l-15 -42.5l-18.5 -53
c-6.33301 -18.333 -12.166 -36.666 -17.499 -54.999s-9.33301 -34.5 -12 -48.5z" />
    <glyph glyph-name="Hcircumflex" unicode="&#x124;" horiz-adv-x="616" 
d="M84 674h21v-301h392v301h21v-674h-21v352h-392v-352h-21v674zM318 861l94 -136h-30l-76 120l-79 -120h-27l91 136h27z" />
    <glyph glyph-name="hcircumflex" unicode="&#x125;" horiz-adv-x="525" 
d="M99 0l-20 -0.000976562v708h20v-325c17.333 34.667 39.833 61 67.5 79s61.5 27 101.5 27c34 0 63.667 -9.16699 89 -27.5s44.333 -43.5 57 -75.5c5.33301 -16 8.83301 -32.167 10.5 -48.5s2.5 -31.833 2.5 -46.5v-291h-20v291c0 23.333 -1.16699 41.833 -3.5 55.5
s-6.16602 26.5 -11.499 38.5c-2.66699 6 -7 13.833 -13 23.5s-14 18.834 -24 27.501s-22.333 16.167 -37 22.5s-32.334 9.5 -53.001 9.5c-30 0 -55.5 -5.83301 -76.5 -17.5s-38.167 -26.167 -51.5 -43.5s-23 -35.833 -29 -55.5s-9 -37.167 -9 -52.5v-299zM274 895.999
l94 -136h-30l-76 120l-79 -120h-27l91 136h27z" />
    <glyph glyph-name="Hbar" unicode="&#x126;" horiz-adv-x="616" 
d="M22 552v21h66v101h23v-101h404v101h21v-101h64v-21h-64v-552h-21v344h-404v-344h-23v552h-66zM515 365v187h-404v-187h404z" />
    <glyph glyph-name="hbar" unicode="&#x127;" horiz-adv-x="525" 
d="M13 604l0.000976562 20h80v97h21v-97h129v-20h-129v-205v-15c9.33301 15.333 19.166 29.666 29.499 42.999s21.833 25 34.5 35s27.167 18 43.5 24s35.166 9.33301 56.499 10c11.333 0 26.833 -2.33301 46.5 -7s39 -14.167 58 -28.5s35.5 -34.666 49.5 -60.999
s21 -60.5 21 -102.5v-297h-23v291c0 24 -2.83301 47.167 -8.5 69.5s-14.834 42 -27.501 59s-28.667 30.5 -48 40.5s-42.333 15 -69 15c-18 0 -35.167 -3.5 -51.5 -10.5s-31.166 -16.333 -44.499 -28s-25.166 -25 -35.499 -40s-18.5 -30.5 -24.5 -46.5
c-4.66699 -12 -7 -29 -7 -51v-299h-21v604h-80z" />
    <glyph glyph-name="Itilde" unicode="&#x128;" horiz-adv-x="208" 
d="M87 674h21v-674h-21v674zM1 732c1.33301 18 6.16602 33.833 14.499 47.5s20.166 20.5 35.499 20.5c10 0 19.333 -2.16699 28 -6.5s17.167 -9 25.5 -14s16.833 -9.5 25.5 -13.5s18 -6 28 -6c21.333 0 33 14.333 35 43h16c-1.33301 -18 -5.83301 -32.667 -13.5 -44
s-20.167 -17 -37.5 -17c-10 0 -19.333 2 -28 6s-17.167 8.5 -25.5 13.5s-16.666 9.5 -24.999 13.5s-17.5 6 -27.5 6c-11.333 0 -19.166 -4.83301 -23.499 -14.5s-7.83301 -21.167 -10.5 -34.5h-17z" />
    <glyph glyph-name="itilde" unicode="&#x129;" horiz-adv-x="206" 
d="M91 0v480h22v-480h-22zM-4 537c1.33301 18 6.16602 33.833 14.499 47.5s20.166 20.5 35.499 20.5c10 0 19.333 -2.16699 28 -6.5s17.167 -9 25.5 -14s16.833 -9.5 25.5 -13.5s18 -6 28 -6c21.333 0 33 14.333 35 43h16c-1.33301 -18 -5.83301 -32.667 -13.5 -44
s-20.167 -17 -37.5 -17c-10 0 -19.333 2 -28 6s-17.167 8.5 -25.5 13.5s-16.666 9.5 -24.999 13.5s-17.5 6 -27.5 6c-11.333 0 -19.166 -4.83301 -23.499 -14.5s-7.83301 -21.167 -10.5 -34.5h-17z" />
    <glyph glyph-name="Imacron" unicode="&#x12a;" horiz-adv-x="208" 
d="M87 674h21v-674h-21v674zM218 752v-18h-229v18h229z" />
    <glyph glyph-name="imacron" unicode="&#x12b;" horiz-adv-x="206" 
d="M91 0v480h22v-480h-22zM217 558v-18h-229v18h229z" />
    <glyph glyph-name="Ibreve" unicode="&#x12c;" horiz-adv-x="208" 
d="M87 674h21v-674h-21v674zM16 837c3.33301 -25.333 12.833 -45.001 28.5 -59.001s35.834 -21 60.501 -21c13.333 0 25.166 2.33301 35.499 7s19.333 10.834 27 18.501s13.5 16.167 17.5 25.5s6.66699 19 8 29h19c-3.33301 -30 -14.5 -53.667 -33.5 -71
s-43.833 -26 -74.5 -26c-18.667 0 -34.5 3.16699 -47.5 9.5s-23.833 14.333 -32.5 24s-15.167 20.167 -19.5 31.5s-6.83301 22 -7.5 32h19z" />
    <glyph glyph-name="ibreve" unicode="&#x12d;" horiz-adv-x="206" 
d="M91 0v480h22v-480h-22zM15 643c3.33301 -25.333 12.833 -45.001 28.5 -59.001s35.834 -21 60.501 -21c13.333 0 25.166 2.33301 35.499 7s19.333 10.834 27 18.501s13.5 16.167 17.5 25.5s6.66699 19 8 29h19c-3.33301 -30 -14.5 -53.667 -33.5 -71
s-43.833 -26 -74.5 -26c-18.667 0 -34.5 3.16699 -47.5 9.5s-23.833 14.333 -32.5 24s-15.167 20.167 -19.5 31.5s-6.83301 22 -7.5 32h19z" />
    <glyph glyph-name="Iogonek" unicode="&#x12e;" horiz-adv-x="208" 
d="M87 674h21v-674h-21v674zM111 -1c-11.333 -6 -22.8311 -14 -34.498 -24s-22.167 -20.667 -31.5 -32s-16.833 -22.833 -22.5 -34.5s-7.83398 -22.834 -6.50098 -33.501c2.66699 -20.667 9.33398 -34.5 20.001 -41.5s23.667 -10.5 39 -10.5c6 0 12.667 0.333008 20 1
s14.666 2.33398 21.999 5.00098l6 -17c-8 -3.33301 -17.333 -6 -28 -8s-20.667 -3 -30 -3c-20 0 -37 7.33301 -51 22s-21 32.667 -21 54c0 12 3.16699 24.333 9.5 37s14.166 24.667 23.499 36s19.5 21.333 30.5 30s21.167 15 30.5 19h24z" />
    <glyph glyph-name="iogonek" unicode="&#x12f;" horiz-adv-x="206" 
d="M81 476v-476h21v476h-21zM113 622c0 -5.33301 -1.83203 -9.83301 -5.49902 -13.5s-8.83398 -5.5 -15.501 -5.5c-7.33301 0 -12.833 1.83301 -16.5 5.5s-5.5 8.16699 -5.5 13.5c0 13.333 7.33301 20 22 20c14 0 21 -6.66699 21 -20zM107.001 0
c-11.333 -6 -22.8311 -14 -34.498 -24s-22.167 -20.667 -31.5 -32s-16.833 -22.833 -22.5 -34.5s-7.83398 -22.834 -6.50098 -33.501c2.66699 -20.667 9.33398 -34.5 20.001 -41.5s23.667 -10.5 39 -10.5c6 0 12.667 0.333008 20 1s14.666 2.33398 21.999 5.00098l6 -17
c-8 -3.33301 -17.333 -6 -28 -8s-20.667 -3 -30 -3c-20 0 -37 7.33301 -51 22s-21 32.667 -21 54c0 12 3.16699 24.333 9.5 37s14.166 24.667 23.499 36s19.5 21.333 30.5 30s21.167 15 30.5 19h24z" />
    <glyph glyph-name="Idotaccent" unicode="&#x130;" horiz-adv-x="208" 
d="M87 674h21v-674h-21v674zM87 772c0 6 1.66699 10.999 5 14.999s8 6 14 6c5.33301 0 10 -2 14 -6s6 -9 6 -15c0 -5.33301 -2 -9.66602 -6 -12.999s-8.66699 -5 -14 -5c-12.667 0 -19 6 -19 18z" />
    <glyph glyph-name="dotlessi" unicode="&#x131;" horiz-adv-x="206" 
d="M91 0v480h22v-480h-22z" />
    <glyph glyph-name="IJ" unicode="&#x132;" horiz-adv-x="546" 
d="M87 674h21v-674h-21v674zM222 22c7.33301 -3.33301 17.498 -6.33301 30.498 -9s24.5 -4 34.5 -4c23.333 0 45 4.83301 65 14.5s36.333 23.5 49 41.5c6.66699 10 11.834 21.833 15.501 35.5s6.33398 27.667 8.00098 42s2.66699 28.333 3 42s0.5 25.834 0.5 36.501v453h21
v-453c0 -11.333 -0.166992 -24.333 -0.5 -39s-1.5 -29.667 -3.5 -45s-5.16699 -30.333 -9.5 -45s-10.5 -28 -18.5 -40c-14 -20.667 -32.333 -36.334 -55 -47.001s-47.334 -16 -74.001 -16c-10.667 0 -22.667 1.16699 -36 3.5s-24.666 5.5 -33.999 9.5z" />
    <glyph glyph-name="ij" unicode="&#x133;" horiz-adv-x="417" 
d="M81 476v-476h21v476h-21zM113 622c0 -5.33301 -1.83203 -9.83301 -5.49902 -13.5s-8.83398 -5.5 -15.501 -5.5c-7.33301 0 -12.833 1.83301 -16.5 5.5s-5.5 8.16699 -5.5 13.5c0 13.333 7.33301 20 22 20c14 0 21 -6.66699 21 -20zM164.001 -184
c31.333 0 55.998 6.33398 73.998 19.001s31.5 29 40.5 49s14.667 42 17 66s3.5 47.667 3.5 71v455h21v-455c0 -24 -1.33301 -49.167 -4 -75.5s-9.16699 -50.5 -19.5 -72.5s-25.666 -40.333 -45.999 -55s-48.166 -22.334 -83.499 -23.001zM330.999 622.001
c0 -5.33301 -1.83203 -9.83301 -5.49902 -13.5s-8.83398 -5.5 -15.501 -5.5c-7.33301 0 -12.833 1.83301 -16.5 5.5s-5.5 8.16699 -5.5 13.5c0 13.333 7.33301 20 22 20c14 0 21 -6.66699 21 -20z" />
    <glyph glyph-name="Jcircumflex" unicode="&#x134;" horiz-adv-x="338" 
d="M14 22c7.33301 -3.33301 17.498 -6.33301 30.498 -9s24.5 -4 34.5 -4c23.333 0 45 4.83301 65 14.5s36.333 23.5 49 41.5c6.66699 10 11.834 21.833 15.501 35.5s6.33398 27.667 8.00098 42s2.66699 28.333 3 42s0.5 25.834 0.5 36.501v453h21v-453
c0 -11.333 -0.166992 -24.333 -0.5 -39s-1.5 -29.667 -3.5 -45s-5.16699 -30.333 -9.5 -45s-10.5 -28 -18.5 -40c-14 -20.667 -32.333 -36.334 -55 -47.001s-47.334 -16 -74.001 -16c-10.667 0 -22.667 1.16699 -36 3.5s-24.666 5.5 -33.999 9.5zM249.998 844l7.5 -9
l18 -22.5l22.5 -29l22.5 -29c7 -9 13 -16.333 18 -22l7.5 -8.5h-24l-84 107l-88 -107h-21l95 120h26z" />
    <glyph glyph-name="jcircumflex" unicode="&#x135;" horiz-adv-x="211" 
d="M-33 -195c19.333 3.33301 37.333 9.16992 54 17.5029s30.667 19.166 42 32.499c7.33301 8 13.5 17 18.5 27s9 22.667 12 38s5.16699 34 6.5 56s2 49.333 2 82v422h20v-455c0 -44.667 -2.83301 -81.834 -8.5 -111.501s-18.167 -55.167 -37.5 -76.5
c-16.667 -16.667 -35.167 -29.334 -55.5 -38.001s-36.833 -13.667 -49.5 -15zM122 650.004l7.5 -9l18 -22.5l22.5 -29l22.5 -29c7 -9 13 -16.333 18 -22l7.5 -8.5h-24l-84 107l-88 -107h-21l95 120h26z" />
    <glyph glyph-name="Kcedilla" unicode="&#x136;" horiz-adv-x="489" 
d="M84 674h21v-350h2l34 38.5l34 38.5l247 273h27l-259 -285l282 -389h-26l-270 374l-71 -77v-297h-21v674zM209 -215l14.501 43c5.66699 17.333 11.167 35.5 16.5 54.5l15.5 57c5 19 8.5 36.167 10.5 51.5l30 8c-4.66699 -18.667 -10.334 -38.834 -17.001 -60.501
l-20 -63.5c-6.66699 -20.667 -13 -39.167 -19 -55.5s-11 -28.166 -15 -35.499z" />
    <glyph glyph-name="kcedilla" unicode="&#x137;" horiz-adv-x="416" 
d="M150 264l-50 -53v-211h-21v708h21v-467l230 235h28l-192 -198l222 -278h-27zM178 -214l14.501 43c5.66699 17.333 11.167 35.5 16.5 54.5l15.5 57c5 19 8.5 36.167 10.5 51.5l30 8c-4.66699 -18.667 -10.334 -38.834 -17.001 -60.501l-20 -63.5
c-6.66699 -20.667 -13 -39.167 -19 -55.5s-11 -28.166 -15 -35.499z" />
    <glyph glyph-name="kgreenlandic" unicode="&#x138;" horiz-adv-x="416" 
d="M115 231l237 249h29l-186 -195l110 -143l110 -142h-28l-206 270l-67 -66v-204h-22v480h22z" />
    <glyph glyph-name="Lacute" unicode="&#x139;" horiz-adv-x="440" 
d="M409 0h-322v674h21v-653h301v-21zM294 861c-4 -4.66699 -11.333 -14.167 -22 -28.5l-34 -45l-32 -42.5c-9.33301 -12.667 -14.333 -19.667 -15 -21l-17 1l87 136h33z" />
    <glyph glyph-name="lacute" unicode="&#x13a;" horiz-adv-x="206" 
d="M108 708v-708h-21v708h21zM146 896c-4 -4.66699 -11.333 -14.167 -22 -28.5l-34 -45l-32 -42.5c-9.33301 -12.667 -14.333 -19.667 -15 -21l-17 1l87 136h33z" />
    <glyph glyph-name="Lcedilla" unicode="&#x13b;" horiz-adv-x="440" 
d="M409 0h-322v674h21v-653h301v-21zM194 -243l14.501 43c5.66699 17.333 11.167 35.5 16.5 54.5l15.5 57c5 19 8.5 36.167 10.5 51.5l30 8c-4.66699 -18.667 -10.334 -38.834 -17.001 -60.501l-20 -63.5c-6.66699 -20.667 -13 -39.167 -19 -55.5s-11 -28.166 -15 -35.499z
" />
    <glyph glyph-name="lcedilla" unicode="&#x13c;" horiz-adv-x="206" 
d="M108 708v-708h-21v708h21zM36 -258l14.501 43c5.66699 17.333 11.167 35.5 16.5 54.5l15.5 57c5 19 8.5 36.167 10.5 51.5l30 8c-4.66699 -18.667 -10.334 -38.834 -17.001 -60.501l-20 -63.5c-6.66699 -20.667 -13 -39.167 -19 -55.5s-11 -28.166 -15 -35.499z" />
    <glyph glyph-name="Lcaron" unicode="&#x13d;" horiz-adv-x="440" 
d="M409 0h-322v674h21v-653h301v-21zM218 722l-94.001 137h30l76 -120l51.5 79c11.667 18 20.834 31.667 27.501 41h28l-46 -68.5l-46 -68.5h-27z" />
    <glyph glyph-name="lcaron" unicode="&#x13e;" horiz-adv-x="206" 
d="M108 708v-708h-21v708h21zM89 758l-94.001 137h30l76 -120l51.5 79c11.667 18 20.834 31.667 27.501 41h28l-46 -68.5l-46 -68.5h-27z" />
    <glyph glyph-name="Ldot" unicode="&#x13f;" horiz-adv-x="440" 
d="M269 405c0 7.33301 2.33301 13.5 7 18.5s10.667 7.5 18 7.5s13.5 -2.5 18.5 -7.5s7.5 -11.167 7.5 -18.5s-2.5 -13.333 -7.5 -18s-11.167 -7 -18.5 -7s-13.333 2.33301 -18 7s-7 10.667 -7 18zM409 0h-322v674h21v-653h301v-21z" />
    <glyph glyph-name="ldot" unicode="&#x140;" horiz-adv-x="347" 
d="M243 405c0 7.33301 2.33301 13.5 7 18.5s10.667 7.5 18 7.5s13.5 -2.5 18.5 -7.5s7.5 -11.167 7.5 -18.5s-2.5 -13.333 -7.5 -18s-11.167 -7 -18.5 -7s-13.333 2.33301 -18 7s-7 10.667 -7 18zM108 708v-708h-21v708h21z" />
    <glyph glyph-name="Lslash" unicode="&#x141;" horiz-adv-x="443" 
d="M96 0v305l-91 -70v24l91 70v345h21v-330l142 107v-24l-142 -107v-299h303v-21h-324z" />
    <glyph glyph-name="lslash" unicode="&#x142;" horiz-adv-x="211" 
d="M97 0l-0.000976562 349c-9.33301 -8 -20.666 -18.333 -33.999 -31l-39 -36v22l73 68v347h22v-331l75 68v-21l-75 -68v-367h-22z" />
    <glyph glyph-name="Nacute" unicode="&#x143;" horiz-adv-x="624" 
d="M84 674h13l407 -629v629h21v-674h-16l-404 624v-624h-21v674zM356 861c-4 -4.66699 -11.333 -14.167 -22 -28.5l-34 -45l-32 -42.5c-9.33301 -12.667 -14.333 -19.667 -15 -21l-17 1l87 136h33z" />
    <glyph glyph-name="nacute" unicode="&#x144;" horiz-adv-x="525" 
d="M102 476c1.33301 -10 2.00195 -23.167 2.00195 -39.5v-50.5c17.333 33.333 39.833 58.833 67.5 76.5s61.167 26.5 100.5 26.5c34 0 63.667 -9.16699 89 -27.5s44.333 -43.5 57 -75.5c5.33301 -16 8.66602 -32.167 9.99902 -48.5s2 -31.833 2 -46.5v-291h-20v291
c0 23.333 -1.16699 41.833 -3.5 55.5s-6.16602 26.5 -11.499 38.5c-2.66699 6 -6.83398 13.833 -12.501 23.5s-13.5 18.834 -23.5 27.501s-22.333 16.167 -37 22.5s-32.334 9.5 -53.001 9.5c-29.333 0 -54.5 -5.83301 -75.5 -17.5s-38.167 -26.167 -51.5 -43.5
s-23 -35.833 -29 -55.5s-9 -37.167 -9 -52.5v-299h-20v304v34c0 16 -0.166992 33 -0.5 51s-0.833008 35.167 -1.5 51.5s-1.66699 28.166 -3 35.499h23zM306.002 678c-4 -4.66699 -11.333 -14.167 -22 -28.5l-34 -45l-32 -42.5c-9.33301 -12.667 -14.333 -19.667 -15 -21
l-17 1l87 136h33z" />
    <glyph glyph-name="Ncedilla" unicode="&#x145;" horiz-adv-x="624" 
d="M84 674h13l407 -629v629h21v-674h-16l-404 624v-624h-21v674zM246 -216l14.501 43c5.66699 17.333 11.167 35.5 16.5 54.5l15.5 57c5 19 8.5 36.167 10.5 51.5l30 8c-4.66699 -18.667 -10.334 -38.834 -17.001 -60.501l-20 -63.5c-6.66699 -20.667 -13 -39.167 -19 -55.5
s-11 -28.166 -15 -35.499z" />
    <glyph glyph-name="ncedilla" unicode="&#x146;" horiz-adv-x="525" 
d="M102 476c1.33301 -10 2.00195 -23.167 2.00195 -39.5v-50.5c17.333 33.333 39.833 58.833 67.5 76.5s61.167 26.5 100.5 26.5c34 0 63.667 -9.16699 89 -27.5s44.333 -43.5 57 -75.5c5.33301 -16 8.66602 -32.167 9.99902 -48.5s2 -31.833 2 -46.5v-291h-20v291
c0 23.333 -1.16699 41.833 -3.5 55.5s-6.16602 26.5 -11.499 38.5c-2.66699 6 -6.83398 13.833 -12.501 23.5s-13.5 18.834 -23.5 27.501s-22.333 16.167 -37 22.5s-32.334 9.5 -53.001 9.5c-29.333 0 -54.5 -5.83301 -75.5 -17.5s-38.167 -26.167 -51.5 -43.5
s-23 -35.833 -29 -55.5s-9 -37.167 -9 -52.5v-299h-20v304v34c0 16 -0.166992 33 -0.5 51s-0.833008 35.167 -1.5 51.5s-1.66699 28.166 -3 35.499h23zM198.002 -238l14.501 43c5.66699 17.333 11.167 35.5 16.5 54.5l15.5 57c5 19 8.5 36.167 10.5 51.5l30 8
c-4.66699 -18.667 -10.334 -38.834 -17.001 -60.501l-20 -63.5c-6.66699 -20.667 -13 -39.167 -19 -55.5s-11 -28.166 -15 -35.499z" />
    <glyph glyph-name="Ncaron" unicode="&#x147;" horiz-adv-x="624" 
d="M84 674h13l407 -629v629h21v-674h-16l-404 624v-624h-21v674zM299 723l-94.001 137h30l76 -120l51.5 79c11.667 18 20.834 31.667 27.501 41h28l-46 -68.5l-46 -68.5h-27z" />
    <glyph glyph-name="ncaron" unicode="&#x148;" horiz-adv-x="525" 
d="M102 476c1.33301 -10 2.00195 -23.167 2.00195 -39.5v-50.5c17.333 33.333 39.833 58.833 67.5 76.5s61.167 26.5 100.5 26.5c34 0 63.667 -9.16699 89 -27.5s44.333 -43.5 57 -75.5c5.33301 -16 8.66602 -32.167 9.99902 -48.5s2 -31.833 2 -46.5v-291h-20v291
c0 23.333 -1.16699 41.833 -3.5 55.5s-6.16602 26.5 -11.499 38.5c-2.66699 6 -6.83398 13.833 -12.501 23.5s-13.5 18.834 -23.5 27.501s-22.333 16.167 -37 22.5s-32.334 9.5 -53.001 9.5c-29.333 0 -54.5 -5.83301 -75.5 -17.5s-38.167 -26.167 -51.5 -43.5
s-23 -35.833 -29 -55.5s-9 -37.167 -9 -52.5v-299h-20v304v34c0 16 -0.166992 33 -0.5 51s-0.833008 35.167 -1.5 51.5s-1.66699 28.166 -3 35.499h23zM249.002 540l-94.001 137h30l76 -120l51.5 79c11.667 18 20.834 31.667 27.501 41h28l-46 -68.5l-46 -68.5h-27z" />
    <glyph glyph-name="napostrophe" unicode="&#x149;" horiz-adv-x="698" 
d="M138 688l-18 -59.5l-20 -63c-6.66699 -20.333 -13.167 -38.833 -19.5 -55.5s-11.5 -29 -15.5 -37h-8.5c-3 0 -5.16699 -0.333008 -6.5 -1c4.66699 12.667 9.66699 28.167 15 46.5l16 57c5.33301 19.667 10.333 39.167 15 58.5s8 36 10 50zM275 476
c1.33301 -10 2.00195 -23.167 2.00195 -39.5v-50.5c17.333 33.333 39.833 58.833 67.5 76.5s61.167 26.5 100.5 26.5c34 0 63.667 -9.16699 89 -27.5s44.333 -43.5 57 -75.5c5.33301 -16 8.66602 -32.167 9.99902 -48.5s2 -31.833 2 -46.5v-291h-20v291
c0 23.333 -1.16699 41.833 -3.5 55.5s-6.16602 26.5 -11.499 38.5c-2.66699 6 -6.83398 13.833 -12.501 23.5s-13.5 18.834 -23.5 27.501s-22.333 16.167 -37 22.5s-32.334 9.5 -53.001 9.5c-29.333 0 -54.5 -5.83301 -75.5 -17.5s-38.167 -26.167 -51.5 -43.5
s-23 -35.833 -29 -55.5s-9 -37.167 -9 -52.5v-299h-20v304v34c0 16 -0.166992 33 -0.5 51s-0.833008 35.167 -1.5 51.5s-1.66699 28.166 -3 35.499h23z" />
    <glyph glyph-name="Eng" unicode="&#x14a;" horiz-adv-x="624" 
d="M84 674l13.001 0.000976562l407 -629v629h21v-666c-2 -23.333 -3.83301 -40.833 -5.5 -52.5s-3.16699 -20.834 -4.5 -27.501c-3.33301 -14 -8.33301 -27.5 -15 -40.5s-14.334 -24.167 -23.001 -33.5c-7.33301 -8.66699 -15.833 -16.167 -25.5 -22.5
s-19.667 -11.5 -30 -15.5s-20.333 -7.16699 -30 -9.5s-18.5 -3.5 -26.5 -3.5l-2 16c18 2.66699 37 8.66699 57 18s35.333 20.333 46 33c4.66699 6 9.16699 12.5 13.5 19.5s8 15 11 24s5.5 19.5 7.5 31.5s3.66699 26.667 5 44l1 18l-399 617v-624h-21v674z" />
    <glyph glyph-name="eng" unicode="&#x14b;" horiz-adv-x="525" 
d="M102 476c1.33301 -10 2.00293 -23.3291 2.00293 -39.9961v-50c17.333 33.333 39.833 58.833 67.5 76.5s61.167 26.5 100.5 26.5c34 0 63.667 -9.16699 89 -27.5s44.333 -43.5 57 -75.5c5.33301 -16 8.66602 -32.167 9.99902 -48.5s2 -31.833 2 -46.5v-297
c-0.666992 -18 -3.33398 -36.667 -8.00098 -56c-6 -27.333 -18.333 -51 -37 -71c-7.33301 -8 -15.833 -14.833 -25.5 -20.5s-19.334 -10.334 -29.001 -14.001s-19.167 -6.33398 -28.5 -8.00098s-17.333 -2.5 -24 -2.5v18c21.333 2.66699 40.333 7.66699 57 15
s30.334 17.666 41.001 30.999c6 7.33301 11.5 15.5 16.5 24.5s8.83301 20.667 11.5 35s4.66699 32.166 6 53.499v1v291c0 23.333 -1.16699 41.833 -3.5 55.5s-6.16602 26.5 -11.499 38.5c-2.66699 6 -6.83398 13.833 -12.501 23.5s-13.5 18.834 -23.5 27.501
s-22.333 16.167 -37 22.5s-32.334 9.5 -53.001 9.5c-29.333 0 -54.5 -5.83301 -75.5 -17.5s-38.167 -26.167 -51.5 -43.5s-23 -35.833 -29 -55.5s-9 -37.167 -9 -52.5v-299h-20v338c0 16 -0.166992 33 -0.5 51s-0.833008 35.167 -1.5 51.5s-1.66699 28.166 -3 35.499h23z
" />
    <glyph glyph-name="Omacron" unicode="&#x14c;" horiz-adv-x="654" 
d="M321 666c-38 0 -73 -8.33301 -105 -25s-59.5 -39.5 -82.5 -68.5s-41 -63.667 -54 -104s-19.5 -83.833 -19.5 -130.5c0 -46 6 -89 18 -129s29 -74.833 51 -104.5s48.833 -53.167 80.5 -70.5s67.5 -26 107.5 -26c39.333 0 75.166 8.33301 107.499 25s60 39.667 83 69
s40.667 64 53 104s18.5 83.333 18.5 130c0 49.333 -6.16699 94.333 -18.5 135s-29.666 75.5 -51.999 104.5s-49.5 51.333 -81.5 67s-67.333 23.5 -106 23.5zM321 685c42 0 80.3359 -8.49902 115.003 -25.499s64.167 -40.667 88.5 -71s43.166 -67 56.499 -110
s20 -90.5 20 -142.5c0 -50 -6.83301 -96.167 -20.5 -138.5s-33.167 -79 -58.5 -110s-55.666 -55.167 -90.999 -72.5s-74.333 -26 -117 -26c-43.333 0 -82 9 -116 27s-62.833 42.667 -86.5 74s-41.834 68.166 -54.501 110.499s-19 88.166 -19 137.499c0 50 7 96.333 21 139
s33.667 79.334 59 110.001s55.166 54.667 89.499 72s72.166 26 113.499 26zM442.003 763.001v-18h-229v18h229z" />
    <glyph glyph-name="omacron" unicode="&#x14d;" horiz-adv-x="520" 
d="M445 237c0 34 -4.50098 65 -13.501 93s-21.833 52.167 -38.5 72.5s-36.5 36.166 -59.5 47.499s-48.5 17 -76.5 17s-53.667 -5.83301 -77 -17.5s-43.666 -27.667 -60.999 -48s-30.833 -44.5 -40.5 -72.5s-14.5 -58.667 -14.5 -92c0 -36.667 5.16699 -69.167 15.5 -97.5
s24 -52.166 41 -71.499s36.667 -33.833 59 -43.5s45.5 -14.5 69.5 -14.5c30 0 57.167 5.66699 81.5 17s45 27.166 62 47.499s30 44.333 39 72s13.5 57.834 13.5 90.501zM256.999 488c30 0 57.8291 -6.16797 83.4961 -18.501s47.834 -29.5 66.501 -51.5
s33.167 -48.333 43.5 -79s15.5 -64.667 15.5 -102c0 -36 -5.5 -69.167 -16.5 -99.5s-26.167 -56.5 -45.5 -78.5s-42.166 -39.333 -68.499 -52s-55.166 -19 -86.499 -19s-59.666 6.5 -84.999 19.5s-47 30.833 -65 53.5s-31.833 49.167 -41.5 79.5s-14.5 62.5 -14.5 96.5
c0 36 5.5 69.167 16.5 99.5s26 56.833 45 79.5s41.5 40.334 67.5 53.001s54.333 19 85 19zM374.995 568.999v-18h-229v18h229z" />
    <glyph glyph-name="Obreve" unicode="&#x14e;" horiz-adv-x="654" 
d="M321 666c-38 0 -73 -8.33301 -105 -25s-59.5 -39.5 -82.5 -68.5s-41 -63.667 -54 -104s-19.5 -83.833 -19.5 -130.5c0 -46 6 -89 18 -129s29 -74.833 51 -104.5s48.833 -53.167 80.5 -70.5s67.5 -26 107.5 -26c39.333 0 75.166 8.33301 107.499 25s60 39.667 83 69
s40.667 64 53 104s18.5 83.333 18.5 130c0 49.333 -6.16699 94.333 -18.5 135s-29.666 75.5 -51.999 104.5s-49.5 51.333 -81.5 67s-67.333 23.5 -106 23.5zM321 685c42 0 80.3359 -8.49902 115.003 -25.499s64.167 -40.667 88.5 -71s43.166 -67 56.499 -110
s20 -90.5 20 -142.5c0 -50 -6.83301 -96.167 -20.5 -138.5s-33.167 -79 -58.5 -110s-55.666 -55.167 -90.999 -72.5s-74.333 -26 -117 -26c-43.333 0 -82 9 -116 27s-62.833 42.667 -86.5 74s-41.834 68.166 -54.501 110.499s-19 88.166 -19 137.499c0 50 7 96.333 21 139
s33.667 79.334 59 110.001s55.166 54.667 89.499 72s72.166 26 113.499 26zM236.003 848.001c4 -22 13.834 -40.498 29.501 -55.498s35.5 -22.5 59.5 -22.5c28 0 49.333 7.66699 64 23s22.667 33.666 24 54.999h20c-0.666992 -30 -10.834 -54 -30.501 -72
s-45.5 -27 -77.5 -27c-20 0 -36.833 3.66699 -50.5 11s-24.667 16.333 -33 27s-14.5 21.667 -18.5 33s-6 20.666 -6 27.999h19z" />
    <glyph glyph-name="obreve" unicode="&#x14f;" horiz-adv-x="520" 
d="M445 237c0 34 -4.50098 65 -13.501 93s-21.833 52.167 -38.5 72.5s-36.5 36.166 -59.5 47.499s-48.5 17 -76.5 17s-53.667 -5.83301 -77 -17.5s-43.666 -27.667 -60.999 -48s-30.833 -44.5 -40.5 -72.5s-14.5 -58.667 -14.5 -92c0 -36.667 5.16699 -69.167 15.5 -97.5
s24 -52.166 41 -71.499s36.667 -33.833 59 -43.5s45.5 -14.5 69.5 -14.5c30 0 57.167 5.66699 81.5 17s45 27.166 62 47.499s30 44.333 39 72s13.5 57.834 13.5 90.501zM256.999 488c30 0 57.8291 -6.16797 83.4961 -18.501s47.834 -29.5 66.501 -51.5
s33.167 -48.333 43.5 -79s15.5 -64.667 15.5 -102c0 -36 -5.5 -69.167 -16.5 -99.5s-26.167 -56.5 -45.5 -78.5s-42.166 -39.333 -68.499 -52s-55.166 -19 -86.499 -19s-59.666 6.5 -84.999 19.5s-47 30.833 -65 53.5s-31.833 49.167 -41.5 79.5s-14.5 62.5 -14.5 96.5
c0 36 5.5 69.167 16.5 99.5s26 56.833 45 79.5s41.5 40.334 67.5 53.001s54.333 19 85 19zM168.995 653.999c4 -22 13.834 -40.498 29.501 -55.498s35.5 -22.5 59.5 -22.5c28 0 49.333 7.66699 64 23s22.667 33.666 24 54.999h20c-0.666992 -30 -10.834 -54 -30.501 -72
s-45.5 -27 -77.5 -27c-20 0 -36.833 3.66699 -50.5 11s-24.667 16.333 -33 27s-14.5 21.667 -18.5 33s-6 20.666 -6 27.999h19z" />
    <glyph glyph-name="Ohungarumlaut" unicode="&#x150;" horiz-adv-x="654" 
d="M321 666c-38 0 -73 -8.33301 -105 -25s-59.5 -39.5 -82.5 -68.5s-41 -63.667 -54 -104s-19.5 -83.833 -19.5 -130.5c0 -46 6 -89 18 -129s29 -74.833 51 -104.5s48.833 -53.167 80.5 -70.5s67.5 -26 107.5 -26c39.333 0 75.166 8.33301 107.499 25s60 39.667 83 69
s40.667 64 53 104s18.5 83.333 18.5 130c0 49.333 -6.16699 94.333 -18.5 135s-29.666 75.5 -51.999 104.5s-49.5 51.333 -81.5 67s-67.333 23.5 -106 23.5zM321 685c42 0 80.3359 -8.49902 115.003 -25.499s64.167 -40.667 88.5 -71s43.166 -67 56.499 -110
s20 -90.5 20 -142.5c0 -50 -6.83301 -96.167 -20.5 -138.5s-33.167 -79 -58.5 -110s-55.666 -55.167 -90.999 -72.5s-74.333 -26 -117 -26c-43.333 0 -82 9 -116 27s-62.833 42.667 -86.5 74s-41.834 68.166 -54.501 110.499s-19 88.166 -19 137.499c0 50 7 96.333 21 139
s33.667 79.334 59 110.001s55.166 54.667 89.499 72s72.166 26 113.499 26z" />
    <glyph glyph-name="ohungarumlaut" unicode="&#x151;" horiz-adv-x="520" 
d="M445 237c0 34 -4.50098 65 -13.501 93s-21.833 52.167 -38.5 72.5s-36.5 36.166 -59.5 47.499s-48.5 17 -76.5 17s-53.667 -5.83301 -77 -17.5s-43.666 -27.667 -60.999 -48s-30.833 -44.5 -40.5 -72.5s-14.5 -58.667 -14.5 -92c0 -36.667 5.16699 -69.167 15.5 -97.5
s24 -52.166 41 -71.499s36.667 -33.833 59 -43.5s45.5 -14.5 69.5 -14.5c30 0 57.167 5.66699 81.5 17s45 27.166 62 47.499s30 44.333 39 72s13.5 57.834 13.5 90.501zM256.999 488c30 0 57.8291 -6.16797 83.4961 -18.501s47.834 -29.5 66.501 -51.5
s33.167 -48.333 43.5 -79s15.5 -64.667 15.5 -102c0 -36 -5.5 -69.167 -16.5 -99.5s-26.167 -56.5 -45.5 -78.5s-42.166 -39.333 -68.499 -52s-55.166 -19 -86.499 -19s-59.666 6.5 -84.999 19.5s-47 30.833 -65 53.5s-31.833 49.167 -41.5 79.5s-14.5 62.5 -14.5 96.5
c0 36 5.5 69.167 16.5 99.5s26 56.833 45 79.5s41.5 40.334 67.5 53.001s54.333 19 85 19z" />
    <glyph glyph-name="OE" unicode="&#x152;" horiz-adv-x="849" 
d="M821 0h-314c-10.667 -0.666992 -22.167 -1.5 -34.5 -2.5s-23.833 -2.16699 -34.5 -3.5c-12 -1.33301 -25.333 -2.5 -40 -3.5s-29.334 -1.5 -44.001 -1.5c-47.333 0 -90 8.5 -128 25.5s-70.5 40.833 -97.5 71.5s-47.833 67 -62.5 109s-22 87.667 -22 137
c0 57.333 8.16699 108 24.5 152s38.666 80.833 66.999 110.5s61.833 52.167 100.5 67.5s80.334 23 125.001 23c17.333 0 32.833 -0.5 46.5 -1.5s26.834 -2.16699 39.501 -3.5c25.333 -3.33301 47 -5.33301 65 -6h292v-19h-288v-291h273v-19h-273v-326h305v-19zM493 649
l-1 -0.00195312c-17.333 4.66699 -36.333 8.83398 -57 12.501s-46.667 5.5 -78 5.5c-46.667 0 -87.834 -8.16699 -123.501 -24.5s-65.667 -39.166 -90 -68.499s-42.666 -64.333 -54.999 -105s-18.5 -85 -18.5 -133c0 -50.667 6.66699 -96.334 20 -137.001
s32.5 -75.167 57.5 -103.5s55.833 -50.166 92.5 -65.499s78 -23 124 -23c23.333 0 46.333 1.5 69 4.5s42.667 7.83301 60 14.5h1z" />
    <glyph glyph-name="oe" unicode="&#x153;" horiz-adv-x="841" 
d="M259 492c43.333 0 81.665 -13.667 114.998 -41s58 -66 74 -116l2 -8c21.333 60 48.333 102.5 81 127.5s68.667 37.5 108 37.5c36 0 65.333 -8 88 -24s40.334 -35.167 53.001 -57.5s21.334 -45.666 26.001 -69.999s7 -44.833 7 -61.5v-23l-347 1h-2
c-1.33301 -41.333 2.5 -77.5 11.5 -108.5s22.167 -56.667 39.5 -77s38.333 -35.666 63 -45.999s51.667 -15.5 81 -15.5c30 0 53.833 2.83301 71.5 8.5s33.5 11.5 47.5 17.5l7 -19c-16 -8 -35.833 -14.5 -59.5 -19.5s-47.834 -7.5 -72.501 -7.5
c-46 0 -86.333 12.833 -121 38.5s-61.334 66.5 -80.001 122.5l-3 -8c-10 -27.333 -22.167 -50.5 -36.5 -69.5s-30 -34.833 -47 -47.5s-35 -21.834 -54 -27.501s-37.833 -8.5 -56.5 -8.5c-30 0 -57.833 5.83301 -83.5 17.5s-47.667 28.167 -66 49.5
s-32.833 47.166 -43.5 77.499s-16 64.5 -16 102.5c0 40 5.66699 75.833 17 107.5s26.833 58.5 46.5 80.5s42.334 38.667 68.001 50s52.834 17 81.501 17zM256.999 472c-34 0 -63.001 -7.49902 -87.001 -22.499s-43.5 -34 -58.5 -57s-26 -48.167 -33 -75.5
s-10.5 -53.333 -10.5 -78c0 -32 4.83301 -61.833 14.5 -89.5s22.834 -52 39.501 -73s36.5 -37.5 59.5 -49.5s48.167 -18 75.5 -18c28 0 53.333 5.83301 76 17.5s42 27.667 58 48s28.333 44.666 37 72.999s13 59.5 13 93.5c0 27.333 -3.5 54.833 -10.5 82.5
s-18 52.5 -33 74.5s-34 39.833 -57 53.5s-50.833 20.5 -83.5 20.5zM785.998 276.001c0.666992 20 -1.16504 41.501 -5.49805 64.501s-12.333 44.167 -24 63.5s-27.5 35.5 -47.5 48.5s-45 19.5 -75 19.5c-28 0 -52 -6.66699 -72 -20s-36.833 -30 -50.5 -50
s-24.334 -41.333 -32.001 -64s-12.834 -43.334 -15.501 -62.001h322z" />
    <glyph glyph-name="Racute" unicode="&#x154;" horiz-adv-x="496" 
d="M84 664c19.333 4 39.333 7.5 60 10.5s42.334 4.5 65.001 4.5c25.333 0 50.833 -2.5 76.5 -7.5s48.667 -14 69 -27s37 -31.167 50 -54.5s19.5 -53.666 19.5 -90.999c0 -42 -12.167 -78.167 -36.5 -108.5s-56.833 -50.833 -97.5 -61.5c56 -21.333 91.333 -68.333 106 -141
l18.5 -78l12.5 -53.5c3.33301 -14.333 6.5 -25.833 9.5 -34.5s6.16699 -16 9.5 -22h-24c-2.66699 7.33301 -5.33398 15.333 -8.00098 24s-5.83398 20 -9.50098 34s-7.66699 31.167 -12 51.5s-10.166 45.5 -17.499 75.5c-10.667 45.333 -28.667 79.166 -54 101.499
s-61.333 33.5 -108 33.5h-108v-320h-21v664zM399 542c-5.33301 23.333 -14.5 42.5 -27.5 57.5s-28.333 26.833 -46 35.5s-36.667 14.667 -57 18s-40.833 5 -61.5 5c-19.333 0 -37.833 -1 -55.5 -3s-33.167 -4.33301 -46.5 -7v-307h116c26 0 50.167 3.66699 72.5 11
s41.5 17.833 57.5 31.5s28.667 30.5 38 50.5s14 43 14 69c0 14.667 -1.33301 27.667 -4 39zM319 866c-4 -4.66699 -11.333 -14.167 -22 -28.5l-34 -45l-32 -42.5c-9.33301 -12.667 -14.333 -19.667 -15 -21l-17 1l87 136h33z" />
    <glyph glyph-name="racute" unicode="&#x155;" horiz-adv-x="290" 
d="M255 468c-3.33301 0.666992 -6.16895 0.999023 -8.50195 0.999023h-6.5c-24.667 0 -45.5 -6.5 -62.5 -19.5s-31 -29 -42 -48s-19 -39.167 -24 -60.5s-7.5 -40.666 -7.5 -57.999v-283h-21v301v22c0 14 -0.166992 30.333 -0.5 49l-1 57
c-0.333008 19.333 -1.16602 35 -2.49902 47h21c1.33301 -11.333 2.33301 -26.5 3 -45.5s1 -36.5 1 -52.5c4.66699 14 11.167 27.667 19.5 41s18.333 25.333 30 36s24.834 19.167 39.501 25.5s31 9.5 49 9.5h13v-22zM219.997 677.999c-4 -4.66699 -11.333 -14.167 -22 -28.5
l-34 -45l-32 -42.5c-9.33301 -12.667 -14.333 -19.667 -15 -21l-17 1l87 136h33z" />
    <glyph glyph-name="Rcedilla" unicode="&#x156;" horiz-adv-x="496" 
d="M84 664c19.333 4 39.333 7.5 60 10.5s42.334 4.5 65.001 4.5c25.333 0 50.833 -2.5 76.5 -7.5s48.667 -14 69 -27s37 -31.167 50 -54.5s19.5 -53.666 19.5 -90.999c0 -42 -12.167 -78.167 -36.5 -108.5s-56.833 -50.833 -97.5 -61.5c56 -21.333 91.333 -68.333 106 -141
l18.5 -78l12.5 -53.5c3.33301 -14.333 6.5 -25.833 9.5 -34.5s6.16699 -16 9.5 -22h-24c-2.66699 7.33301 -5.33398 15.333 -8.00098 24s-5.83398 20 -9.50098 34s-7.66699 31.167 -12 51.5s-10.166 45.5 -17.499 75.5c-10.667 45.333 -28.667 79.166 -54 101.499
s-61.333 33.5 -108 33.5h-108v-320h-21v664zM399 542c-5.33301 23.333 -14.5 42.5 -27.5 57.5s-28.333 26.833 -46 35.5s-36.667 14.667 -57 18s-40.833 5 -61.5 5c-19.333 0 -37.833 -1 -55.5 -3s-33.167 -4.33301 -46.5 -7v-307h116c26 0 50.167 3.66699 72.5 11
s41.5 17.833 57.5 31.5s28.667 30.5 38 50.5s14 43 14 69c0 14.667 -1.33301 27.667 -4 39zM194 -222l14.501 43c5.66699 17.333 11.167 35.5 16.5 54.5l15.5 57c5 19 8.5 36.167 10.5 51.5l30 8c-4.66699 -18.667 -10.334 -38.834 -17.001 -60.501l-20 -63.5
c-6.66699 -20.667 -13 -39.167 -19 -55.5s-11 -28.166 -15 -35.499z" />
    <glyph glyph-name="rcedilla" unicode="&#x157;" horiz-adv-x="290" 
d="M255 468c-3.33301 0.666992 -6.16895 0.999023 -8.50195 0.999023h-6.5c-24.667 0 -45.5 -6.5 -62.5 -19.5s-31 -29 -42 -48s-19 -39.167 -24 -60.5s-7.5 -40.666 -7.5 -57.999v-283h-21v301v22c0 14 -0.166992 30.333 -0.5 49l-1 57
c-0.333008 19.333 -1.16602 35 -2.49902 47h21c1.33301 -11.333 2.33301 -26.5 3 -45.5s1 -36.5 1 -52.5c4.66699 14 11.167 27.667 19.5 41s18.333 25.333 30 36s24.834 19.167 39.501 25.5s31 9.5 49 9.5h13v-22zM138.997 -216.001l14.501 43
c5.66699 17.333 11.167 35.5 16.5 54.5l15.5 57c5 19 8.5 36.167 10.5 51.5l30 8c-4.66699 -18.667 -10.334 -38.834 -17.001 -60.501l-20 -63.5c-6.66699 -20.667 -13 -39.167 -19 -55.5s-11 -28.166 -15 -35.499z" />
    <glyph glyph-name="Rcaron" unicode="&#x158;" horiz-adv-x="496" 
d="M84 664c19.333 4 39.333 7.5 60 10.5s42.334 4.5 65.001 4.5c25.333 0 50.833 -2.5 76.5 -7.5s48.667 -14 69 -27s37 -31.167 50 -54.5s19.5 -53.666 19.5 -90.999c0 -42 -12.167 -78.167 -36.5 -108.5s-56.833 -50.833 -97.5 -61.5c56 -21.333 91.333 -68.333 106 -141
l18.5 -78l12.5 -53.5c3.33301 -14.333 6.5 -25.833 9.5 -34.5s6.16699 -16 9.5 -22h-24c-2.66699 7.33301 -5.33398 15.333 -8.00098 24s-5.83398 20 -9.50098 34s-7.66699 31.167 -12 51.5s-10.166 45.5 -17.499 75.5c-10.667 45.333 -28.667 79.166 -54 101.499
s-61.333 33.5 -108 33.5h-108v-320h-21v664zM399 542c-5.33301 23.333 -14.5 42.5 -27.5 57.5s-28.333 26.833 -46 35.5s-36.667 14.667 -57 18s-40.833 5 -61.5 5c-19.333 0 -37.833 -1 -55.5 -3s-33.167 -4.33301 -46.5 -7v-307h116c26 0 50.167 3.66699 72.5 11
s41.5 17.833 57.5 31.5s28.667 30.5 38 50.5s14 43 14 69c0 14.667 -1.33301 27.667 -4 39zM262 728l-94.001 137h30l76 -120l51.5 79c11.667 18 20.834 31.667 27.501 41h28l-46 -68.5l-46 -68.5h-27z" />
    <glyph glyph-name="rcaron" unicode="&#x159;" horiz-adv-x="290" 
d="M255 468c-3.33301 0.666992 -6.16895 0.999023 -8.50195 0.999023h-6.5c-24.667 0 -45.5 -6.5 -62.5 -19.5s-31 -29 -42 -48s-19 -39.167 -24 -60.5s-7.5 -40.666 -7.5 -57.999v-283h-21v301v22c0 14 -0.166992 30.333 -0.5 49l-1 57
c-0.333008 19.333 -1.16602 35 -2.49902 47h21c1.33301 -11.333 2.33301 -26.5 3 -45.5s1 -36.5 1 -52.5c4.66699 14 11.167 27.667 19.5 41s18.333 25.333 30 36s24.834 19.167 39.501 25.5s31 9.5 49 9.5h13v-22zM162.997 539.999l-94.001 137h30l76 -120l51.5 79
c11.667 18 20.834 31.667 27.501 41h28l-46 -68.5l-46 -68.5h-27z" />
    <glyph glyph-name="Sacute" unicode="&#x15a;" horiz-adv-x="455" 
d="M48 54c16 -13.333 37.3301 -24.334 63.9971 -33.001s52.667 -13 78 -13c24.667 0 47.5 3.83301 68.5 11.5s39.333 18.834 55 33.501s27.834 32.167 36.501 52.5s13 42.833 13 67.5c0 21.333 -3.33301 40.333 -10 57s-16.5 31.667 -29.5 45s-29.167 25.666 -48.5 36.999
s-42 22.333 -68 33c-30.667 13.333 -55.834 26.666 -75.501 39.999s-35.167 27.166 -46.5 41.499s-19.166 29 -23.499 44s-6.5 30.5 -6.5 46.5c0 24 4.66699 46.167 14 66.5s22.166 37.833 38.499 52.5s35.333 26.167 57 34.5s44.834 12.5 69.501 12.5
c17.333 0 36.166 -2.33301 56.499 -7s39.166 -12.667 56.499 -24l-7 -19c-15.333 10.667 -32.833 18.334 -52.5 23.001s-37.5 7 -53.5 7c-22 0 -42.667 -3.5 -62 -10.5s-36.166 -16.667 -50.499 -29s-25.666 -27.166 -33.999 -44.499s-12.5 -36.666 -12.5 -57.999
c0 -20.667 3.66699 -38.667 11 -54s17.333 -29.166 30 -41.499s27.667 -23.333 45 -33s36 -19.167 56 -28.5c28 -12 52.333 -24 73 -36s37.834 -25.5 51.501 -40.5s24 -31.667 31 -50s10.5 -39.5 10.5 -63.5c0 -26.667 -4.83301 -51.5 -14.5 -74.5
s-23.167 -42.667 -40.5 -59s-37.666 -29.166 -60.999 -38.499s-49 -14 -77 -14c-14.667 0 -29.5 1.16699 -44.5 3.5s-29.167 5.66602 -42.5 9.99902s-25.333 9.16602 -36 14.499s-19 11 -25 17zM268.997 870.999c-4 -4.66699 -11.333 -14.167 -22 -28.5l-34 -45l-32 -42.5
c-9.33301 -12.667 -14.333 -19.667 -15 -21l-17 1l87 136h33z" />
    <glyph glyph-name="sacute" unicode="&#x15b;" horiz-adv-x="366" 
d="M271 442c-11.333 8 -24.834 14.1709 -40.501 18.5039s-31.167 6.5 -46.5 6.5c-9.33301 0 -20.166 -1.5 -32.499 -4.5s-24.166 -8.33301 -35.499 -16s-21 -17.834 -29 -30.501s-12 -28.667 -12 -48c0 -26 8.33301 -47.333 25 -64s43.667 -32 81 -46c16 -6 31 -13 45 -21
s26.167 -17.5 36.5 -28.5s18.5 -23.5 24.5 -37.5s9 -30.333 9 -49c0 -12.667 -2.33301 -26.667 -7 -42s-12.834 -29.833 -24.501 -43.5s-27 -25 -46 -34s-42.5 -13.5 -70.5 -13.5c-19.333 0 -37.5 2.83301 -54.5 8.5s-33.167 13.5 -48.5 23.5l7 20
c13.333 -8.66699 28.166 -15.834 44.499 -21.501s33.5 -8.5 51.5 -8.5c24.667 0 45.167 3.66699 61.5 11s29.333 16.5 39 27.5s16.5 23 20.5 36s6 24.833 6 35.5c0 16.667 -2.5 31 -7.5 43s-12 22.5 -21 31.5s-19.833 17 -32.5 24s-26.667 13.5 -42 19.5
c-13.333 5.33301 -27 11.333 -41 18s-26.667 14.667 -38 24s-20.666 21 -27.999 35s-11 31 -11 51c0 23.333 4.66699 42.666 14 57.999s20.833 27.666 34.5 36.999s28 16 43 20s27.833 6 38.5 6c36 0 67.333 -8.66699 94 -26zM225.999 678.004
c-4 -4.66699 -11.333 -14.167 -22 -28.5l-34 -45l-32 -42.5c-9.33301 -12.667 -14.333 -19.667 -15 -21l-17 1l87 136h33z" />
    <glyph glyph-name="Scircumflex" unicode="&#x15c;" horiz-adv-x="455" 
d="M48 54c16 -13.333 37.3301 -24.334 63.9971 -33.001s52.667 -13 78 -13c24.667 0 47.5 3.83301 68.5 11.5s39.333 18.834 55 33.501s27.834 32.167 36.501 52.5s13 42.833 13 67.5c0 21.333 -3.33301 40.333 -10 57s-16.5 31.667 -29.5 45s-29.167 25.666 -48.5 36.999
s-42 22.333 -68 33c-30.667 13.333 -55.834 26.666 -75.501 39.999s-35.167 27.166 -46.5 41.499s-19.166 29 -23.499 44s-6.5 30.5 -6.5 46.5c0 24 4.66699 46.167 14 66.5s22.166 37.833 38.499 52.5s35.333 26.167 57 34.5s44.834 12.5 69.501 12.5
c17.333 0 36.166 -2.33301 56.499 -7s39.166 -12.667 56.499 -24l-7 -19c-15.333 10.667 -32.833 18.334 -52.5 23.001s-37.5 7 -53.5 7c-22 0 -42.667 -3.5 -62 -10.5s-36.166 -16.667 -50.499 -29s-25.666 -27.166 -33.999 -44.499s-12.5 -36.666 -12.5 -57.999
c0 -20.667 3.66699 -38.667 11 -54s17.333 -29.166 30 -41.499s27.667 -23.333 45 -33s36 -19.167 56 -28.5c28 -12 52.333 -24 73 -36s37.834 -25.5 51.501 -40.5s24 -31.667 31 -50s10.5 -39.5 10.5 -63.5c0 -26.667 -4.83301 -51.5 -14.5 -74.5
s-23.167 -42.667 -40.5 -59s-37.666 -29.166 -60.999 -38.499s-49 -14 -77 -14c-14.667 0 -29.5 1.16699 -44.5 3.5s-29.167 5.66602 -42.5 9.99902s-25.333 9.16602 -36 14.499s-19 11 -25 17zM234.997 870.999l94 -136h-30l-76 120l-79 -120h-27l91 136h27z" />
    <glyph glyph-name="scircumflex" unicode="&#x15d;" horiz-adv-x="366" 
d="M271 442c-11.333 8 -24.834 14.1709 -40.501 18.5039s-31.167 6.5 -46.5 6.5c-9.33301 0 -20.166 -1.5 -32.499 -4.5s-24.166 -8.33301 -35.499 -16s-21 -17.834 -29 -30.501s-12 -28.667 -12 -48c0 -26 8.33301 -47.333 25 -64s43.667 -32 81 -46c16 -6 31 -13 45 -21
s26.167 -17.5 36.5 -28.5s18.5 -23.5 24.5 -37.5s9 -30.333 9 -49c0 -12.667 -2.33301 -26.667 -7 -42s-12.834 -29.833 -24.501 -43.5s-27 -25 -46 -34s-42.5 -13.5 -70.5 -13.5c-19.333 0 -37.5 2.83301 -54.5 8.5s-33.167 13.5 -48.5 23.5l7 20
c13.333 -8.66699 28.166 -15.834 44.499 -21.501s33.5 -8.5 51.5 -8.5c24.667 0 45.167 3.66699 61.5 11s29.333 16.5 39 27.5s16.5 23 20.5 36s6 24.833 6 35.5c0 16.667 -2.5 31 -7.5 43s-12 22.5 -21 31.5s-19.833 17 -32.5 24s-26.667 13.5 -42 19.5
c-13.333 5.33301 -27 11.333 -41 18s-26.667 14.667 -38 24s-20.666 21 -27.999 35s-11 31 -11 51c0 23.333 4.66699 42.666 14 57.999s20.833 27.666 34.5 36.999s28 16 43 20s27.833 6 38.5 6c36 0 67.333 -8.66699 94 -26zM191.999 678.004l94 -136h-30l-76 120l-79 -120
h-27l91 136h27z" />
    <glyph glyph-name="Scedilla" unicode="&#x15e;" horiz-adv-x="455" 
d="M48 54c16 -13.333 37.3301 -24.334 63.9971 -33.001s52.667 -13 78 -13c24.667 0 47.5 3.83301 68.5 11.5s39.333 18.834 55 33.501s27.834 32.167 36.501 52.5s13 42.833 13 67.5c0 21.333 -3.33301 40.333 -10 57s-16.5 31.667 -29.5 45s-29.167 25.666 -48.5 36.999
s-42 22.333 -68 33c-30.667 13.333 -55.834 26.666 -75.501 39.999s-35.167 27.166 -46.5 41.499s-19.166 29 -23.499 44s-6.5 30.5 -6.5 46.5c0 24 4.66699 46.167 14 66.5s22.166 37.833 38.499 52.5s35.333 26.167 57 34.5s44.834 12.5 69.501 12.5
c17.333 0 36.166 -2.33301 56.499 -7s39.166 -12.667 56.499 -24l-7 -19c-15.333 10.667 -32.833 18.334 -52.5 23.001s-37.5 7 -53.5 7c-22 0 -42.667 -3.5 -62 -10.5s-36.166 -16.667 -50.499 -29s-25.666 -27.166 -33.999 -44.499s-12.5 -36.666 -12.5 -57.999
c0 -20.667 3.66699 -38.667 11 -54s17.333 -29.166 30 -41.499s27.667 -23.333 45 -33s36 -19.167 56 -28.5c28 -12 52.333 -24 73 -36s37.834 -25.5 51.501 -40.5s24 -31.667 31 -50s10.5 -39.5 10.5 -63.5c0 -26.667 -4.83301 -51.5 -14.5 -74.5
s-23.167 -42.667 -40.5 -59s-37.666 -29.166 -60.999 -38.499s-49 -14 -77 -14c-14.667 0 -29.5 1.16699 -44.5 3.5s-29.167 5.66602 -42.5 9.99902s-25.333 9.16602 -36 14.499s-19 11 -25 17zM212.997 -9.00098l-31.999 -55.002c18 -3.33301 32.667 -11.166 44 -23.499
s17 -26.166 17 -41.499c0 -24.667 -7.83301 -41.667 -23.5 -51s-35.167 -14 -58.5 -14c-16.667 0 -33.334 3.66699 -50.001 11l6 19c7.33301 -3.33301 14.833 -5.83301 22.5 -7.5s16.167 -2.5 25.5 -2.5c14.667 0 27.5 3 38.5 9s16.5 17.667 16.5 35
c-1.33301 17.333 -8 29.5 -20 36.5s-28.333 12.167 -49 15.5l39 69h24z" />
    <glyph glyph-name="scedilla" unicode="&#x15f;" horiz-adv-x="366" 
d="M271 442c-11.333 8 -24.834 14.1709 -40.501 18.5039s-31.167 6.5 -46.5 6.5c-9.33301 0 -20.166 -1.5 -32.499 -4.5s-24.166 -8.33301 -35.499 -16s-21 -17.834 -29 -30.501s-12 -28.667 -12 -48c0 -26 8.33301 -47.333 25 -64s43.667 -32 81 -46c16 -6 31 -13 45 -21
s26.167 -17.5 36.5 -28.5s18.5 -23.5 24.5 -37.5s9 -30.333 9 -49c0 -12.667 -2.33301 -26.667 -7 -42s-12.834 -29.833 -24.501 -43.5s-27 -25 -46 -34s-42.5 -13.5 -70.5 -13.5c-19.333 0 -37.5 2.83301 -54.5 8.5s-33.167 13.5 -48.5 23.5l7 20
c13.333 -8.66699 28.166 -15.834 44.499 -21.501s33.5 -8.5 51.5 -8.5c24.667 0 45.167 3.66699 61.5 11s29.333 16.5 39 27.5s16.5 23 20.5 36s6 24.833 6 35.5c0 16.667 -2.5 31 -7.5 43s-12 22.5 -21 31.5s-19.833 17 -32.5 24s-26.667 13.5 -42 19.5
c-13.333 5.33301 -27 11.333 -41 18s-26.667 14.667 -38 24s-20.666 21 -27.999 35s-11 31 -11 51c0 23.333 4.66699 42.666 14 57.999s20.833 27.666 34.5 36.999s28 16 43 20s27.833 6 38.5 6c36 0 67.333 -8.66699 94 -26zM176.999 -6.99609l-31.999 -55.002
c18 -3.33301 32.667 -11.166 44 -23.499s17 -26.166 17 -41.499c0 -24.667 -7.83301 -41.667 -23.5 -51s-35.167 -14 -58.5 -14c-16.667 0 -33.334 3.66699 -50.001 11l6 19c7.33301 -3.33301 14.833 -5.83301 22.5 -7.5s16.167 -2.5 25.5 -2.5c14.667 0 27.5 3 38.5 9
s16.5 17.667 16.5 35c-1.33301 17.333 -8 29.5 -20 36.5s-28.333 12.167 -49 15.5l39 69h24z" />
    <glyph glyph-name="Scaron" unicode="&#x160;" horiz-adv-x="432" 
d="M48 54c16 -13.333 37.3301 -24.334 63.9971 -33.001s52.667 -13 78 -13c24.667 0 47.5 3.83301 68.5 11.5s39.333 18.834 55 33.501s27.834 32.167 36.501 52.5s13 42.833 13 67.5c0 21.333 -3.33301 40.333 -10 57s-16.5 31.667 -29.5 45s-29.167 25.666 -48.5 36.999
s-42 22.333 -68 33c-30.667 13.333 -55.834 26.666 -75.501 39.999s-35.167 27.166 -46.5 41.499s-19.166 29 -23.499 44s-6.5 30.5 -6.5 46.5c0 24 4.66699 46.167 14 66.5s22.166 37.833 38.499 52.5s35.333 26.167 57 34.5s44.834 12.5 69.501 12.5
c17.333 0 36.166 -2.33301 56.499 -7s39.166 -12.667 56.499 -24l-7 -19c-15.333 10.667 -32.833 18.334 -52.5 23.001s-37.5 7 -53.5 7c-22 0 -42.667 -3.5 -62 -10.5s-36.166 -16.667 -50.499 -29s-25.666 -27.166 -33.999 -44.499s-12.5 -36.666 -12.5 -57.999
c0 -20.667 3.66699 -38.667 11 -54s17.333 -29.166 30 -41.499s27.667 -23.333 45 -33s36 -19.167 56 -28.5c28 -12 52.333 -24 73 -36s37.834 -25.5 51.501 -40.5s24 -31.667 31 -50s10.5 -39.5 10.5 -63.5c0 -26.667 -4.83301 -51.5 -14.5 -74.5
s-23.167 -42.667 -40.5 -59s-37.666 -29.166 -60.999 -38.499s-49 -14 -77 -14c-14.667 0 -29.5 1.16699 -44.5 3.5s-29.167 5.66602 -42.5 9.99902s-25.333 9.16602 -36 14.499s-19 11 -25 17zM224.997 716.999l-100 136h25l87 -121l91 121h24l-101 -136h-26z" />
    <glyph glyph-name="scaron" unicode="&#x161;" horiz-adv-x="366" 
d="M271 442c-11.333 8 -24.834 14.1709 -40.501 18.5039s-31.167 6.5 -46.5 6.5c-9.33301 0 -20.166 -1.5 -32.499 -4.5s-24.166 -8.33301 -35.499 -16s-21 -17.834 -29 -30.501s-12 -28.667 -12 -48c0 -26 8.33301 -47.333 25 -64s43.667 -32 81 -46c16 -6 31 -13 45 -21
s26.167 -17.5 36.5 -28.5s18.5 -23.5 24.5 -37.5s9 -30.333 9 -49c0 -12.667 -2.33301 -26.667 -7 -42s-12.834 -29.833 -24.501 -43.5s-27 -25 -46 -34s-42.5 -13.5 -70.5 -13.5c-19.333 0 -37.5 2.83301 -54.5 8.5s-33.167 13.5 -48.5 23.5l7 20
c13.333 -8.66699 28.166 -15.834 44.499 -21.501s33.5 -8.5 51.5 -8.5c24.667 0 45.167 3.66699 61.5 11s29.333 16.5 39 27.5s16.5 23 20.5 36s6 24.833 6 35.5c0 16.667 -2.5 31 -7.5 43s-12 22.5 -21 31.5s-19.833 17 -32.5 24s-26.667 13.5 -42 19.5
c-13.333 5.33301 -27 11.333 -41 18s-26.667 14.667 -38 24s-20.666 21 -27.999 35s-11 31 -11 51c0 23.333 4.66699 42.666 14 57.999s20.833 27.666 34.5 36.999s28 16 43 20s27.833 6 38.5 6c36 0 67.333 -8.66699 94 -26zM169.999 541.004l-100 136h25l87 -121l91 121
h24l-101 -136h-26z" />
    <glyph glyph-name="Tcedilla" unicode="&#x162;" horiz-adv-x="456" 
d="M450 650h-222v-650h-21v650h-222v21h465v-21zM233 1l-31.999 -55.002c18 -3.33301 32.667 -11.166 44 -23.499s17 -26.166 17 -41.499c0 -24.667 -7.83301 -41.667 -23.5 -51s-35.167 -14 -58.5 -14c-16.667 0 -33.334 3.66699 -50.001 11l6 19
c7.33301 -3.33301 14.833 -5.83301 22.5 -7.5s16.167 -2.5 25.5 -2.5c14.667 0 27.5 3 38.5 9s16.5 17.667 16.5 35c-1.33301 17.333 -8 29.5 -20 36.5s-28.333 12.167 -49 15.5l39 69h24z" />
    <glyph glyph-name="tcedilla" unicode="&#x163;" horiz-adv-x="303" 
d="M255 3c-22 -8 -42.001 -12 -60.001 -12c-23.333 0 -41.333 4.83301 -54 14.5s-22 22.334 -28 38.001s-9.66699 33.667 -11 54s-2 40.833 -2 61.5v298h-82v21h82v91l21 7v-98h140v-21h-140v-298c0 -20 0.333008 -39 1 -57s3.33398 -33.833 8.00098 -47.5
s12.167 -24.334 22.5 -32.001s24.833 -11.5 43.5 -11.5c16 0 33.333 3.66699 52 11zM207.999 -8l-31.999 -55.002c18 -3.33301 32.667 -11.166 44 -23.499s17 -26.166 17 -41.499c0 -24.667 -7.83301 -41.667 -23.5 -51s-35.167 -14 -58.5 -14
c-16.667 0 -33.334 3.66699 -50.001 11l6 19c7.33301 -3.33301 14.833 -5.83301 22.5 -7.5s16.167 -2.5 25.5 -2.5c14.667 0 27.5 3 38.5 9s16.5 17.667 16.5 35c-1.33301 17.333 -8 29.5 -20 36.5s-28.333 12.167 -49 15.5l39 69h24z" />
    <glyph glyph-name="Tcaron" unicode="&#x164;" horiz-adv-x="456" 
d="M450 650h-222v-650h-21v650h-222v21h465v-21zM201 723l-94.001 137h30l76 -120l51.5 79c11.667 18 20.834 31.667 27.501 41h28l-46 -68.5l-46 -68.5h-27z" />
    <glyph glyph-name="tcaron" unicode="&#x165;" horiz-adv-x="476" 
d="M255 3c-22 -8 -42.001 -12 -60.001 -12c-23.333 0 -41.333 4.83301 -54 14.5s-22 22.334 -28 38.001s-9.66699 33.667 -11 54s-2 40.833 -2 61.5v298h-82v21h82v91l21 7v-98h140v-21h-140v-298c0 -20 0.333008 -39 1 -57s3.33398 -33.833 8.00098 -47.5
s12.167 -24.334 22.5 -32.001s24.833 -11.5 43.5 -11.5c16 0 33.333 3.66699 52 11zM440.999 688l-18 -59.5l-20 -63c-6.66699 -20.333 -13.167 -38.833 -19.5 -55.5s-11.5 -29 -15.5 -37h-8.5c-3 0 -5.16699 -0.333008 -6.5 -1c4.66699 12.667 9.66699 28.167 15 46.5
l16 57c5.33301 19.667 10.333 39.167 15 58.5s8 36 10 50z" />
    <glyph glyph-name="Tbar" unicode="&#x166;" horiz-adv-x="456" 
d="M106 420v19h115v214h-220v21h462v-21h-220v-214h104v-19h-104v-420h-22v420h-115z" />
    <glyph glyph-name="tbar" unicode="&#x167;" horiz-adv-x="303" 
d="M29 322l-0.00195312 18.001h83v121h-83v19h83v95l23 9v-104h138v-19h-138v-121h138v-18h-138v-198c0 -36 6.16699 -64 18.5 -84s34.5 -30 66.5 -30c18 0 32.333 1.33301 43 4c0.666992 -5.33301 1.33398 -8.83301 2.00098 -10.5s1.33398 -4.16699 2.00098 -7.5
c-12 -4 -29.667 -6 -53 -6c-20.667 0 -37.5 3.5 -50.5 10.5s-23.333 17 -31 30s-13 28.167 -16 45.5s-4.5 36.666 -4.5 57.999v188h-83z" />
    <glyph glyph-name="Utilde" unicode="&#x168;" horiz-adv-x="613" 
d="M105 674l0.000976562 -406.002c0 -49.333 4.83301 -90.666 14.5 -123.999s23 -60 40 -80s37.167 -34.167 60.5 -42.5s48.666 -12.5 75.999 -12.5c28 0 54.167 4.16699 78.5 12.5s45.5 22.5 63.5 42.5s32.167 46.333 42.5 79s15.5 73 15.5 121v410h21v-404
c0 -54 -5.83301 -99 -17.5 -135s-27.667 -64.833 -48 -86.5s-44 -37 -71 -46s-55.833 -13.5 -86.5 -13.5c-28.667 0 -55.667 4.33301 -81 13s-47.5 23.667 -66.5 45s-34.167 49.833 -45.5 85.5s-17 80.834 -17 135.501v406h21zM200.001 730.998
c1.33301 18 6.16602 33.833 14.499 47.5s20.166 20.5 35.499 20.5c10 0 19.333 -2.16699 28 -6.5s17.167 -9 25.5 -14s16.833 -9.5 25.5 -13.5s18 -6 28 -6c21.333 0 33 14.333 35 43h16c-1.33301 -18 -5.83301 -32.667 -13.5 -44s-20.167 -17 -37.5 -17
c-10 0 -19.333 2 -28 6s-17.167 8.5 -25.5 13.5s-16.666 9.5 -24.999 13.5s-17.5 6 -27.5 6c-11.333 0 -19.166 -4.83301 -23.499 -14.5s-7.83301 -21.167 -10.5 -34.5h-17z" />
    <glyph glyph-name="utilde" unicode="&#x169;" horiz-adv-x="519" 
d="M402 0c-1.33301 10.667 -1.99902 24.4961 -1.99902 41.4961v51.5c-10.667 -21.333 -25.667 -40.666 -45 -57.999c-10 -9.33301 -24.833 -19 -44.5 -29s-42.834 -15 -69.501 -15c-50.667 0 -90.167 16.833 -118.5 50.5s-42.5 82.834 -42.5 147.501v289h21v-289
c0 -59.333 12.5 -103.666 37.5 -132.999s59.167 -44 102.5 -44c24.667 0 45.334 4.5 62.001 13.5s29.667 17.5 39 25.5c18.667 16 32.667 34.833 42 56.5s14.666 44.834 15.999 69.501v301h21v-66v-235v-79v-55c0 -18 0.666992 -32.333 2 -43h-21zM154.001 536.996
c1.33301 18 6.16602 33.833 14.499 47.5s20.166 20.5 35.499 20.5c10 0 19.333 -2.16699 28 -6.5s17.167 -9 25.5 -14s16.833 -9.5 25.5 -13.5s18 -6 28 -6c21.333 0 33 14.333 35 43h16c-1.33301 -18 -5.83301 -32.667 -13.5 -44s-20.167 -17 -37.5 -17
c-10 0 -19.333 2 -28 6s-17.167 8.5 -25.5 13.5s-16.666 9.5 -24.999 13.5s-17.5 6 -27.5 6c-11.333 0 -19.166 -4.83301 -23.499 -14.5s-7.83301 -21.167 -10.5 -34.5h-17z" />
    <glyph glyph-name="Umacron" unicode="&#x16a;" horiz-adv-x="613" 
d="M105 674l0.000976562 -406.002c0 -49.333 4.83301 -90.666 14.5 -123.999s23 -60 40 -80s37.167 -34.167 60.5 -42.5s48.666 -12.5 75.999 -12.5c28 0 54.167 4.16699 78.5 12.5s45.5 22.5 63.5 42.5s32.167 46.333 42.5 79s15.5 73 15.5 121v410h21v-404
c0 -54 -5.83301 -99 -17.5 -135s-27.667 -64.833 -48 -86.5s-44 -37 -71 -46s-55.833 -13.5 -86.5 -13.5c-28.667 0 -55.667 4.33301 -81 13s-47.5 23.667 -66.5 45s-34.167 49.833 -45.5 85.5s-17 80.834 -17 135.501v406h21zM421.001 751.998v-18h-229v18h229z" />
    </font>
</defs>
</svg>
