<?xml version="1.0" standalone="no"?>
<!DOCTYPE svg PUBLIC "-//W3C//DTD SVG 1.1//EN" "http://www.w3.org/Graphics/SVG/1.1/DTD/svg11.dtd" >
<svg>
<metadata>
Created by FontForge 20090914 at Wed Mar  1 08:29:15 2017
 By www-data
Copyright (c) 1992 Adobe Systems Incorporated.  All Rights Reserved.Myriad is a trademark of Adobe Systems Incorporated.
</metadata>
<defs>
<font id="MyriadSetPro-UltralightItalic" horiz-adv-x="0" >
  <font-face 
    font-family="MyriadSetPro-UltralightItalic"
    font-weight="300"
    font-style="italic"
    font-stretch="normal"
    units-per-em="1000"
    panose-1="2 0 1 3 5 0 0 2 0 4"
    ascent="800"
    descent="-200"
    x-height="476"
    cap-height="674"
    bbox="-589.999 -318.999 1265 1093"
    underline-thickness="50"
    underline-position="-50"
    unicode-range="U+000A-U+FB06"
  />
<missing-glyph horiz-adv-x="500" 
d="M80 0l146 754h356l-146 -754h-356zM108 25h307l138 706h-307z" />
    <glyph glyph-name="ff" unicode="ff" horiz-adv-x="514" 
d="M426 731c42.667 0 84.665 -10.6689 125.998 -32.002c32.667 21.333 66.667 32 102 32c11.333 0 21.333 -1.16699 30 -3.5s16.667 -5.16602 24 -8.49902l-9 -18c-14 5.33301 -32 8 -54 8c-26 0 -48.167 -5.16699 -66.5 -15.5s-33.666 -24.166 -45.999 -41.499
s-22.166 -37.333 -29.499 -60s-13.333 -46.667 -18 -72l-8 -40h132l-4 -19h-132l-89 -461h-22l89 461h-246l-89 -461h-22l89 461h-72l4 19h72l8 40c12.667 66 39.5 117.667 80.5 155s91.167 56 150.5 56zM461.998 518.998c6 30.667 14.667 59.5 26 86.5s26 51.833 44 74.5
c-15.333 7.33301 -33.333 14 -54 20s-41.667 9 -63 9c-28.667 0 -54.167 -4.83301 -76.5 -14.5s-41.666 -23 -57.999 -40s-29.833 -37 -40.5 -60s-18.334 -47.833 -23.001 -74.5l-8 -40h246z" />
    <glyph glyph-name="fi" unicode="fi" horiz-adv-x="476" 
d="M96 0l89.002 460.999h-72l4 19h72l8 43c6 30 14.833 57.667 26.5 83s26.5 47.333 44.5 66s39.167 33.167 63.5 43.5s51.833 15.5 82.5 15.5c17.333 0 34.166 -2.66699 50.499 -8s29.5 -11.666 39.5 -18.999c-5.33301 -8.66699 -9 -13.667 -11 -15l-2 -3
c-9.33301 6.66699 -21.666 12.167 -36.999 16.5s-33.333 6.5 -54 6.5c-28.667 0 -53.334 -5 -74.001 -15s-38.167 -23.667 -52.5 -41s-25.833 -37.5 -34.5 -60.5s-15.334 -47.167 -20.001 -72.5l-8 -40h278l-93 -480h-22l89 461h-256l-89 -461h-22z" />
    <glyph glyph-name="fl" unicode="fl" horiz-adv-x="476" 
d="M96 0l89.002 461.001h-72l4 19h72l6 34c7.33301 38 18.666 71.333 33.999 100s35.666 52.667 60.999 72c19.333 14 40.166 25 62.499 33s48.5 12 78.5 12c20 0 38.833 -2.33301 56.5 -7s32.834 -10.334 45.501 -17.001l-137 -707h-22l133 689h-2
c-10 6 -22.333 10.833 -37 14.5s-32.667 5.5 -54 5.5c-30.667 0 -57.167 -5.16699 -79.5 -15.5s-41.166 -24.166 -56.499 -41.499s-27.833 -37.333 -37.5 -60s-16.834 -46.334 -21.501 -71.001l-8 -41h131l-4 -19h-131l-89 -461h-22z" />
    <glyph glyph-name=".notdef" horiz-adv-x="500" 
d="M80 0l146 754h356l-146 -754h-356zM108 25h307l138 706h-307z" />
    <glyph glyph-name=".null" 
 />
    <glyph glyph-name=".null" 
 />
    <glyph glyph-name="uni000A" unicode="&#xa;" horiz-adv-x="214" 
 />
    <glyph glyph-name="space" unicode=" " horiz-adv-x="219" 
 />
    <glyph glyph-name="exclam" unicode="!" horiz-adv-x="206" 
d="M131 183l87 491h32l-103 -491h-16zM130 14c-1.33301 -6.66699 -4.66602 -12.5 -9.99902 -17.5s-11.666 -7.5 -18.999 -7.5s-12.666 2.5 -15.999 7.5s-4.33301 10.833 -3 17.5c1.33301 7.33301 4.66602 13.5 9.99902 18.5s11.666 7.5 18.999 7.5s12.666 -2.5 15.999 -7.5
s4.33301 -11.167 3 -18.5z" />
    <glyph glyph-name="quotedbl" unicode="&#x22;" horiz-adv-x="300" 
d="M238 691l-45 -201h-14l14 101l15 100h30zM366 691l-25 -101l-24 -100h-13l32 201h30z" />
    <glyph glyph-name="numbersign" unicode="#" horiz-adv-x="458" 
d="M333 232l60 190h-133l-61 -190h134zM103 0l67 212h-85l4 20h89l60 190h-90l3 19h93l68 208h21l-67 -208h134l68 208h20l-67 -208h85l-3 -19h-89l-59 -190h90l-4 -19h-93l-34.5 -106l-33.5 -107h-23l68 213h-133l-34 -106l-34 -107h-21z" />
    <glyph glyph-name="dollar" unicode="$" horiz-adv-x="479" 
d="M206 -87l20.002 107.003c-27.333 0 -52.833 3.33301 -76.5 10s-42.5 16 -56.5 28c3.33301 4.66699 5.66602 8.16699 6.99902 10.5s3.33301 5.16602 6 8.49902c15.333 -10.667 33.833 -19.167 55.5 -25.5s44.167 -9.5 67.5 -9.5c19.333 0 38.333 3.5 57 10.5
s35.834 16.5 51.501 28.5s29 26 40 42s18.167 33 21.5 51c7.33301 37.333 2.83301 67.666 -13.5 90.999s-42.5 44.666 -78.5 63.999c-43.333 20 -76 42.333 -98 67s-29.333 56.667 -22 96c7.33301 38.667 26.166 70.5 56.499 95.5s66.833 40.5 109.5 46.5l20 106h22
l-20 -105c28 -1.33301 50.667 -5.33301 68 -12s31.666 -13.667 42.999 -21l-15 -18c-10 7.33301 -24.333 13.833 -43 19.5s-40.667 8.5 -66 8.5c-22.667 0 -43.167 -4.33301 -61.5 -13s-34 -19.167 -47 -31.5s-23.167 -25.166 -30.5 -38.499s-12 -24.333 -14 -33
c-3.33301 -18 -3.66602 -33.667 -0.999023 -47s8.5 -25.5 17.5 -36.5s21 -21.5 36 -31.5s33.167 -20.333 54.5 -31c20.667 -10.667 38.667 -21.5 54 -32.5s27.666 -23.333 36.999 -37s15.5 -28.834 18.5 -45.501s2.5 -35.667 -1.5 -57
c-3.33301 -18.667 -9.83301 -36.667 -19.5 -54s-22 -33 -37 -47s-32.5 -26 -52.5 -36s-42.333 -17 -67 -21l-20 -107h-22z" />
    <glyph glyph-name="percent" unicode="%" horiz-adv-x="730" 
d="M161 -13l516 676h22l-516 -676h-22zM645 382c18 0 34.1699 -3.83301 48.5029 -11.5s26 -19.167 35 -34.5s14.667 -35 17 -59s0.5 -52 -5.5 -84c-13.333 -68 -36 -118.167 -68 -150.5s-66.667 -48.5 -104 -48.5c-16.667 0 -31.834 4 -45.501 12s-24.834 20 -33.501 36
s-14.334 35.833 -17.001 59.5s-1 51.167 5 82.5c6.66699 34 16 63.5 28 88.5s25.5 45.5 40.5 61.5s31 28 48 36s34.167 12 51.5 12zM642.003 362c-17.333 0 -33.668 -4.50098 -49.001 -13.501s-29.166 -21.333 -41.499 -37s-23.166 -34 -32.499 -55s-16.333 -43.5 -21 -67.5
c-10 -54.667 -8 -97.5 6 -128.5s37 -46.5 69 -46.5c19.333 0 37.166 5 53.499 15s30.666 23.167 42.999 39.5s22.833 35.166 31.5 56.499s15.334 43.333 20.001 66c4 22.667 5.83301 44.334 5.5 65.001s-3.5 38.834 -9.5 54.501s-15 28.167 -27 37.5s-28 14 -48 14z
M297.001 659.999c18 0 34.1689 -3.83105 48.502 -11.498s26 -19.167 35 -34.5s14.5 -34.833 16.5 -58.5s0 -51.834 -6 -84.501c-13.333 -68 -35.833 -117.833 -67.5 -149.5s-65.834 -47.5 -102.501 -47.5c-16.667 0 -32 3.66699 -46 11s-25.5 18.666 -34.5 33.999
s-14.833 34.833 -17.5 58.5s-1 52.167 5 85.5c6.66699 34 16 63.333 28 88s25.5 45.167 40.5 61.5s31.167 28.333 48.5 36s34.666 11.5 51.999 11.5zM294.003 641.001c-17.333 0 -33.6709 -4.5 -49.0039 -13.5s-29.5 -21.333 -42.5 -37s-24.167 -34.167 -33.5 -55.5
s-16.333 -44 -21 -68c-5.33301 -25.333 -7.66602 -48.5 -6.99902 -69.5s4.33398 -39.167 11.001 -54.5s16 -27.333 28 -36s26.667 -13 44 -13c19.333 0 37 4.5 53 13.5s30.167 21.333 42.5 37s22.833 34.167 31.5 55.5s15.667 44.333 21 69
c4.66699 22.667 6.83398 44.5 6.50098 65.5s-3.5 39.333 -9.5 55s-15.167 28.167 -27.5 37.5s-28.166 14 -47.499 14z" />
    <glyph glyph-name="ampersand" unicode="&#x26;" horiz-adv-x="553" 
d="M507 0c-9.33301 12 -18.5039 24.5 -27.5039 37.5s-20.167 28.167 -33.5 45.5c-43.333 -34.667 -82.833 -58.334 -118.5 -71.001s-71.167 -19 -106.5 -19c-26.667 0 -50.334 4.5 -71.001 13.5s-37.667 21.5 -51 37.5s-22.666 35 -27.999 57s-5.33301 45.667 0 71
c8.66699 45.333 29.334 84.833 62.001 118.5s71.667 62.5 117 86.5c-14.667 30 -25.167 57.167 -31.5 81.5s-6.83301 48.833 -1.5 73.5c4 19.333 11 38.166 21 56.499s22.5 34.666 37.5 48.999s32.167 25.833 51.5 34.5s40.666 13 63.999 13c33.333 0 59.333 -11.333 78 -34
s24.334 -54 17.001 -94c-3.33301 -17.333 -9.66602 -34.166 -18.999 -50.499s-22.166 -32.166 -38.499 -47.499s-36.5 -30.5 -60.5 -45.5s-52.333 -30.167 -85 -45.5l164 -252c27.333 32 51.833 66.667 73.5 104s40.834 79.333 57.501 126h22
c-19.333 -51.333 -40.5 -97.166 -63.5 -137.499s-48.5 -75.833 -76.5 -106.5l31.5 -41.5l21 -28l14 -19c3.66699 -5 7.16699 -9.5 10.5 -13.5h-30zM226.996 13c38 0 74.668 8 110.001 24s67 36.667 95 62l-61 90l-45.5 69.5l-35 54.5l-30.5 46
c-14 -8 -29.667 -17.5 -47 -28.5s-34.166 -24 -50.499 -39s-30.833 -32 -43.5 -51s-21.334 -40.167 -26.001 -63.5c-4.66699 -24.667 -4.83398 -47 -0.500977 -67s12.333 -37.167 24 -51.5s27 -25.5 46 -33.5s40.5 -12 64.5 -12zM378.997 665
c-24.667 0 -45.667 -5.66992 -63 -17.0029s-31.666 -24.5 -42.999 -39.5s-19.833 -29.5 -25.5 -43.5s-9.16699 -24 -10.5 -30c-3.33301 -15.333 -4.33301 -29.666 -3 -42.999s4 -26.166 8 -38.499s8.83301 -24.166 14.5 -35.499l16.5 -34c24.667 12 48 24.167 70 36.5
s41.333 25.166 58 38.499s30.5 27.833 41.5 43.5s18.167 32.834 21.5 51.501c2.66699 14 3.16699 27.5 1.5 40.5s-5.83398 24.833 -12.501 35.5s-16 19.167 -28 25.5s-27.333 9.5 -46 9.5z" />
    <glyph glyph-name="quotesingle" unicode="'" horiz-adv-x="177" 
d="M243 691c-9.33301 -36 -17.668 -70.333 -25.001 -103s-15.666 -67 -24.999 -103h-20c4.66699 34 10 68.5 16 103.5l17 102.5h37z" />
    <glyph glyph-name="parenleft" unicode="(" horiz-adv-x="264" 
d="M371 697c-24.667 -26 -47.998 -53.835 -69.998 -83.502s-42.167 -61.5 -60.5 -95.5s-34.5 -70.5 -48.5 -109.5s-25.333 -81.167 -34 -126.5c-8.66699 -44 -13.167 -85.167 -13.5 -123.5s2.16699 -74.333 7.5 -108s13.166 -65.167 23.499 -94.5s22.166 -57 35.499 -83h-20
c-13.333 21.333 -25.5 45.666 -36.5 72.999s-19.667 57.833 -26 91.5s-9.5 70.834 -9.5 111.501s4.66699 85.334 14 134.001c9.33301 49.333 22 94.5 38 135.5s33.667 78.333 53 112s40 64.334 62 92.001s43.667 52.5 65 74.5h20z" />
    <glyph glyph-name="parenright" unicode=")" horiz-adv-x="264" 
d="M7 -127c24.667 26 47.833 53.4971 69.5 82.4971s41.5 60.333 59.5 94s33.833 69.834 47.5 108.501s25.167 81 34.5 127c8.66699 45.333 13.5 87.333 14.5 126s-1 74.834 -6 108.501s-12.667 65.167 -23 94.5s-22.5 57 -36.5 83h20c12.667 -22 24.5 -46.5 35.5 -73.5
s19.833 -57.333 26.5 -91s10 -71 10 -112s-4.66699 -86.167 -14 -135.5s-22 -94.166 -38 -134.499s-33.833 -77.333 -53.5 -111s-40.5 -64.167 -62.5 -91.5s-43.333 -52.333 -64 -75h-20z" />
    <glyph glyph-name="asterisk" unicode="*" horiz-adv-x="389" 
d="M423 667l-117.999 -132l157 9l-5 -27l-151 10l31.5 -63.5c11 -23 22.167 -44.5 33.5 -64.5l-31 -17l-41 139l-104 -140c-4 2.66699 -7.33301 5.5 -10 8.5s-5.33398 5.5 -8.00098 7.5l113 127c-22 -2 -46.833 -3.5 -74.5 -4.5s-53.5 -2.16699 -77.5 -3.5l5 28l150 -11
c-9.33301 18 -19.833 39.333 -31.5 64l-32.5 68c6 3.33301 11 6 15 8s8.33301 4.33301 13 7l44 -141l48 70.5l50 71.5z" />
    <glyph glyph-name="plus" unicode="+" horiz-adv-x="596" 
d="M416 528l-49 -253h244l-4 -21h-244l-49 -254h-23l49 254h-244l4 21h244l49 253h23z" />
    <glyph glyph-name="comma" unicode="," horiz-adv-x="150" 
d="M8 -128c4.66699 7.33301 10.6689 19.001 18.002 35.001l23.5 52.5c8.33301 19 16.166 38 23.499 57s13.333 35.5 18 49.5l39 10c-6.66699 -16.667 -15.167 -35.834 -25.5 -57.501s-20.833 -42.5 -31.5 -62.5l-29 -52.5c-8.66699 -15 -14.334 -24.167 -17.001 -27.5z" />
    <glyph glyph-name="uni002D" unicode="-" horiz-adv-x="297" 
d="M318 285l-5 -26h-226l5 26h226z" />
    <glyph glyph-name="period" unicode="." horiz-adv-x="152" 
d="M109 19c-1.33301 -6.66699 -4.66602 -12.5 -9.99902 -17.5s-11.666 -7.5 -18.999 -7.5s-12.666 2.5 -15.999 7.5s-4.33301 10.833 -3 17.5c1.33301 7.33301 4.66602 13.5 9.99902 18.5s11.666 7.5 18.999 7.5s12.666 -2.5 15.999 -7.5s4.33301 -11.167 3 -18.5z" />
    <glyph glyph-name="slash" unicode="/" horiz-adv-x="346" 
d="M-3 -41l451 726h28l-455 -726h-24z" />
    <glyph glyph-name="zero" unicode="0" horiz-adv-x="460" 
d="M227 -11c-27.333 0 -51.5029 6.66699 -72.5029 20s-37.333 34 -49 62s-18 63.833 -19 107.5s4.5 95.834 16.5 156.501c11.333 59.333 26 109.666 44 150.999s38 75 60 101s45.833 44.833 71.5 56.5s52.167 17.5 79.5 17.5c26.667 0 50.667 -5.83301 72 -17.5
s38 -30.5 50 -56.5s19 -59.667 21 -101s-2.66699 -91.666 -14 -150.999c-12 -60.667 -27.167 -112.834 -45.5 -156.501s-38.666 -79.5 -60.999 -107.5s-46.666 -48.667 -72.999 -62s-53.166 -20 -80.499 -20zM231.997 11c29.333 0 56.3369 8 81.0039 24
s46.834 38.333 66.501 67s36.5 62.334 50.5 101.001s25.333 80.667 34 126c8.66699 44 13.5 84.833 14.5 122.5s-2.5 70.5 -10.5 98.5s-21.333 49.833 -40 65.5s-43.334 23.5 -74.001 23.5s-58.334 -7.83301 -83.001 -23.5s-46.667 -37.5 -66 -65.5
s-35.833 -60.833 -49.5 -98.5s-24.834 -78.5 -33.501 -122.5c-8.66699 -45.333 -13.334 -87.333 -14.001 -126s3.16602 -72.334 11.499 -101.001s21.833 -51 40.5 -67s42.667 -24 72 -24z" />
    <glyph glyph-name="one" unicode="1" horiz-adv-x="460" 
d="M354 624h-2l-115 -64l-5 18l126 72h21l-126 -650h-20z" />
    <glyph glyph-name="two" unicode="2" horiz-adv-x="460" 
d="M47 0l3.00195 16.001l64 59l143 124.5c40.667 37 75 71.333 103 103s50 62 66 91s27 58.833 33 89.5c4 18.667 5.66699 37.334 5 56.001s-5.33398 35.5 -14.001 50.5s-21.334 27.167 -38.001 36.5s-39.667 14 -69 14c-15.333 0 -30.166 -1.83301 -44.499 -5.5
s-27.833 -8.33398 -40.5 -14.001s-24 -11.667 -34 -18s-18.667 -12.5 -26 -18.5l-10 13c22.667 18.667 47.5 34 74.5 46s56.5 18 88.5 18s57.333 -5.66699 76 -17s32.667 -25.666 42 -42.999s14.5 -36.333 15.5 -57s-0.166992 -40.334 -3.5 -59.001
c-6.66699 -32 -18.334 -63 -35.001 -93s-39 -61.333 -67 -94s-61.833 -67.334 -101.5 -104.001l-138.5 -122l-55 -49v-2h327l-4 -21h-360z" />
    <glyph glyph-name="three" unicode="3" horiz-adv-x="479" 
d="M71 49c9.33301 -8.66699 25.1689 -17.1631 47.502 -25.4961s48.833 -12.5 79.5 -12.5c35.333 0 65.333 5.66699 90 17s45 25.5 61 42.5s28.167 35.167 36.5 54.5s14.166 37 17.499 53c5.33301 29.333 4.16602 54.5 -3.50098 75.5s-19.667 38.167 -36 51.5
s-36 23.166 -59 29.499s-47.167 9.5 -72.5 9.5h-34l4 21h37c19.333 0 40 2.66699 62 8s42.5 14 61.5 26s35.5 27.167 49.5 45.5s23.667 40.5 29 66.5c3.33301 17.333 4.16602 33.666 2.49902 48.999s-6.66699 29 -15 41s-20.166 21.5 -35.499 28.5s-35 10.5 -59 10.5
s-47.333 -4.5 -70 -13.5s-42.334 -19.5 -59.001 -31.5l-6 20c14.667 10.667 34.334 21 59.001 31s51 15 79 15c28.667 0 52 -4.33301 70 -13s31.667 -20 41 -34s14.833 -29.833 16.5 -47.5s0.833984 -35.5 -2.49902 -53.5c-6.66699 -36 -22 -67.667 -46 -95
s-58.667 -47.666 -104 -60.999v-2c18.667 -4 36.167 -10.833 52.5 -20.5s29.666 -21.834 39.999 -36.501s17.5 -31.834 21.5 -51.501s3.33301 -41.834 -2 -66.501c-4 -22.667 -11.5 -45.5 -22.5 -68.5s-26 -43.5 -45 -61.5s-42.833 -32.667 -71.5 -44s-62.667 -17 -102 -17
c-30 0 -55.5 4 -76.5 12s-36.5 16.333 -46.5 25z" />
    <glyph glyph-name="four" unicode="4" horiz-adv-x="479" 
d="M317 0l39 201h-309l2 14l412 435h2l-84 -429h103l-3 -20h-103l-39 -201h-20zM359 221l57 291c2.66699 15.333 5.5 30 8.5 44s6.5 28 10.5 42l-3 1c-14 -18.667 -26.5 -33.5 -37.5 -44.5s-21.167 -21.833 -30.5 -32.5l-283 -299l-1 -2h279z" />
    <glyph glyph-name="five" unicode="5" horiz-adv-x="479" 
d="M504 630h-238.001l-82 -233c11.333 1.33301 21.833 2.5 31.5 3.5s22.167 1.5 37.5 1.5c25.333 0 49.5 -3.66699 72.5 -11s42.667 -19.166 59 -35.499s28 -37.333 35 -63s6.83301 -57.167 -0.5 -94.5c-6.66699 -32.667 -18 -62 -34 -88s-34.667 -48 -56 -66
s-44.666 -31.667 -69.999 -41s-50.666 -14 -75.999 -14c-30.667 0 -57.334 3.83301 -80.001 11.5s-39 16.167 -49 25.5l12 23c12 -9.33301 27.667 -18.166 47 -26.499s44 -12.5 74 -12.5c25.333 0 49.666 4.66699 72.999 14s44.333 22.166 63 38.499s34.667 36 48 59
s22.666 47.833 27.999 74.5c5.33301 27.333 6.33301 52.166 3 74.499s-11.166 41.833 -23.499 58.5s-29.166 29.5 -50.499 38.5s-48 13.5 -80 13.5c-19.333 0 -37 -1 -53 -3l-40 -5l96 277h257z" />
    <glyph glyph-name="six" unicode="6" horiz-adv-x="479" 
d="M316 419c30 0 55.6689 -5.16895 77.002 -15.502s38.166 -24.833 50.499 -43.5s20.166 -40.667 23.499 -66s2.33301 -52.666 -3 -81.999c-5.33301 -27.333 -14.666 -54.333 -27.999 -81s-29.833 -50.5 -49.5 -71.5s-42.667 -38 -69 -51s-55.166 -19.5 -86.499 -19.5
c-26 0 -49.667 5.5 -71 16.5s-38.833 27.833 -52.5 50.5s-22.5 50.834 -26.5 84.501s-1.66699 72.834 7 117.501c11.333 60 29.333 114.167 54 162.5s54.5 89.666 89.5 123.999s74.667 61.5 119 81.5s92.166 31.667 143.499 35l-3 -21
c-40.667 -1.33301 -80.334 -9.33301 -119.001 -24s-74.167 -35.667 -106.5 -63s-60.833 -60.5 -85.5 -99.5s-43.667 -83.5 -57 -133.5h2c19.333 26 45.5 49 78.5 69s70.5 30 112.5 30zM240.002 9.99805c23.333 0 45.9971 4.66895 67.9971 14.002s42 22.5 60 39.5
s33.333 38 46 63s22 52.833 28 83.5c6.66699 32 7.83398 59.833 3.50098 83.5s-12.666 43.167 -24.999 58.5s-28 26.833 -47 34.5s-40.167 11.5 -63.5 11.5c-34 0 -67 -8.83301 -99 -26.5s-60 -42.5 -84 -74.5c-3.33301 -5.33301 -7 -11.833 -11 -19.5
s-6.66699 -14.834 -8 -21.501c-6.66699 -36.667 -9 -70.167 -7 -100.5s8.5 -56.333 19.5 -78s26.333 -38.334 46 -50.001s43.834 -17.5 72.501 -17.5h1z" />
    <glyph glyph-name="seven" unicode="7" horiz-adv-x="479" 
d="M542 650l-4 -18l-415 -632h-21l412 628v2h-328l4 20h352z" />
    <glyph glyph-name="eight" unicode="8" horiz-adv-x="479" 
d="M368 661c24 0 44.833 -4.16211 62.5 -12.4951s32 -19.5 43 -33.5s18.167 -30.167 21.5 -48.5s3 -37.5 -1 -57.5c-2.66699 -14 -7.16699 -28.333 -13.5 -43s-15.333 -29 -27 -43s-26.334 -27.333 -44.001 -40s-39.167 -24.334 -64.5 -35.001l-1 -4
c44.667 -20 75.667 -43.667 93 -71s21.666 -62 12.999 -104c-6 -30.667 -16.333 -57.334 -31 -80.001s-32.167 -41.334 -52.5 -56.001s-42.666 -25.667 -66.999 -33s-48.5 -11 -72.5 -11c-26.667 0 -50.667 4 -72 12s-38.833 19.5 -52.5 34.5s-23.167 33 -28.5 54
s-5.66602 44.167 -0.999023 69.5c9.33301 46 29.5 84.333 60.5 115s69.5 54.667 115.5 72l1 4c-36.667 17.333 -61.167 39.166 -73.5 65.499s-15.833 54.166 -10.5 83.499c5.33301 26 14.333 49 27 69s28 37 46 51s37.833 24.5 59.5 31.5s44.5 10.5 68.5 10.5h1z
M231 11.0049c52 0 95.8311 13.666 131.498 40.999s57.834 64 66.501 110c10 50 2 88.5 -24 115.5s-66.333 48.167 -121 63.5c-53.333 -15.333 -96.166 -38.666 -128.499 -69.999s-52.166 -66.333 -59.499 -105c-4.66699 -20.667 -5.33398 -40.5 -2.00098 -59.5
s10.5 -35.5 21.5 -49.5s26.167 -25.167 45.5 -33.5s42.333 -12.5 69 -12.5h1zM357.998 639.004c-22.667 0 -43.5 -3.5 -62.5 -10.5s-36 -16.667 -51 -29s-27.167 -26.5 -36.5 -42.5s-15.666 -33 -18.999 -51c-9.33301 -43.333 -2.33301 -77 21 -101s57.333 -41.333 102 -52
c40.667 14.667 75.667 34.167 105 58.5s47.666 56.5 54.999 96.5c3.33301 16 4 31.833 2 47.5s-7.5 29.667 -16.5 42s-21.333 22.333 -37 30s-36.167 11.5 -61.5 11.5h-1z" />
    <glyph glyph-name="nine" unicode="9" horiz-adv-x="460" 
d="M101 10c2.66699 -0.666992 4.32812 -0.832031 4.99512 -0.499023s2.66699 0.5 6 0.5c32.667 0 66.334 5.66699 101.001 17s68 29.833 100 55.5s61.5 58.834 88.5 99.501s49.167 90.334 66.5 149.001h-2c-27.333 -31.333 -57.166 -54.333 -89.499 -69
s-66.5 -22 -102.5 -22c-30 0 -55 5.66699 -75 17s-35.667 26.166 -47 44.499s-18.166 39.166 -20.499 62.499s-1.16602 47 3.50098 71c6 30 15.833 58.667 29.5 86s30.667 51.333 51 72s43.833 37.167 70.5 49.5s55.667 18.5 87 18.5c24 0 46 -5.5 66 -16.5
s35.833 -28 47.5 -51s19 -52 22 -87s-0.166992 -76.167 -9.5 -123.5c-13.333 -70 -34.166 -130 -62.499 -180s-60.333 -90.833 -96 -122.5s-74 -54.834 -115 -69.501s-81.5 -22 -121.5 -22h-7zM358.994 639.002c-24 0 -46.999 -5 -68.999 -15s-42 -24 -60 -42
s-33.5 -39.5 -46.5 -64.5s-22.5 -52.5 -28.5 -82.5c-5.33301 -27.333 -6 -51.666 -2 -72.999s11.5 -39.5 22.5 -54.5s25.167 -26.333 42.5 -34s37.333 -11.5 60 -11.5c38 0 73.5 8.83301 106.5 26.5s60.167 40.5 81.5 68.5c2.66699 3.33301 5.16699 7.16602 7.5 11.499
s4.16602 8.83301 5.49902 13.5c14.667 79.333 12.5 142 -6.5 188s-56.5 69 -112.5 69h-1z" />
    <glyph glyph-name="colon" unicode=":" horiz-adv-x="136" 
d="M100 19c-1.33301 -6.66699 -4.66602 -12.5 -9.99902 -17.5s-11.666 -7.5 -18.999 -7.5s-12.666 2.5 -15.999 7.5s-4.33301 10.833 -3 17.5c1.33301 7.33301 4.66602 13.5 9.99902 18.5s11.666 7.5 18.999 7.5s12.666 -2.5 15.999 -7.5s4.33301 -11.167 3 -18.5zM175 406
c-1.33301 -6.66699 -4.49902 -12.5 -9.49902 -17.5s-11.167 -7.5 -18.5 -7.5s-12.833 2.5 -16.5 7.5s-4.83398 10.833 -3.50098 17.5c2 7.33301 5.5 13.5 10.5 18.5s11.167 7.5 18.5 7.5s12.833 -2.5 16.5 -7.5s4.5 -11.167 2.5 -18.5z" />
    <glyph glyph-name="semicolon" unicode=";" horiz-adv-x="152" 
d="M195 406c-1.33301 -6.66699 -4.49902 -12.5 -9.49902 -17.5s-11.167 -7.5 -18.5 -7.5s-12.833 2.5 -16.5 7.5s-4.83398 10.833 -3.50098 17.5c2 7.33301 5.5 13.5 10.5 18.5s11.167 7.5 18.5 7.5s12.833 -2.5 16.5 -7.5s4.5 -11.167 2.5 -18.5zM8.00098 -128
c4.66699 7.33301 10.6689 19.001 18.002 35.001l23.5 52.5c8.33301 19 16.166 38 23.499 57s13.333 35.5 18 49.5l39 10c-6.66699 -16.667 -15.167 -35.834 -25.5 -57.501s-20.833 -42.5 -31.5 -62.5l-29 -52.5c-8.66699 -15 -14.334 -24.167 -17.001 -27.5z" />
    <glyph glyph-name="less" unicode="&#x3c;" horiz-adv-x="596" 
d="M132 276l247.5 122.5l247.5 121.5l-5 -23l-478 -232l387 -235l-4 -23l-101.5 61.5l-98.5 60.5l-98.5 60.5l-101.5 61.5z" />
    <glyph glyph-name="equal" unicode="=" horiz-adv-x="596" 
d="M116 355l4 21h511l-4 -21h-511zM78 160l3 20h511l-3 -20h-511z" />
    <glyph glyph-name="greater" unicode="&#x3e;" horiz-adv-x="596" 
d="M574 251l-247 -121.5l-247 -122.5l4 23l479 233l-388 234l5 23l199 -122l200 -122z" />
    <glyph glyph-name="question" unicode="?" horiz-adv-x="375" 
d="M186 179l1.00293 2.99902v4.5c0 1.66699 0.333008 3.16699 1 4.5c0 9.33301 1 19.666 3 30.999c4 22 14.333 47.167 31 75.5s37.334 55.5 62.001 81.5c32 32 58.667 60.833 80 86.5s34.666 53.167 39.999 82.5c7.33301 36 2 64 -16 84s-47.667 30 -89 30
c-17.333 0 -34.833 -2.83301 -52.5 -8.5s-33.834 -12.5 -48.501 -20.5l-8 20c34.667 22 76 33 124 33c24 0 44.333 -3.83301 61 -11.5s29.667 -17.667 39 -30s15.5 -26.666 18.5 -42.999s2.83301 -33.166 -0.5 -50.499c-6 -30.667 -19.667 -59.667 -41 -87
s-48.333 -57 -81 -89c-26.667 -27.333 -47.834 -53.333 -63.501 -78s-25.834 -49.334 -30.501 -74.001c-1.33301 -6.66699 -2 -13.167 -2 -19.5s-0.333008 -11.166 -1 -14.499v-5c0 -2 -0.333008 -3.66699 -1 -5h-26zM161.003 -11.001c-19.333 0 -27 11.667 -23 35
c2 10.667 6.66699 19.167 14 25.5s15.333 9.5 24 9.5c9.33301 0 16 -3.16699 20 -9.5s5 -14.833 3 -25.5c-2 -11.333 -6.5 -20 -13.5 -26s-15.167 -9 -24.5 -9z" />
    <glyph glyph-name="at" unicode="@" horiz-adv-x="693" 
d="M573 488c-7.33301 2.66699 -15.6689 5 -25.002 7s-23 3 -41 3c-28.667 0 -56.667 -5.83301 -84 -17.5s-52.166 -27.667 -74.499 -48s-41.5 -44 -57.5 -71s-27 -55.833 -33 -86.5c-5.33301 -26.667 -2.66602 -48.834 8.00098 -66.501s30.667 -26.5 60 -26.5
c19.333 0 39 5.66699 59 17s38.667 25.333 56 42s32.833 34.834 46.5 54.501s24.167 38.167 31.5 55.5zM496.997 28c-26.667 -14 -54.835 -24.3359 -84.502 -31.0029s-59.5 -10 -89.5 -10c-40 0 -76.167 7.16699 -108.5 21.5s-59 34.833 -80 61.5s-35.333 59 -43 97
s-6.83398 80.667 2.49902 128c10 52.667 28 102.667 54 150s57.667 88.833 95 124.5s80 64 128 85s99 31.5 153 31.5c42 0 78.333 -7.16699 109 -21.5s55.167 -34 73.5 -59s30.333 -54.833 36 -89.5s4.5 -72.334 -3.5 -113.001
c-7.33301 -39.333 -18.666 -74.166 -33.999 -104.499s-32.5 -55.833 -51.5 -76.5s-39 -36.5 -60 -47.5s-41.167 -16.5 -60.5 -16.5c-8 0 -15.833 2 -23.5 6s-14 10.167 -19 18.5s-8 18.833 -9 31.5s1.16699 27.667 6.5 45l-3 -1c-28.667 -34 -56.834 -58.667 -84.501 -74
s-57.5 -23 -89.5 -23c-12 0 -23.333 2.66699 -34 8s-19.667 13 -27 23s-12.5 22.167 -15.5 36.5s-2.83301 30.5 0.5 48.5c6 30.667 17.833 60.667 35.5 90s39.334 55.333 65.001 78s54.334 40.834 86.001 54.501s64.5 20.5 98.5 20.5c18 0 33.5 -1.33301 46.5 -4
s25.5 -6.66699 37.5 -12l-73 -178c-6 -14 -10.833 -27 -14.5 -39s-6.5 -23 -8.5 -33c-4.66699 -24 -3.66699 -41.833 3 -53.5s17.334 -17.834 32.001 -18.501c15.333 -0.666992 31.833 4 49.5 14s34.5 24.333 50.5 43s30.333 40.834 43 66.501s22 53.834 28 84.501
c8 40.667 9.66699 78 5 112s-15.167 63.333 -31.5 88s-38.666 43.667 -66.999 57s-62.166 20 -101.499 20c-44 0 -87.667 -9.16699 -131 -27.5s-83.333 -44 -120 -77s-68.334 -72.333 -95.001 -118s-45.334 -95.834 -56.001 -150.501c-8 -42 -8.5 -80.667 -1.5 -116
s20.333 -65.666 40 -90.999s44.5 -45.166 74.5 -59.499s64 -21.5 102 -21.5c32 0 60.833 4.16699 86.5 12.5s50.167 18.833 73.5 31.5z" />
    <glyph glyph-name="A" unicode="A" horiz-adv-x="558" 
d="M33 0l376 674h11l115 -674h-24l-44 251h-272l-141 -251h-21zM207 272h259l-61 354z" />
    <glyph glyph-name="B" unicode="B" horiz-adv-x="469" 
d="M213 666c20 3.33301 39.5 6.33008 58.5 8.99707s38.5 4 58.5 4c63.333 0 109.833 -13 139.5 -39s39.167 -67.333 28.5 -124c-3.33301 -16.667 -9.83301 -33.667 -19.5 -51s-21.834 -33.166 -36.501 -47.499s-31.334 -26.666 -50.001 -36.999s-38.667 -17.166 -60 -20.499
c30.667 -6 55 -15.333 73 -28s31.833 -27 41.5 -43s15.334 -33 17.001 -51s0.833984 -35.333 -2.49902 -52c-12.667 -62.667 -43.667 -110.167 -93 -142.5s-114.333 -48.5 -195 -48.5c-14.667 0 -29.167 0.5 -43.5 1.5s-29.5 2.16699 -45.5 3.5zM105 19.9971
c11.333 -1.33301 22.834 -2.33301 34.501 -3s23.5 -1 35.5 -1c71.333 0 130.166 13.333 176.499 40s75.5 70 87.5 130c9.33301 48.667 0 87 -28 115s-71.667 44 -131 48h-111zM173.001 369.997l111 -0.000976562c23.333 0 45.833 3.83301 67.5 11.5s41.167 18 58.5 31
s32 28.333 44 46s20 36.834 24 57.501c9.33301 50 0.833008 86.167 -25.5 108.5s-68.833 33.5 -127.5 33.5c-17.333 0 -34 -1 -50 -3l-47 -6z" />
    <glyph glyph-name="C" unicode="C" horiz-adv-x="548" 
d="M517 21c-24.667 -10 -52.3311 -17.835 -82.998 -23.502s-61.334 -8.5 -92.001 -8.5c-46.667 1.33301 -87.5 10 -122.5 26s-62.833 38.833 -83.5 68.5s-34 65.834 -40 108.501s-3.66699 91.334 7 146.001c10 52 27 99.333 51 142s53.5 79.167 88.5 109.5
s74.833 53.833 119.5 70.5s92.667 25 144 25c24 0 46.833 -2.16699 68.5 -6.5s42.167 -12.166 61.5 -23.499l-11 -20c-18.667 9.33301 -39 16.333 -61 21s-41.667 7 -59 7c-48 0 -93 -7.16699 -135 -21.5s-79.5 -35.333 -112.5 -63s-61 -61.667 -84 -102
s-39.5 -86.5 -49.5 -138.5c-9.33301 -50 -11.666 -95 -6.99902 -135s16.667 -74.333 36 -103s45.166 -50.667 77.499 -66s71.166 -23 116.499 -23c30 0 59.667 2.66699 89 8s55.333 12.666 78 21.999z" />
    <glyph glyph-name="D" unicode="D" horiz-adv-x="620" 
d="M213 664c16.667 3.33301 33.3311 6.00098 49.998 8.00098s32.667 3.5 48 4.5s30 1.66699 44 2s26.333 0.5 37 0.5c102 0 175.333 -28.667 220 -86s56.334 -141 35.001 -251c-11.333 -56.667 -29.833 -106.334 -55.5 -149.001s-56.5 -78.667 -92.5 -108
c-43.333 -35.333 -89.666 -59 -138.999 -71s-102.666 -18 -159.999 -18c-15.333 0 -33.333 0.333008 -54 1s-41.334 1.66699 -62.001 3zM385.997 658.001c-28 0 -54.5 -0.831055 -79.5 -2.49805s-50.5 -4.83398 -76.5 -9.50098l-121 -625
c7.33301 -0.666992 15.833 -1.33398 25.5 -2.00098s19 -1.16699 28 -1.5s17.167 -0.5 24.5 -0.5h17c54 0 104.333 5.5 151 16.5s91 33.167 133 66.5c34.667 27.333 64 62.5 88 105.5s40.667 88.5 50 136.5c20.667 105.333 9.66699 184.333 -33 237s-111.667 79 -207 79z" />
    <glyph glyph-name="E" unicode="E" horiz-adv-x="442" 
d="M411 21l-4 -21h-323l131 674h307l-5 -21h-286l-55 -286h270l-4 -21h-270l-63 -325h302z" />
    <glyph glyph-name="F" unicode="F" horiz-adv-x="434" 
d="M174 359h261l-4 -21h-261l-65 -338h-21l131 674h306l-5 -21h-285z" />
    <glyph glyph-name="G" unicode="G" horiz-adv-x="595" 
d="M571 301l-165.999 -0.000976562l4 21h188l-58 -297c-62.667 -24 -123.667 -36 -183 -36c-48 0 -90 8 -126 24s-65.333 39 -88 69s-37.5 66.333 -44.5 109s-5.16699 91 5.5 145c10 51.333 27.333 98.5 52 141.5s54.834 79.833 90.501 110.5s75.667 54.5 120 71.5
s90.833 25.5 139.5 25.5c23.333 0 47.333 -2.16699 72 -6.5s46 -12.166 64 -23.499l-10 -19c-17.333 10 -37.833 17.167 -61.5 21.5s-46.5 6.5 -68.5 6.5c-36.667 0 -75 -6.33301 -115 -19s-77.5 -32.334 -112.5 -59.001s-65.833 -60.667 -92.5 -102
s-45.667 -90.666 -57 -147.999c-10 -50 -11.833 -95.167 -5.5 -135.5s19.5 -74.5 39.5 -102.5s47 -49.5 81 -64.5s74 -22.5 120 -22.5c29.333 0 57.166 2.33301 83.499 7s52.166 11.667 77.499 21z" />
    <glyph glyph-name="H" unicode="H" horiz-adv-x="602" 
d="M215 674h21l-59 -301h392l59 301h21l-131 -674h-21l68 352h-392l-68 -352h-21z" />
    <glyph glyph-name="I" unicode="I" horiz-adv-x="195" 
d="M218 674h21l-131 -674h-21z" />
    <glyph glyph-name="J" unicode="J" horiz-adv-x="316" 
d="M18 22c6.66699 -3.33301 16.1699 -6.33301 28.5029 -9s23.5 -4 33.5 -4c23.333 0 46 4.83301 68 14.5s41 23.5 57 41.5c8.66699 10 16.167 21.833 22.5 35.5s11.666 27.667 15.999 42s8 28.333 11 42s5.5 25.834 7.5 36.501l89 453h21l-89 -453
c-2 -11.333 -4.5 -24.333 -7.5 -39s-7 -29.667 -12 -45s-11.167 -30.333 -18.5 -45s-16 -28 -26 -40c-18 -20.667 -39.5 -36.334 -64.5 -47.001s-50.833 -16 -77.5 -16c-10.667 0 -22.334 1.16699 -35.001 3.5s-23.334 5.5 -32.001 9.5z" />
    <glyph glyph-name="K" unicode="K" horiz-adv-x="459" 
d="M215 674h21l-68 -349l383 349h29l-315 -285l207 -389h-23l-201 373l-87 -80l1 3l-57 -296h-21z" />
    <glyph glyph-name="L" unicode="L" horiz-adv-x="427" 
d="M409 0h-322l131 674h21l-127 -653h301z" />
    <glyph glyph-name="M" unicode="M" horiz-adv-x="747" 
d="M65 0l178 674h21l114 -637l365 637h24l-84 -674h-21l77 632l-363 -635h-14l-113 627l-163 -624h-21z" />
    <glyph glyph-name="N" unicode="N" horiz-adv-x="609" 
d="M215 674h13l284 -629l123 629h21l-131 -674h-16l-283 624l-121 -624h-21z" />
    <glyph glyph-name="O" unicode="O" horiz-adv-x="639" 
d="M646 336c9.33301 49.333 11.834 94.167 7.50098 134.5s-15.333 74.833 -33 103.5s-40.834 50.667 -69.501 66s-62.667 23 -102 23c-38 0 -74.667 -8.16699 -110 -24.5s-67.333 -38.833 -96 -67.5s-53.334 -62.834 -74.001 -102.501s-35.667 -83.167 -45 -130.5
c-9.33301 -48 -11.666 -92.167 -6.99902 -132.5s15.334 -74.833 32.001 -103.5s39.167 -51 67.5 -67s61.166 -24 98.499 -24c40 0 77.833 8 113.5 24s68.167 38.333 97.5 67s54.333 62.834 75 102.501s35.667 83.5 45 131.5zM454.001 685.001
c42 0 78.6689 -8.50293 110.002 -25.5029s56.166 -40.667 74.499 -71s30 -67 35 -110s2.5 -90.5 -7.5 -142.5c-10 -49.333 -26 -95.166 -48 -137.499s-49.667 -79.5 -83 -111.5c-31.333 -32 -66.333 -56.333 -105 -73s-78.667 -25 -120 -25c-38 0 -72 8.33301 -102 25
s-54.667 40.334 -74 71.001c-20.667 32 -33.5 69.167 -38.5 111.5s-2.5 89.5 7.5 141.5c10 50 26.167 96.333 48.5 139s49.166 79.334 80.499 110.001s66 54.667 104 72s77.333 26 118 26z" />
    <glyph glyph-name="P" unicode="P" horiz-adv-x="477" 
d="M212 663c18.667 5.33301 37.8311 9.16797 57.498 11.501s38.834 3.5 57.501 3.5c76.667 0 131.167 -16.5 163.5 -49.5s42.833 -78.5 31.5 -136.5c-4 -20.667 -12.167 -42.834 -24.5 -66.501s-29.666 -45.5 -51.999 -65.5s-50 -36.5 -83 -49.5s-72.5 -19.5 -118.5 -19.5
c-13.333 0 -27.333 0.833008 -42 2.5s-27.667 4.16699 -39 7.5l-58 -301h-21zM397.997 652.002c-21.333 4 -43.667 6 -67 6c-20 0 -38.833 -1 -56.5 -3s-32.5 -4.33301 -44.5 -7l-63 -324c9.33301 -4 21.666 -7 36.999 -9s30.666 -3.33301 45.999 -4
c26.667 0 50.834 2.5 72.501 7.5s41.167 11.667 58.5 20s32.166 17.833 44.499 28.5s22.833 21.334 31.5 32.001c22.667 28.667 37.334 59.667 44.001 93c7.33301 37.333 3.33301 70.666 -12 99.999s-45.666 49.333 -90.999 60z" />
    <glyph glyph-name="Q" unicode="Q" horiz-adv-x="639" 
d="M454 685c42 0 78.668 -8.50293 110.001 -25.5029s56.166 -40.667 74.499 -71s30 -67 35 -110s2.5 -90.5 -7.5 -142.5c-10 -49.333 -26 -95.166 -48 -137.499s-49.667 -79.5 -83 -111.5c-45.333 -46.667 -98.666 -76.667 -159.999 -90l186 -47l-8 -19l-234 58h-9
c-38 0 -72 8.33301 -102 25s-54.667 40.334 -74 71.001c-20.667 32 -33.5 69.167 -38.5 111.5s-2.5 89.5 7.5 141.5c10 50 26.167 96.333 48.5 139s49.166 79.334 80.499 110.001s66 54.667 104 72s77.333 26 118 26zM645.001 335.997
c9.33301 49.333 11.833 94.167 7.5 134.5s-15.333 74.833 -33 103.5s-40.834 50.667 -69.501 66s-62.667 23 -102 23c-38 0 -74.5 -8.16699 -109.5 -24.5s-66.833 -38.833 -95.5 -67.5s-53.334 -62.834 -74.001 -102.501s-35.667 -83.167 -45 -130.5
c-9.33301 -48 -11.666 -92.167 -6.99902 -132.5s15.334 -74.833 32.001 -103.5s39 -51 67 -67s60.667 -24 98 -24c40 0 77.833 8 113.5 24s68.167 38.333 97.5 67s54.333 62.834 75 102.501s35.667 83.5 45 131.5z" />
    <glyph glyph-name="R" unicode="R" horiz-adv-x="473" 
d="M213 664c20 4 40.501 7.49902 61.501 10.499s42.833 4.5 65.5 4.5c25.333 0 50.5 -2.5 75.5 -7.5s46.333 -14 64 -27s30.667 -31.167 39 -54.5s8.83301 -53.666 1.5 -90.999c-8 -42 -27 -78.167 -57 -108.5s-66.667 -50.833 -110 -61.5
c52 -21.333 78.333 -68.333 79 -141l3.5 -78c1 -21.333 1.66699 -39.166 2 -53.499s1.16602 -25.833 2.49902 -34.5s3.33301 -16 6 -22h-24c-1.33301 7.33301 -2.5 15.333 -3.5 24s-2 20 -3 34s-1.66699 31.167 -2 51.5s-1.5 45.5 -3.5 75.5
c-1.33301 45.333 -12.5 79.166 -33.5 101.499s-54.833 33.5 -101.5 33.5h-108l-62 -320h-21zM504.001 541.999c-0.666992 23.333 -6.16602 42.5 -16.499 57.5s-23.5 26.833 -39.5 35.5s-33.833 14.667 -53.5 18s-39.834 5 -60.501 5c-19.333 0 -38 -1 -56 -3
s-34 -4.33301 -48 -7l-59 -307h116c26 0 50.833 3.66699 74.5 11s44.834 17.833 63.501 31.5s34.667 30.5 48 50.5s22.333 43 27 69c3.33301 14.667 4.66602 27.667 3.99902 39z" />
    <glyph glyph-name="S" unicode="S" horiz-adv-x="432" 
d="M58 54c13.333 -13.333 32.5 -24.334 57.5 -33.001s50.167 -13 75.5 -13c24.667 0 48.334 3.83301 71.001 11.5s43.167 18.834 61.5 33.501s33.833 32.167 46.5 52.5s21.334 42.833 26.001 67.5c4 21.333 4.33301 40.333 1 57s-10.166 31.667 -20.499 45
s-24.166 25.666 -41.499 36.999s-37.666 22.333 -60.999 33c-28.667 13.333 -51.5 26.666 -68.5 39.999s-29.667 27.166 -38 41.499s-13.333 29 -15 44s-0.833984 30.5 2.49902 46.5c4.66699 24 13.667 46.167 27 66.5s29.5 37.833 48.5 52.5s40.167 26.167 63.5 34.5
s47.333 12.5 72 12.5c17.333 0 35.833 -2.33301 55.5 -7s36.834 -12.667 51.501 -24l-10 -19c-13.333 10.667 -29.5 18.334 -48.5 23.001s-36.5 7 -52.5 7c-22 0 -43.333 -3.5 -64 -10.5s-39.334 -16.667 -56.001 -29s-30.834 -27.166 -42.501 -44.499
s-19.5 -36.666 -23.5 -57.999c-4 -20.667 -3.83301 -38.667 0.5 -54s11.666 -29.166 21.999 -41.499s23.166 -23.333 38.499 -33s32 -19.167 50 -28.5c26 -12 48.167 -24 66.5 -36s32.833 -25.5 43.5 -40.5s17.667 -31.667 21 -50s2.66602 -39.5 -2.00098 -63.5
c-4.66699 -26.667 -14.167 -51.5 -28.5 -74.5s-31.666 -42.667 -51.999 -59s-43.166 -29.166 -68.499 -38.499s-52 -14 -80 -14c-14.667 0 -29.167 1.16699 -43.5 3.5s-27.833 5.66602 -40.5 9.99902s-23.834 9.16602 -33.501 14.499s-16.834 11 -21.501 17z" />
    <glyph glyph-name="T" unicode="T" horiz-adv-x="435" 
d="M576 650h-222l-126 -650h-21l126 650h-222l4 21h465z" />
    <glyph glyph-name="U" unicode="U" horiz-adv-x="601" 
d="M236 674l-82.0039 -418.003c-4 -20.667 -7 -45.167 -9 -73.5s0.833008 -55.166 8.5 -80.499s22 -46.833 43 -64.5s52.833 -26.5 95.5 -26.5c45.333 0 83.166 8.66699 113.499 26s55.333 38.666 75 63.999s34.334 52 44.001 80s16.5 53 20.5 75l82 418h21l-82 -418
c-7.33301 -37.333 -18.333 -72.333 -33 -105s-33.5 -61 -56.5 -85s-50.167 -42.833 -81.5 -56.5s-67.333 -20.5 -108 -20.5c-31.333 0 -57.333 4.33301 -78 13s-37.167 20.334 -49.5 35.001s-21.166 31.334 -26.499 50.001s-8.66602 37.834 -9.99902 57.501
s-0.666016 39.167 2.00098 58.5s5.33398 37 8.00098 53l82 418h21z" />
    <glyph glyph-name="V" unicode="V" horiz-adv-x="473" 
d="M615 674l-379 -674h-14l-91 674h24l83 -632l353 632h24z" />
    <glyph glyph-name="W" unicode="W" horiz-adv-x="791" 
d="M918 674l-335 -674h-16l-48 626l-308 -626h-16l-49 674h21l45 -624l309 624h19l44 -626l313 626h21z" />
    <glyph glyph-name="X" unicode="X" horiz-adv-x="521" 
d="M317 341l-144 333h26l131 -315l261 315h23l-273 -333l145 -341h-24l-139 320l-265 -320h-24z" />
    <glyph glyph-name="Y" unicode="Y" horiz-adv-x="473" 
d="M606 674l-300 -381l-56 -293h-21l56 293l-136 381h24l128 -357l279 357h26z" />
    <glyph glyph-name="Z" unicode="Z" horiz-adv-x="515" 
d="M67 21h420l-4 -21h-447l4 21l537 632h-381l5 21h407l-4 -19z" />
    <glyph glyph-name="bracketleft" unicode="[" horiz-adv-x="264" 
d="M77 -115l156 801h152l-3 -17h-128l-150 -767h128l-3 -17h-152z" />
    <glyph glyph-name="backslash" unicode="\" horiz-adv-x="343" 
d="M310 -41l-167 726h25l169 -726h-27z" />
    <glyph glyph-name="bracketright" unicode="]" horiz-adv-x="264" 
d="M302 686l-156 -801h-152l3 17h127l150 767h-128l3 17h153z" />
    <glyph glyph-name="asciicircum" unicode="^" horiz-adv-x="596" 
d="M534 202l-107 434l-277 -434h-26l288 447h33l114 -447h-25z" />
    <glyph glyph-name="underscore" unicode="_" horiz-adv-x="500" 
d="M481 -98l-4 -21h-493l4 21h493z" />
    <glyph glyph-name="grave" unicode="`" horiz-adv-x="300" 
d="M222 677c9.33301 -20.667 20.668 -43.5 34.001 -68.5s24.666 -48.167 33.999 -69.5h-20l-9 16l-22 38l-27.5 45.5l-24.5 38.5h35z" />
    <glyph glyph-name="a" unicode="a" horiz-adv-x="428" 
d="M334 0c0 6.66699 1.16504 18 3.49805 34s5.16602 32.667 8.49902 50c-2.66699 -2.66699 -5.16699 -5.5 -7.5 -8.5s-4.16602 -5.16699 -5.49902 -6.5c-27.333 -30.667 -54.833 -51 -82.5 -61s-52.5 -15 -74.5 -15c-18.667 0 -35.667 2.33301 -51 7
s-28.333 12.167 -39 22.5s-18.167 23.5 -22.5 39.5s-4.16602 35.333 0.500977 58c4.66699 24 13.5 46.333 26.5 67s31.5 38.667 55.5 54s53.833 27.5 89.5 36.5s78.5 13.5 128.5 13.5h20l6 33c2 10 3.5 23.333 4.5 40s-1.5 33 -7.5 49s-16.167 29.667 -30.5 41
s-36.166 17 -65.499 17c-19.333 0 -39.666 -3.33301 -60.999 -10s-43 -16.667 -65 -30l-8 16c23.333 15.333 46.666 26.5 69.999 33.5s45.666 10.5 66.999 10.5c26 0 47 -4.16699 63 -12.5s28.5 -19 37.5 -32s14.833 -27 17.5 -42s3.83398 -29 3.50098 -42
s-1.33301 -24.333 -3 -34s-2.83398 -15.167 -3.50098 -16.5l-20 -106c-1.33301 -4.66699 -3.66602 -15.667 -6.99902 -33l-11 -58.5c-4 -21.667 -7.5 -43.167 -10.5 -64.5s-4.5 -38 -4.5 -50h-22zM319.998 79c5.33301 6 10.001 11.668 14.001 17.001
s7.83301 12.166 11.5 20.499s7 19 10 32s6.5 29.5 10.5 49.5l14 72c0 -0.666992 -0.333008 -1 -1 -1s-1 0.333008 -1 1c-22.667 1.33301 -49.5 0.666016 -80.5 -2.00098s-61 -9 -90 -19s-55 -25.167 -78 -45.5s-37.833 -48.166 -44.5 -83.499
c-4 -18.667 -4.16699 -34.834 -0.5 -48.501s10 -24.834 19 -33.501s20.167 -15 33.5 -19s27.666 -6 42.999 -6c8 0 17.333 0.833008 28 2.5s22.167 4.83398 34.5 9.50098s25 11.334 38 20.001s26.167 20 39.5 34z" />
    <glyph glyph-name="b" unicode="b" horiz-adv-x="518" 
d="M275 10c27.333 0 53.1709 5.66797 77.5039 17.001s46.333 27 66 47s36.5 43.667 50.5 71s24 57.333 30 90c6.66699 34.667 8.66699 66.167 6 94.5s-9.83398 52.666 -21.501 72.999s-27.834 36 -48.501 47s-45.667 16.5 -75 16.5c-26 0 -50.167 -5.33301 -72.5 -16
s-42.333 -24.334 -60 -41.001s-32.334 -35.167 -44.001 -55.5s-19.167 -40.166 -22.5 -59.499l-22 -112c-4 -21.333 -4.33301 -42.333 -1 -63s10.666 -39 21.999 -55s26.5 -29 45.5 -39s42.167 -15 69.5 -15zM121.005 95.001l-10.999 -53.5
c-3.33301 -16.333 -6.66602 -30.166 -9.99902 -41.499h-21c3.33301 11.333 7.16602 26.666 11.499 45.999l12.5 58l10.5 51c3 14.667 4.5 22.334 4.5 23.001l103 531h20l-64 -333c8 12 18.167 24.667 30.5 38s26.333 25.5 42 36.5s33.5 20 53.5 27s42.333 10.5 67 10.5
c30.667 0 57 -6.16699 79 -18.5s39.5 -29.833 52.5 -52.5s21.167 -49.334 24.5 -80.001s1.33301 -64.667 -6 -102c-6.66699 -34.667 -17.667 -67 -33 -97s-34 -56 -56 -78s-46.667 -39.333 -74 -52s-56 -19 -86 -19c-42.667 0 -75.834 10.333 -99.501 31
s-40.5 45.667 -50.5 75z" />
    <glyph glyph-name="c" unicode="c" horiz-adv-x="428" 
d="M473 439c-13.333 9.33301 -29.666 16.5 -48.999 21.5s-40.333 7.5 -63 7.5c-26 0 -52.333 -5.16699 -79 -15.5s-51.5 -25.166 -74.5 -44.499s-43.333 -43.333 -61 -72s-29.834 -61.334 -36.501 -98.001c-7.33301 -36.667 -8.33301 -69.167 -3 -97.5
s14.833 -52.166 28.5 -71.499s31.167 -33.833 52.5 -43.5s44.333 -14.5 69 -14.5c50.667 0 96.334 9.33301 137.001 28l1 -21c-21.333 -9.33301 -44.333 -16.333 -69 -21s-49.334 -7 -74.001 -7c-27.333 0 -52.666 5.16699 -75.999 15.5s-42.833 26 -58.5 47
s-26.334 47 -32.001 78s-4.5 66.833 3.5 107.5c7.33301 40 20.666 75.5 39.999 106.5s41.833 57.333 67.5 79s53.334 38 83.001 49s58.5 16.5 86.5 16.5c24 0 46.5 -2.83301 67.5 -8.5s37.833 -12.834 50.5 -21.501z" />
    <glyph glyph-name="d" unicode="d" horiz-adv-x="518" 
d="M417 0c0.666992 11.333 2.49902 25.666 5.49902 42.999s6.5 35.666 10.5 54.999c-22 -32 -50 -58.167 -84 -78.5s-69.667 -30.5 -107 -30.5c-24.667 0 -48 5.33301 -70 16s-40.5 26.334 -55.5 47.001s-25.333 46.5 -31 77.5s-4.83398 66.5 2.49902 106.5
c7.33301 36 19.333 69.333 36 100s36.334 57.167 59.001 79.5s47.834 40 75.501 53s56.167 19.5 85.5 19.5c37.333 0 68.333 -9.33301 93 -28s42 -42 52 -70l62 319h20l-103 -531c0 -0.666992 -1.5 -8.33398 -4.5 -23.001s-6.16699 -31.667 -9.5 -51
s-6.5 -38.666 -9.5 -57.999s-4.83301 -34.666 -5.5 -45.999h-22zM245.999 10c25.333 0 49.3379 5.16797 72.0049 15.501s43.167 23.666 61.5 39.999s33.5 35.166 45.5 56.499s20.333 43 25 65l25 127c3.33301 18 2.66602 36 -2.00098 54s-12.834 34.333 -24.501 49
s-26.667 26.667 -45 36s-39.5 14 -63.5 14c-24.667 0 -49.334 -5.16699 -74.001 -15.5s-47.667 -25.5 -69 -45.5c-22.667 -21.333 -41.334 -46.666 -56.001 -75.999s-25.334 -60.666 -32.001 -93.999c-6 -32.667 -7.16699 -62.834 -3.5 -90.501s11.5 -51.5 23.5 -71.5
s28 -35.667 48 -47s43 -17 69 -17z" />
    <glyph glyph-name="e" unicode="e" horiz-adv-x="468" 
d="M397 19c-22 -10.667 -44.833 -18.3311 -68.5 -22.998s-48.5 -7 -74.5 -7c-32.667 0.666992 -61 7 -85 19s-43.167 28.667 -57.5 50s-23.5 47.166 -27.5 77.499s-2.33301 64.5 5 102.5c6.66699 36 18.167 69.333 34.5 100s35.833 57 58.5 79s47.834 39.333 75.501 52
s56.5 19.334 86.5 20.001c28 0 50.5 -5 67.5 -15s30.5 -21.667 40.5 -35s17 -27.333 21 -42c4.66699 -14 7.33398 -34 8.00098 -60s-1.66602 -53 -6.99902 -81h-361l-3 -18c-14.667 -74.667 -7.33398 -131.334 21.999 -170.001s76.333 -58 141 -58
c21.333 0 42.666 2.66699 63.999 8s40.666 12.666 57.999 21.999zM339 468.003c-24 0 -47.3291 -4.66699 -69.9961 -14s-43.667 -22.333 -63 -39s-36.333 -36.667 -51 -60s-26.334 -49 -35.001 -77l337 -2c1.33301 18.667 2.16602 34.167 2.49902 46.5
s0.166016 21.5 -0.500977 27.5c-2.66699 34 -14.334 62.167 -35.001 84.5s-49 33.5 -85 33.5z" />
    <glyph glyph-name="f" unicode="f" horiz-adv-x="224" 
d="M416 685c-13.333 9.33301 -29.332 14.001 -47.999 14.001c-26.667 0 -49.167 -4.83301 -67.5 -14.5s-33.833 -22.834 -46.5 -39.501s-22.667 -35.5 -30 -56.5s-13.333 -43.167 -18 -66.5l-9 -46h132l-4 -19h-132l-88 -457h-21l88 457h-69l4 19h69l9 46
c3.33301 16 8.33301 35.333 15 58s17 44.167 31 64.5s32.333 37.833 55 52.5s51.667 22 87 22c9.33301 0 18.666 -1.16699 27.999 -3.5s17 -5.5 23 -9.5z" />
    <glyph glyph-name="g" unicode="g" horiz-adv-x="515" 
d="M67 -148c15.333 -14 34.502 -23.999 57.502 -29.999s44.833 -9 65.5 -9c59.333 0 108.666 17.667 147.999 53s66.333 90.666 81 165.999l14 71c-22.667 -32 -50.334 -57.667 -83.001 -77s-67.334 -29 -104.001 -29c-30 0 -56.333 6.33301 -79 19
s-40.834 29.834 -54.501 51.501s-22.667 47.167 -27 76.5s-3.16602 60.666 3.50098 93.999c6.66699 36 18.334 69.167 35.001 99.5s36.667 56.833 60 79.5s49.166 40.334 77.499 53.001s57.833 19 88.5 19c36.667 0 66.5 -9.66699 89.5 -29s39.5 -42.333 49.5 -69
c2.66699 16 5.83398 31.833 9.50098 47.5s7.16699 28.167 10.5 37.5h19l-10.5 -48c-4.33301 -20 -8.33301 -39.5 -12 -58.5l-9.5 -49c-2.66699 -13.667 -4 -20.834 -4 -21.501l-52 -267c-15.333 -78 -45 -137.5 -89 -178.5s-99 -61.5 -165 -61.5c-22 0 -44.5 3 -67.5 9
s-43.833 16.333 -62.5 31zM459.002 238.001l14.9971 77.002c3.33301 18 2.83301 36 -1.5 54s-12 34.333 -23 49s-25.333 26.667 -43 36s-38.167 14 -61.5 14c-28 0 -54.667 -5.83301 -80 -17.5s-48.5 -27.667 -69.5 -48s-39 -44.5 -54 -72.5s-25.5 -58.667 -31.5 -92
c-7.33301 -38 -8.16602 -70.667 -2.49902 -98s15.334 -50 29.001 -68s30.5 -31.333 50.5 -40s41 -13 63 -13c23.333 0 45.833 4.5 67.5 13.5s41.5 21.167 59.5 36.5s33.333 33.166 46 53.499s21.334 42.166 26.001 65.499z" />
    <glyph glyph-name="h" unicode="h" horiz-adv-x="506" 
d="M99 0l-19.999 -0.000976562l137 708h20l-63 -325c24 34.667 51.667 61 83 79s67 27 107 27c34 0 61.833 -9.16699 83.5 -27.5s35.834 -43.5 42.501 -75.5c2 -16 2.16699 -32.167 0.5 -48.5s-3.83398 -31.833 -6.50098 -46.5l-56 -291h-20l56 291
c4.66699 23.333 7.16699 41.833 7.5 55.5s-1.16699 26.5 -4.5 38.5c-1.33301 6 -4 13.833 -8 23.5s-10.167 18.834 -18.5 27.501s-19.333 16.167 -33 22.5s-30.834 9.5 -51.501 9.5c-30 0 -56.5 -5.83301 -79.5 -17.5s-42.833 -26.167 -59.5 -43.5s-30 -35.833 -40 -55.5
s-16.333 -37.167 -19 -52.5z" />
    <glyph glyph-name="i" unicode="i" horiz-adv-x="183" 
d="M173 476l-92 -476h21l92 476h-21zM233 622c-0.666992 -5.33301 -3.16797 -9.83301 -7.50098 -13.5s-9.83301 -5.5 -16.5 -5.5c-7.33301 0 -12.5 1.83301 -15.5 5.5s-4.16699 8.16699 -3.5 13.5c2.66699 13.333 11.334 20 26.001 20c14 0 19.667 -6.66699 17 -20z" />
    <glyph glyph-name="j" unicode="j" horiz-adv-x="211" 
d="M-77 -184c31.333 0 57.001 6.33398 77.001 19.001s36.5 29 49.5 49s23 42 30 66s12.833 47.667 17.5 71l88 455h21l-88 -455c-4.66699 -24 -11 -49.167 -19 -75.5s-19.333 -50.5 -34 -72.5s-33.334 -40.333 -56.001 -55s-51.667 -22.334 -87 -23.001zM245.001 622.001
c-0.666992 -5.33301 -3.16797 -9.83301 -7.50098 -13.5s-9.83301 -5.5 -16.5 -5.5c-7.33301 0 -12.5 1.83301 -15.5 5.5s-4.16699 8.16699 -3.5 13.5c2.66699 13.333 11.334 20 26.001 20c14 0 19.667 -6.66699 17 -20z" />
    <glyph glyph-name="k" unicode="k" horiz-adv-x="382" 
d="M201 264l-60 -53l-41 -211h-21l137 708h21l-91 -467l276 235h28l-230 -198l168 -278h-27z" />
    <glyph glyph-name="l" unicode="l" horiz-adv-x="195" 
d="M245 708l-137 -708h-21l137 708h21z" />
    <glyph glyph-name="m" unicode="m" horiz-adv-x="791" 
d="M143 304l6.50195 33.9961c3 16 6 33 9 51l8.5 51.5c2.66699 16.333 4 28.166 4 35.499h22c-0.666992 -10 -2.33398 -23.167 -5.00098 -39.5s-5.66699 -33.166 -9 -50.499c18 29.333 42.333 53.833 73 73.5s62 29.5 94 29.5c72.667 0 114.334 -38 125.001 -114
c19.333 36.667 45.166 64.834 77.499 84.501s65.166 29.5 98.499 29.5c70.667 0 112.667 -34.333 126 -103c3.33301 -16 3.83301 -32.167 1.5 -48.5s-4.83301 -31.833 -7.5 -46.5l-56 -291h-21l56 291c12 60.667 7.66699 105.334 -13 134.001s-51 43 -91 43
c-28 0 -51.5 -5.66699 -70.5 -17s-33.5 -21.666 -43.5 -30.999c-11.333 -11.333 -20.666 -22 -27.999 -32s-13.333 -20 -18 -30s-8.33398 -20.333 -11.001 -31s-5.33398 -22.667 -8.00098 -36l-56 -291h-21l56 291c12 62.667 8.33301 107.834 -11 135.501
s-48.666 41.5 -87.999 41.5c-26.667 0 -50.334 -5.83301 -71.001 -17.5s-38.667 -26 -54 -43s-27.666 -35.333 -36.999 -55s-15.333 -37.5 -18 -53.5l-58 -299h-21z" />
    <glyph glyph-name="n" unicode="n" horiz-adv-x="510" 
d="M194 476c-0.666992 -10 -2.49805 -23.167 -5.49805 -39.5l-9.5 -50.5c23.333 33.333 50.666 58.833 81.999 76.5s66.666 26.5 105.999 26.5c34 0 61.833 -9.16699 83.5 -27.5s35.834 -43.5 42.501 -75.5c2 -16 2 -32.167 0 -48.5s-4.33301 -31.833 -7 -46.5l-56 -291h-20
l56 291c4.66699 23.333 7.16699 41.833 7.5 55.5s-1.16699 26.5 -4.5 38.5c-1.33301 6 -3.83301 13.833 -7.5 23.5s-9.66699 18.834 -18 27.501s-19.333 16.167 -33 22.5s-30.834 9.5 -51.501 9.5c-29.333 0 -55.5 -5.83301 -78.5 -17.5s-42.833 -26.167 -59.5 -43.5
s-30 -35.833 -40 -55.5s-16.333 -37.167 -19 -52.5l-58 -299h-20l59 304l6.5 34c3 16 6 33 9 51l8.5 51.5c2.66699 16.333 4 28.166 4 35.499h23z" />
    <glyph glyph-name="o" unicode="o" horiz-adv-x="509" 
d="M491 237c6 34 7.33301 65 4 93s-11.333 52.167 -24 72.5s-29.5 36.166 -50.5 47.499s-45.5 17 -73.5 17s-54.833 -5.83301 -80.5 -17.5s-49 -27.667 -70 -48s-39.167 -44.5 -54.5 -72.5s-26 -58.667 -32 -92c-7.33301 -36.667 -8.66602 -69.167 -3.99902 -97.5
s13.667 -52.166 27 -71.499s30.166 -33.833 50.499 -43.5s42.5 -14.5 66.5 -14.5c30 0 58.333 5.66699 85 17s50.5 27.166 71.5 47.499s38.667 44.333 53 72s24.833 57.834 31.5 90.501zM351 488c30 0 56.6729 -6.16797 80.0059 -18.501s42.166 -29.5 56.499 -51.5
s23.666 -48.333 27.999 -79s3.16602 -64.667 -3.50098 -102c-7.33301 -36 -19.5 -69.167 -36.5 -99.5s-37.167 -56.5 -60.5 -78.5s-49.5 -39.333 -78.5 -52s-59.167 -19 -90.5 -19s-58.333 6.5 -81 19.5s-40.834 30.833 -54.501 53.5s-22.334 49.167 -26.001 79.5
s-2.16699 62.5 4.5 96.5c6.66699 36 18.5 69.167 35.5 99.5s37.167 56.833 60.5 79.5s49.166 40.334 77.499 53.001s57.833 19 88.5 19z" />
    <glyph glyph-name="p" unicode="p" horiz-adv-x="515" 
d="M267 -11c-42 0 -74.665 9.33398 -97.998 28.001s-40 43.667 -50 75l-56 -290h-21l97 497c0 0.666992 1.33301 7.5 4 20.5l9.5 47l11 57.5c3.66699 20 6.16699 37.333 7.5 52h21c-0.666992 -11.333 -3 -27 -7 -47l-11 -54c8.66699 12 19.167 24.667 31.5 38
s26.166 25.5 41.499 36.5s33 20.167 53 27.5s42 11 66 11c30.667 0 57.167 -6.16699 79.5 -18.5s40 -29.833 53 -52.5s21.167 -49.334 24.5 -80.001s1.33301 -64.667 -6 -102c-6.66699 -34.667 -17.834 -67 -33.501 -97s-34.5 -56 -56.5 -78s-46.667 -39.333 -74 -52
s-56 -19 -86 -19zM273.002 10.001c27.333 0 53.1689 5.66895 77.502 17.002s46.166 27 65.499 47s36 43.667 50 71s24 57.333 30 90c6.66699 34.667 8.83398 66.167 6.50098 94.5s-9.33301 52.666 -21 72.999s-27.834 36 -48.501 47s-45.667 16.5 -75 16.5
c-25.333 0 -49 -5.33301 -71 -16s-41.833 -24.334 -59.5 -41.001s-32.5 -35 -44.5 -55s-20 -39.667 -24 -59l-22 -113c-4 -21.333 -4.33301 -42.333 -1 -63s10.666 -39 21.999 -55s26.5 -29 45.5 -39s42.167 -15 69.5 -15z" />
    <glyph glyph-name="q" unicode="q" horiz-adv-x="517" 
d="M490 390l9.50195 47c3 15.333 6.16699 28.333 9.5 39h21l-11 -48c-4.66699 -20 -9 -39.5 -13 -58.5l-10 -49c-2.66699 -13.667 -4 -20.834 -4 -21.501l-97 -497h-21l58 296c-22.667 -34 -50.834 -60.667 -84.501 -80s-68.5 -29 -104.5 -29c-24.667 0 -48 5.33301 -70 16
s-40.667 26.334 -56 47.001s-25.833 46.5 -31.5 77.5s-4.83398 66.5 2.49902 106.5c7.33301 36 19.333 69.333 36 100s36.5 57.167 59.5 79.5s48.333 40 76 53s56.167 19.5 85.5 19.5c37.333 0 68.5 -9 93.5 -27s42.167 -41.667 51.5 -71zM247.002 10
c26 0 50.168 5.16797 72.501 15.501s42.5 23.666 60.5 39.999s32.833 35.166 44.5 56.499s19.834 43 24.501 65l25 127c3.33301 18 2.83301 36 -1.5 54s-12 34.333 -23 49s-25.667 26.667 -44 36s-39.833 14 -64.5 14c-25.333 0 -50.333 -5.16699 -75 -15.5
s-47.667 -25.5 -69 -45.5c-22.667 -21.333 -41.334 -46.666 -56.001 -75.999s-25.334 -60.666 -32.001 -93.999c-6 -32.667 -7.16699 -62.834 -3.5 -90.501s11.5 -51.5 23.5 -71.5s28 -35.667 48 -47s43.333 -17 70 -17z" />
    <glyph glyph-name="r" unicode="r" horiz-adv-x="268" 
d="M345 468c-2.66699 0.666992 -5.16602 0.999023 -7.49902 0.999023h-6.5c-24.667 0 -46.834 -6.5 -66.501 -19.5s-36.834 -29 -51.501 -48s-26.5 -39.167 -35.5 -60.5s-15.167 -40.666 -18.5 -57.999l-55 -283h-21l58 301c0 0.666992 1.33301 8 4 22l9 49l10.5 57
c3.66699 19.333 5.83398 35 6.50098 47h21c-0.666992 -11.333 -2.5 -26.5 -5.5 -45.5s-6.16699 -36.5 -9.5 -52.5c7.33301 14 16.5 27.667 27.5 41s23.333 25.333 37 36s28.5 19.167 44.5 25.5s33 9.5 51 9.5h13z" />
    <glyph glyph-name="s" unicode="s" horiz-adv-x="344" 
d="M356 442c-9.33301 8 -21.5029 14.1709 -36.5029 18.5039s-30.167 6.5 -45.5 6.5c-9.33301 0 -20.333 -1.5 -33 -4.5s-25.5 -8.33301 -38.5 -16s-24.667 -17.834 -35 -30.501s-17.5 -28.667 -21.5 -48c-5.33301 -26 -1.16602 -47.333 12.501 -64s37.834 -32 72.501 -46
c14.667 -6 28.167 -13 40.5 -21s22.666 -17.5 30.999 -28.5s14.166 -23.5 17.499 -37.5s3 -30.333 -1 -49c-2 -12.667 -6.83301 -26.667 -14.5 -42s-18.667 -29.833 -33 -43.5s-32 -25 -53 -34s-45.5 -13.5 -73.5 -13.5c-19.333 0 -36.833 2.83301 -52.5 8.5
s-30.167 13.5 -43.5 23.5l10 20c12 -8.66699 25.667 -15.834 41 -21.501s32 -8.5 50 -8.5c24.667 0 45.834 3.66699 63.501 11s32.334 16.5 44.001 27.5s20.834 23 27.501 36s11 24.833 13 35.5c3.33301 16.667 3.66602 31 0.999023 43s-7.66699 22.5 -15 31.5
s-16.666 17 -27.999 24s-24 13.5 -38 19.5c-12 5.33301 -24.5 11.333 -37.5 18s-24.167 14.667 -33.5 24s-16.333 21 -21 35s-5 31 -1 51c4.66699 23.333 13.167 42.666 25.5 57.999s26.166 27.666 41.499 36.999s30.833 16 46.5 20s28.834 6 39.501 6
c36 0 65.667 -8.66699 89 -26z" />
    <glyph glyph-name="t" unicode="t" horiz-adv-x="287" 
d="M255 3c-23.333 -8 -43.999 -12 -61.999 -12c-23.333 0 -40.5 4.83301 -51.5 14.5s-17.833 22.334 -20.5 38.001s-2.83398 33.667 -0.500977 54s5.5 40.833 9.5 61.5l58 298h-82l4 21h82l18 91l22 7l-19 -98h140l-4 -21h-140l-58 -298l-9.5 -57
c-3 -18 -3.5 -33.833 -1.5 -47.5s7.5 -24.334 16.5 -32.001s22.833 -11.5 41.5 -11.5c16 0 34 3.66699 54 11z" />
    <glyph glyph-name="u" unicode="u" horiz-adv-x="502" 
d="M402 0c0.666992 10.667 2.66895 24.4961 6.00195 41.4961l10 51.5c-15.333 -21.333 -34.333 -40.666 -57 -57.999c-11.333 -9.33301 -27.833 -19 -49.5 -29s-45.834 -15 -72.501 -15c-50.667 0 -87 16.833 -109 50.5s-26.667 82.834 -14 147.501l56 289h21l-56 -289
c-11.333 -59.333 -7.33301 -103.666 12 -132.999s50.666 -44 93.999 -44c24.667 0 46.167 4.5 64.5 13.5s32.833 17.5 43.5 25.5c22 16 39.833 34.833 53.5 56.5s23.5 44.834 29.5 69.501l58 301h21l-12 -66l-46 -235l-15 -79c-4 -18.667 -7.66699 -37 -11 -55
s-5.33301 -32.333 -6 -43h-21z" />
    <glyph glyph-name="v" unicode="v" horiz-adv-x="423" 
d="M201 0l-92 476h23l85 -441l262 441h24l-281 -476h-21z" />
    <glyph glyph-name="w" unicode="w" horiz-adv-x="695" 
d="M453 476l63 -437l229 437h21l-247 -476h-19l-66 446l-245 -446h-19l-53 476h21l50 -437l239 437h26z" />
    <glyph glyph-name="x" unicode="x" horiz-adv-x="394" 
d="M349 0l-113 225l-199 -225h-24l216 243l-113 233h27l103 -214l189 214h25l-207 -233l120 -243h-24z" />
    <glyph glyph-name="y" unicode="y" horiz-adv-x="410" 
d="M-18 -200c12 4.66699 25.834 11.835 41.501 21.502s32.5 22.667 50.5 39s36.667 36.5 56 60.5s39 53 59 87l7 11l-91 457h22l86 -428l41 69l53.5 89l56.5 94.5l50.5 86l37 63c9.66699 16.333 14.5 25.166 14.5 26.499h24l-244 -410l-25 -41.5l-12 -20.5
c-20.667 -36 -41.334 -66.833 -62.001 -92.5s-40.5 -47.334 -59.5 -65.001s-37.333 -31.667 -55 -42s-33.5 -18.5 -47.5 -24.5z" />
    <glyph glyph-name="z" unicode="z" horiz-adv-x="378" 
d="M128 476h330l-4 -21l-404 -434h320l-4 -21h-352l3 16l410 439h-303z" />
    <glyph glyph-name="braceleft" unicode="{" horiz-adv-x="264" 
d="M93 294c18.667 0.666992 34.167 3.83496 46.5 9.50195s22.5 12.667 30.5 21s14 17.666 18 27.999s7 21.166 9 32.499c3.33301 13.333 5.5 26.833 6.5 40.5s1.5 26.5 1.5 38.5v12l2 45c0.666992 14.667 2.33398 29 5.00098 43c8.66699 42.667 27.667 73.667 57 93
s62.666 29 99.999 29h2l-3 -17h-8c-39.333 -1.33301 -68.333 -11 -87 -29s-31.667 -44.667 -39 -80c-2.66699 -12.667 -4.16699 -24.334 -4.5 -35.001s-0.833008 -21.334 -1.5 -32.001l-2 -31l-2 -34c-0.666992 -11.333 -2 -22.666 -4 -33.999
c-6 -31.333 -16.5 -55.833 -31.5 -73.5s-39.167 -29.167 -72.5 -34.5c28.667 -5.33301 47.834 -16.5 57.501 -33.5s11.167 -41.5 4.5 -73.5c-2 -10 -4.83301 -20.667 -8.5 -32l-11.5 -34c-6 -21.333 -11.667 -39.666 -17 -54.999s-9.66602 -30.666 -12.999 -45.999
c-14 -71.333 13.333 -108 82 -110h8l-3 -17h-2c-18 0 -34.667 2.33301 -50 7s-28 12 -38 22s-17 23.167 -21 39.5s-3.66699 36.5 1 60.5c6 29.333 15.167 58.333 27.5 87s21.166 57.667 26.499 87c2 9.33301 2.66699 19.166 2 29.499s-3.33398 19.833 -8.00098 28.5
s-12 16 -22 22s-23.667 9.33301 -41 10z" />
    <glyph glyph-name="bar" unicode="|" horiz-adv-x="210" 
d="M264 752l-197 -1010h-23l197 1010h23z" />
    <glyph glyph-name="braceright" unicode="}" horiz-adv-x="264" 
d="M286 278c-18 -0.666992 -33.334 -3.99902 -46.001 -9.99902s-23 -13.333 -31 -22s-14.167 -18.167 -18.5 -28.5s-7.5 -20.166 -9.5 -29.499c-3.33301 -15.333 -5.5 -30.666 -6.5 -45.999s-1.5 -30 -1.5 -44l-1 -12c0 -12 -0.5 -24.167 -1.5 -36.5
s-2.83301 -24.5 -5.5 -36.5c-4.66699 -25.333 -12 -46.166 -22 -62.499s-21.833 -29.333 -35.5 -39s-29 -16.5 -46 -20.5s-34.833 -6 -53.5 -6l2 17h7c36.667 2 64.834 11.5 84.501 28.5s32.834 43.5 39.501 79.5c2.66699 12.667 4.33398 24.834 5.00098 36.501l2 34.5l2 30
c1.33301 11.333 2.16602 22.666 2.49902 33.999s1.5 22 3.5 32c5.33301 30 15.833 54.833 31.5 74.5s37.5 31.167 65.5 34.5c-26.667 7.33301 -43.667 19.5 -51 36.5s-8 40.833 -2 71.5c2 11.333 5 22.666 9 33.999s7.66699 22.666 11 33.999c6 20 11.667 37.5 17 52.5
s9.66602 30.167 12.999 45.5c7.33301 35.333 4.83301 62 -7.5 80s-37.5 27.667 -75.5 29h-7l4 17c19.333 0 36.833 -2 52.5 -6s28.5 -10.833 38.5 -20.5s16.833 -22.334 20.5 -38.001s3.16699 -34.834 -1.5 -57.501c-2.66699 -14.667 -6.5 -29.334 -11.5 -44.001l-15.5 -44
l-15.5 -44.5c-5 -15 -9.16699 -30.5 -12.5 -46.5c-2 -11.333 -3 -22.166 -3 -32.499s2.33301 -19.666 7 -27.999s12.167 -15.333 22.5 -21s24.833 -8.83398 43.5 -9.50098z" />
    <glyph glyph-name="asciitilde" unicode="~" horiz-adv-x="596" 
d="M105 229c6.66699 34 21.332 60.998 43.999 80.998s48.334 30 77.001 30c26.667 0 51 -4.66699 73 -14s43.667 -19.666 65 -30.999s42.833 -21.666 64.5 -30.999s45.5 -14 71.5 -14c24 0 43.5 8.16699 58.5 24.5s25.833 37.833 32.5 64.5h18c-4 -19.333 -10 -36 -18 -50
s-17.333 -25.5 -28 -34.5s-22.167 -15.667 -34.5 -20s-24.5 -6.5 -36.5 -6.5c-26.667 0 -51 4.66699 -73 14s-43.667 19.5 -65 30.5s-42.833 21.167 -64.5 30.5s-45.167 14 -70.5 14c-50 0 -81.667 -29.333 -95 -88h-19z" />
    <glyph glyph-name="uni00A0.nbspace" unicode="&#xa0;" horiz-adv-x="214" 
 />
    <glyph glyph-name="exclamdown" unicode="&#xa1;" horiz-adv-x="206" 
d="M170 297l-89 -493h-34l103 493h20zM194 467c7.33301 0 12.667 -2.33301 16 -7s4.33301 -11.667 3 -21c-2 -9.33301 -5.83301 -16.333 -11.5 -21s-12.167 -7 -19.5 -7c-16 0 -22 9.33301 -18 28c3.33301 18.667 13.333 28 30 28z" />
    <glyph glyph-name="cent" unicode="&#xa2;" horiz-adv-x="479" 
d="M267 -16l20.9961 106.001c-34.667 3.33301 -62.167 10.166 -82.5 20.499s-37.166 24.833 -50.499 43.5c-13.333 17.333 -22.166 40.166 -26.499 68.499s-2.5 62.5 5.5 102.5c6 32.667 16.667 62.834 32 90.501s33.833 52 55.5 73s46 38.333 73 52s55.833 22.5 86.5 26.5
l20 105h20l-20 -105c25.333 0 47.166 -2.5 65.499 -7.5s32.833 -10.5 43.5 -16.5l-13 -19c-10 6 -24.167 11 -42.5 15s-39.166 6 -62.499 6c-29.333 0 -57 -6 -83 -18s-49.167 -28.167 -69.5 -48.5s-37.666 -43.833 -51.999 -70.5s-24.166 -54.334 -29.499 -83.001
c-6.66699 -34.667 -8 -65.167 -4 -91.5s12.5 -48.5 25.5 -66.5s30 -31.5 51 -40.5s45.167 -13.5 72.5 -13.5c28.667 0 53 2.5 73 7.5s36.667 10.167 50 15.5l1 -19c-10 -5.33301 -25.333 -10.666 -46 -15.999s-45 -9 -73 -11l-21 -106h-20z" />
    <glyph glyph-name="sterling" unicode="&#xa3;" horiz-adv-x="479" 
d="M64 0l1.99707 13.002c44 22 79.333 51 106 87s44.334 75.333 53.001 118c3.33301 17.333 5.83301 33.666 7.5 48.999s2.83398 33.333 3.50098 54h-106l4 19h106c-0.666992 21.333 -0.166992 44.333 1.5 69s4.5 47.667 8.5 69c5.33301 28 14.5 53.167 27.5 75.5
s28.333 41.5 46 57.5s37.334 28.167 59.001 36.5s43.834 12.5 66.501 12.5c21.333 0 39.166 -1.66699 53.499 -5s26.166 -7.66602 35.499 -12.999l-14 -21c-8.66699 5.33301 -20 9.83301 -34 13.5s-30.667 5.5 -50 5.5c-46 0 -82.167 -14.833 -108.5 -44.5
s-44.166 -67.5 -53.499 -113.5c-5.33301 -28 -8.66602 -53.333 -9.99902 -76s-2 -44.667 -2 -66h147l-4 -19h-144c-0.666992 -2.66699 -1.33398 -7 -2.00098 -13s-1.33398 -10.333 -2.00098 -13l-4 -34.5c-1.33301 -11.667 -3 -22.834 -5 -33.501
c-8 -41.333 -23.333 -79.333 -46 -114s-51 -64.334 -85 -89.001c52 0 105.833 -0.333008 161.5 -1s109.834 -1 162.501 -1l-4 -22h-377z" />
    <glyph glyph-name="currency" unicode="&#xa4;" horiz-adv-x="479" 
d="M181 408c13.333 38 29.6689 72.5 49.002 103.5s41 57.5 65 79.5s50.333 39 79 51s59 18 91 18c28 0 51.167 -2.83301 69.5 -8.5s31.833 -11.167 40.5 -16.5c-3.33301 -5.33301 -5.5 -9.5 -6.5 -12.5s-2.5 -6.16699 -4.5 -9.5c-13.333 8.66699 -28.833 15 -46.5 19
s-36.5 6 -56.5 6c-56.667 0 -106.834 -19.667 -150.501 -59s-79.5 -96.333 -107.5 -171h269l-12 -24h-264c-4 -13.333 -7 -24.666 -9 -33.999s-4 -19.666 -6 -30.999l-3.5 -16c-1 -4.66699 -2.16699 -13.334 -3.5 -26.001h240l-11 -23h-233
c-4 -77.333 7.16699 -137 33.5 -179s67.833 -63 124.5 -63c17.333 0 35.666 2.83301 54.999 8.5s37.333 12.5 54 20.5l3 -21c-14.667 -9.33301 -32.667 -16.833 -54 -22.5s-44.333 -8.5 -69 -8.5c-26.667 0 -51.167 5.16699 -73.5 15.5s-41.333 26.166 -57 47.499
s-27 48.833 -34 82.5s-8.83301 73.5 -5.5 119.5h-65l8 23h60c1.33301 12.667 2.5 21.5 3.5 26.5s2.16699 10.5 3.5 16.5c2 11.333 4 21.5 6 30.5s5 20.167 9 33.5h-66l11 24h64z" />
    <glyph glyph-name="yen" unicode="&#xa5;" horiz-adv-x="479" 
d="M226 0l37.001 191.999h-160l3 16h160l20 101h-160l3 17h146l-55.5 161l-54.5 162h27l77 -234l16 -44.5c5.33301 -14.333 9.66602 -29.166 12.999 -44.499h3l36 46.5l36 45.5l172 231h27l-249 -323h146l-3 -17h-160l-20 -101h160l-3 -16h-160l-37 -192h-20z" />
    <glyph glyph-name="brokenbar" unicode="&#xa6;" horiz-adv-x="210" 
d="M151 170l-67 -340h-20l67 340h20zM249 675l-66 -340h-20l66 340h20z" />
    <glyph glyph-name="section" unicode="&#xa7;" horiz-adv-x="486" 
d="M166 357c-2 -11.333 -1.99902 -22.168 0.000976562 -32.501s6.83301 -20.333 14.5 -30s18.667 -19.167 33 -28.5s32.833 -18.333 55.5 -27c24 -10 44.333 -19.167 61 -27.5s32 -17.5 46 -27.5c20.667 14.667 37.5 30.834 50.5 48.501s21.5 36.834 25.5 57.501
c5.33301 25.333 1.5 47.5 -11.5 66.5s-38.167 36.167 -75.5 51.5c-20 7.33301 -39.333 15.166 -58 23.499s-36.334 18.833 -53.001 31.5c-27.333 -19.333 -48 -37 -62 -53s-22.667 -33.667 -26 -53zM490.001 635.998c-10.667 8 -24.4941 14.5049 -41.4941 19.5049
s-37.5 7.5 -61.5 7.5c-16.667 0 -33.167 -2.33301 -49.5 -7s-31.166 -11.334 -44.499 -20.001s-24.833 -19.167 -34.5 -31.5s-15.834 -26.5 -18.501 -42.5c-4.66699 -24 -1.33398 -43.5 9.99902 -58.5s26.666 -27.833 45.999 -38.5s40.5 -20.5 63.5 -29.5
s44.167 -19.333 63.5 -31s34.5 -26.167 45.5 -43.5s13.833 -39.333 8.5 -66c-5.33301 -25.333 -15.333 -48 -30 -68s-34.667 -39 -60 -57c7.33301 -8.66699 13.833 -20.834 19.5 -36.501s6.5 -33.167 2.5 -52.5c-4 -22 -11.833 -41.5 -23.5 -58.5
s-25.834 -31.333 -42.501 -43s-35.667 -20.5 -57 -26.5s-44 -9 -68 -9c-27.333 0 -51.333 3.16699 -72 9.5s-37 14.166 -49 23.499l15 20c9.33301 -9.33301 23.666 -17 42.999 -23s43.333 -9 72 -9c16.667 0 33.667 2.33301 51 7s33.166 11.5 47.499 20.5
s26.833 20.333 37.5 34s17.667 29.5 21 47.5c5.33301 27.333 2.33301 49.333 -9 66s-26.833 30.667 -46.5 42s-41.5 21.5 -65.5 30.5s-45.833 19.333 -65.5 31s-35.167 26 -46.5 43s-14.333 39.5 -9 67.5c3.33301 16.667 12.166 35.5 26.499 56.5s38.5 42.833 72.5 65.5
c-11.333 9.33301 -19.333 20.666 -24 33.999s-5.66699 27.666 -3 42.999c2.66699 20 9.16699 37.833 19.5 53.5s23.333 29 39 40s33.5 19.5 53.5 25.5s41.333 9 64 9c26 0 48.833 -2.5 68.5 -7.5s35.167 -11.833 46.5 -20.5z" />
    <glyph glyph-name="dieresis" unicode="&#xa8;" horiz-adv-x="300" 
d="M164 617c1.33301 6 4.49902 11 9.49902 15s10.167 6 15.5 6s9.5 -2 12.5 -6s3.83301 -9 2.5 -15c-1.33301 -5.33301 -4.16602 -10 -8.49902 -14s-9.16602 -6 -14.499 -6s-9.83301 2 -13.5 6s-4.83398 8.66699 -3.50098 14zM341.999 617c1.33301 6 4.49902 11 9.49902 15
s10.167 6 15.5 6s9.5 -2 12.5 -6s3.83301 -9 2.5 -15c-1.33301 -5.33301 -4.16602 -10 -8.49902 -14s-9.16602 -6 -14.499 -6s-9.83301 2 -13.5 6s-4.83398 8.66699 -3.50098 14z" />
    <glyph glyph-name="copyright" unicode="&#xa9;" horiz-adv-x="677" 
d="M465 648c42 0 79.832 -7.99805 113.499 -23.998s61.334 -37.833 83.001 -65.5s36.5 -60.334 44.5 -98.001s8 -77.834 0 -120.501c-8.66699 -43.333 -24.334 -83.833 -47.001 -121.5s-50 -70.5 -82 -98.5s-67.667 -50 -107 -66s-80 -24 -122 -24s-79.667 8 -113 24
s-60.666 38 -81.999 66s-36 60.833 -44 98.5s-7.66699 78.167 1 121.5c8 42.667 23.167 82.667 45.5 120s49.5 70 81.5 98s67.5 50 106.5 66s79.5 24 121.5 24zM554.999 476.002c-7.33301 4 -18.501 8.32617 -33.501 12.9932s-34.167 7 -57.5 7
c-27.333 0 -51.833 -4.33301 -73.5 -13s-40.5 -20.167 -56.5 -34.5s-29.167 -31.166 -39.5 -50.499s-17.5 -39.666 -21.5 -60.999c-4 -22 -4.5 -42.667 -1.5 -62s9.83301 -36.333 20.5 -51s25.167 -26.167 43.5 -34.5s41.166 -12.5 68.499 -12.5c42.667 0 78 7.33301 106 22
c0.666992 -3.33301 0.833984 -6.16602 0.500977 -8.49902s-0.166016 -5.16602 0.500977 -8.49902c-19.333 -10 -39.5 -16.833 -60.5 -20.5s-41.167 -5.5 -60.5 -5.5c-28 0 -52.167 4.5 -72.5 13.5s-36.5 21.5 -48.5 37.5s-19.833 34.833 -23.5 56.5
s-3.16699 45.167 1.5 70.5c5.33301 28 15.333 53.333 30 76s32 41.834 52 57.501s42 27.834 66 36.501s48 13 72 13c23.333 0 43.5 -2.16699 60.5 -6.5s30.167 -9.16602 39.5 -14.499zM460.998 626.995c-38 0.666992 -75 -6.49902 -111 -21.499s-68.667 -35.667 -98 -62
s-54.333 -57.333 -75 -93s-35 -73.834 -43 -114.501c-8 -40 -8.33301 -77.5 -1 -112.5s20.833 -65.167 40.5 -90.5s44.667 -45.333 75 -60s65.166 -22 104.499 -22c38 -0.666992 75 6.16602 111 20.499s68.833 34.5 98.5 60.5s54.834 56.833 75.501 92.5s35 74.167 43 115.5
c8 40.667 8.33301 78.5 1 113.5s-20.833 65.333 -40.5 91s-45 45.834 -76 60.501s-65.833 22 -104.5 22z" />
    <glyph glyph-name="ordfeminine" unicode="&#xaa;" horiz-adv-x="321" 
d="M306 273l2.99902 54.0029c-5.33301 -7.33301 -12.333 -14.5 -21 -21.5s-18.167 -13.167 -28.5 -18.5s-21.333 -9.83301 -33 -13.5s-22.834 -5.5 -33.501 -5.5c-29.333 0 -51.166 8.5 -65.499 25.5s-19.166 37.167 -14.499 60.5c6.66699 32.667 27.834 59.167 63.501 79.5
s85.167 29.166 148.5 26.499h12l3 17c1.33301 8 1.83301 17.333 1.5 28s-2.83301 21 -7.5 31s-12.5 18.333 -23.5 25s-26.5 10 -46.5 10c-30.667 0 -57.334 -7.66699 -80.001 -23l-5 14c14.667 9.33301 29.667 16 45 20s30.333 6 45 6c21.333 0 38.333 -3.33301 51 -10
s22 -15.834 28 -27.501s9.16699 -25.334 9.5 -41.001s-1.16699 -32.5 -4.5 -50.5l-22 -116l-6 -37.5l-5 -33.5zM333.999 443.003h-8.99902c-18.667 0.666992 -38.5 0.166992 -59.5 -1.5s-40.667 -5.66699 -59 -12s-34.166 -15.333 -47.499 -27s-22 -27.167 -26 -46.5
c-4.66699 -23.333 -0.166992 -40.833 13.5 -52.5s31.167 -17.5 52.5 -17.5c19.333 0 37.666 4.83301 54.999 14.5s31.333 20.167 42 31.5c13.333 13.333 20.666 24.333 21.999 33z" />
    <glyph glyph-name="guillemotleft" unicode="&#xab;" horiz-adv-x="388" 
d="M113 249l103 -174h-25l-102 174l85.5 87.5l84.5 86.5h25zM262 249l104 -174h-26l-101 174l169 174h24z" />
    <glyph glyph-name="logicalnot" unicode="&#xac;" horiz-adv-x="596" 
d="M631 376l-47 -242h-24l43 221h-487l4 21h511z" />
    <glyph glyph-name="uni00AD" unicode="&#xad;" horiz-adv-x="596" 
d="M612 278l-5 -25h-512l5 25h512z" />
    <glyph glyph-name="registered" unicode="&#xae;" horiz-adv-x="510" 
d="M388 682c30 0 57.334 -5.5 82.001 -16.5s45 -26.333 61 -46s27 -43.167 33 -70.5s6 -57.333 0 -90c-6 -31.333 -17.333 -60.666 -34 -87.999s-36.667 -51 -60 -71s-49.333 -35.833 -78 -47.5s-58.334 -17.5 -89.001 -17.5s-58.167 5.83301 -82.5 17.5
s-44.333 27.5 -60 47.5s-26.334 43.667 -32.001 71s-5.5 56.666 0.5 87.999c6 30.667 17.167 59.667 33.5 87s36 51 59 71s48.833 35.833 77.5 47.5s58.334 17.5 89.001 17.5zM385.001 662c-26.667 0 -52.8301 -5.33105 -78.4971 -15.998s-49 -25.167 -70 -43.5
s-39.167 -39.833 -54.5 -64.5s-25.666 -51 -30.999 -79s-5.33301 -54.333 0 -79s15.166 -46.334 29.499 -65.001s32.5 -33.334 54.5 -44.001s46.667 -16 74 -16c26 0 51.833 5.33301 77.5 16s49.167 25.167 70.5 43.5s39.666 39.833 54.999 64.5s25.666 51 30.999 79
s5.16602 54.5 -0.500977 79.5s-15.667 46.667 -30 65s-32.333 32.833 -54 43.5s-46.167 16 -73.5 16zM271.005 331.002l-23.999 0.00195312l49 246c11.333 2.66699 22.833 4.33398 34.5 5.00098s21.167 1 28.5 1c12 0 23.333 -1.33301 34 -4s19.667 -6.66699 27 -12
s12.833 -12.5 16.5 -21.5s4.16699 -19.833 1.5 -32.5c-3.33301 -16.667 -10.833 -29.5 -22.5 -38.5s-26.167 -16.167 -43.5 -21.5c14.667 -4 24.5 -11.333 29.5 -22s6.83301 -24.667 5.5 -42c0.666992 -18.667 1.16699 -31.834 1.5 -39.501s1.16602 -13.834 2.49902 -18.501
h-23c-2 4 -3.33301 11.833 -4 23.5s-0.666992 24.5 0 38.5c0 17.333 -4.5 29.666 -13.5 36.999s-23.167 11 -42.5 11h-36zM296.006 459.004h37c19.333 0 36.833 3.83301 52.5 11.5s25.5 21.167 29.5 40.5c1.33301 6.66699 1.33301 13.167 0 19.5s-4.33301 12 -9 17
s-11.5 9.16699 -20.5 12.5s-20.5 5 -34.5 5c-8 0 -14.667 -0.166992 -20 -0.5s-10.333 -0.833008 -15 -1.5z" />
    <glyph glyph-name="macron" unicode="&#xaf;" horiz-adv-x="300" 
d="M369 621l-3 -18h-194l3 18h194z" />
    <glyph glyph-name="degree" unicode="&#xb0;" horiz-adv-x="293" 
d="M288 686c18 0 33.332 -3.16895 45.999 -9.50195s22.834 -14.666 30.501 -24.999s12.667 -22.5 15 -36.5s2.16602 -28.333 -0.500977 -43c-4 -18 -10.667 -34.333 -20 -49s-20.5 -27.167 -33.5 -37.5s-27 -18.333 -42 -24s-29.833 -8.5 -44.5 -8.5
c-34 0 -59 11.167 -75 33.5s-21 48.833 -15 79.5c3.33301 17.333 9.33301 33.333 18 48s19.334 27.334 32.001 38.001s26.667 19 42 25s31 9 47 9zM280.999 670.998c-16 0 -30.499 -3.16797 -43.499 -9.50098s-24.5 -14.5 -34.5 -24.5s-18.167 -21.167 -24.5 -33.5
s-10.5 -24.5 -12.5 -36.5c-5.33301 -28.667 -0.666016 -52.167 14.001 -70.5s35.667 -27.5 63 -27.5c14 0 27.5 2.5 40.5 7.5s24.833 12 35.5 21s19.667 19.667 27 32s12.333 25.833 15 40.5c2 10.667 2.5 21.834 1.5 33.501s-4.33301 22.5 -10 32.5
s-14.334 18.333 -26.001 25s-26.834 10 -45.501 10z" />
    <glyph glyph-name="plusminus" unicode="&#xb1;" horiz-adv-x="596" 
d="M421 565l-42 -216h246l-3 -18h-246l-44 -224h-20l44 224h-243l3 18h243l42 216h20zM561 17l-3 -17h-509l3 17h509z" />
    <glyph glyph-name="twosuperior" unicode="&#xb2;" horiz-adv-x="330" 
d="M117 291l66.002 53.0029c52 42 93.667 79.333 125 112s49.666 64 54.999 94c2.66699 12.667 3.33398 24.5 2.00098 35.5s-5 20.5 -11 28.5s-14.667 14.333 -26 19s-26 7 -44 7c-17.333 0 -32.833 -3 -46.5 -9s-25.834 -12.333 -36.501 -19l-6 14
c12.667 9.33301 27 17.166 43 23.499s33.667 9.5 53 9.5c20 0 36.667 -3.16699 50 -9.5s23.666 -14.5 30.999 -24.5s12 -20.833 14 -32.5s2 -22.834 0 -33.501c-7.33301 -38 -26.5 -73.833 -57.5 -107.5s-70.833 -69.834 -119.5 -108.501l-60 -49h193l-4 -20h-224z" />
    <glyph glyph-name="threesuperior" unicode="&#xb3;" horiz-adv-x="316" 
d="M197 636c11.333 6 25.0039 11.5 41.0039 16.5s32.667 7.5 50 7.5s31.833 -2.33301 43.5 -7s20.667 -11 27 -19s10.5 -17 12.5 -27s2 -20 0 -30c-4.66699 -22 -15.834 -42.333 -33.501 -61s-42.834 -30.667 -75.501 -36c35.333 -3.33301 60.166 -14.333 74.499 -33
s18.833 -41.667 13.5 -69c-2.66699 -13.333 -8.16699 -26.5 -16.5 -39.5s-19.166 -24.667 -32.499 -35s-29.166 -18.666 -47.499 -24.999s-38.5 -9.5 -60.5 -9.5c-18 0 -34.333 2 -49 6s-26.667 9 -36 15l9 14c9.33301 -5.33301 20.166 -9.83301 32.499 -13.5
s27.166 -5.5 44.499 -5.5c20.667 0 39.167 2.83301 55.5 8.5s30 13 41 22s19.833 19 26.5 30s11 21.5 13 31.5c3.33301 17.333 2.16602 32 -3.50098 44s-14.167 21.667 -25.5 29s-24.666 12.666 -39.999 15.999s-31 5 -47 5h-11l3 17h13c10.667 0 23 1.5 37 4.5
s27.667 8 41 15s25 16 35 27s16.667 24.5 20 40.5c2 8.66699 2.16699 17 0.5 25s-5.33398 15.167 -11.001 21.5s-13.5 11.5 -23.5 15.5s-22.333 6 -37 6c-15.333 0 -30.333 -2 -45 -6s-26.667 -8.66699 -36 -14z" />
    <glyph glyph-name="acute" unicode="&#xb4;" horiz-adv-x="300" 
d="M381 677c-23.333 -21.333 -46.5 -44.168 -69.5 -68.501s-46.167 -47.166 -69.5 -68.499h-19l121 137h37z" />
    <glyph glyph-name="uni00B5" unicode="&#xb5;" horiz-adv-x="519" 
d="M465 113l-9.99707 -58.999c-3.33301 -19.333 -6 -37.333 -8 -54h-28l14 95c-22.667 -34 -49.667 -60.167 -81 -78.5s-68.333 -27.5 -111 -27.5c-6.66699 0 -15 0.5 -25 1.5s-20.167 3.66699 -30.5 8s-19.833 10.666 -28.5 18.999s-15.334 19.833 -20.001 34.5l-8 16
l-28 -136.5l-27 -136.5h-33l133 685h33l-55 -284c-4.66699 -22.667 -6.83398 -45 -6.50098 -67s4.16602 -41.5 11.499 -58.5s18.833 -30.667 34.5 -41s37.167 -15.5 64.5 -15.5c22 0 43.333 4.66699 64 14s39.5 21.333 56.5 36s31.333 31.167 43 49.5s19.167 36.5 22.5 54.5
l61 312h34z" />
    <glyph glyph-name="paragraph" unicode="&#xb6;" horiz-adv-x="486" 
d="M245 -53l64.0029 325.999h-18c-22 0 -43.667 3.83301 -65 11.5s-39.833 19.334 -55.5 35.001s-27.334 35.167 -35.001 58.5s-8.83398 50.666 -3.50098 81.999c4 26 12.5 51.667 25.5 77s31.5 48.333 55.5 69s54 37.334 90 50.001s79 19 129 19
c20 0 37.167 -0.5 51.5 -1.5s27.166 -2.16699 38.499 -3.5l-141 -723h-21l138 708h-93l-138 -708h-22z" />
    <glyph glyph-name="periodcentered" unicode="&#xb7;" horiz-adv-x="173" 
d="M133 237c-9.33301 0 -16.167 3.49902 -20.5 10.499s-5.5 15.5 -3.5 25.5c1.33301 10 5.83301 18.5 13.5 25.5s16.167 10.5 25.5 10.5s16 -3.5 20 -10.5s5.33301 -15.5 4 -25.5c-2.66699 -11.333 -7.5 -20.166 -14.5 -26.499s-15.167 -9.5 -24.5 -9.5z" />
    <glyph glyph-name="cedilla" unicode="&#xb8;" horiz-adv-x="300" 
d="M176 2l-43.001 -55.002c17.333 -3.33301 30.666 -11.166 39.999 -23.499s12.333 -26.166 9 -41.499c-5.33301 -24.667 -16.666 -41.667 -33.999 -51s-37.666 -14 -60.999 -14c-16 0 -32 3.66699 -48 11l10 19c7.33301 -3.33301 14.5 -5.83301 21.5 -7.5
s15.167 -2.5 24.5 -2.5c14.667 0 28 3 40 9s19.667 17.667 23 35c2.66699 17.333 -1.5 29.5 -12.5 36.5s-26.5 12.167 -46.5 15.5l53 69h24z" />
    <glyph glyph-name="onesuperior" unicode="&#xb9;" horiz-adv-x="288" 
d="M212 274l71 368l-82 -37l-2 12l41 19l41 19h20l-74 -381h-15z" />
    <glyph glyph-name="ordmasculine" unicode="&#xba;" horiz-adv-x="334" 
d="M285 589c44 0 75.6689 -14.834 95.002 -44.501s24.333 -68.167 15 -115.5c-5.33301 -28 -14.5 -52.167 -27.5 -72.5s-27.667 -37.166 -44 -50.499s-33.666 -23.166 -51.999 -29.499s-35.5 -9.5 -51.5 -9.5c-40.667 0 -71.834 14.167 -93.501 42.5
s-27.834 66.833 -18.501 115.5c4.66699 25.333 13.167 48.166 25.5 68.499s26.666 37.5 42.999 51.5s34 24.833 53 32.5s37.5 11.5 55.5 11.5zM280.002 569.999c-21.333 0 -40.6689 -4.33398 -58.002 -13.001s-32.166 -19.834 -44.499 -33.501s-22.666 -29 -30.999 -46
s-14.166 -34.167 -17.499 -51.5c-4 -20 -4.16699 -38.667 -0.5 -56s10 -32.333 19 -45s20.167 -22.5 33.5 -29.5s28 -10.5 44 -10.5c18 0 35.167 3.5 51.5 10.5s31.166 16.833 44.499 29.5s24.833 27.834 34.5 45.501s16.5 36.834 20.5 57.501
c2.66699 15.333 3.5 31.333 2.5 48s-5 32 -12 46s-17.5 25.5 -31.5 34.5s-32.333 13.5 -55 13.5z" />
    <glyph glyph-name="guillemotright" unicode="&#xbb;" horiz-adv-x="388" 
d="M124 423h25l102 -174l-85 -86.5l-85 -87.5h-25l171 174zM273 423h26l51 -87.5l51 -87.5l-85.5 -86l-84.5 -87h-25l170 174z" />
    <glyph glyph-name="onequarter" unicode="&#xbc;" horiz-adv-x="706" 
d="M106 -11l514 672h25l-514 -672h-25zM240 626h-2l-114 -64l-6 18l126 72h21l-74 -384h-20zM578 -2l24 121h-209l2 14l285 295h2l-56 -289h73l-4 -20h-73l-24 -121h-20zM606 139c28 144 44 223 48 237c-16 -18 -91.667 -96.333 -227 -235v-2h179z" />
    <glyph glyph-name="onehalf" unicode="&#xbd;" horiz-adv-x="411" 
d="M106 -11l514 672h25l-514 -672h-25zM240 626h-2l-114 -64l-6 18l126 72h21l-74 -384h-20zM418 22l66.002 53.0029c52 42 93.667 79.333 125 112s49.666 64 54.999 94c2.66699 12.667 3.33398 24.5 2.00098 35.5s-5 20.5 -11 28.5s-14.667 14.333 -26 19s-26 7 -44 7
c-17.333 0 -32.833 -3 -46.5 -9s-25.834 -12.333 -36.501 -19l-6 14c12.667 9.33301 27 17.166 43 23.499s33.667 9.5 53 9.5c20 0 36.667 -3.16699 50 -9.5s23.666 -14.5 30.999 -24.5s12 -20.833 14 -32.5s2 -22.834 0 -33.501c-7.33301 -38 -26.5 -73.833 -57.5 -107.5
s-70.833 -69.834 -119.5 -108.501l-60 -49h193l-4 -20h-224z" />
    <glyph glyph-name="threequarters" unicode="&#xbe;" horiz-adv-x="706" 
d="M106 -11l514 672h25l-514 -672h-25zM578 -2l24 121h-209l2 14l285 295h2l-56 -289h73l-4 -20h-73l-24 -121h-20zM606 139c28 144 44 223 48 237c-16 -18 -91.667 -96.333 -227 -235v-2h179zM197 636c11.333 6 25.0039 11.5 41.0039 16.5s32.667 7.5 50 7.5
s31.833 -2.33301 43.5 -7s20.667 -11 27 -19s10.5 -17 12.5 -27s2 -20 0 -30c-4.66699 -22 -15.834 -42.333 -33.501 -61s-42.834 -30.667 -75.501 -36c35.333 -3.33301 60.166 -14.333 74.499 -33s18.833 -41.667 13.5 -69c-2.66699 -13.333 -8.16699 -26.5 -16.5 -39.5
s-19.166 -24.667 -32.499 -35s-29.166 -18.666 -47.499 -24.999s-38.5 -9.5 -60.5 -9.5c-18 0 -34.333 2 -49 6s-26.667 9 -36 15l9 14c9.33301 -5.33301 20.166 -9.83301 32.499 -13.5s27.166 -5.5 44.499 -5.5c20.667 0 39.167 2.83301 55.5 8.5s30 13 41 22
s19.833 19 26.5 30s11 21.5 13 31.5c3.33301 17.333 2.16602 32 -3.50098 44s-14.167 21.667 -25.5 29s-24.666 12.666 -39.999 15.999s-31 5 -47 5h-11l3 17h13c10.667 0 23 1.5 37 4.5s27.667 8 41 15s25 16 35 27s16.667 24.5 20 40.5c2 8.66699 2.16699 17 0.5 25
s-5.33398 15.167 -11.001 21.5s-13.5 11.5 -23.5 15.5s-22.333 6 -37 6c-15.333 0 -30.333 -2 -45 -6s-26.667 -8.66699 -36 -14z" />
    <glyph glyph-name="questiondown" unicode="&#xbf;" horiz-adv-x="375" 
d="M299 288l0.00195312 -2.99707c0 -3.33301 -0.333008 -6 -1 -8c0 -4 -0.166992 -8.83301 -0.5 -14.5s-1.16602 -11.167 -2.49902 -16.5c-4 -22 -14.333 -47.167 -31 -75.5s-37.334 -55.5 -62.001 -81.5c-32 -32 -58.5 -61.167 -79.5 -87.5s-34.167 -53.5 -39.5 -81.5
c-7.33301 -36 -2.16602 -64.167 15.501 -84.5s47.167 -30.5 88.5 -30.5c17.333 0 35.166 2.33301 53.499 7s34.833 11 49.5 19l6 -16c-34.667 -22 -76 -33 -124 -33c-24 0 -44.333 3.83301 -61 11.5s-29.834 17.667 -39.501 30s-15.834 26.666 -18.501 42.999
s-2.33398 33.166 0.999023 50.499c6 30 19.667 58.833 41 86.5s48.333 57.5 81 89.5c52 52 82.667 102.667 92 152c1.33301 6.66699 2.33301 13.167 3 19.5s1.33398 11.166 2.00098 14.499c0 1.33301 -0.166992 2.83301 -0.5 4.5s-0.5 3.16699 -0.5 4.5h27zM322.002 472.003
c7.33301 0 12.667 -2.33301 16 -7s4.33301 -11.667 3 -21c-2 -9.33301 -5.83301 -16.333 -11.5 -21s-12.167 -7 -19.5 -7c-16 0 -22 9.33301 -18 28c3.33301 18.667 13.333 28 30 28z" />
    <glyph glyph-name="Agrave" unicode="&#xc0;" horiz-adv-x="558" 
d="M33 0l376 674h11l115 -674h-24l-44 251h-272l-141 -251h-21zM207 272h259l-61 354zM405 824c9.33301 -20.667 20.668 -43.5 34.001 -68.5s24.666 -48.167 33.999 -69.5h-20l-9 16l-22 38l-27.5 45.5l-24.5 38.5h35z" />
    <glyph glyph-name="Aacute" unicode="&#xc1;" horiz-adv-x="574" 
d="M33 0l376 674h11l115 -674h-24l-44 251h-272l-141 -251h-21zM207 272h259l-61 354zM567 846c-23.333 -21.333 -46.5 -44.168 -69.5 -68.501s-46.167 -47.166 -69.5 -68.499h-19l121 137h37z" />
    <glyph glyph-name="Acircumflex" unicode="&#xc2;" horiz-adv-x="558" 
d="M33 0l376 674h11l115 -674h-24l-44 251h-272l-141 -251h-21zM207 272h259l-61 354zM454 814l5.5 -9l13.5 -22.5l17 -29l17 -29c5.33301 -9 9.83301 -16.333 13.5 -22l5.5 -8.5h-24l-63 107l-109 -107h-21l119 120h26z" />
    <glyph glyph-name="Atilde" unicode="&#xc3;" horiz-adv-x="574" 
d="M33 0l376 674h11l115 -674h-24l-44 251h-272l-141 -251h-21zM207 272h259l-61 354zM324 723c4.66699 18 12.502 33.833 23.502 47.5s24.167 20.5 39.5 20.5c10 0 19 -2.16699 27 -6.5s15.5 -9 22.5 -14s14.5 -9.5 22.5 -13.5s17 -6 27 -6
c21.333 0 35.666 14.333 42.999 43h16c-4.66699 -18 -11.834 -32.667 -21.501 -44s-23.167 -17 -40.5 -17c-10 0 -19 2 -27 6s-15.667 8.5 -23 13.5s-14.833 9.5 -22.5 13.5s-16.5 6 -26.5 6c-11.333 0 -20 -4.83301 -26 -14.5s-11.667 -21.167 -17 -34.5h-17z" />
    <glyph glyph-name="Adieresis" unicode="&#xc4;" horiz-adv-x="558" 
d="M33 0l376 674h11l115 -674h-24l-44 251h-272l-141 -251h-21zM207 272h259l-61 354zM331 775c1.33301 6 4.49902 11 9.49902 15s10.167 6 15.5 6s9.5 -2 12.5 -6s3.83301 -9 2.5 -15c-1.33301 -5.33301 -4.16602 -10 -8.49902 -14s-9.16602 -6 -14.499 -6
s-9.83301 2 -13.5 6s-4.83398 8.66699 -3.50098 14zM508.999 775c1.33301 6 4.49902 11 9.49902 15s10.167 6 15.5 6s9.5 -2 12.5 -6s3.83301 -9 2.5 -15c-1.33301 -5.33301 -4.16602 -10 -8.49902 -14s-9.16602 -6 -14.499 -6s-9.83301 2 -13.5 6
s-4.83398 8.66699 -3.50098 14z" />
    <glyph glyph-name="Aring" unicode="&#xc5;" horiz-adv-x="558" 
d="M33 0l376 674h11l115 -674h-24l-44 251h-272l-141 -251h-21zM207 272h259l-61 354zM516 736c-2 -12 -6.16699 -23 -12.5 -33s-14 -18.833 -23 -26.5s-19 -13.667 -30 -18s-22.167 -6.5 -33.5 -6.5s-21.666 2.16699 -30.999 6.5s-17 10.333 -23 18
s-10.167 16.5 -12.5 26.5s-2.5 21 -0.5 33c4.66699 23.333 16.667 43 36 59s40.666 24 63.999 24s41.333 -8 54 -24s16.667 -35.667 12 -59zM371 736c-3.33301 -18.667 -0.166016 -33.834 9.50098 -45.501s23.167 -17.5 40.5 -17.5c18 0 34.167 5.83301 48.5 17.5
s23.166 26.834 26.499 45.501c3.33301 17.333 0.333008 32.166 -9 44.499s-23 18.5 -41 18.5c-17.333 0 -33.333 -6.16699 -48 -18.5s-23.667 -27.166 -27 -44.499z" />
    <glyph glyph-name="AE" unicode="&#xc6;" horiz-adv-x="724" 
d="M8 0l221 332.999l226 341h350l-1 -1l-3 -19h-295l-27 -290h254l-4 -20h-249l-24 -324h243l-3 -20h-268l21 279h-233l-95 -146l-53.5 -81l-25 -37.5c-4.33301 -6.33301 -7.5 -11.166 -9.5 -14.499h-25zM448 297.999l36 361h-17l-235 -361h216z" />
    <glyph glyph-name="Ccedilla" unicode="&#xc7;" horiz-adv-x="548" 
d="M517 21c-24.667 -10 -52.3311 -17.835 -82.998 -23.502s-61.334 -8.5 -92.001 -8.5c-46.667 1.33301 -87.5 10 -122.5 26s-62.833 38.833 -83.5 68.5s-34 65.834 -40 108.501s-3.66699 91.334 7 146.001c10 52 27 99.333 51 142s53.5 79.167 88.5 109.5
s74.833 53.833 119.5 70.5s92.667 25 144 25c24 0 46.833 -2.16699 68.5 -6.5s42.167 -12.166 61.5 -23.499l-11 -20c-18.667 9.33301 -39 16.333 -61 21s-41.667 7 -59 7c-48 0 -93 -7.16699 -135 -21.5s-79.5 -35.333 -112.5 -63s-61 -61.667 -84 -102
s-39.5 -86.5 -49.5 -138.5c-9.33301 -50 -11.666 -95 -6.99902 -135s16.667 -74.333 36 -103s45.166 -50.667 77.499 -66s71.166 -23 116.499 -23c30 0 59.667 2.66699 89 8s55.333 12.666 78 21.999zM346.003 3.99805l-43.001 -55.002
c17.333 -3.33301 30.666 -11.166 39.999 -23.499s12.333 -26.166 9 -41.499c-5.33301 -24.667 -16.666 -41.667 -33.999 -51s-37.666 -14 -60.999 -14c-16 0 -32 3.66699 -48 11l10 19c7.33301 -3.33301 14.5 -5.83301 21.5 -7.5s15.167 -2.5 24.5 -2.5c14.667 0 28 3 40 9
s19.667 17.667 23 35c2.66699 17.333 -1.5 29.5 -12.5 36.5s-26.5 12.167 -46.5 15.5l53 69h24z" />
    <glyph glyph-name="Egrave" unicode="&#xc8;" horiz-adv-x="456" 
d="M411 21l-4 -21h-323l131 674h307l-5 -21h-286l-55 -286h270l-4 -21h-270l-63 -325h302zM352 847c9.33301 -20.667 20.668 -43.5 34.001 -68.5s24.666 -48.167 33.999 -69.5h-20l-9 16l-22 38l-27.5 45.5l-24.5 38.5h35z" />
    <glyph glyph-name="Eacute" unicode="&#xc9;" horiz-adv-x="442" 
d="M411 21l-4 -21h-323l131 674h307l-5 -21h-286l-55 -286h270l-4 -21h-270l-63 -325h302zM509 846c-23.333 -21.333 -46.5 -44.168 -69.5 -68.501s-46.167 -47.166 -69.5 -68.499h-19l121 137h37z" />
    <glyph glyph-name="Ecircumflex" unicode="&#xca;" horiz-adv-x="456" 
d="M417 831l5.5 -9l13.5 -22.5l17 -29l17 -29c5.33301 -9 9.83301 -16.333 13.5 -22l5.5 -8.5h-24l-63 107l-109 -107h-21l119 120h26zM411 21l-4 -21h-323l131 674h307l-5 -21h-286l-55 -286h270l-4 -21h-270l-63 -325h302z" />
    <glyph glyph-name="Edieresis" unicode="&#xcb;" horiz-adv-x="442" 
d="M411 21l-4 -21h-323l131 674h307l-5 -21h-286l-55 -286h270l-4 -21h-270l-63 -325h302zM285 764c1.33301 6 4.49902 11 9.49902 15s10.167 6 15.5 6s9.5 -2 12.5 -6s3.83301 -9 2.5 -15c-1.33301 -5.33301 -4.16602 -10 -8.49902 -14s-9.16602 -6 -14.499 -6
s-9.83301 2 -13.5 6s-4.83398 8.66699 -3.50098 14zM462.999 764c1.33301 6 4.49902 11 9.49902 15s10.167 6 15.5 6s9.5 -2 12.5 -6s3.83301 -9 2.5 -15c-1.33301 -5.33301 -4.16602 -10 -8.49902 -14s-9.16602 -6 -14.499 -6s-9.83301 2 -13.5 6
s-4.83398 8.66699 -3.50098 14z" />
    <glyph glyph-name="Igrave" unicode="&#xcc;" horiz-adv-x="208" 
d="M252.664 673.991l-143.522 -673.991h-22l143.522 673.991h22zM191 847c9.33301 -20.667 20.668 -43.5 34.001 -68.5s24.666 -48.167 33.999 -69.5h-20l-9 16l-22 38l-27.5 45.5l-24.5 38.5h35z" />
    <glyph glyph-name="Iacute" unicode="&#xcd;" horiz-adv-x="208" 
d="M379 846c-23.333 -21.333 -46.5 -44.168 -69.5 -68.501s-46.167 -47.166 -69.5 -68.499h-19l121 137h37zM252.664 673.989l-143.522 -673.991h-22l143.522 673.991h22z" />
    <glyph glyph-name="Icircumflex" unicode="&#xce;" horiz-adv-x="208" 
d="M252.664 673.991l-143.522 -673.991h-22l143.522 673.991h22zM275 831l5.5 -9l13.5 -22.5l17 -29l17 -29c5.33301 -9 9.83301 -16.333 13.5 -22l5.5 -8.5h-24l-63 107l-109 -107h-21l119 120h26z" />
    <glyph glyph-name="Idieresis" unicode="&#xcf;" horiz-adv-x="208" 
d="M252.664 673.991l-143.522 -673.991h-22l143.522 673.991h22zM138 764c1.33301 6 4.49902 11 9.49902 15s10.167 6 15.5 6s9.5 -2 12.5 -6s3.83301 -9 2.5 -15c-1.33301 -5.33301 -4.16602 -10 -8.49902 -14s-9.16602 -6 -14.499 -6s-9.83301 2 -13.5 6
s-4.83398 8.66699 -3.50098 14zM315.999 764c1.33301 6 4.49902 11 9.49902 15s10.167 6 15.5 6s9.5 -2 12.5 -6s3.83301 -9 2.5 -15c-1.33301 -5.33301 -4.16602 -10 -8.49902 -14s-9.16602 -6 -14.499 -6s-9.83301 2 -13.5 6s-4.83398 8.66699 -3.50098 14z" />
    <glyph glyph-name="Eth" unicode="&#xd0;" horiz-adv-x="636" 
d="M64 353l87.9971 0.000976562l61 311c16.667 3.33301 33.334 6 50.001 8s32.667 3.5 48 4.5s30 1.66699 44 2s26.333 0.5 37 0.5c102 0 175.333 -28.667 220 -86s56.334 -141 35.001 -251c-11.333 -56.667 -29.833 -106.334 -55.5 -149.001s-56.5 -78.667 -92.5 -108
c-43.333 -35.333 -89.666 -59 -138.999 -71s-102.666 -18 -159.999 -18c-15.333 0 -33.333 0.333008 -54 1s-41.334 1.66699 -62.001 3l64 334h-88zM385.997 658.001c-28 0 -54.5 -0.831055 -79.5 -2.49805s-50.5 -4.83398 -76.5 -9.50098l-57 -293h229l-4 -19h-229
l-60 -313c7.33301 -0.666992 15.833 -1.33398 25.5 -2.00098s19 -1.16699 28 -1.5s17.167 -0.5 24.5 -0.5h17c54 0 104.333 5.5 151 16.5s91 33.167 133 66.5c34.667 27.333 64 62.5 88 105.5s40.667 88.5 50 136.5c20.667 105.333 9.66699 184.333 -33 237
s-111.667 79 -207 79z" />
    <glyph glyph-name="Ntilde" unicode="&#xd1;" horiz-adv-x="609" 
d="M215 674h13l284 -629l123 629h21l-131 -674h-16l-283 624l-121 -624h-21zM366 729c4.66699 18 12.502 33.833 23.502 47.5s24.167 20.5 39.5 20.5c10 0 19 -2.16699 27 -6.5s15.5 -9 22.5 -14s14.5 -9.5 22.5 -13.5s17 -6 27 -6c21.333 0 35.666 14.333 42.999 43h16
c-4.66699 -18 -11.834 -32.667 -21.501 -44s-23.167 -17 -40.5 -17c-10 0 -19 2 -27 6s-15.667 8.5 -23 13.5s-14.833 9.5 -22.5 13.5s-16.5 6 -26.5 6c-11.333 0 -20 -4.83301 -26 -14.5s-11.667 -21.167 -17 -34.5h-17z" />
    <glyph glyph-name="Ograve" unicode="&#xd2;" horiz-adv-x="654" 
d="M646 336c9.33301 49.333 11.834 94.167 7.50098 134.5s-15.333 74.833 -33 103.5s-40.834 50.667 -69.501 66s-62.667 23 -102 23c-38 0 -74.667 -8.16699 -110 -24.5s-67.333 -38.833 -96 -67.5s-53.334 -62.834 -74.001 -102.501s-35.667 -83.167 -45 -130.5
c-9.33301 -48 -11.666 -92.167 -6.99902 -132.5s15.334 -74.833 32.001 -103.5s39.167 -51 67.5 -67s61.166 -24 98.499 -24c40 0 77.833 8 113.5 24s68.167 38.333 97.5 67s54.333 62.834 75 102.501s35.667 83.5 45 131.5zM454.001 685.001
c42 0 78.6689 -8.50293 110.002 -25.5029s56.166 -40.667 74.499 -71s30 -67 35 -110s2.5 -90.5 -7.5 -142.5c-10 -49.333 -26 -95.166 -48 -137.499s-49.667 -79.5 -83 -111.5c-31.333 -32 -66.333 -56.333 -105 -73s-78.667 -25 -120 -25c-38 0 -72 8.33301 -102 25
s-54.667 40.334 -74 71.001c-20.667 32 -33.5 69.167 -38.5 111.5s-2.5 89.5 7.5 141.5c10 50 26.167 96.333 48.5 139s49.166 79.334 80.499 110.001s66 54.667 104 72s77.333 26 118 26zM427.003 846.998c9.33301 -20.667 20.668 -43.5 34.001 -68.5
s24.666 -48.167 33.999 -69.5h-20l-9 16l-22 38l-27.5 45.5l-24.5 38.5h35z" />
    <glyph glyph-name="Oacute" unicode="&#xd3;" horiz-adv-x="639" 
d="M646 336c9.33301 49.333 11.834 94.167 7.50098 134.5s-15.333 74.833 -33 103.5s-40.834 50.667 -69.501 66s-62.667 23 -102 23c-38 0 -74.667 -8.16699 -110 -24.5s-67.333 -38.833 -96 -67.5s-53.334 -62.834 -74.001 -102.501s-35.667 -83.167 -45 -130.5
c-9.33301 -48 -11.666 -92.167 -6.99902 -132.5s15.334 -74.833 32.001 -103.5s39.167 -51 67.5 -67s61.166 -24 98.499 -24c40 0 77.833 8 113.5 24s68.167 38.333 97.5 67s54.333 62.834 75 102.501s35.667 83.5 45 131.5zM454.001 685.001
c42 0 78.6689 -8.50293 110.002 -25.5029s56.166 -40.667 74.499 -71s30 -67 35 -110s2.5 -90.5 -7.5 -142.5c-10 -49.333 -26 -95.166 -48 -137.499s-49.667 -79.5 -83 -111.5c-31.333 -32 -66.333 -56.333 -105 -73s-78.667 -25 -120 -25c-38 0 -72 8.33301 -102 25
s-54.667 40.334 -74 71.001c-20.667 32 -33.5 69.167 -38.5 111.5s-2.5 89.5 7.5 141.5c10 50 26.167 96.333 48.5 139s49.166 79.334 80.499 110.001s66 54.667 104 72s77.333 26 118 26zM605.003 846.998c-23.333 -21.333 -46.5 -44.168 -69.5 -68.501
s-46.167 -47.166 -69.5 -68.499h-19l121 137h37z" />
    <glyph glyph-name="Ocircumflex" unicode="&#xd4;" horiz-adv-x="654" 
d="M646 336c9.33301 49.333 11.834 94.167 7.50098 134.5s-15.333 74.833 -33 103.5s-40.834 50.667 -69.501 66s-62.667 23 -102 23c-38 0 -74.667 -8.16699 -110 -24.5s-67.333 -38.833 -96 -67.5s-53.334 -62.834 -74.001 -102.501s-35.667 -83.167 -45 -130.5
c-9.33301 -48 -11.666 -92.167 -6.99902 -132.5s15.334 -74.833 32.001 -103.5s39.167 -51 67.5 -67s61.166 -24 98.499 -24c40 0 77.833 8 113.5 24s68.167 38.333 97.5 67s54.333 62.834 75 102.501s35.667 83.5 45 131.5zM454.001 685.001
c42 0 78.6689 -8.50293 110.002 -25.5029s56.166 -40.667 74.499 -71s30 -67 35 -110s2.5 -90.5 -7.5 -142.5c-10 -49.333 -26 -95.166 -48 -137.499s-49.667 -79.5 -83 -111.5c-31.333 -32 -66.333 -56.333 -105 -73s-78.667 -25 -120 -25c-38 0 -72 8.33301 -102 25
s-54.667 40.334 -74 71.001c-20.667 32 -33.5 69.167 -38.5 111.5s-2.5 89.5 7.5 141.5c10 50 26.167 96.333 48.5 139s49.166 79.334 80.499 110.001s66 54.667 104 72s77.333 26 118 26zM493.003 830.998l5.5 -9l13.5 -22.5l17 -29l17 -29
c5.33301 -9 9.83301 -16.333 13.5 -22l5.5 -8.5h-24l-63 107l-109 -107h-21l119 120h26z" />
    <glyph glyph-name="Otilde" unicode="&#xd5;" horiz-adv-x="639" 
d="M646 336c9.33301 49.333 11.834 94.167 7.50098 134.5s-15.333 74.833 -33 103.5s-40.834 50.667 -69.501 66s-62.667 23 -102 23c-38 0 -74.667 -8.16699 -110 -24.5s-67.333 -38.833 -96 -67.5s-53.334 -62.834 -74.001 -102.501s-35.667 -83.167 -45 -130.5
c-9.33301 -48 -11.666 -92.167 -6.99902 -132.5s15.334 -74.833 32.001 -103.5s39.167 -51 67.5 -67s61.166 -24 98.499 -24c40 0 77.833 8 113.5 24s68.167 38.333 97.5 67s54.333 62.834 75 102.501s35.667 83.5 45 131.5zM454.001 685.001
c42 0 78.6689 -8.50293 110.002 -25.5029s56.166 -40.667 74.499 -71s30 -67 35 -110s2.5 -90.5 -7.5 -142.5c-10 -49.333 -26 -95.166 -48 -137.499s-49.667 -79.5 -83 -111.5c-31.333 -32 -66.333 -56.333 -105 -73s-78.667 -25 -120 -25c-38 0 -72 8.33301 -102 25
s-54.667 40.334 -74 71.001c-20.667 32 -33.5 69.167 -38.5 111.5s-2.5 89.5 7.5 141.5c10 50 26.167 96.333 48.5 139s49.166 79.334 80.499 110.001s66 54.667 104 72s77.333 26 118 26zM362.003 725.998c4.66699 18 12.502 33.833 23.502 47.5s24.167 20.5 39.5 20.5
c10 0 19 -2.16699 27 -6.5s15.5 -9 22.5 -14s14.5 -9.5 22.5 -13.5s17 -6 27 -6c21.333 0 35.666 14.333 42.999 43h16c-4.66699 -18 -11.834 -32.667 -21.501 -44s-23.167 -17 -40.5 -17c-10 0 -19 2 -27 6s-15.667 8.5 -23 13.5s-14.833 9.5 -22.5 13.5s-16.5 6 -26.5 6
c-11.333 0 -20 -4.83301 -26 -14.5s-11.667 -21.167 -17 -34.5h-17z" />
    <glyph glyph-name="Odieresis" unicode="&#xd6;" horiz-adv-x="639" 
d="M646 336c9.33301 49.333 11.834 94.167 7.50098 134.5s-15.333 74.833 -33 103.5s-40.834 50.667 -69.501 66s-62.667 23 -102 23c-38 0 -74.667 -8.16699 -110 -24.5s-67.333 -38.833 -96 -67.5s-53.334 -62.834 -74.001 -102.501s-35.667 -83.167 -45 -130.5
c-9.33301 -48 -11.666 -92.167 -6.99902 -132.5s15.334 -74.833 32.001 -103.5s39.167 -51 67.5 -67s61.166 -24 98.499 -24c40 0 77.833 8 113.5 24s68.167 38.333 97.5 67s54.333 62.834 75 102.501s35.667 83.5 45 131.5zM454.001 685.001
c42 0 78.6689 -8.50293 110.002 -25.5029s56.166 -40.667 74.499 -71s30 -67 35 -110s2.5 -90.5 -7.5 -142.5c-10 -49.333 -26 -95.166 -48 -137.499s-49.667 -79.5 -83 -111.5c-31.333 -32 -66.333 -56.333 -105 -73s-78.667 -25 -120 -25c-38 0 -72 8.33301 -102 25
s-54.667 40.334 -74 71.001c-20.667 32 -33.5 69.167 -38.5 111.5s-2.5 89.5 7.5 141.5c10 50 26.167 96.333 48.5 139s49.166 79.334 80.499 110.001s66 54.667 104 72s77.333 26 118 26zM365.003 774.998c1.33301 6 4.49902 11 9.49902 15s10.167 6 15.5 6s9.5 -2 12.5 -6
s3.83301 -9 2.5 -15c-1.33301 -5.33301 -4.16602 -10 -8.49902 -14s-9.16602 -6 -14.499 -6s-9.83301 2 -13.5 6s-4.83398 8.66699 -3.50098 14zM543.002 774.998c1.33301 6 4.49902 11 9.49902 15s10.167 6 15.5 6s9.5 -2 12.5 -6s3.83301 -9 2.5 -15
c-1.33301 -5.33301 -4.16602 -10 -8.49902 -14s-9.16602 -6 -14.499 -6s-9.83301 2 -13.5 6s-4.83398 8.66699 -3.50098 14z" />
    <glyph glyph-name="multiply" unicode="&#xd7;" horiz-adv-x="596" 
d="M168 517l188 -240l140.5 119.5l140.5 120.5l14 -16l-283 -240l94.5 -120l94.5 -120l-21 -17l-186 239l-141 -119l-141 -120l-13 17l281 240l-94 119l-94 121z" />
    <glyph glyph-name="Oslash" unicode="&#xd8;" horiz-adv-x="654" 
d="M146 80c-19.333 34 -32.333 71.998 -39 113.998s-5.33398 87.667 3.99902 137c10.667 55.333 27.834 105 51.501 149s51.667 81.167 84 111.5s67.666 53.5 105.999 69.5s77.833 24 118.5 24c30.667 0 59.5 -5.33301 86.5 -16s53.167 -29 78.5 -55
c1.33301 2 2.83301 3.66699 4.5 5s4.83398 4.5 9.50098 9.5l21 23l39 44.5l12 -10l-78 -86c19.333 -34 33 -72.833 41 -116.5s7.33301 -90.5 -2 -140.5c-11.333 -59.333 -29.5 -111.166 -54.5 -155.499s-53.667 -81.166 -86 -110.499s-67.333 -51.333 -105 -66
s-75.167 -22 -112.5 -22c-31.333 0 -61.5 6.66699 -90.5 20s-55.833 32.333 -80.5 57l-79 -83l-10 9zM331 8.99805c42.667 0 82.332 9.33496 118.999 28.002s69.334 43.5 98.001 74.5s52.667 66.167 72 105.5s33 79.666 41 120.999c8 40 9.66699 81.333 5 124
s-16.667 83 -36 121l-462 -499c19.333 -22.667 42.833 -40.834 70.5 -54.501s58.5 -20.5 92.5 -20.5zM129.998 332c-8.66699 -43.333 -10.168 -85.666 -4.50098 -126.999s17.834 -78 36.501 -110l459 503c-20.667 23.333 -44 40.833 -70 52.5s-56 17.5 -90 17.5
c-44 0 -84.5 -9.83301 -121.5 -29.5s-69.667 -45.334 -98 -77.001s-52 -67.667 -71 -108s-32.5 -80.833 -40.5 -121.5z" />
    <glyph glyph-name="Ugrave" unicode="&#xd9;" horiz-adv-x="613" 
d="M236 674l-82.0039 -418.003c-4 -20.667 -7 -45.167 -9 -73.5s0.833008 -55.166 8.5 -80.499s22 -46.833 43 -64.5s52.833 -26.5 95.5 -26.5c45.333 0 83.166 8.66699 113.499 26s55.333 38.666 75 63.999s34.334 52 44.001 80s16.5 53 20.5 75l82 418h21l-82 -418
c-7.33301 -37.333 -18.333 -72.333 -33 -105s-33.5 -61 -56.5 -85s-50.167 -42.833 -81.5 -56.5s-67.333 -20.5 -108 -20.5c-31.333 0 -57.333 4.33301 -78 13s-37.167 20.334 -49.5 35.001s-21.166 31.334 -26.499 50.001s-8.66602 37.834 -9.99902 57.501
s-0.666016 39.167 2.00098 58.5s5.33398 37 8.00098 53l82 418h21zM416.996 846.997c9.33301 -20.667 20.668 -43.5 34.001 -68.5s24.666 -48.167 33.999 -69.5h-20l-9 16l-22 38l-27.5 45.5l-24.5 38.5h35z" />
    <glyph glyph-name="Uacute" unicode="&#xda;" horiz-adv-x="601" 
d="M236 674l-82.0039 -418.003c-4 -20.667 -7 -45.167 -9 -73.5s0.833008 -55.166 8.5 -80.499s22 -46.833 43 -64.5s52.833 -26.5 95.5 -26.5c45.333 0 83.166 8.66699 113.499 26s55.333 38.666 75 63.999s34.334 52 44.001 80s16.5 53 20.5 75l82 418h21l-82 -418
c-7.33301 -37.333 -18.333 -72.333 -33 -105s-33.5 -61 -56.5 -85s-50.167 -42.833 -81.5 -56.5s-67.333 -20.5 -108 -20.5c-31.333 0 -57.333 4.33301 -78 13s-37.167 20.334 -49.5 35.001s-21.166 31.334 -26.499 50.001s-8.66602 37.834 -9.99902 57.501
s-0.666016 39.167 2.00098 58.5s5.33398 37 8.00098 53l82 418h21zM560.996 846.997c-23.333 -21.333 -46.5 -44.168 -69.5 -68.501s-46.167 -47.166 -69.5 -68.499h-19l121 137h37z" />
    <glyph glyph-name="Ucircumflex" unicode="&#xdb;" horiz-adv-x="613" 
d="M236 674l-82.0039 -418.003c-4 -20.667 -7 -45.167 -9 -73.5s0.833008 -55.166 8.5 -80.499s22 -46.833 43 -64.5s52.833 -26.5 95.5 -26.5c45.333 0 83.166 8.66699 113.499 26s55.333 38.666 75 63.999s34.334 52 44.001 80s16.5 53 20.5 75l82 418h21l-82 -418
c-7.33301 -37.333 -18.333 -72.333 -33 -105s-33.5 -61 -56.5 -85s-50.167 -42.833 -81.5 -56.5s-67.333 -20.5 -108 -20.5c-31.333 0 -57.333 4.33301 -78 13s-37.167 20.334 -49.5 35.001s-21.166 31.334 -26.499 50.001s-8.66602 37.834 -9.99902 57.501
s-0.666016 39.167 2.00098 58.5s5.33398 37 8.00098 53l82 418h21zM479.996 830.997l5.5 -9l13.5 -22.5l17 -29l17 -29c5.33301 -9 9.83301 -16.333 13.5 -22l5.5 -8.5h-24l-63 107l-109 -107h-21l119 120h26z" />
    <glyph glyph-name="Udieresis" unicode="&#xdc;" horiz-adv-x="601" 
d="M236 674l-82.0039 -418.003c-4 -20.667 -7 -45.167 -9 -73.5s0.833008 -55.166 8.5 -80.499s22 -46.833 43 -64.5s52.833 -26.5 95.5 -26.5c45.333 0 83.166 8.66699 113.499 26s55.333 38.666 75 63.999s34.334 52 44.001 80s16.5 53 20.5 75l82 418h21l-82 -418
c-7.33301 -37.333 -18.333 -72.333 -33 -105s-33.5 -61 -56.5 -85s-50.167 -42.833 -81.5 -56.5s-67.333 -20.5 -108 -20.5c-31.333 0 -57.333 4.33301 -78 13s-37.167 20.334 -49.5 35.001s-21.166 31.334 -26.499 50.001s-8.66602 37.834 -9.99902 57.501
s-0.666016 39.167 2.00098 58.5s5.33398 37 8.00098 53l82 418h21zM350.996 775.997c1.33301 6 4.49902 11 9.49902 15s10.167 6 15.5 6s9.5 -2 12.5 -6s3.83301 -9 2.5 -15c-1.33301 -5.33301 -4.16602 -10 -8.49902 -14s-9.16602 -6 -14.499 -6s-9.83301 2 -13.5 6
s-4.83398 8.66699 -3.50098 14zM528.995 775.997c1.33301 6 4.49902 11 9.49902 15s10.167 6 15.5 6s9.5 -2 12.5 -6s3.83301 -9 2.5 -15c-1.33301 -5.33301 -4.16602 -10 -8.49902 -14s-9.16602 -6 -14.499 -6s-9.83301 2 -13.5 6s-4.83398 8.66699 -3.50098 14z" />
    <glyph glyph-name="Yacute" unicode="&#xdd;" horiz-adv-x="473" 
d="M606 674l-300 -381l-56 -293h-21l56 293l-136 381h24l128 -357l279 357h26zM536 845c-23.333 -21.333 -46.5 -44.168 -69.5 -68.501s-46.167 -47.166 -69.5 -68.499h-19l121 137h37z" />
    <glyph glyph-name="Thorn" unicode="&#xde;" horiz-adv-x="492" 
d="M223 674h21.001l-29 -146c25.333 5.33301 47.666 8.66602 66.999 9.99902s36.666 2 51.999 2c38.667 0 70.834 -4.66699 96.501 -14s45.834 -22.666 60.501 -39.999c11.333 -14.667 19.166 -32 23.499 -52s4.16602 -41.667 -0.500977 -65c-6 -31.333 -17 -59.333 -33 -84
s-36 -45.5 -60 -62.5s-51.333 -29.833 -82 -38.5s-63.667 -13 -99 -13c-13.333 0 -28.166 0.666992 -44.499 2s-32.5 3.33301 -48.5 6l-34 -179h-21zM152.001 202c19.333 -5.33301 36.1689 -8.33301 50.502 -9s28.833 -1 43.5 -1c68 0 123.167 15 165.5 45
s68.833 71.667 79.5 125c5.33301 27.333 5.16602 51 -0.500977 71s-15.834 36.5 -30.501 49.5s-33.167 22.5 -55.5 28.5s-47.833 9 -76.5 9c-23.333 0 -45.333 -1.33301 -66 -4s-37.667 -5.66699 -51 -9z" />
    <glyph glyph-name="germandbls" unicode="&#xdf;" horiz-adv-x="508" 
d="M87 0l92.0029 474.005c10.667 57.333 25.167 102.666 43.5 135.999s40.166 59.666 65.499 78.999v-1c19.333 14.667 39 25.334 59 32.001s42 10 66 10c18.667 0 36.5 -3.16699 53.5 -9.5s31.333 -16 43 -29s19.834 -29.333 24.501 -49s4.66699 -42.5 0 -68.5
c-3.33301 -17.333 -8.66602 -33.333 -15.999 -48s-14.333 -25.667 -21 -33c-28.667 -10.667 -51.834 -24.5 -69.501 -41.5s-28.5 -37.167 -32.5 -60.5c-2 -11.333 -2.5 -21 -1.5 -29s3.33301 -15.667 7 -23s8.33398 -14.5 14.001 -21.5l19.5 -23.5l5 -7l25 -32
c8 -10.667 14.5 -22 19.5 -34s8.5 -25 10.5 -39s1.33301 -29.333 -2 -46c-8.66699 -44.667 -30.167 -80.334 -64.5 -107.001s-75.833 -40 -124.5 -40c-16.667 0 -33 1.66699 -49 5s-30.333 7.66602 -43 12.999c2.66699 5.33301 4.83398 9.33301 6.50098 12s3.5 6 5.5 10
c28 -12.667 56.667 -19 86 -19c22 0 41.833 3.16699 59.5 9.5s33 14.833 46 25.5s23.667 23.167 32 37.5s14.166 29.5 17.499 45.5c5.33301 28 4.16602 52.833 -3.50098 74.5s-19.5 42.167 -35.5 61.5c-18.667 21.333 -33.334 41.666 -44.001 60.999s-13.667 41 -9 65
c5.33301 25.333 17.666 48.833 36.999 70.5s46 39.5 80 53.5c9.33301 16 16 34 20 54c9.33301 48 3.66602 83.5 -17.001 106.5s-50.667 34.5 -90 34.5c-49.333 0 -91 -18.333 -125 -55s-59.333 -97.334 -76 -182.001l-91 -472h-23z" />
    <glyph glyph-name="agrave" unicode="&#xe0;" horiz-adv-x="446" 
d="M334 0c0 6.66699 1.16504 18 3.49805 34s5.16602 32.667 8.49902 50c-2.66699 -2.66699 -5.16699 -5.5 -7.5 -8.5s-4.16602 -5.16699 -5.49902 -6.5c-27.333 -30.667 -54.833 -51 -82.5 -61s-52.5 -15 -74.5 -15c-18.667 0 -35.667 2.33301 -51 7
s-28.333 12.167 -39 22.5s-18.167 23.5 -22.5 39.5s-4.16602 35.333 0.500977 58c4.66699 24 13.5 46.333 26.5 67s31.5 38.667 55.5 54s53.833 27.5 89.5 36.5s78.5 13.5 128.5 13.5h20l6 33c2 10 3.5 23.333 4.5 40s-1.5 33 -7.5 49s-16.167 29.667 -30.5 41
s-36.166 17 -65.499 17c-19.333 0 -39.666 -3.33301 -60.999 -10s-43 -16.667 -65 -30l-8 16c23.333 15.333 46.666 26.5 69.999 33.5s45.666 10.5 66.999 10.5c26 0 47 -4.16699 63 -12.5s28.5 -19 37.5 -32s14.833 -27 17.5 -42s3.83398 -29 3.50098 -42
s-1.33301 -24.333 -3 -34s-2.83398 -15.167 -3.50098 -16.5l-20 -106c-1.33301 -4.66699 -3.66602 -15.667 -6.99902 -33l-11 -58.5c-4 -21.667 -7.5 -43.167 -10.5 -64.5s-4.5 -38 -4.5 -50h-22zM319.998 79c5.33301 6 10.001 11.668 14.001 17.001
s7.83301 12.166 11.5 20.499s7 19 10 32s6.5 29.5 10.5 49.5l14 72c0 -0.666992 -0.333008 -1 -1 -1s-1 0.333008 -1 1c-22.667 1.33301 -49.5 0.666016 -80.5 -2.00098s-61 -9 -90 -19s-55 -25.167 -78 -45.5s-37.833 -48.166 -44.5 -83.499
c-4 -18.667 -4.16699 -34.834 -0.5 -48.501s10 -24.834 19 -33.501s20.167 -15 33.5 -19s27.666 -6 42.999 -6c8 0 17.333 0.833008 28 2.5s22.167 4.83398 34.5 9.50098s25 11.334 38 20.001s26.167 20 39.5 34zM268.999 678.001
c9.33301 -20.667 20.668 -43.5 34.001 -68.5s24.666 -48.167 33.999 -69.5h-20l-9 16l-22 38l-27.5 45.5l-24.5 38.5h35z" />
    <glyph glyph-name="aacute" unicode="&#xe1;" horiz-adv-x="428" 
d="M334 0c0 6.66699 1.16504 18 3.49805 34s5.16602 32.667 8.49902 50c-2.66699 -2.66699 -5.16699 -5.5 -7.5 -8.5s-4.16602 -5.16699 -5.49902 -6.5c-27.333 -30.667 -54.833 -51 -82.5 -61s-52.5 -15 -74.5 -15c-18.667 0 -35.667 2.33301 -51 7
s-28.333 12.167 -39 22.5s-18.167 23.5 -22.5 39.5s-4.16602 35.333 0.500977 58c4.66699 24 13.5 46.333 26.5 67s31.5 38.667 55.5 54s53.833 27.5 89.5 36.5s78.5 13.5 128.5 13.5h20l6 33c2 10 3.5 23.333 4.5 40s-1.5 33 -7.5 49s-16.167 29.667 -30.5 41
s-36.166 17 -65.499 17c-19.333 0 -39.666 -3.33301 -60.999 -10s-43 -16.667 -65 -30l-8 16c23.333 15.333 46.666 26.5 69.999 33.5s45.666 10.5 66.999 10.5c26 0 47 -4.16699 63 -12.5s28.5 -19 37.5 -32s14.833 -27 17.5 -42s3.83398 -29 3.50098 -42
s-1.33301 -24.333 -3 -34s-2.83398 -15.167 -3.50098 -16.5l-20 -106c-1.33301 -4.66699 -3.66602 -15.667 -6.99902 -33l-11 -58.5c-4 -21.667 -7.5 -43.167 -10.5 -64.5s-4.5 -38 -4.5 -50h-22zM319.998 79c5.33301 6 10.001 11.668 14.001 17.001
s7.83301 12.166 11.5 20.499s7 19 10 32s6.5 29.5 10.5 49.5l14 72c0 -0.666992 -0.333008 -1 -1 -1s-1 0.333008 -1 1c-22.667 1.33301 -49.5 0.666016 -80.5 -2.00098s-61 -9 -90 -19s-55 -25.167 -78 -45.5s-37.833 -48.166 -44.5 -83.499
c-4 -18.667 -4.16699 -34.834 -0.5 -48.501s10 -24.834 19 -33.501s20.167 -15 33.5 -19s27.666 -6 42.999 -6c8 0 17.333 0.833008 28 2.5s22.167 4.83398 34.5 9.50098s25 11.334 38 20.001s26.167 20 39.5 34zM446.999 677.001
c-23.333 -21.333 -46.5 -44.168 -69.5 -68.501s-46.167 -47.166 -69.5 -68.499h-19l121 137h37z" />
    <glyph glyph-name="acircumflex" unicode="&#xe2;" horiz-adv-x="446" 
d="M334 0c0 6.66699 1.16504 18 3.49805 34s5.16602 32.667 8.49902 50c-2.66699 -2.66699 -5.16699 -5.5 -7.5 -8.5s-4.16602 -5.16699 -5.49902 -6.5c-27.333 -30.667 -54.833 -51 -82.5 -61s-52.5 -15 -74.5 -15c-18.667 0 -35.667 2.33301 -51 7
s-28.333 12.167 -39 22.5s-18.167 23.5 -22.5 39.5s-4.16602 35.333 0.500977 58c4.66699 24 13.5 46.333 26.5 67s31.5 38.667 55.5 54s53.833 27.5 89.5 36.5s78.5 13.5 128.5 13.5h20l6 33c2 10 3.5 23.333 4.5 40s-1.5 33 -7.5 49s-16.167 29.667 -30.5 41
s-36.166 17 -65.499 17c-19.333 0 -39.666 -3.33301 -60.999 -10s-43 -16.667 -65 -30l-8 16c23.333 15.333 46.666 26.5 69.999 33.5s45.666 10.5 66.999 10.5c26 0 47 -4.16699 63 -12.5s28.5 -19 37.5 -32s14.833 -27 17.5 -42s3.83398 -29 3.50098 -42
s-1.33301 -24.333 -3 -34s-2.83398 -15.167 -3.50098 -16.5l-20 -106c-1.33301 -4.66699 -3.66602 -15.667 -6.99902 -33l-11 -58.5c-4 -21.667 -7.5 -43.167 -10.5 -64.5s-4.5 -38 -4.5 -50h-22zM319.998 79c5.33301 6 10.001 11.668 14.001 17.001
s7.83301 12.166 11.5 20.499s7 19 10 32s6.5 29.5 10.5 49.5l14 72c0 -0.666992 -0.333008 -1 -1 -1s-1 0.333008 -1 1c-22.667 1.33301 -49.5 0.666016 -80.5 -2.00098s-61 -9 -90 -19s-55 -25.167 -78 -45.5s-37.833 -48.166 -44.5 -83.499
c-4 -18.667 -4.16699 -34.834 -0.5 -48.501s10 -24.834 19 -33.501s20.167 -15 33.5 -19s27.666 -6 42.999 -6c8 0 17.333 0.833008 28 2.5s22.167 4.83398 34.5 9.50098s25 11.334 38 20.001s26.167 20 39.5 34zM344.999 660.001l5.5 -9l13.5 -22.5l17 -29l17 -29
c5.33301 -9 9.83301 -16.333 13.5 -22l5.5 -8.5h-24l-63 107l-109 -107h-21l119 120h26z" />
    <glyph glyph-name="atilde" unicode="&#xe3;" horiz-adv-x="446" 
d="M334 0c0 6.66699 1.16504 18 3.49805 34s5.16602 32.667 8.49902 50c-2.66699 -2.66699 -5.16699 -5.5 -7.5 -8.5s-4.16602 -5.16699 -5.49902 -6.5c-27.333 -30.667 -54.833 -51 -82.5 -61s-52.5 -15 -74.5 -15c-18.667 0 -35.667 2.33301 -51 7
s-28.333 12.167 -39 22.5s-18.167 23.5 -22.5 39.5s-4.16602 35.333 0.500977 58c4.66699 24 13.5 46.333 26.5 67s31.5 38.667 55.5 54s53.833 27.5 89.5 36.5s78.5 13.5 128.5 13.5h20l6 33c2 10 3.5 23.333 4.5 40s-1.5 33 -7.5 49s-16.167 29.667 -30.5 41
s-36.166 17 -65.499 17c-19.333 0 -39.666 -3.33301 -60.999 -10s-43 -16.667 -65 -30l-8 16c23.333 15.333 46.666 26.5 69.999 33.5s45.666 10.5 66.999 10.5c26 0 47 -4.16699 63 -12.5s28.5 -19 37.5 -32s14.833 -27 17.5 -42s3.83398 -29 3.50098 -42
s-1.33301 -24.333 -3 -34s-2.83398 -15.167 -3.50098 -16.5l-20 -106c-1.33301 -4.66699 -3.66602 -15.667 -6.99902 -33l-11 -58.5c-4 -21.667 -7.5 -43.167 -10.5 -64.5s-4.5 -38 -4.5 -50h-22zM319.998 79c5.33301 6 10.001 11.668 14.001 17.001
s7.83301 12.166 11.5 20.499s7 19 10 32s6.5 29.5 10.5 49.5l14 72c0 -0.666992 -0.333008 -1 -1 -1s-1 0.333008 -1 1c-22.667 1.33301 -49.5 0.666016 -80.5 -2.00098s-61 -9 -90 -19s-55 -25.167 -78 -45.5s-37.833 -48.166 -44.5 -83.499
c-4 -18.667 -4.16699 -34.834 -0.5 -48.501s10 -24.834 19 -33.501s20.167 -15 33.5 -19s27.666 -6 42.999 -6c8 0 17.333 0.833008 28 2.5s22.167 4.83398 34.5 9.50098s25 11.334 38 20.001s26.167 20 39.5 34zM214.999 565.001c4.66699 18 12.502 33.833 23.502 47.5
s24.167 20.5 39.5 20.5c10 0 19 -2.16699 27 -6.5s15.5 -9 22.5 -14s14.5 -9.5 22.5 -13.5s17 -6 27 -6c21.333 0 35.666 14.333 42.999 43h16c-4.66699 -18 -11.834 -32.667 -21.501 -44s-23.167 -17 -40.5 -17c-10 0 -19 2 -27 6s-15.667 8.5 -23 13.5
s-14.833 9.5 -22.5 13.5s-16.5 6 -26.5 6c-11.333 0 -20 -4.83301 -26 -14.5s-11.667 -21.167 -17 -34.5h-17z" />
    <glyph glyph-name="adieresis" unicode="&#xe4;" horiz-adv-x="446" 
d="M334 0c0 6.66699 1.16504 18 3.49805 34s5.16602 32.667 8.49902 50c-2.66699 -2.66699 -5.16699 -5.5 -7.5 -8.5s-4.16602 -5.16699 -5.49902 -6.5c-27.333 -30.667 -54.833 -51 -82.5 -61s-52.5 -15 -74.5 -15c-18.667 0 -35.667 2.33301 -51 7
s-28.333 12.167 -39 22.5s-18.167 23.5 -22.5 39.5s-4.16602 35.333 0.500977 58c4.66699 24 13.5 46.333 26.5 67s31.5 38.667 55.5 54s53.833 27.5 89.5 36.5s78.5 13.5 128.5 13.5h20l6 33c2 10 3.5 23.333 4.5 40s-1.5 33 -7.5 49s-16.167 29.667 -30.5 41
s-36.166 17 -65.499 17c-19.333 0 -39.666 -3.33301 -60.999 -10s-43 -16.667 -65 -30l-8 16c23.333 15.333 46.666 26.5 69.999 33.5s45.666 10.5 66.999 10.5c26 0 47 -4.16699 63 -12.5s28.5 -19 37.5 -32s14.833 -27 17.5 -42s3.83398 -29 3.50098 -42
s-1.33301 -24.333 -3 -34s-2.83398 -15.167 -3.50098 -16.5l-20 -106c-1.33301 -4.66699 -3.66602 -15.667 -6.99902 -33l-11 -58.5c-4 -21.667 -7.5 -43.167 -10.5 -64.5s-4.5 -38 -4.5 -50h-22zM319.998 79c5.33301 6 10.001 11.668 14.001 17.001
s7.83301 12.166 11.5 20.499s7 19 10 32s6.5 29.5 10.5 49.5l14 72c0 -0.666992 -0.333008 -1 -1 -1s-1 0.333008 -1 1c-22.667 1.33301 -49.5 0.666016 -80.5 -2.00098s-61 -9 -90 -19s-55 -25.167 -78 -45.5s-37.833 -48.166 -44.5 -83.499
c-4 -18.667 -4.16699 -34.834 -0.5 -48.501s10 -24.834 19 -33.501s20.167 -15 33.5 -19s27.666 -6 42.999 -6c8 0 17.333 0.833008 28 2.5s22.167 4.83398 34.5 9.50098s25 11.334 38 20.001s26.167 20 39.5 34zM222.999 608.001c1.33301 6 4.49902 11 9.49902 15
s10.167 6 15.5 6s9.5 -2 12.5 -6s3.83301 -9 2.5 -15c-1.33301 -5.33301 -4.16602 -10 -8.49902 -14s-9.16602 -6 -14.499 -6s-9.83301 2 -13.5 6s-4.83398 8.66699 -3.50098 14zM400.998 608.001c1.33301 6 4.49902 11 9.49902 15s10.167 6 15.5 6s9.5 -2 12.5 -6
s3.83301 -9 2.5 -15c-1.33301 -5.33301 -4.16602 -10 -8.49902 -14s-9.16602 -6 -14.499 -6s-9.83301 2 -13.5 6s-4.83398 8.66699 -3.50098 14z" />
    <glyph glyph-name="aring" unicode="&#xe5;" horiz-adv-x="446" 
d="M334 0c0 6.66699 1.16504 18 3.49805 34s5.16602 32.667 8.49902 50c-2.66699 -2.66699 -5.16699 -5.5 -7.5 -8.5s-4.16602 -5.16699 -5.49902 -6.5c-27.333 -30.667 -54.833 -51 -82.5 -61s-52.5 -15 -74.5 -15c-18.667 0 -35.667 2.33301 -51 7
s-28.333 12.167 -39 22.5s-18.167 23.5 -22.5 39.5s-4.16602 35.333 0.500977 58c4.66699 24 13.5 46.333 26.5 67s31.5 38.667 55.5 54s53.833 27.5 89.5 36.5s78.5 13.5 128.5 13.5h20l6 33c2 10 3.5 23.333 4.5 40s-1.5 33 -7.5 49s-16.167 29.667 -30.5 41
s-36.166 17 -65.499 17c-19.333 0 -39.666 -3.33301 -60.999 -10s-43 -16.667 -65 -30l-8 16c23.333 15.333 46.666 26.5 69.999 33.5s45.666 10.5 66.999 10.5c26 0 47 -4.16699 63 -12.5s28.5 -19 37.5 -32s14.833 -27 17.5 -42s3.83398 -29 3.50098 -42
s-1.33301 -24.333 -3 -34s-2.83398 -15.167 -3.50098 -16.5l-20 -106c-1.33301 -4.66699 -3.66602 -15.667 -6.99902 -33l-11 -58.5c-4 -21.667 -7.5 -43.167 -10.5 -64.5s-4.5 -38 -4.5 -50h-22zM319.998 79c5.33301 6 10.001 11.668 14.001 17.001
s7.83301 12.166 11.5 20.499s7 19 10 32s6.5 29.5 10.5 49.5l14 72c0 -0.666992 -0.333008 -1 -1 -1s-1 0.333008 -1 1c-22.667 1.33301 -49.5 0.666016 -80.5 -2.00098s-61 -9 -90 -19s-55 -25.167 -78 -45.5s-37.833 -48.166 -44.5 -83.499
c-4 -18.667 -4.16699 -34.834 -0.5 -48.501s10 -24.834 19 -33.501s20.167 -15 33.5 -19s27.666 -6 42.999 -6c8 0 17.333 0.833008 28 2.5s22.167 4.83398 34.5 9.50098s25 11.334 38 20.001s26.167 20 39.5 34zM407.999 622.001c-2 -12 -6.16699 -23 -12.5 -33
s-14 -18.833 -23 -26.5s-19 -13.667 -30 -18s-22.167 -6.5 -33.5 -6.5s-21.666 2.16699 -30.999 6.5s-17 10.333 -23 18s-10.167 16.5 -12.5 26.5s-2.5 21 -0.5 33c4.66699 23.333 16.667 43 36 59s40.666 24 63.999 24s41.333 -8 54 -24s16.667 -35.667 12 -59z
M262.999 622.001c-3.33301 -18.667 -0.166016 -33.834 9.50098 -45.501s23.167 -17.5 40.5 -17.5c18 0 34.167 5.83301 48.5 17.5s23.166 26.834 26.499 45.501c3.33301 17.333 0.333008 32.166 -9 44.499s-23 18.5 -41 18.5c-17.333 0 -33.333 -6.16699 -48 -18.5
s-23.667 -27.166 -27 -44.499z" />
    <glyph glyph-name="ae" unicode="&#xe6;" horiz-adv-x="739" 
d="M416 263c-9.33301 -41.333 -12.8271 -77.8369 -10.4941 -109.504s9.66602 -58.334 21.999 -80.001s29 -38 50 -49s45.5 -16.5 73.5 -16.5c33.333 0 60 2.83301 80 8.5s35.333 11.167 46 16.5l2 -18c-15.333 -7.33301 -34.5 -13.333 -57.5 -18s-49.5 -7 -79.5 -7
c-19.333 0 -37.666 3 -54.999 9s-32.833 15 -46.5 27s-25 26.833 -34 44.5s-14.833 37.834 -17.5 60.501l-2 7c-12 -25.333 -26 -47.166 -42 -65.499s-33.333 -33.666 -52 -45.999s-38 -21.5 -58 -27.5s-40 -9 -60 -9c-22.667 0 -41.5 3.5 -56.5 10.5
s-26.833 16.167 -35.5 27.5s-14.167 24.5 -16.5 39.5s-1.83301 30.167 1.5 45.5c11.333 54.667 43.166 97 95.499 127s129.166 43.667 230.499 41h5l7 36c2 9.33301 3 22.5 3 39.5s-3.5 34 -10.5 51s-18.833 31.667 -35.5 44s-40.667 18.5 -72 18.5
c-21.333 0 -42 -3.33301 -62 -10s-38 -14.667 -54 -24c-0.666992 1.33301 -1 3.33301 -1 6c-0.666992 2 -1 4.33301 -1 7s-0.333008 5.66699 -1 9c23.333 10.667 46.666 18.5 69.999 23.5s42.666 7.5 57.999 7.5c42.667 0 74.5 -12.5 95.5 -37.5s31.833 -58.167 32.5 -99.5
l1 1c23.333 46.667 53.166 81.167 89.499 103.5s73.166 33.5 110.499 33.5c36 0 63.667 -8.16699 83 -24.5s33.166 -35.666 41.499 -57.999s12.333 -45.166 12 -68.499s-2.16602 -42.333 -5.49902 -57l-4 -20zM396.006 262.996l-5 0.000976562
c-26.667 0.666992 -56.167 -0.166016 -88.5 -2.49902s-63.333 -8.33301 -93 -18s-55.5 -24.334 -77.5 -44.001s-36.333 -46.167 -43 -79.5c-7.33301 -38 -2 -65.833 16 -83.5s43 -26.5 75 -26.5c20.667 0 40.5 3.16699 59.5 9.5s36.333 15 52 26s29.5 23.333 41.5 37
s22 28.167 30 43.5c3.33301 6 6.5 15.167 9.5 27.5s5.16699 22.166 6.5 29.499zM740.006 280.997c4.66699 17.333 6.5 36.834 5.5 58.501s-5.83301 42.167 -14.5 61.5s-21.667 35.666 -39 48.999s-40 20 -68 20s-53.5 -6.16699 -76.5 -18.5s-43.333 -27.833 -61 -46.5
s-32.167 -39 -43.5 -61s-19.333 -43 -24 -63h318h3z" />
    <glyph glyph-name="ccedilla" unicode="&#xe7;" horiz-adv-x="428" 
d="M473 439c-13.333 9.33301 -29.666 16.5 -48.999 21.5s-40.333 7.5 -63 7.5c-26 0 -52.333 -5.16699 -79 -15.5s-51.5 -25.166 -74.5 -44.499s-43.333 -43.333 -61 -72s-29.834 -61.334 -36.501 -98.001c-7.33301 -36.667 -8.33301 -69.167 -3 -97.5
s14.833 -52.166 28.5 -71.499s31.167 -33.833 52.5 -43.5s44.333 -14.5 69 -14.5c50.667 0 96.334 9.33301 137.001 28l1 -21c-21.333 -9.33301 -44.333 -16.333 -69 -21s-49.334 -7 -74.001 -7c-27.333 0 -52.666 5.16699 -75.999 15.5s-42.833 26 -58.5 47
s-26.334 47 -32.001 78s-4.5 66.833 3.5 107.5c7.33301 40 20.666 75.5 39.999 106.5s41.833 57.333 67.5 79s53.334 38 83.001 49s58.5 16.5 86.5 16.5c24 0 46.5 -2.83301 67.5 -8.5s37.833 -12.834 50.5 -21.501zM261 -9l-43.001 -55.002
c17.333 -3.33301 30.666 -11.166 39.999 -23.499s12.333 -26.166 9 -41.499c-5.33301 -24.667 -16.666 -41.667 -33.999 -51s-37.666 -14 -60.999 -14c-16 0 -32 3.66699 -48 11l10 19c7.33301 -3.33301 14.5 -5.83301 21.5 -7.5s15.167 -2.5 24.5 -2.5c14.667 0 28 3 40 9
s19.667 17.667 23 35c2.66699 17.333 -1.5 29.5 -12.5 36.5s-26.5 12.167 -46.5 15.5l53 69h24z" />
    <glyph glyph-name="egrave" unicode="&#xe8;" horiz-adv-x="474" 
d="M397 19c-22 -10.667 -44.833 -18.3311 -68.5 -22.998s-48.5 -7 -74.5 -7c-32.667 0.666992 -61 7 -85 19s-43.167 28.667 -57.5 50s-23.5 47.166 -27.5 77.499s-2.33301 64.5 5 102.5c6.66699 36 18.167 69.333 34.5 100s35.833 57 58.5 79s47.834 39.333 75.501 52
s56.5 19.334 86.5 20.001c28 0 50.5 -5 67.5 -15s30.5 -21.667 40.5 -35s17 -27.333 21 -42c4.66699 -14 7.33398 -34 8.00098 -60s-1.66602 -53 -6.99902 -81h-361l-3 -18c-14.667 -74.667 -7.33398 -131.334 21.999 -170.001s76.333 -58 141 -58
c21.333 0 42.666 2.66699 63.999 8s40.666 12.666 57.999 21.999zM339 468.003c-24 0 -47.3291 -4.66699 -69.9961 -14s-43.667 -22.333 -63 -39s-36.333 -36.667 -51 -60s-26.334 -49 -35.001 -77l337 -2c1.33301 18.667 2.16602 34.167 2.49902 46.5
s0.166016 21.5 -0.500977 27.5c-2.66699 34 -14.334 62.167 -35.001 84.5s-49 33.5 -85 33.5zM321.004 677.003c9.33301 -20.667 20.668 -43.5 34.001 -68.5s24.666 -48.167 33.999 -69.5h-20l-9 16l-22 38l-27.5 45.5l-24.5 38.5h35z" />
    <glyph glyph-name="eacute" unicode="&#xe9;" horiz-adv-x="468" 
d="M397 19c-22 -10.667 -44.833 -18.3311 -68.5 -22.998s-48.5 -7 -74.5 -7c-32.667 0.666992 -61 7 -85 19s-43.167 28.667 -57.5 50s-23.5 47.166 -27.5 77.499s-2.33301 64.5 5 102.5c6.66699 36 18.167 69.333 34.5 100s35.833 57 58.5 79s47.834 39.333 75.501 52
s56.5 19.334 86.5 20.001c28 0 50.5 -5 67.5 -15s30.5 -21.667 40.5 -35s17 -27.333 21 -42c4.66699 -14 7.33398 -34 8.00098 -60s-1.66602 -53 -6.99902 -81h-361l-3 -18c-14.667 -74.667 -7.33398 -131.334 21.999 -170.001s76.333 -58 141 -58
c21.333 0 42.666 2.66699 63.999 8s40.666 12.666 57.999 21.999zM339 468.003c-24 0 -47.3291 -4.66699 -69.9961 -14s-43.667 -22.333 -63 -39s-36.333 -36.667 -51 -60s-26.334 -49 -35.001 -77l337 -2c1.33301 18.667 2.16602 34.167 2.49902 46.5
s0.166016 21.5 -0.500977 27.5c-2.66699 34 -14.334 62.167 -35.001 84.5s-49 33.5 -85 33.5zM482.004 678.003c-23.333 -21.333 -46.5 -44.168 -69.5 -68.501s-46.167 -47.166 -69.5 -68.499h-19l121 137h37z" />
    <glyph glyph-name="ecircumflex" unicode="&#xea;" horiz-adv-x="474" 
d="M397 19c-22 -10.667 -44.833 -18.3311 -68.5 -22.998s-48.5 -7 -74.5 -7c-32.667 0.666992 -61 7 -85 19s-43.167 28.667 -57.5 50s-23.5 47.166 -27.5 77.499s-2.33301 64.5 5 102.5c6.66699 36 18.167 69.333 34.5 100s35.833 57 58.5 79s47.834 39.333 75.501 52
s56.5 19.334 86.5 20.001c28 0 50.5 -5 67.5 -15s30.5 -21.667 40.5 -35s17 -27.333 21 -42c4.66699 -14 7.33398 -34 8.00098 -60s-1.66602 -53 -6.99902 -81h-361l-3 -18c-14.667 -74.667 -7.33398 -131.334 21.999 -170.001s76.333 -58 141 -58
c21.333 0 42.666 2.66699 63.999 8s40.666 12.666 57.999 21.999zM339 468.003c-24 0 -47.3291 -4.66699 -69.9961 -14s-43.667 -22.333 -63 -39s-36.333 -36.667 -51 -60s-26.334 -49 -35.001 -77l337 -2c1.33301 18.667 2.16602 34.167 2.49902 46.5
s0.166016 21.5 -0.500977 27.5c-2.66699 34 -14.334 62.167 -35.001 84.5s-49 33.5 -85 33.5zM391.004 664.003l5.5 -9l13.5 -22.5l17 -29l17 -29c5.33301 -9 9.83301 -16.333 13.5 -22l5.5 -8.5h-24l-63 107l-109 -107h-21l119 120h26z" />
    <glyph glyph-name="edieresis" unicode="&#xeb;" horiz-adv-x="474" 
d="M397 19c-22 -10.667 -44.833 -18.3311 -68.5 -22.998s-48.5 -7 -74.5 -7c-32.667 0.666992 -61 7 -85 19s-43.167 28.667 -57.5 50s-23.5 47.166 -27.5 77.499s-2.33301 64.5 5 102.5c6.66699 36 18.167 69.333 34.5 100s35.833 57 58.5 79s47.834 39.333 75.501 52
s56.5 19.334 86.5 20.001c28 0 50.5 -5 67.5 -15s30.5 -21.667 40.5 -35s17 -27.333 21 -42c4.66699 -14 7.33398 -34 8.00098 -60s-1.66602 -53 -6.99902 -81h-361l-3 -18c-14.667 -74.667 -7.33398 -131.334 21.999 -170.001s76.333 -58 141 -58
c21.333 0 42.666 2.66699 63.999 8s40.666 12.666 57.999 21.999zM339 468.003c-24 0 -47.3291 -4.66699 -69.9961 -14s-43.667 -22.333 -63 -39s-36.333 -36.667 -51 -60s-26.334 -49 -35.001 -77l337 -2c1.33301 18.667 2.16602 34.167 2.49902 46.5
s0.166016 21.5 -0.500977 27.5c-2.66699 34 -14.334 62.167 -35.001 84.5s-49 33.5 -85 33.5zM265.004 610.003c1.33301 6 4.49902 11 9.49902 15s10.167 6 15.5 6s9.5 -2 12.5 -6s3.83301 -9 2.5 -15c-1.33301 -5.33301 -4.16602 -10 -8.49902 -14s-9.16602 -6 -14.499 -6
s-9.83301 2 -13.5 6s-4.83398 8.66699 -3.50098 14zM443.003 610.003c1.33301 6 4.49902 11 9.49902 15s10.167 6 15.5 6s9.5 -2 12.5 -6s3.83301 -9 2.5 -15c-1.33301 -5.33301 -4.16602 -10 -8.49902 -14s-9.16602 -6 -14.499 -6s-9.83301 2 -13.5 6
s-4.83398 8.66699 -3.50098 14z" />
    <glyph glyph-name="igrave" unicode="&#xec;" horiz-adv-x="206" 
d="M91 0l93 480h22l-93 -480h-22zM157 677c9.33301 -20.667 20.668 -43.5 34.001 -68.5s24.666 -48.167 33.999 -69.5h-20l-9 16l-22 38l-27.5 45.5l-24.5 38.5h35z" />
    <glyph glyph-name="iacute" unicode="&#xed;" horiz-adv-x="206" 
d="M91 0l93 480h22l-93 -480h-22zM334 677c-23.333 -21.333 -46.5 -44.168 -69.5 -68.501s-46.167 -47.166 -69.5 -68.499h-19l121 137h37z" />
    <glyph glyph-name="icircumflex" unicode="&#xee;" horiz-adv-x="206" 
d="M91 0l93 480h22l-93 -480h-22zM244 660l5.5 -9l13.5 -22.5l17 -29l17 -29c5.33301 -9 9.83301 -16.333 13.5 -22l5.5 -8.5h-24l-63 107l-109 -107h-21l119 120h26z" />
    <glyph glyph-name="idieresis" unicode="&#xef;" horiz-adv-x="206" 
d="M91 0l93 480h22l-93 -480h-22zM115 610c1.33301 6 4.49902 11 9.49902 15s10.167 6 15.5 6s9.5 -2 12.5 -6s3.83301 -9 2.5 -15c-1.33301 -5.33301 -4.16602 -10 -8.49902 -14s-9.16602 -6 -14.499 -6s-9.83301 2 -13.5 6s-4.83398 8.66699 -3.50098 14zM292.999 610
c1.33301 6 4.49902 11 9.49902 15s10.167 6 15.5 6s9.5 -2 12.5 -6s3.83301 -9 2.5 -15c-1.33301 -5.33301 -4.16602 -10 -8.49902 -14s-9.16602 -6 -14.499 -6s-9.83301 2 -13.5 6s-4.83398 8.66699 -3.50098 14z" />
    <glyph glyph-name="eth" unicode="&#xf0;" horiz-adv-x="510" 
d="M257 7c28.667 0 55.834 6 81.501 18s48.834 28.667 69.501 50s38.334 46.333 53.001 75s25.334 59.667 32.001 93c6 32 8.5 62 7.5 90s-6.83301 52.333 -17.5 73s-26.667 37 -48 49s-49.333 18 -84 18c-34 0 -64.333 -7.66699 -91 -23s-49.834 -34.5 -69.501 -57.5
s-35.667 -48.5 -48 -76.5s-20.833 -54.333 -25.5 -79c-6.66699 -32 -8.33398 -62 -5.00098 -90s11.166 -52.333 23.499 -73s28.666 -37 48.999 -49s44.5 -18 72.5 -18zM231 566l143 64.0029c-16 15.333 -33 29.666 -51 42.999s-35.667 25 -53 35l15 17
c17.333 -10.667 35.5 -23.334 54.5 -38.001s37.167 -30 54.5 -46l65 30l66 30l6 -17l-123 -57c26.667 -28 49.167 -56.167 67.5 -84.5s31.833 -58.166 40.5 -89.499c8 -28.667 12 -59.334 12 -92.001s-4 -70 -12 -112c-9.33301 -46 -23.333 -85.5 -42 -118.5
s-40 -60 -64 -81s-49.667 -36.333 -77 -46s-54 -14.5 -80 -14.5c-29.333 0 -55.333 5.83301 -78 17.5s-41 28.167 -55 49.5s-23.167 47.166 -27.5 77.499s-2.83301 64.166 4.5 101.499c8 41.333 21 78 39 110s38.833 58.833 62.5 80.5s49 38.167 76 49.5s53.5 17 79.5 17
c10.667 0 23 -0.666992 37 -2s28.167 -5.16602 42.5 -11.499s28.166 -16 41.499 -29s24.666 -30.833 33.999 -53.5l-11 50c-11.333 31.333 -25.166 61 -41.499 89s-39.166 55.333 -68.499 82l-153 -68z" />
    <glyph glyph-name="ntilde" unicode="&#xf1;" horiz-adv-x="510" 
d="M194 476c-0.666992 -10 -2.49805 -23.167 -5.49805 -39.5l-9.5 -50.5c23.333 33.333 50.666 58.833 81.999 76.5s66.666 26.5 105.999 26.5c34 0 61.833 -9.16699 83.5 -27.5s35.834 -43.5 42.501 -75.5c2 -16 2 -32.167 0 -48.5s-4.33301 -31.833 -7 -46.5l-56 -291h-20
l56 291c4.66699 23.333 7.16699 41.833 7.5 55.5s-1.16699 26.5 -4.5 38.5c-1.33301 6 -3.83301 13.833 -7.5 23.5s-9.66699 18.834 -18 27.501s-19.333 16.167 -33 22.5s-30.834 9.5 -51.501 9.5c-29.333 0 -55.5 -5.83301 -78.5 -17.5s-42.833 -26.167 -59.5 -43.5
s-30 -35.833 -40 -55.5s-16.333 -37.167 -19 -52.5l-58 -299h-20l59 304l6.5 34c3 16 6 33 9 51l8.5 51.5c2.66699 16.333 4 28.166 4 35.499h23zM270.002 574c4.66699 18 12.502 33.833 23.502 47.5s24.167 20.5 39.5 20.5c10 0 19 -2.16699 27 -6.5s15.5 -9 22.5 -14
s14.5 -9.5 22.5 -13.5s17 -6 27 -6c21.333 0 35.666 14.333 42.999 43h16c-4.66699 -18 -11.834 -32.667 -21.501 -44s-23.167 -17 -40.5 -17c-10 0 -19 2 -27 6s-15.667 8.5 -23 13.5s-14.833 9.5 -22.5 13.5s-16.5 6 -26.5 6c-11.333 0 -20 -4.83301 -26 -14.5
s-11.667 -21.167 -17 -34.5h-17z" />
    <glyph glyph-name="ograve" unicode="&#xf2;" horiz-adv-x="509" 
d="M491 237c6 34 7.33301 65 4 93s-11.333 52.167 -24 72.5s-29.5 36.166 -50.5 47.499s-45.5 17 -73.5 17s-54.833 -5.83301 -80.5 -17.5s-49 -27.667 -70 -48s-39.167 -44.5 -54.5 -72.5s-26 -58.667 -32 -92c-7.33301 -36.667 -8.66602 -69.167 -3.99902 -97.5
s13.667 -52.166 27 -71.499s30.166 -33.833 50.499 -43.5s42.5 -14.5 66.5 -14.5c30 0 58.333 5.66699 85 17s50.5 27.166 71.5 47.499s38.667 44.333 53 72s24.833 57.834 31.5 90.501zM351 488c30 0 56.6729 -6.16797 80.0059 -18.501s42.166 -29.5 56.499 -51.5
s23.666 -48.333 27.999 -79s3.16602 -64.667 -3.50098 -102c-7.33301 -36 -19.5 -69.167 -36.5 -99.5s-37.167 -56.5 -60.5 -78.5s-49.5 -39.333 -78.5 -52s-59.167 -19 -90.5 -19s-58.333 6.5 -81 19.5s-40.834 30.833 -54.501 53.5s-22.334 49.167 -26.001 79.5
s-2.16699 62.5 4.5 96.5c6.66699 36 18.5 69.167 35.5 99.5s37.167 56.833 60.5 79.5s49.166 40.334 77.499 53.001s57.833 19 88.5 19zM328.006 678.999c9.33301 -20.667 20.668 -43.5 34.001 -68.5s24.666 -48.167 33.999 -69.5h-20l-9 16l-22 38l-27.5 45.5l-24.5 38.5
h35z" />
    <glyph glyph-name="oacute" unicode="&#xf3;" horiz-adv-x="509" 
d="M491 237c6 34 7.33301 65 4 93s-11.333 52.167 -24 72.5s-29.5 36.166 -50.5 47.499s-45.5 17 -73.5 17s-54.833 -5.83301 -80.5 -17.5s-49 -27.667 -70 -48s-39.167 -44.5 -54.5 -72.5s-26 -58.667 -32 -92c-7.33301 -36.667 -8.66602 -69.167 -3.99902 -97.5
s13.667 -52.166 27 -71.499s30.166 -33.833 50.499 -43.5s42.5 -14.5 66.5 -14.5c30 0 58.333 5.66699 85 17s50.5 27.166 71.5 47.499s38.667 44.333 53 72s24.833 57.834 31.5 90.501zM351 488c30 0 56.6729 -6.16797 80.0059 -18.501s42.166 -29.5 56.499 -51.5
s23.666 -48.333 27.999 -79s3.16602 -64.667 -3.50098 -102c-7.33301 -36 -19.5 -69.167 -36.5 -99.5s-37.167 -56.5 -60.5 -78.5s-49.5 -39.333 -78.5 -52s-59.167 -19 -90.5 -19s-58.333 6.5 -81 19.5s-40.834 30.833 -54.501 53.5s-22.334 49.167 -26.001 79.5
s-2.16699 62.5 4.5 96.5c6.66699 36 18.5 69.167 35.5 99.5s37.167 56.833 60.5 79.5s49.166 40.334 77.499 53.001s57.833 19 88.5 19zM487.006 676.999c-23.333 -21.333 -46.5 -44.168 -69.5 -68.501s-46.167 -47.166 -69.5 -68.499h-19l121 137h37z" />
    <glyph glyph-name="ocircumflex" unicode="&#xf4;" horiz-adv-x="509" 
d="M491 237c6 34 7.33301 65 4 93s-11.333 52.167 -24 72.5s-29.5 36.166 -50.5 47.499s-45.5 17 -73.5 17s-54.833 -5.83301 -80.5 -17.5s-49 -27.667 -70 -48s-39.167 -44.5 -54.5 -72.5s-26 -58.667 -32 -92c-7.33301 -36.667 -8.66602 -69.167 -3.99902 -97.5
s13.667 -52.166 27 -71.499s30.166 -33.833 50.499 -43.5s42.5 -14.5 66.5 -14.5c30 0 58.333 5.66699 85 17s50.5 27.166 71.5 47.499s38.667 44.333 53 72s24.833 57.834 31.5 90.501zM351 488c30 0 56.6729 -6.16797 80.0059 -18.501s42.166 -29.5 56.499 -51.5
s23.666 -48.333 27.999 -79s3.16602 -64.667 -3.50098 -102c-7.33301 -36 -19.5 -69.167 -36.5 -99.5s-37.167 -56.5 -60.5 -78.5s-49.5 -39.333 -78.5 -52s-59.167 -19 -90.5 -19s-58.333 6.5 -81 19.5s-40.834 30.833 -54.501 53.5s-22.334 49.167 -26.001 79.5
s-2.16699 62.5 4.5 96.5c6.66699 36 18.5 69.167 35.5 99.5s37.167 56.833 60.5 79.5s49.166 40.334 77.499 53.001s57.833 19 88.5 19zM399.006 659.999l5.5 -9l13.5 -22.5l17 -29l17 -29c5.33301 -9 9.83301 -16.333 13.5 -22l5.5 -8.5h-24l-63 107l-109 -107h-21l119 120
h26z" />
    <glyph glyph-name="otilde" unicode="&#xf5;" horiz-adv-x="509" 
d="M491 237c6 34 7.33301 65 4 93s-11.333 52.167 -24 72.5s-29.5 36.166 -50.5 47.499s-45.5 17 -73.5 17s-54.833 -5.83301 -80.5 -17.5s-49 -27.667 -70 -48s-39.167 -44.5 -54.5 -72.5s-26 -58.667 -32 -92c-7.33301 -36.667 -8.66602 -69.167 -3.99902 -97.5
s13.667 -52.166 27 -71.499s30.166 -33.833 50.499 -43.5s42.5 -14.5 66.5 -14.5c30 0 58.333 5.66699 85 17s50.5 27.166 71.5 47.499s38.667 44.333 53 72s24.833 57.834 31.5 90.501zM351 488c30 0 56.6729 -6.16797 80.0059 -18.501s42.166 -29.5 56.499 -51.5
s23.666 -48.333 27.999 -79s3.16602 -64.667 -3.50098 -102c-7.33301 -36 -19.5 -69.167 -36.5 -99.5s-37.167 -56.5 -60.5 -78.5s-49.5 -39.333 -78.5 -52s-59.167 -19 -90.5 -19s-58.333 6.5 -81 19.5s-40.834 30.833 -54.501 53.5s-22.334 49.167 -26.001 79.5
s-2.16699 62.5 4.5 96.5c6.66699 36 18.5 69.167 35.5 99.5s37.167 56.833 60.5 79.5s49.166 40.334 77.499 53.001s57.833 19 88.5 19zM264.006 568.999c4.66699 18 12.502 33.833 23.502 47.5s24.167 20.5 39.5 20.5c10 0 19 -2.16699 27 -6.5s15.5 -9 22.5 -14
s14.5 -9.5 22.5 -13.5s17 -6 27 -6c21.333 0 35.666 14.333 42.999 43h16c-4.66699 -18 -11.834 -32.667 -21.501 -44s-23.167 -17 -40.5 -17c-10 0 -19 2 -27 6s-15.667 8.5 -23 13.5s-14.833 9.5 -22.5 13.5s-16.5 6 -26.5 6c-11.333 0 -20 -4.83301 -26 -14.5
s-11.667 -21.167 -17 -34.5h-17z" />
    <glyph glyph-name="odieresis" unicode="&#xf6;" horiz-adv-x="509" 
d="M491 237c6 34 7.33301 65 4 93s-11.333 52.167 -24 72.5s-29.5 36.166 -50.5 47.499s-45.5 17 -73.5 17s-54.833 -5.83301 -80.5 -17.5s-49 -27.667 -70 -48s-39.167 -44.5 -54.5 -72.5s-26 -58.667 -32 -92c-7.33301 -36.667 -8.66602 -69.167 -3.99902 -97.5
s13.667 -52.166 27 -71.499s30.166 -33.833 50.499 -43.5s42.5 -14.5 66.5 -14.5c30 0 58.333 5.66699 85 17s50.5 27.166 71.5 47.499s38.667 44.333 53 72s24.833 57.834 31.5 90.501zM351 488c30 0 56.6729 -6.16797 80.0059 -18.501s42.166 -29.5 56.499 -51.5
s23.666 -48.333 27.999 -79s3.16602 -64.667 -3.50098 -102c-7.33301 -36 -19.5 -69.167 -36.5 -99.5s-37.167 -56.5 -60.5 -78.5s-49.5 -39.333 -78.5 -52s-59.167 -19 -90.5 -19s-58.333 6.5 -81 19.5s-40.834 30.833 -54.501 53.5s-22.334 49.167 -26.001 79.5
s-2.16699 62.5 4.5 96.5c6.66699 36 18.5 69.167 35.5 99.5s37.167 56.833 60.5 79.5s49.166 40.334 77.499 53.001s57.833 19 88.5 19zM270.006 607.999c1.33301 6 4.49902 11 9.49902 15s10.167 6 15.5 6s9.5 -2 12.5 -6s3.83301 -9 2.5 -15
c-1.33301 -5.33301 -4.16602 -10 -8.49902 -14s-9.16602 -6 -14.499 -6s-9.83301 2 -13.5 6s-4.83398 8.66699 -3.50098 14zM448.005 607.999c1.33301 6 4.49902 11 9.49902 15s10.167 6 15.5 6s9.5 -2 12.5 -6s3.83301 -9 2.5 -15
c-1.33301 -5.33301 -4.16602 -10 -8.49902 -14s-9.16602 -6 -14.499 -6s-9.83301 2 -13.5 6s-4.83398 8.66699 -3.50098 14z" />
    <glyph glyph-name="divide" unicode="&#xf7;" horiz-adv-x="596" 
d="M414 445c-1.33301 -7.33301 -4.83105 -13.833 -10.498 -19.5s-12.167 -8.5 -19.5 -8.5s-12.833 2.83301 -16.5 8.5s-4.83398 12.167 -3.50098 19.5c1.33301 8 4.83301 14.667 10.5 20s12.5 8 20.5 8c7.33301 0 12.666 -2.66699 15.999 -8s4.33301 -12 3 -20zM95.002 254
l4 21h511l-4 -21h-511zM346.002 96c-1.33301 -7.33301 -4.83203 -13.833 -10.499 -19.5s-12.167 -8.5 -19.5 -8.5s-12.833 2.83301 -16.5 8.5s-4.83398 12.167 -3.50098 19.5c1.33301 8 5 14.667 11 20s13 8 21 8c7.33301 0 12.5 -2.66699 15.5 -8s3.83301 -12 2.5 -20z" />
    <glyph glyph-name="oslash" unicode="&#xf8;" horiz-adv-x="520" 
d="M493 435c17.333 -23.333 29.168 -51.167 35.501 -83.5s5.83301 -68.166 -1.5 -107.499c-8.66699 -45.333 -22.834 -84 -42.501 -116s-42 -58.333 -67 -79s-51.333 -35.834 -79 -45.501s-54.167 -14.5 -79.5 -14.5c-22 0 -43.333 4 -64 12s-40 19.333 -58 34l-51 -57l-8 8
l52 59c-16.667 23.333 -28.167 51 -34.5 83s-5.83301 68 1.5 108c8 41.333 21.167 78 39.5 110s39.5 58.833 63.5 80.5s50 38 78 49s56.333 16.5 85 16.5c22.667 0 44 -3.83301 64 -11.5s38.667 -18.5 56 -32.5h5l48 54l10 -8zM358.002 470.999c-34 0 -64.667 -7 -92 -21
s-51 -32 -71 -54s-36.5 -46.833 -49.5 -74.5s-22.167 -55.5 -27.5 -83.5c-12.667 -63.333 -4 -122 26 -176l326 365c-13.333 13.333 -29.5 24 -48.5 32s-40.167 12 -63.5 12zM506.002 241.999c4.66699 25.333 5.33203 53.167 1.99902 83.5s-12.666 59.5 -27.999 87.5l-2 4
l-324 -365c14.667 -14 31.5 -24.667 50.5 -32s39.167 -11 60.5 -11c28 0 55 5.83301 81 17.5s49.833 27.667 71.5 48s40.167 44.833 55.5 73.5s26.333 60 33 94z" />
    <glyph glyph-name="ugrave" unicode="&#xf9;" horiz-adv-x="519" 
d="M402 0c0.666992 10.667 2.66895 24.4961 6.00195 41.4961l10 51.5c-15.333 -21.333 -34.333 -40.666 -57 -57.999c-11.333 -9.33301 -27.833 -19 -49.5 -29s-45.834 -15 -72.501 -15c-50.667 0 -87 16.833 -109 50.5s-26.667 82.834 -14 147.501l56 289h21l-56 -289
c-11.333 -59.333 -7.33301 -103.666 12 -132.999s50.666 -44 93.999 -44c24.667 0 46.167 4.5 64.5 13.5s32.833 17.5 43.5 25.5c22 16 39.833 34.833 53.5 56.5s23.5 44.834 29.5 69.501l58 301h21l-12 -66l-46 -235l-15 -79c-4 -18.667 -7.66699 -37 -11 -55
s-5.33301 -32.333 -6 -43h-21zM328.002 678.996c9.33301 -20.667 20.668 -43.5 34.001 -68.5s24.666 -48.167 33.999 -69.5h-20l-9 16l-22 38l-27.5 45.5l-24.5 38.5h35z" />
    <glyph glyph-name="uacute" unicode="&#xfa;" horiz-adv-x="502" 
d="M402 0c0.666992 10.667 2.66895 24.4961 6.00195 41.4961l10 51.5c-15.333 -21.333 -34.333 -40.666 -57 -57.999c-11.333 -9.33301 -27.833 -19 -49.5 -29s-45.834 -15 -72.501 -15c-50.667 0 -87 16.833 -109 50.5s-26.667 82.834 -14 147.501l56 289h21l-56 -289
c-11.333 -59.333 -7.33301 -103.666 12 -132.999s50.666 -44 93.999 -44c24.667 0 46.167 4.5 64.5 13.5s32.833 17.5 43.5 25.5c22 16 39.833 34.833 53.5 56.5s23.5 44.834 29.5 69.501l58 301h21l-12 -66l-46 -235l-15 -79c-4 -18.667 -7.66699 -37 -11 -55
s-5.33301 -32.333 -6 -43h-21zM497.002 676.996c-23.333 -21.333 -46.5 -44.168 -69.5 -68.501s-46.167 -47.166 -69.5 -68.499h-19l121 137h37z" />
    <glyph glyph-name="ucircumflex" unicode="&#xfb;" horiz-adv-x="519" 
d="M402 0c0.666992 10.667 2.66895 24.4961 6.00195 41.4961l10 51.5c-15.333 -21.333 -34.333 -40.666 -57 -57.999c-11.333 -9.33301 -27.833 -19 -49.5 -29s-45.834 -15 -72.501 -15c-50.667 0 -87 16.833 -109 50.5s-26.667 82.834 -14 147.501l56 289h21l-56 -289
c-11.333 -59.333 -7.33301 -103.666 12 -132.999s50.666 -44 93.999 -44c24.667 0 46.167 4.5 64.5 13.5s32.833 17.5 43.5 25.5c22 16 39.833 34.833 53.5 56.5s23.5 44.834 29.5 69.501l58 301h21l-12 -66l-46 -235l-15 -79c-4 -18.667 -7.66699 -37 -11 -55
s-5.33301 -32.333 -6 -43h-21zM399.002 659.996l5.5 -9l13.5 -22.5l17 -29l17 -29c5.33301 -9 9.83301 -16.333 13.5 -22l5.5 -8.5h-24l-63 107l-109 -107h-21l119 120h26z" />
    <glyph glyph-name="udieresis" unicode="&#xfc;" horiz-adv-x="519" 
d="M270 608c1.33301 6 4.49902 11 9.49902 15s10.167 6 15.5 6s9.5 -2 12.5 -6s3.83301 -9 2.5 -15c-1.33301 -5.33301 -4.16602 -10 -8.49902 -14s-9.16602 -6 -14.499 -6s-9.83301 2 -13.5 6s-4.83398 8.66699 -3.50098 14zM447.999 608c1.33301 6 4.49902 11 9.49902 15
s10.167 6 15.5 6s9.5 -2 12.5 -6s3.83301 -9 2.5 -15c-1.33301 -5.33301 -4.16602 -10 -8.49902 -14s-9.16602 -6 -14.499 -6s-9.83301 2 -13.5 6s-4.83398 8.66699 -3.50098 14zM401.998 0c0.666992 10.667 2.66895 24.4961 6.00195 41.4961l10 51.5
c-15.333 -21.333 -34.333 -40.666 -57 -57.999c-11.333 -9.33301 -27.833 -19 -49.5 -29s-45.834 -15 -72.501 -15c-50.667 0 -87 16.833 -109 50.5s-26.667 82.834 -14 147.501l56 289h21l-56 -289c-11.333 -59.333 -7.33301 -103.666 12 -132.999s50.666 -44 93.999 -44
c24.667 0 46.167 4.5 64.5 13.5s32.833 17.5 43.5 25.5c22 16 39.833 34.833 53.5 56.5s23.5 44.834 29.5 69.501l58 301h21l-12 -66l-46 -235l-15 -79c-4 -18.667 -7.66699 -37 -11 -55s-5.33301 -32.333 -6 -43h-21z" />
    <glyph glyph-name="yacute" unicode="&#xfd;" horiz-adv-x="431" 
d="M460 675c-23.333 -21.333 -46.5 -44.168 -69.5 -68.501s-46.167 -47.166 -69.5 -68.499h-19l121 137h37zM-18 -200.002c12 4.66699 25.834 11.835 41.501 21.502s32.5 22.667 50.5 39s36.667 36.5 56 60.5s39 53 59 87l7 11l-91 457h22l86 -428l41 69l53.5 89l56.5 94.5
l50.5 86l37 63c9.66699 16.333 14.5 25.166 14.5 26.499h24l-244 -410l-25 -41.5l-12 -20.5c-20.667 -36 -41.334 -66.833 -62.001 -92.5s-40.5 -47.334 -59.5 -65.001s-37.333 -31.667 -55 -42s-33.5 -18.5 -47.5 -24.5z" />
    <glyph glyph-name="thorn" unicode="&#xfe;" horiz-adv-x="540" 
d="M242 672l-60 -308c23.333 44 54.166 76.333 92.499 97s80.5 31 126.5 31c26.667 0 50.667 -6.33301 72 -19s38.666 -30 51.999 -52s22.333 -47.833 27 -77.5s3.66699 -61.5 -3 -95.5c-9.33301 -46 -23 -85.333 -41 -118s-38.667 -59.5 -62 -80.5
s-48.666 -36.333 -75.999 -46s-55 -14.5 -83 -14.5c-35.333 0 -67.166 10 -95.499 30s-47.5 49 -57.5 87l-15 -75l-16 -81l-16.5 -81l-15.5 -76h-22l171 879h22zM149 193c-3.33301 -16 -4 -31.667 -2 -47c4.66699 -40.667 20.334 -73.667 47.001 -99s60 -38 100 -38
c28 0 54.5 5.66699 79.5 17s47.5 27.166 67.5 47.499s37.167 45.166 51.5 74.499s25.166 62 32.499 98c6 30 7.5 58.5 4.5 85.5s-10.5 50.833 -22.5 71.5s-28.167 37.167 -48.5 49.5s-45.166 18.5 -74.499 18.5c-19.333 0 -38.5 -3.16699 -57.5 -9.5
s-37.167 -15.166 -54.5 -26.499s-33.333 -25.166 -48 -41.499s-27 -34.5 -37 -54.5c-4.66699 -9.33301 -8.83398 -19 -12.501 -29s-6.5 -19.667 -8.5 -29z" />
    <glyph glyph-name="ydieresis" unicode="&#xff;" horiz-adv-x="410" 
d="M-18 -200c12 4.66699 25.834 11.835 41.501 21.502s32.5 22.667 50.5 39s36.667 36.5 56 60.5s39 53 59 87l7 11l-91 457h22l86 -428l41 69l53.5 89l56.5 94.5l50.5 86l37 63c9.66699 16.333 14.5 25.166 14.5 26.499h24l-244 -410l-25 -41.5l-12 -20.5
c-20.667 -36 -41.334 -66.833 -62.001 -92.5s-40.5 -47.334 -59.5 -65.001s-37.333 -31.667 -55 -42s-33.5 -18.5 -47.5 -24.5zM236.001 610.001c1.33301 6 4.49902 11 9.49902 15s10.167 6 15.5 6s9.5 -2 12.5 -6s3.83301 -9 2.5 -15
c-1.33301 -5.33301 -4.16602 -10 -8.49902 -14s-9.16602 -6 -14.499 -6s-9.83301 2 -13.5 6s-4.83398 8.66699 -3.50098 14zM414 610.001c1.33301 6 4.49902 11 9.49902 15s10.167 6 15.5 6s9.5 -2 12.5 -6s3.83301 -9 2.5 -15c-1.33301 -5.33301 -4.16602 -10 -8.49902 -14
s-9.16602 -6 -14.499 -6s-9.83301 2 -13.5 6s-4.83398 8.66699 -3.50098 14z" />
    <glyph glyph-name="Amacron" unicode="&#x100;" horiz-adv-x="574" 
d="M33 0l376 674h11l115 -674h-24l-44 251h-272l-141 -251h-21zM207 272h259l-61 354zM550 752l-4 -18h-228l4 18h228z" />
    <glyph glyph-name="amacron" unicode="&#x101;" horiz-adv-x="446" 
d="M334 0c0 6.66699 1.16504 18 3.49805 34s5.16602 32.667 8.49902 50c-2.66699 -2.66699 -5.16699 -5.5 -7.5 -8.5s-4.16602 -5.16699 -5.49902 -6.5c-27.333 -30.667 -54.833 -51 -82.5 -61s-52.5 -15 -74.5 -15c-18.667 0 -35.667 2.33301 -51 7
s-28.333 12.167 -39 22.5s-18.167 23.5 -22.5 39.5s-4.16602 35.333 0.500977 58c4.66699 24 13.5 46.333 26.5 67s31.5 38.667 55.5 54s53.833 27.5 89.5 36.5s78.5 13.5 128.5 13.5h20l6 33c2 10 3.5 23.333 4.5 40s-1.5 33 -7.5 49s-16.167 29.667 -30.5 41
s-36.166 17 -65.499 17c-19.333 0 -39.666 -3.33301 -60.999 -10s-43 -16.667 -65 -30l-8 16c23.333 15.333 46.666 26.5 69.999 33.5s45.666 10.5 66.999 10.5c26 0 47 -4.16699 63 -12.5s28.5 -19 37.5 -32s14.833 -27 17.5 -42s3.83398 -29 3.50098 -42
s-1.33301 -24.333 -3 -34s-2.83398 -15.167 -3.50098 -16.5l-20 -106c-1.33301 -4.66699 -3.66602 -15.667 -6.99902 -33l-11 -58.5c-4 -21.667 -7.5 -43.167 -10.5 -64.5s-4.5 -38 -4.5 -50h-22zM319.998 79c5.33301 6 10.001 11.668 14.001 17.001
s7.83301 12.166 11.5 20.499s7 19 10 32s6.5 29.5 10.5 49.5l14 72c0 -0.666992 -0.333008 -1 -1 -1s-1 0.333008 -1 1c-22.667 1.33301 -49.5 0.666016 -80.5 -2.00098s-61 -9 -90 -19s-55 -25.167 -78 -45.5s-37.833 -48.166 -44.5 -83.499
c-4 -18.667 -4.16699 -34.834 -0.5 -48.501s10 -24.834 19 -33.501s20.167 -15 33.5 -19s27.666 -6 42.999 -6c8 0 17.333 0.833008 28 2.5s22.167 4.83398 34.5 9.50098s25 11.334 38 20.001s26.167 20 39.5 34zM432.999 569.001l-4 -18h-228l4 18h228z" />
    <glyph glyph-name="Abreve" unicode="&#x102;" horiz-adv-x="574" 
d="M33 0l376 674h11l115 -674h-24l-44 251h-272l-141 -251h-21zM207 272h259l-61 354zM362 837c-0.666992 -22 5.33301 -40.498 18 -55.498s31 -22.5 55 -22.5c28 0 50.833 7.66699 68.5 23s29.167 33.666 34.5 54.999h20c-6.66699 -30 -21.5 -54 -44.5 -72
s-50.5 -27 -82.5 -27c-20 0 -36 3.66699 -48 11s-21.333 16.333 -28 27s-10.667 21.667 -12 33s-1.33301 20.666 0 27.999h19z" />
    <glyph glyph-name="abreve" unicode="&#x103;" horiz-adv-x="446" 
d="M334 0c0 6.66699 1.16504 18 3.49805 34s5.16602 32.667 8.49902 50c-2.66699 -2.66699 -5.16699 -5.5 -7.5 -8.5s-4.16602 -5.16699 -5.49902 -6.5c-27.333 -30.667 -54.833 -51 -82.5 -61s-52.5 -15 -74.5 -15c-18.667 0 -35.667 2.33301 -51 7
s-28.333 12.167 -39 22.5s-18.167 23.5 -22.5 39.5s-4.16602 35.333 0.500977 58c4.66699 24 13.5 46.333 26.5 67s31.5 38.667 55.5 54s53.833 27.5 89.5 36.5s78.5 13.5 128.5 13.5h20l6 33c2 10 3.5 23.333 4.5 40s-1.5 33 -7.5 49s-16.167 29.667 -30.5 41
s-36.166 17 -65.499 17c-19.333 0 -39.666 -3.33301 -60.999 -10s-43 -16.667 -65 -30l-8 16c23.333 15.333 46.666 26.5 69.999 33.5s45.666 10.5 66.999 10.5c26 0 47 -4.16699 63 -12.5s28.5 -19 37.5 -32s14.833 -27 17.5 -42s3.83398 -29 3.50098 -42
s-1.33301 -24.333 -3 -34s-2.83398 -15.167 -3.50098 -16.5l-20 -106c-1.33301 -4.66699 -3.66602 -15.667 -6.99902 -33l-11 -58.5c-4 -21.667 -7.5 -43.167 -10.5 -64.5s-4.5 -38 -4.5 -50h-22zM319.998 79c5.33301 6 10.001 11.668 14.001 17.001
s7.83301 12.166 11.5 20.499s7 19 10 32s6.5 29.5 10.5 49.5l14 72c0 -0.666992 -0.333008 -1 -1 -1s-1 0.333008 -1 1c-22.667 1.33301 -49.5 0.666016 -80.5 -2.00098s-61 -9 -90 -19s-55 -25.167 -78 -45.5s-37.833 -48.166 -44.5 -83.499
c-4 -18.667 -4.16699 -34.834 -0.5 -48.501s10 -24.834 19 -33.501s20.167 -15 33.5 -19s27.666 -6 42.999 -6c8 0 17.333 0.833008 28 2.5s22.167 4.83398 34.5 9.50098s25 11.334 38 20.001s26.167 20 39.5 34zM244.999 654.001c-0.666992 -22 5.33301 -40.498 18 -55.498
s31 -22.5 55 -22.5c28 0 50.833 7.66699 68.5 23s29.167 33.666 34.5 54.999h20c-6.66699 -30 -21.5 -54 -44.5 -72s-50.5 -27 -82.5 -27c-20 0 -36 3.66699 -48 11s-21.333 16.333 -28 27s-10.667 21.667 -12 33s-1.33301 20.666 0 27.999h19z" />
    <glyph glyph-name="Aogonek" unicode="&#x104;" horiz-adv-x="574" 
d="M33 0l376 674h11l115 -674h-24l-44 251h-272l-141 -251h-21zM207 272h259l-61 354zM534 1c-12 -6 -24.8311 -14 -38.498 -24s-26.334 -20.667 -38.001 -32s-21.5 -22.833 -29.5 -34.5s-12.333 -22.834 -13 -33.501c-1.33301 -20.667 2.66699 -34.5 12 -41.5
s21.666 -10.5 36.999 -10.5c6 0 12.833 0.333008 20.5 1s15.167 2.33398 22.5 5.00098l3 -17c-8.66699 -3.33301 -18.5 -6 -29.5 -8s-21.167 -3 -30.5 -3c-20 0 -35.5 7.33301 -46.5 22s-14.5 32.667 -10.5 54c2 12 7.5 24.333 16.5 37s19.167 24.667 30.5 36
s23.333 21.333 36 30s24 15 34 19h24z" />
    <glyph glyph-name="aogonek" unicode="&#x105;" horiz-adv-x="446" 
d="M334 0c0 6.66699 1.16504 18 3.49805 34s5.16602 32.667 8.49902 50c-2.66699 -2.66699 -5.16699 -5.5 -7.5 -8.5s-4.16602 -5.16699 -5.49902 -6.5c-27.333 -30.667 -54.833 -51 -82.5 -61s-52.5 -15 -74.5 -15c-18.667 0 -35.667 2.33301 -51 7
s-28.333 12.167 -39 22.5s-18.167 23.5 -22.5 39.5s-4.16602 35.333 0.500977 58c4.66699 24 13.5 46.333 26.5 67s31.5 38.667 55.5 54s53.833 27.5 89.5 36.5s78.5 13.5 128.5 13.5h20l6 33c2 10 3.5 23.333 4.5 40s-1.5 33 -7.5 49s-16.167 29.667 -30.5 41
s-36.166 17 -65.499 17c-19.333 0 -39.666 -3.33301 -60.999 -10s-43 -16.667 -65 -30l-8 16c23.333 15.333 46.666 26.5 69.999 33.5s45.666 10.5 66.999 10.5c26 0 47 -4.16699 63 -12.5s28.5 -19 37.5 -32s14.833 -27 17.5 -42s3.83398 -29 3.50098 -42
s-1.33301 -24.333 -3 -34s-2.83398 -15.167 -3.50098 -16.5l-20 -106c-1.33301 -4.66699 -3.66602 -15.667 -6.99902 -33l-11 -58.5c-4 -21.667 -7.5 -43.167 -10.5 -64.5s-4.5 -38 -4.5 -50h-22zM319.998 79c5.33301 6 10.001 11.668 14.001 17.001
s7.83301 12.166 11.5 20.499s7 19 10 32s6.5 29.5 10.5 49.5l14 72c0 -0.666992 -0.333008 -1 -1 -1s-1 0.333008 -1 1c-22.667 1.33301 -49.5 0.666016 -80.5 -2.00098s-61 -9 -90 -19s-55 -25.167 -78 -45.5s-37.833 -48.166 -44.5 -83.499
c-4 -18.667 -4.16699 -34.834 -0.5 -48.501s10 -24.834 19 -33.501s20.167 -15 33.5 -19s27.666 -6 42.999 -6c8 0 17.333 0.833008 28 2.5s22.167 4.83398 34.5 9.50098s25 11.334 38 20.001s26.167 20 39.5 34zM357.999 0.000976562c-12 -6 -24.8311 -14 -38.498 -24
s-26.334 -20.667 -38.001 -32s-21.5 -22.833 -29.5 -34.5s-12.333 -22.834 -13 -33.501c-1.33301 -20.667 2.66699 -34.5 12 -41.5s21.666 -10.5 36.999 -10.5c6 0 12.833 0.333008 20.5 1s15.167 2.33398 22.5 5.00098l3 -17c-8.66699 -3.33301 -18.5 -6 -29.5 -8
s-21.167 -3 -30.5 -3c-20 0 -35.5 7.33301 -46.5 22s-14.5 32.667 -10.5 54c2 12 7.5 24.333 16.5 37s19.167 24.667 30.5 36s23.333 21.333 36 30s24 15 34 19h24z" />
    <glyph glyph-name="Cacute" unicode="&#x106;" horiz-adv-x="556" 
d="M517 21c-24.667 -10 -52.3311 -17.835 -82.998 -23.502s-61.334 -8.5 -92.001 -8.5c-46.667 1.33301 -87.5 10 -122.5 26s-62.833 38.833 -83.5 68.5s-34 65.834 -40 108.501s-3.66699 91.334 7 146.001c10 52 27 99.333 51 142s53.5 79.167 88.5 109.5
s74.833 53.833 119.5 70.5s92.667 25 144 25c24 0 46.833 -2.16699 68.5 -6.5s42.167 -12.166 61.5 -23.499l-11 -20c-18.667 9.33301 -39 16.333 -61 21s-41.667 7 -59 7c-48 0 -93 -7.16699 -135 -21.5s-79.5 -35.333 -112.5 -63s-61 -61.667 -84 -102
s-39.5 -86.5 -49.5 -138.5c-9.33301 -50 -11.666 -95 -6.99902 -135s16.667 -74.333 36 -103s45.166 -50.667 77.499 -66s71.166 -23 116.499 -23c30 0 59.667 2.66699 89 8s55.333 12.666 78 21.999zM494.003 870.998l-16 -16.5l-25 -26l-29.5 -31l-28 -30l-21.5 -23
l-10 -10.5l-16 1l113 136h33z" />
    <glyph glyph-name="cacute" unicode="&#x107;" horiz-adv-x="435" 
d="M473 439c-13.333 9.33301 -29.666 16.5 -48.999 21.5s-40.333 7.5 -63 7.5c-26 0 -52.333 -5.16699 -79 -15.5s-51.5 -25.166 -74.5 -44.499s-43.333 -43.333 -61 -72s-29.834 -61.334 -36.501 -98.001c-7.33301 -36.667 -8.33301 -69.167 -3 -97.5
s14.833 -52.166 28.5 -71.499s31.167 -33.833 52.5 -43.5s44.333 -14.5 69 -14.5c50.667 0 96.334 9.33301 137.001 28l1 -21c-21.333 -9.33301 -44.333 -16.333 -69 -21s-49.334 -7 -74.001 -7c-27.333 0 -52.666 5.16699 -75.999 15.5s-42.833 26 -58.5 47
s-26.334 47 -32.001 78s-4.5 66.833 3.5 107.5c7.33301 40 20.666 75.5 39.999 106.5s41.833 57.333 67.5 79s53.334 38 83.001 49s58.5 16.5 86.5 16.5c24 0 46.5 -2.83301 67.5 -8.5s37.833 -12.834 50.5 -21.501zM399 678l-16 -16.5l-25 -26l-29.5 -31l-28 -30l-21.5 -23
l-10 -10.5l-16 1l113 136h33z" />
    <glyph glyph-name="Ccircumflex" unicode="&#x108;" horiz-adv-x="556" 
d="M517 21c-24.667 -10 -52.3311 -17.835 -82.998 -23.502s-61.334 -8.5 -92.001 -8.5c-46.667 1.33301 -87.5 10 -122.5 26s-62.833 38.833 -83.5 68.5s-34 65.834 -40 108.501s-3.66699 91.334 7 146.001c10 52 27 99.333 51 142s53.5 79.167 88.5 109.5
s74.833 53.833 119.5 70.5s92.667 25 144 25c24 0 46.833 -2.16699 68.5 -6.5s42.167 -12.166 61.5 -23.499l-11 -20c-18.667 9.33301 -39 16.333 -61 21s-41.667 7 -59 7c-48 0 -93 -7.16699 -135 -21.5s-79.5 -35.333 -112.5 -63s-61 -61.667 -84 -102
s-39.5 -86.5 -49.5 -138.5c-9.33301 -50 -11.666 -95 -6.99902 -135s16.667 -74.333 36 -103s45.166 -50.667 77.499 -66s71.166 -23 116.499 -23c30 0 59.667 2.66699 89 8s55.333 12.666 78 21.999zM460.003 870.998l67 -136h-29l-53 120l-102 -120h-27l117 136h27z" />
    <glyph glyph-name="ccircumflex" unicode="&#x109;" horiz-adv-x="435" 
d="M473 439c-13.333 9.33301 -29.666 16.5 -48.999 21.5s-40.333 7.5 -63 7.5c-26 0 -52.333 -5.16699 -79 -15.5s-51.5 -25.166 -74.5 -44.499s-43.333 -43.333 -61 -72s-29.834 -61.334 -36.501 -98.001c-7.33301 -36.667 -8.33301 -69.167 -3 -97.5
s14.833 -52.166 28.5 -71.499s31.167 -33.833 52.5 -43.5s44.333 -14.5 69 -14.5c50.667 0 96.334 9.33301 137.001 28l1 -21c-21.333 -9.33301 -44.333 -16.333 -69 -21s-49.334 -7 -74.001 -7c-27.333 0 -52.666 5.16699 -75.999 15.5s-42.833 26 -58.5 47
s-26.334 47 -32.001 78s-4.5 66.833 3.5 107.5c7.33301 40 20.666 75.5 39.999 106.5s41.833 57.333 67.5 79s53.334 38 83.001 49s58.5 16.5 86.5 16.5c24 0 46.5 -2.83301 67.5 -8.5s37.833 -12.834 50.5 -21.501zM365 678l67 -136h-29l-53 120l-102 -120h-27l117 136h27z
" />
    <glyph glyph-name="Cdotaccent" unicode="&#x10a;" horiz-adv-x="556" 
d="M517 21c-24.667 -10 -52.3311 -17.835 -82.998 -23.502s-61.334 -8.5 -92.001 -8.5c-46.667 1.33301 -87.5 10 -122.5 26s-62.833 38.833 -83.5 68.5s-34 65.834 -40 108.501s-3.66699 91.334 7 146.001c10 52 27 99.333 51 142s53.5 79.167 88.5 109.5
s74.833 53.833 119.5 70.5s92.667 25 144 25c24 0 46.833 -2.16699 68.5 -6.5s42.167 -12.166 61.5 -23.499l-11 -20c-18.667 9.33301 -39 16.333 -61 21s-41.667 7 -59 7c-48 0 -93 -7.16699 -135 -21.5s-79.5 -35.333 -112.5 -63s-61 -61.667 -84 -102
s-39.5 -86.5 -49.5 -138.5c-9.33301 -50 -11.666 -95 -6.99902 -135s16.667 -74.333 36 -103s45.166 -50.667 77.499 -66s71.166 -23 116.499 -23c30 0 59.667 2.66699 89 8s55.333 12.666 78 21.999zM407.003 758.998c1.33301 7.33301 4.83301 13.5 10.5 18.5
s12.167 7.5 19.5 7.5s13 -2.5 17 -7.5s5.33301 -11.167 4 -18.5c-3.33301 -16.667 -13.333 -25 -30 -25c-7.33301 0 -13 2.33301 -17 7s-5.33301 10.667 -4 18z" />
    <glyph glyph-name="cdotaccent" unicode="&#x10b;" horiz-adv-x="435" 
d="M473 439c-13.333 9.33301 -29.666 16.5 -48.999 21.5s-40.333 7.5 -63 7.5c-26 0 -52.333 -5.16699 -79 -15.5s-51.5 -25.166 -74.5 -44.499s-43.333 -43.333 -61 -72s-29.834 -61.334 -36.501 -98.001c-7.33301 -36.667 -8.33301 -69.167 -3 -97.5
s14.833 -52.166 28.5 -71.499s31.167 -33.833 52.5 -43.5s44.333 -14.5 69 -14.5c50.667 0 96.334 9.33301 137.001 28l1 -21c-21.333 -9.33301 -44.333 -16.333 -69 -21s-49.334 -7 -74.001 -7c-27.333 0 -52.666 5.16699 -75.999 15.5s-42.833 26 -58.5 47
s-26.334 47 -32.001 78s-4.5 66.833 3.5 107.5c7.33301 40 20.666 75.5 39.999 106.5s41.833 57.333 67.5 79s53.334 38 83.001 49s58.5 16.5 86.5 16.5c24 0 46.5 -2.83301 67.5 -8.5s37.833 -12.834 50.5 -21.501zM312 566c1.33301 7.33301 4.83301 13.5 10.5 18.5
s12.167 7.5 19.5 7.5s13 -2.5 17 -7.5s5.33301 -11.167 4 -18.5c-3.33301 -16.667 -13.333 -25 -30 -25c-7.33301 0 -13 2.33301 -17 7s-5.33301 10.667 -4 18z" />
    <glyph glyph-name="Ccaron" unicode="&#x10c;" horiz-adv-x="556" 
d="M517 21c-24.667 -10 -52.3311 -17.835 -82.998 -23.502s-61.334 -8.5 -92.001 -8.5c-46.667 1.33301 -87.5 10 -122.5 26s-62.833 38.833 -83.5 68.5s-34 65.834 -40 108.501s-3.66699 91.334 7 146.001c10 52 27 99.333 51 142s53.5 79.167 88.5 109.5
s74.833 53.833 119.5 70.5s92.667 25 144 25c24 0 46.833 -2.16699 68.5 -6.5s42.167 -12.166 61.5 -23.499l-11 -20c-18.667 9.33301 -39 16.333 -61 21s-41.667 7 -59 7c-48 0 -93 -7.16699 -135 -21.5s-79.5 -35.333 -112.5 -63s-61 -61.667 -84 -102
s-39.5 -86.5 -49.5 -138.5c-9.33301 -50 -11.666 -95 -6.99902 -135s16.667 -74.333 36 -103s45.166 -50.667 77.499 -66s71.166 -23 116.499 -23c30 0 59.667 2.66699 89 8s55.333 12.666 78 21.999zM463.003 733.998l-67.001 137h30l53 -120l66 79
c14.667 18 26.334 31.667 35.001 41h28l-59 -68.5l-59 -68.5h-27z" />
    <glyph glyph-name="ccaron" unicode="&#x10d;" horiz-adv-x="435" 
d="M473 439c-13.333 9.33301 -29.666 16.5 -48.999 21.5s-40.333 7.5 -63 7.5c-26 0 -52.333 -5.16699 -79 -15.5s-51.5 -25.166 -74.5 -44.499s-43.333 -43.333 -61 -72s-29.834 -61.334 -36.501 -98.001c-7.33301 -36.667 -8.33301 -69.167 -3 -97.5
s14.833 -52.166 28.5 -71.499s31.167 -33.833 52.5 -43.5s44.333 -14.5 69 -14.5c50.667 0 96.334 9.33301 137.001 28l1 -21c-21.333 -9.33301 -44.333 -16.333 -69 -21s-49.334 -7 -74.001 -7c-27.333 0 -52.666 5.16699 -75.999 15.5s-42.833 26 -58.5 47
s-26.334 47 -32.001 78s-4.5 66.833 3.5 107.5c7.33301 40 20.666 75.5 39.999 106.5s41.833 57.333 67.5 79s53.334 38 83.001 49s58.5 16.5 86.5 16.5c24 0 46.5 -2.83301 67.5 -8.5s37.833 -12.834 50.5 -21.501zM355 551l-67.001 137h30l53 -120l66 79
c14.667 18 26.334 31.667 35.001 41h28l-59 -68.5l-59 -68.5h-27z" />
    <glyph glyph-name="Dcaron" unicode="&#x10e;" horiz-adv-x="632" 
d="M213 664c16.667 3.33301 33.3311 6.00098 49.998 8.00098s32.667 3.5 48 4.5s30 1.66699 44 2s26.333 0.5 37 0.5c102 0 175.333 -28.667 220 -86s56.334 -141 35.001 -251c-11.333 -56.667 -29.833 -106.334 -55.5 -149.001s-56.5 -78.667 -92.5 -108
c-43.333 -35.333 -89.666 -59 -138.999 -71s-102.666 -18 -159.999 -18c-15.333 0 -33.333 0.333008 -54 1s-41.334 1.66699 -62.001 3zM385.997 658.001c-28 0 -54.5 -0.831055 -79.5 -2.49805s-50.5 -4.83398 -76.5 -9.50098l-121 -625
c7.33301 -0.666992 15.833 -1.33398 25.5 -2.00098s19 -1.16699 28 -1.5s17.167 -0.5 24.5 -0.5h17c54 0 104.333 5.5 151 16.5s91 33.167 133 66.5c34.667 27.333 64 62.5 88 105.5s40.667 88.5 50 136.5c20.667 105.333 9.66699 184.333 -33 237s-111.667 79 -207 79z
M420.997 726.003l-67.001 137h30l53 -120l66 79c14.667 18 26.334 31.667 35.001 41h28l-59 -68.5l-59 -68.5h-27z" />
    <glyph glyph-name="dcaron" unicode="&#x10f;" horiz-adv-x="705" 
d="M417 0c0.666992 11.333 2.49902 25.666 5.49902 42.999s6.5 35.666 10.5 54.999c-22 -32 -50 -58.167 -84 -78.5s-69.667 -30.5 -107 -30.5c-24.667 0 -48 5.33301 -70 16s-40.5 26.334 -55.5 47.001s-25.333 46.5 -31 77.5s-4.83398 66.5 2.49902 106.5
c7.33301 36 19.333 69.333 36 100s36.334 57.167 59.001 79.5s47.834 40 75.501 53s56.167 19.5 85.5 19.5c37.333 0 68.333 -9.33301 93 -28s42 -42 52 -70l62 319h20l-103 -531c0 -0.666992 -1.5 -8.33398 -4.5 -23.001s-6.16699 -31.667 -9.5 -51
s-6.5 -38.666 -9.5 -57.999s-4.83301 -34.666 -5.5 -45.999h-22zM245.999 10c25.333 0 49.3379 5.16797 72.0049 15.501s43.167 23.666 61.5 39.999s33.5 35.166 45.5 56.499s20.333 43 25 65l25 127c3.33301 18 2.66602 36 -2.00098 54s-12.834 34.333 -24.501 49
s-26.667 26.667 -45 36s-39.5 14 -63.5 14c-24.667 0 -49.334 -5.16699 -74.001 -15.5s-47.667 -25.5 -69 -45.5c-22.667 -21.333 -41.334 -46.666 -56.001 -75.999s-25.334 -60.666 -32.001 -93.999c-6 -32.667 -7.16699 -62.834 -3.5 -90.501s11.5 -51.5 23.5 -71.5
s28 -35.667 48 -47s43 -17 69 -17zM803.004 688.001l-29.499 -59.5l-32.5 -63c-10.667 -20.333 -20.834 -38.833 -30.501 -55.5s-17.167 -29 -22.5 -37h-8.5c-3 0 -5.16699 -0.333008 -6.5 -1l24 46.5c9.33301 18.333 18.5 37.333 27.5 57s17.5 39.167 25.5 58.5l20 50z" />
    <glyph glyph-name="Dcroat" unicode="&#x110;" horiz-adv-x="636" 
d="M64 353l87.9971 0.000976562l61 311c16.667 3.33301 33.334 6 50.001 8s32.667 3.5 48 4.5s30 1.66699 44 2s26.333 0.5 37 0.5c102 0 175.333 -28.667 220 -86s56.334 -141 35.001 -251c-11.333 -56.667 -29.833 -106.334 -55.5 -149.001s-56.5 -78.667 -92.5 -108
c-43.333 -35.333 -89.666 -59 -138.999 -71s-102.666 -18 -159.999 -18c-15.333 0 -33.333 0.333008 -54 1s-41.334 1.66699 -62.001 3l64 334h-88zM385.997 658.001c-28 0 -54.5 -0.831055 -79.5 -2.49805s-50.5 -4.83398 -76.5 -9.50098l-57 -293h229l-4 -19h-229
l-60 -313c7.33301 -0.666992 15.833 -1.33398 25.5 -2.00098s19 -1.16699 28 -1.5s17.167 -0.5 24.5 -0.5h17c54 0 104.333 5.5 151 16.5s91 33.167 133 66.5c34.667 27.333 64 62.5 88 105.5s40.667 88.5 50 136.5c20.667 105.333 9.66699 184.333 -33 237
s-111.667 79 -207 79z" />
    <glyph glyph-name="dcroat" unicode="&#x111;" horiz-adv-x="532" 
d="M416 600l4.00098 21.9971h125l19 96h25l-19 -96h77l-4 -22h-77l-44 -225l-30 -157l-19 -102.5l-11 -61.5c-2.66699 -15.333 -4.5 -26.666 -5.5 -33.999s-1.83301 -14 -2.5 -20h-22l20 117l-24 -32c-18.667 -27.333 -43.167 -49.666 -73.5 -66.999s-67.5 -26 -111.5 -26
c-28 0 -52.833 5.66699 -74.5 17s-39.167 27.5 -52.5 48.5s-22.166 46.167 -26.499 75.5s-2.83301 62.333 4.5 99c8 40 20.333 76 37 108s36.5 59.333 59.5 82s48.167 40 75.5 52s55.333 18 84 18c19.333 0 37.166 -2.66699 53.499 -8s30.666 -12.166 42.999 -20.499
s22.333 -18 30 -29s13.167 -22.167 16.5 -33.5l6 -18l42 217h-125zM482.001 293.997c2.66699 16.667 3.66992 31.9961 3.00293 45.9961c-0.666992 17.333 -4.33398 33.833 -11.001 49.5s-16 29.334 -28 41.001s-26.167 21 -42.5 28s-34.833 10.5 -55.5 10.5
c-28 0 -54.5 -5.83301 -79.5 -17.5s-47.5 -27.667 -67.5 -48s-37.333 -44.833 -52 -73.5s-25.334 -60 -32.001 -94c-6 -29.333 -7.66699 -57.666 -5 -84.999s9.83398 -51.333 21.501 -72s27.667 -37.167 48 -49.5s45.5 -18.5 75.5 -18.5c18 0 36.167 3 54.5 9
s35.833 14.833 52.5 26.5s32.167 25.834 46.5 42.501s26.5 36 36.5 58c3.33301 6.66699 6.16602 13.334 8.49902 20.001s4.16602 14 5.49902 22z" />
    <glyph glyph-name="Emacron" unicode="&#x112;" horiz-adv-x="456" 
d="M411 21l-4 -21h-323l131 674h307l-5 -21h-286l-55 -286h270l-4 -21h-270l-63 -325h302zM511 752l-4 -18h-228l4 18h228z" />
    <glyph glyph-name="emacron" unicode="&#x113;" horiz-adv-x="474" 
d="M397 19c-22 -10.667 -44.833 -18.3311 -68.5 -22.998s-48.5 -7 -74.5 -7c-32.667 0.666992 -61 7 -85 19s-43.167 28.667 -57.5 50s-23.5 47.166 -27.5 77.499s-2.33301 64.5 5 102.5c6.66699 36 18.167 69.333 34.5 100s35.833 57 58.5 79s47.834 39.333 75.501 52
s56.5 19.334 86.5 20.001c28 0 50.5 -5 67.5 -15s30.5 -21.667 40.5 -35s17 -27.333 21 -42c4.66699 -14 7.33398 -34 8.00098 -60s-1.66602 -53 -6.99902 -81h-361l-3 -18c-14.667 -74.667 -7.33398 -131.334 21.999 -170.001s76.333 -58 141 -58
c21.333 0 42.666 2.66699 63.999 8s40.666 12.666 57.999 21.999zM339 468.003c-24 0 -47.3291 -4.66699 -69.9961 -14s-43.667 -22.333 -63 -39s-36.333 -36.667 -51 -60s-26.334 -49 -35.001 -77l337 -2c1.33301 18.667 2.16602 34.167 2.49902 46.5
s0.166016 21.5 -0.500977 27.5c-2.66699 34 -14.334 62.167 -35.001 84.5s-49 33.5 -85 33.5zM462.004 569.003l-4 -18h-228l4 18h228z" />
    <glyph glyph-name="Ebreve" unicode="&#x114;" horiz-adv-x="456" 
d="M411 21l-4 -21h-323l131 674h307l-5 -21h-286l-55 -286h270l-4 -21h-270l-63 -325h302zM323 837c-0.666992 -22 5.33301 -40.498 18 -55.498s31 -22.5 55 -22.5c28 0 50.833 7.66699 68.5 23s29.167 33.666 34.5 54.999h20c-6.66699 -30 -21.5 -54 -44.5 -72
s-50.5 -27 -82.5 -27c-20 0 -36 3.66699 -48 11s-21.333 16.333 -28 27s-10.667 21.667 -12 33s-1.33301 20.666 0 27.999h19z" />
    <glyph glyph-name="ebreve" unicode="&#x115;" horiz-adv-x="474" 
d="M397 19c-22 -10.667 -44.833 -18.3311 -68.5 -22.998s-48.5 -7 -74.5 -7c-32.667 0.666992 -61 7 -85 19s-43.167 28.667 -57.5 50s-23.5 47.166 -27.5 77.499s-2.33301 64.5 5 102.5c6.66699 36 18.167 69.333 34.5 100s35.833 57 58.5 79s47.834 39.333 75.501 52
s56.5 19.334 86.5 20.001c28 0 50.5 -5 67.5 -15s30.5 -21.667 40.5 -35s17 -27.333 21 -42c4.66699 -14 7.33398 -34 8.00098 -60s-1.66602 -53 -6.99902 -81h-361l-3 -18c-14.667 -74.667 -7.33398 -131.334 21.999 -170.001s76.333 -58 141 -58
c21.333 0 42.666 2.66699 63.999 8s40.666 12.666 57.999 21.999zM339 468.003c-24 0 -47.3291 -4.66699 -69.9961 -14s-43.667 -22.333 -63 -39s-36.333 -36.667 -51 -60s-26.334 -49 -35.001 -77l337 -2c1.33301 18.667 2.16602 34.167 2.49902 46.5
s0.166016 21.5 -0.500977 27.5c-2.66699 34 -14.334 62.167 -35.001 84.5s-49 33.5 -85 33.5zM274.004 654.003c-0.666992 -22 5.33301 -40.498 18 -55.498s31 -22.5 55 -22.5c28 0 50.833 7.66699 68.5 23s29.167 33.666 34.5 54.999h20c-6.66699 -30 -21.5 -54 -44.5 -72
s-50.5 -27 -82.5 -27c-20 0 -36 3.66699 -48 11s-21.333 16.333 -28 27s-10.667 21.667 -12 33s-1.33301 20.666 0 27.999h19z" />
    <glyph glyph-name="Edotaccent" unicode="&#x116;" horiz-adv-x="456" 
d="M411 21l-4 -21h-323l131 674h307l-5 -21h-286l-55 -286h270l-4 -21h-270l-63 -325h302zM375 749c1.33301 7.33301 4.83301 13.5 10.5 18.5s12.167 7.5 19.5 7.5s13 -2.5 17 -7.5s5.33301 -11.167 4 -18.5c-3.33301 -16.667 -13.333 -25 -30 -25
c-7.33301 0 -13 2.33301 -17 7s-5.33301 10.667 -4 18z" />
    <glyph glyph-name="edotaccent" unicode="&#x117;" horiz-adv-x="474" 
d="M397 19c-22 -10.667 -44.833 -18.3311 -68.5 -22.998s-48.5 -7 -74.5 -7c-32.667 0.666992 -61 7 -85 19s-43.167 28.667 -57.5 50s-23.5 47.166 -27.5 77.499s-2.33301 64.5 5 102.5c6.66699 36 18.167 69.333 34.5 100s35.833 57 58.5 79s47.834 39.333 75.501 52
s56.5 19.334 86.5 20.001c28 0 50.5 -5 67.5 -15s30.5 -21.667 40.5 -35s17 -27.333 21 -42c4.66699 -14 7.33398 -34 8.00098 -60s-1.66602 -53 -6.99902 -81h-361l-3 -18c-14.667 -74.667 -7.33398 -131.334 21.999 -170.001s76.333 -58 141 -58
c21.333 0 42.666 2.66699 63.999 8s40.666 12.666 57.999 21.999zM339 468.003c-24 0 -47.3291 -4.66699 -69.9961 -14s-43.667 -22.333 -63 -39s-36.333 -36.667 -51 -60s-26.334 -49 -35.001 -77l337 -2c1.33301 18.667 2.16602 34.167 2.49902 46.5
s0.166016 21.5 -0.500977 27.5c-2.66699 34 -14.334 62.167 -35.001 84.5s-49 33.5 -85 33.5zM326.004 566.003c1.33301 7.33301 4.83301 13.5 10.5 18.5s12.167 7.5 19.5 7.5s13 -2.5 17 -7.5s5.33301 -11.167 4 -18.5c-3.33301 -16.667 -13.333 -25 -30 -25
c-7.33301 0 -13 2.33301 -17 7s-5.33301 10.667 -4 18z" />
    <glyph glyph-name="Eogonek" unicode="&#x118;" horiz-adv-x="456" 
d="M411 21l-4 -21h-323l131 674h307l-5 -21h-286l-55 -286h270l-4 -21h-270l-63 -325h302zM300 0c-12 -6 -24.8311 -14 -38.498 -24s-26.334 -20.667 -38.001 -32s-21.5 -22.833 -29.5 -34.5s-12.333 -22.834 -13 -33.501c-1.33301 -20.667 2.66699 -34.5 12 -41.5
s21.666 -10.5 36.999 -10.5c6 0 12.833 0.333008 20.5 1s15.167 2.33398 22.5 5.00098l3 -17c-8.66699 -3.33301 -18.5 -6 -29.5 -8s-21.167 -3 -30.5 -3c-20 0 -35.5 7.33301 -46.5 22s-14.5 32.667 -10.5 54c2 12 7.5 24.333 16.5 37s19.167 24.667 30.5 36
s23.333 21.333 36 30s24 15 34 19h24z" />
    <glyph glyph-name="eogonek" unicode="&#x119;" horiz-adv-x="474" 
d="M397 19c-22 -10.667 -44.833 -18.3311 -68.5 -22.998s-48.5 -7 -74.5 -7c-32.667 0.666992 -61 7 -85 19s-43.167 28.667 -57.5 50s-23.5 47.166 -27.5 77.499s-2.33301 64.5 5 102.5c6.66699 36 18.167 69.333 34.5 100s35.833 57 58.5 79s47.834 39.333 75.501 52
s56.5 19.334 86.5 20.001c28 0 50.5 -5 67.5 -15s30.5 -21.667 40.5 -35s17 -27.333 21 -42c4.66699 -14 7.33398 -34 8.00098 -60s-1.66602 -53 -6.99902 -81h-361l-3 -18c-14.667 -74.667 -7.33398 -131.334 21.999 -170.001s76.333 -58 141 -58
c21.333 0 42.666 2.66699 63.999 8s40.666 12.666 57.999 21.999zM339 468.003c-24 0 -47.3291 -4.66699 -69.9961 -14s-43.667 -22.333 -63 -39s-36.333 -36.667 -51 -60s-26.334 -49 -35.001 -77l337 -2c1.33301 18.667 2.16602 34.167 2.49902 46.5
s0.166016 21.5 -0.500977 27.5c-2.66699 34 -14.334 62.167 -35.001 84.5s-49 33.5 -85 33.5zM284.004 -9.99707c-12 -6 -24.8311 -14 -38.498 -24s-26.334 -20.667 -38.001 -32s-21.5 -22.833 -29.5 -34.5s-12.333 -22.834 -13 -33.501
c-1.33301 -20.667 2.66699 -34.5 12 -41.5s21.666 -10.5 36.999 -10.5c6 0 12.833 0.333008 20.5 1s15.167 2.33398 22.5 5.00098l3 -17c-8.66699 -3.33301 -18.5 -6 -29.5 -8s-21.167 -3 -30.5 -3c-20 0 -35.5 7.33301 -46.5 22s-14.5 32.667 -10.5 54
c2 12 7.5 24.333 16.5 37s19.167 24.667 30.5 36s23.333 21.333 36 30s24 15 34 19h24z" />
    <glyph glyph-name="Ecaron" unicode="&#x11a;" horiz-adv-x="456" 
d="M411 21l-4 -21h-323l131 674h307l-5 -21h-286l-55 -286h270l-4 -21h-270l-63 -325h302zM378 723l-67.001 137h30l53 -120l66 79c14.667 18 26.334 31.667 35.001 41h28l-59 -68.5l-59 -68.5h-27z" />
    <glyph glyph-name="ecaron" unicode="&#x11b;" horiz-adv-x="474" 
d="M397 19c-22 -10.667 -44.833 -18.3311 -68.5 -22.998s-48.5 -7 -74.5 -7c-32.667 0.666992 -61 7 -85 19s-43.167 28.667 -57.5 50s-23.5 47.166 -27.5 77.499s-2.33301 64.5 5 102.5c6.66699 36 18.167 69.333 34.5 100s35.833 57 58.5 79s47.834 39.333 75.501 52
s56.5 19.334 86.5 20.001c28 0 50.5 -5 67.5 -15s30.5 -21.667 40.5 -35s17 -27.333 21 -42c4.66699 -14 7.33398 -34 8.00098 -60s-1.66602 -53 -6.99902 -81h-361l-3 -18c-14.667 -74.667 -7.33398 -131.334 21.999 -170.001s76.333 -58 141 -58
c21.333 0 42.666 2.66699 63.999 8s40.666 12.666 57.999 21.999zM339 468.003c-24 0 -47.3291 -4.66699 -69.9961 -14s-43.667 -22.333 -63 -39s-36.333 -36.667 -51 -60s-26.334 -49 -35.001 -77l337 -2c1.33301 18.667 2.16602 34.167 2.49902 46.5
s0.166016 21.5 -0.500977 27.5c-2.66699 34 -14.334 62.167 -35.001 84.5s-49 33.5 -85 33.5zM329.004 540.003l-67.001 137h30l53 -120l66 79c14.667 18 26.334 31.667 35.001 41h28l-59 -68.5l-59 -68.5h-27z" />
    <glyph glyph-name="Gcircumflex" unicode="&#x11c;" horiz-adv-x="610" 
d="M571 301l-165.999 -0.000976562l4 21h188l-58 -297c-62.667 -24 -123.667 -36 -183 -36c-48 0 -90 8 -126 24s-65.333 39 -88 69s-37.5 66.333 -44.5 109s-5.16699 91 5.5 145c10 51.333 27.333 98.5 52 141.5s54.834 79.833 90.501 110.5s75.667 54.5 120 71.5
s90.833 25.5 139.5 25.5c23.333 0 47.333 -2.16699 72 -6.5s46 -12.166 64 -23.499l-10 -19c-17.333 10 -37.833 17.167 -61.5 21.5s-46.5 6.5 -68.5 6.5c-36.667 0 -75 -6.33301 -115 -19s-77.5 -32.334 -112.5 -59.001s-65.833 -60.667 -92.5 -102
s-45.667 -90.666 -57 -147.999c-10 -50 -11.833 -95.167 -5.5 -135.5s19.5 -74.5 39.5 -102.5s47 -49.5 81 -64.5s74 -22.5 120 -22.5c29.333 0 57.166 2.33301 83.499 7s52.166 11.667 77.499 21zM473.001 867.999l67 -136h-29l-53 120l-102 -120h-27l117 136h27z" />
    <glyph glyph-name="gcircumflex" unicode="&#x11d;" horiz-adv-x="532" 
d="M67 -148c15.333 -14 34.502 -23.999 57.502 -29.999s44.833 -9 65.5 -9c59.333 0 108.666 17.667 147.999 53s66.333 90.666 81 165.999l14 71c-22.667 -32 -50.334 -57.667 -83.001 -77s-67.334 -29 -104.001 -29c-30 0 -56.333 6.33301 -79 19
s-40.834 29.834 -54.501 51.501s-22.667 47.167 -27 76.5s-3.16602 60.666 3.50098 93.999c6.66699 36 18.334 69.167 35.001 99.5s36.667 56.833 60 79.5s49.166 40.334 77.499 53.001s57.833 19 88.5 19c36.667 0 66.5 -9.66699 89.5 -29s39.5 -42.333 49.5 -69
c2.66699 16 5.83398 31.833 9.50098 47.5s7.16699 28.167 10.5 37.5h19l-10.5 -48c-4.33301 -20 -8.33301 -39.5 -12 -58.5l-9.5 -49c-2.66699 -13.667 -4 -20.834 -4 -21.501l-52 -267c-15.333 -78 -45 -137.5 -89 -178.5s-99 -61.5 -165 -61.5c-22 0 -44.5 3 -67.5 9
s-43.833 16.333 -62.5 31zM459.002 238.001l14.9971 77.002c3.33301 18 2.83301 36 -1.5 54s-12 34.333 -23 49s-25.333 26.667 -43 36s-38.167 14 -61.5 14c-28 0 -54.667 -5.83301 -80 -17.5s-48.5 -27.667 -69.5 -48s-39 -44.5 -54 -72.5s-25.5 -58.667 -31.5 -92
c-7.33301 -38 -8.16602 -70.667 -2.49902 -98s15.334 -50 29.001 -68s30.5 -31.333 50.5 -40s41 -13 63 -13c23.333 0 45.833 4.5 67.5 13.5s41.5 21.167 59.5 36.5s33.333 33.166 46 53.499s21.334 42.166 26.001 65.499zM390.999 678.003l67 -136h-29l-53 120l-102 -120
h-27l117 136h27z" />
    <glyph glyph-name="Gbreve" unicode="&#x11e;" horiz-adv-x="610" 
d="M571 301l-165.999 -0.000976562l4 21h188l-58 -297c-62.667 -24 -123.667 -36 -183 -36c-48 0 -90 8 -126 24s-65.333 39 -88 69s-37.5 66.333 -44.5 109s-5.16699 91 5.5 145c10 51.333 27.333 98.5 52 141.5s54.834 79.833 90.501 110.5s75.667 54.5 120 71.5
s90.833 25.5 139.5 25.5c23.333 0 47.333 -2.16699 72 -6.5s46 -12.166 64 -23.499l-10 -19c-17.333 10 -37.833 17.167 -61.5 21.5s-46.5 6.5 -68.5 6.5c-36.667 0 -75 -6.33301 -115 -19s-77.5 -32.334 -112.5 -59.001s-65.833 -60.667 -92.5 -102
s-45.667 -90.666 -57 -147.999c-10 -50 -11.833 -95.167 -5.5 -135.5s19.5 -74.5 39.5 -102.5s47 -49.5 81 -64.5s74 -22.5 120 -22.5c29.333 0 57.166 2.33301 83.499 7s52.166 11.667 77.499 21zM368.001 843.999c-0.666992 -22 5.33301 -40.498 18 -55.498
s31 -22.5 55 -22.5c28 0 50.833 7.66699 68.5 23s29.167 33.666 34.5 54.999h20c-6.66699 -30 -21.5 -54 -44.5 -72s-50.5 -27 -82.5 -27c-20 0 -36 3.66699 -48 11s-21.333 16.333 -28 27s-10.667 21.667 -12 33s-1.33301 20.666 0 27.999h19z" />
    <glyph glyph-name="gbreve" unicode="&#x11f;" horiz-adv-x="532" 
d="M67 -148c15.333 -14 34.502 -23.999 57.502 -29.999s44.833 -9 65.5 -9c59.333 0 108.666 17.667 147.999 53s66.333 90.666 81 165.999l14 71c-22.667 -32 -50.334 -57.667 -83.001 -77s-67.334 -29 -104.001 -29c-30 0 -56.333 6.33301 -79 19
s-40.834 29.834 -54.501 51.501s-22.667 47.167 -27 76.5s-3.16602 60.666 3.50098 93.999c6.66699 36 18.334 69.167 35.001 99.5s36.667 56.833 60 79.5s49.166 40.334 77.499 53.001s57.833 19 88.5 19c36.667 0 66.5 -9.66699 89.5 -29s39.5 -42.333 49.5 -69
c2.66699 16 5.83398 31.833 9.50098 47.5s7.16699 28.167 10.5 37.5h19l-10.5 -48c-4.33301 -20 -8.33301 -39.5 -12 -58.5l-9.5 -49c-2.66699 -13.667 -4 -20.834 -4 -21.501l-52 -267c-15.333 -78 -45 -137.5 -89 -178.5s-99 -61.5 -165 -61.5c-22 0 -44.5 3 -67.5 9
s-43.833 16.333 -62.5 31zM459.002 238.001l14.9971 77.002c3.33301 18 2.83301 36 -1.5 54s-12 34.333 -23 49s-25.333 26.667 -43 36s-38.167 14 -61.5 14c-28 0 -54.667 -5.83301 -80 -17.5s-48.5 -27.667 -69.5 -48s-39 -44.5 -54 -72.5s-25.5 -58.667 -31.5 -92
c-7.33301 -38 -8.16602 -70.667 -2.49902 -98s15.334 -50 29.001 -68s30.5 -31.333 50.5 -40s41 -13 63 -13c23.333 0 45.833 4.5 67.5 13.5s41.5 21.167 59.5 36.5s33.333 33.166 46 53.499s21.334 42.166 26.001 65.499zM285.999 654.003
c-0.666992 -22 5.33301 -40.498 18 -55.498s31 -22.5 55 -22.5c28 0 50.833 7.66699 68.5 23s29.167 33.666 34.5 54.999h20c-6.66699 -30 -21.5 -54 -44.5 -72s-50.5 -27 -82.5 -27c-20 0 -36 3.66699 -48 11s-21.333 16.333 -28 27s-10.667 21.667 -12 33
s-1.33301 20.666 0 27.999h19z" />
    <glyph glyph-name="Gdotaccent" unicode="&#x120;" horiz-adv-x="610" 
d="M571 301l-165.999 -0.000976562l4 21h188l-58 -297c-62.667 -24 -123.667 -36 -183 -36c-48 0 -90 8 -126 24s-65.333 39 -88 69s-37.5 66.333 -44.5 109s-5.16699 91 5.5 145c10 51.333 27.333 98.5 52 141.5s54.834 79.833 90.501 110.5s75.667 54.5 120 71.5
s90.833 25.5 139.5 25.5c23.333 0 47.333 -2.16699 72 -6.5s46 -12.166 64 -23.499l-10 -19c-17.333 10 -37.833 17.167 -61.5 21.5s-46.5 6.5 -68.5 6.5c-36.667 0 -75 -6.33301 -115 -19s-77.5 -32.334 -112.5 -59.001s-65.833 -60.667 -92.5 -102
s-45.667 -90.666 -57 -147.999c-10 -50 -11.833 -95.167 -5.5 -135.5s19.5 -74.5 39.5 -102.5s47 -49.5 81 -64.5s74 -22.5 120 -22.5c29.333 0 57.166 2.33301 83.499 7s52.166 11.667 77.499 21zM475.001 773.999c1.33301 7.33301 4.83301 13.5 10.5 18.5
s12.167 7.5 19.5 7.5s13 -2.5 17 -7.5s5.33301 -11.167 4 -18.5c-3.33301 -16.667 -13.333 -25 -30 -25c-7.33301 0 -13 2.33301 -17 7s-5.33301 10.667 -4 18z" />
    <glyph glyph-name="gdotaccent" unicode="&#x121;" horiz-adv-x="532" 
d="M67 -148c15.333 -14 34.502 -23.999 57.502 -29.999s44.833 -9 65.5 -9c59.333 0 108.666 17.667 147.999 53s66.333 90.666 81 165.999l14 71c-22.667 -32 -50.334 -57.667 -83.001 -77s-67.334 -29 -104.001 -29c-30 0 -56.333 6.33301 -79 19
s-40.834 29.834 -54.501 51.501s-22.667 47.167 -27 76.5s-3.16602 60.666 3.50098 93.999c6.66699 36 18.334 69.167 35.001 99.5s36.667 56.833 60 79.5s49.166 40.334 77.499 53.001s57.833 19 88.5 19c36.667 0 66.5 -9.66699 89.5 -29s39.5 -42.333 49.5 -69
c2.66699 16 5.83398 31.833 9.50098 47.5s7.16699 28.167 10.5 37.5h19l-10.5 -48c-4.33301 -20 -8.33301 -39.5 -12 -58.5l-9.5 -49c-2.66699 -13.667 -4 -20.834 -4 -21.501l-52 -267c-15.333 -78 -45 -137.5 -89 -178.5s-99 -61.5 -165 -61.5c-22 0 -44.5 3 -67.5 9
s-43.833 16.333 -62.5 31zM459.002 238.001l14.9971 77.002c3.33301 18 2.83301 36 -1.5 54s-12 34.333 -23 49s-25.333 26.667 -43 36s-38.167 14 -61.5 14c-28 0 -54.667 -5.83301 -80 -17.5s-48.5 -27.667 -69.5 -48s-39 -44.5 -54 -72.5s-25.5 -58.667 -31.5 -92
c-7.33301 -38 -8.16602 -70.667 -2.49902 -98s15.334 -50 29.001 -68s30.5 -31.333 50.5 -40s41 -13 63 -13c23.333 0 45.833 4.5 67.5 13.5s41.5 21.167 59.5 36.5s33.333 33.166 46 53.499s21.334 42.166 26.001 65.499zM337.999 566.003
c1.33301 7.33301 4.83301 13.5 10.5 18.5s12.167 7.5 19.5 7.5s13 -2.5 17 -7.5s5.33301 -11.167 4 -18.5c-3.33301 -16.667 -13.333 -25 -30 -25c-7.33301 0 -13 2.33301 -17 7s-5.33301 10.667 -4 18z" />
    <glyph glyph-name="Gcedilla" unicode="&#x122;" horiz-adv-x="610" 
d="M571 301l-165.999 -0.000976562l4 21h188l-58 -297c-62.667 -24 -123.667 -36 -183 -36c-48 0 -90 8 -126 24s-65.333 39 -88 69s-37.5 66.333 -44.5 109s-5.16699 91 5.5 145c10 51.333 27.333 98.5 52 141.5s54.834 79.833 90.501 110.5s75.667 54.5 120 71.5
s90.833 25.5 139.5 25.5c23.333 0 47.333 -2.16699 72 -6.5s46 -12.166 64 -23.499l-10 -19c-17.333 10 -37.833 17.167 -61.5 21.5s-46.5 6.5 -68.5 6.5c-36.667 0 -75 -6.33301 -115 -19s-77.5 -32.334 -112.5 -59.001s-65.833 -60.667 -92.5 -102
s-45.667 -90.666 -57 -147.999c-10 -50 -11.833 -95.167 -5.5 -135.5s19.5 -74.5 39.5 -102.5s47 -49.5 81 -64.5s74 -22.5 120 -22.5c29.333 0 57.166 2.33301 83.499 7s52.166 11.667 77.499 21zM233.001 -268.001l22.501 42.999l27.5 54.5
c9.33301 19 18.166 38 26.499 57s15.166 36.167 20.499 51.5l32 8l-29 -60.5l-32 -63.5c-10.667 -20.667 -20.667 -39.167 -30 -55.5s-16.666 -28.166 -21.999 -35.499z" />
    <glyph glyph-name="gcedilla" unicode="&#x123;" horiz-adv-x="532" 
d="M67 -148c15.333 -14 34.502 -23.999 57.502 -29.999s44.833 -9 65.5 -9c59.333 0 108.666 17.667 147.999 53s66.333 90.666 81 165.999l14 71c-22.667 -32 -50.334 -57.667 -83.001 -77s-67.334 -29 -104.001 -29c-30 0 -56.333 6.33301 -79 19
s-40.834 29.834 -54.501 51.501s-22.667 47.167 -27 76.5s-3.16602 60.666 3.50098 93.999c6.66699 36 18.334 69.167 35.001 99.5s36.667 56.833 60 79.5s49.166 40.334 77.499 53.001s57.833 19 88.5 19c36.667 0 66.5 -9.66699 89.5 -29s39.5 -42.333 49.5 -69
c2.66699 16 5.83398 31.833 9.50098 47.5s7.16699 28.167 10.5 37.5h19l-10.5 -48c-4.33301 -20 -8.33301 -39.5 -12 -58.5l-9.5 -49c-2.66699 -13.667 -4 -20.834 -4 -21.501l-52 -267c-15.333 -78 -45 -137.5 -89 -178.5s-99 -61.5 -165 -61.5c-22 0 -44.5 3 -67.5 9
s-43.833 16.333 -62.5 31zM459.002 238.001l14.9971 77.002c3.33301 18 2.83301 36 -1.5 54s-12 34.333 -23 49s-25.333 26.667 -43 36s-38.167 14 -61.5 14c-28 0 -54.667 -5.83301 -80 -17.5s-48.5 -27.667 -69.5 -48s-39 -44.5 -54 -72.5s-25.5 -58.667 -31.5 -92
c-7.33301 -38 -8.16602 -70.667 -2.49902 -98s15.334 -50 29.001 -68s30.5 -31.333 50.5 -40s41 -13 63 -13c23.333 0 45.833 4.5 67.5 13.5s41.5 21.167 59.5 36.5s33.333 33.166 46 53.499s21.334 42.166 26.001 65.499zM322.999 548.003
c8.66699 18 18.499 37.332 29.499 57.999l32.5 59c10.667 18.667 20.834 35.667 30.501 51l22.5 35l21 2l-23 -42.5l-29 -53c-10 -18.333 -19.333 -36.666 -28 -54.999s-15.667 -34.5 -21 -48.5z" />
    <glyph glyph-name="Hcircumflex" unicode="&#x124;" horiz-adv-x="616" 
d="M215 674h21l-59 -301h392l59 301h21l-131 -674h-21l68 352h-392l-68 -352h-21zM485 861l67 -136h-29l-53 120l-102 -120h-27l117 136h27z" />
    <glyph glyph-name="hcircumflex" unicode="&#x125;" horiz-adv-x="525" 
d="M99 0l-19.999 -0.000976562l137 708h20l-63 -325c24 34.667 51.667 61 83 79s67 27 107 27c34 0 61.833 -9.16699 83.5 -27.5s35.834 -43.5 42.501 -75.5c2 -16 2.16699 -32.167 0.5 -48.5s-3.83398 -31.833 -6.50098 -46.5l-56 -291h-20l56 291
c4.66699 23.333 7.16699 41.833 7.5 55.5s-1.16699 26.5 -4.5 38.5c-1.33301 6 -4 13.833 -8 23.5s-10.167 18.834 -18.5 27.501s-19.333 16.167 -33 22.5s-30.834 9.5 -51.501 9.5c-30 0 -56.5 -5.83301 -79.5 -17.5s-42.833 -26.167 -59.5 -43.5s-30 -35.833 -40 -55.5
s-16.333 -37.167 -19 -52.5zM448.001 895.999l67 -136h-29l-53 120l-102 -120h-27l117 136h27z" />
    <glyph glyph-name="Hbar" unicode="&#x126;" horiz-adv-x="616" 
d="M129 552l4 21h66l20 101h23l-20 -101h404l20 101h21l-20 -101h64l-4 -21h-64l-107 -552h-21l66 344h-404l-66 -344h-23l107 552h-66zM585 365l37 187h-404l-37 -187h404z" />
    <glyph glyph-name="hbar" unicode="&#x127;" horiz-adv-x="525" 
d="M130 604l4.00098 19.999h80l19 97h21l-19 -97h129l-4 -20h-129l-40 -205l-3 -15c24.667 31.333 51.167 57.5 79.5 78.5s63.833 32.167 106.5 33.5c11.333 0 26.333 -2.33301 45 -7s36.167 -14.167 52.5 -28.5s28.833 -34.666 37.5 -60.999s9 -60.5 1 -102.5l-57 -297h-23
l56 291c4.66699 24 6.33398 47.167 5.00098 69.5s-6.5 42 -15.5 59s-22.333 30.5 -40 40.5s-39.834 15 -66.501 15c-18 0 -35.833 -3.5 -53.5 -10.5s-34.334 -16.333 -50.001 -28s-30 -25 -43 -40s-24.167 -30.5 -33.5 -46.5c-7.33301 -12 -13 -29 -17 -51l-58 -299h-21
l117 604h-80z" />
    <glyph glyph-name="Itilde" unicode="&#x128;" horiz-adv-x="208" 
d="M218 674h21l-131 -674h-21zM143 732c4.66699 18 12.666 33.833 23.999 47.5s24.666 20.5 39.999 20.5c10 0 19 -2.16699 27 -6.5s15.5 -9 22.5 -14s14.5 -9.5 22.5 -13.5s17 -6 27 -6c20.667 0 34.667 14.333 42 43h16c-4.66699 -18 -12 -32.667 -22 -44
s-23.333 -17 -40 -17c-10 0 -18.833 2 -26.5 6s-15.167 8.5 -22.5 13.5s-14.833 9.5 -22.5 13.5s-16.5 6 -26.5 6c-11.333 0 -20.166 -4.83301 -26.499 -14.5s-12.166 -21.167 -17.499 -34.5h-17z" />
    <glyph glyph-name="itilde" unicode="&#x129;" horiz-adv-x="206" 
d="M91 0l93 480h22l-93 -480h-22zM100 537c4.66699 18 12.666 33.833 23.999 47.5s24.666 20.5 39.999 20.5c10 0 19 -2.16699 27 -6.5s15.5 -9 22.5 -14s14.5 -9.5 22.5 -13.5s17 -6 27 -6c20.667 0 34.667 14.333 42 43h16c-4.66699 -18 -12 -32.667 -22 -44
s-23.333 -17 -40 -17c-10 0 -18.833 2 -26.5 6s-15.167 8.5 -22.5 13.5s-14.833 9.5 -22.5 13.5s-16.5 6 -26.5 6c-11.333 0 -20.166 -4.83301 -26.499 -14.5s-12.166 -21.167 -17.499 -34.5h-17z" />
    <glyph glyph-name="Imacron" unicode="&#x12a;" horiz-adv-x="208" 
d="M218 674h21l-131 -674h-21zM363 752l-4 -18h-228l4 18h228z" />
    <glyph glyph-name="imacron" unicode="&#x12b;" horiz-adv-x="206" 
d="M91 0l93 480h22l-93 -480h-22zM325 558l-4 -18h-228l4 18h228z" />
    <glyph glyph-name="Ibreve" unicode="&#x12c;" horiz-adv-x="208" 
d="M218 674h21l-131 -674h-21zM179 837c-1.33301 -25.333 4.33105 -45.001 16.998 -59.001s31.334 -21 56.001 -21c13.333 0 25.666 2.33301 36.999 7s21.5 10.834 30.5 18.501s16.5 16.167 22.5 25.5s10.667 19 14 29h19c-9.33301 -30 -25.166 -53.667 -47.499 -71
s-48.833 -26 -79.5 -26c-18.667 0 -34 3.16699 -46 9.5s-21.167 14.333 -27.5 24s-10.666 20.167 -12.999 31.5s-2.83301 22 -1.5 32h19z" />
    <glyph glyph-name="ibreve" unicode="&#x12d;" horiz-adv-x="206" 
d="M91 0l93 480h22l-93 -480h-22zM140 643c-1.33301 -25.333 4.33105 -45.001 16.998 -59.001s31.334 -21 56.001 -21c13.333 0 25.666 2.33301 36.999 7s21.5 10.834 30.5 18.501s16.5 16.167 22.5 25.5s10.667 19 14 29h19c-9.33301 -30 -25.166 -53.667 -47.499 -71
s-48.833 -26 -79.5 -26c-18.667 0 -34 3.16699 -46 9.5s-21.167 14.333 -27.5 24s-10.666 20.167 -12.999 31.5s-2.83301 22 -1.5 32h19z" />
    <glyph glyph-name="Iogonek" unicode="&#x12e;" horiz-adv-x="208" 
d="M218 674h21l-131 -674h-21zM110 -1c-12 -6 -24.8311 -14 -38.498 -24s-26.334 -20.667 -38.001 -32s-21.5 -22.833 -29.5 -34.5s-12.333 -22.834 -13 -33.501c-1.33301 -20.667 2.66699 -34.5 12 -41.5s21.666 -10.5 36.999 -10.5c6 0 12.833 0.333008 20.5 1
s15.167 2.33398 22.5 5.00098l3 -17c-8.66699 -3.33301 -18.5 -6 -29.5 -8s-21.167 -3 -30.5 -3c-20 0 -35.5 7.33301 -46.5 22s-14.5 32.667 -10.5 54c2 12 7.5 24.333 16.5 37s19.167 24.667 30.5 36s23.333 21.333 36 30s24 15 34 19h24z" />
    <glyph glyph-name="iogonek" unicode="&#x12f;" horiz-adv-x="206" 
d="M173 476l-92 -476h21l92 476h-21zM233 622c-0.666992 -5.33301 -3.16797 -9.83301 -7.50098 -13.5s-9.83301 -5.5 -16.5 -5.5c-7.33301 0 -12.5 1.83301 -15.5 5.5s-4.16699 8.16699 -3.5 13.5c2.66699 13.333 11.334 20 26.001 20c14 0 19.667 -6.66699 17 -20z
M106.999 0c-12 -6 -24.8311 -14 -38.498 -24s-26.334 -20.667 -38.001 -32s-21.5 -22.833 -29.5 -34.5s-12.333 -22.834 -13 -33.501c-1.33301 -20.667 2.66699 -34.5 12 -41.5s21.666 -10.5 36.999 -10.5c6 0 12.833 0.333008 20.5 1s15.167 2.33398 22.5 5.00098l3 -17
c-8.66699 -3.33301 -18.5 -6 -29.5 -8s-21.167 -3 -30.5 -3c-20 0 -35.5 7.33301 -46.5 22s-14.5 32.667 -10.5 54c2 12 7.5 24.333 16.5 37s19.167 24.667 30.5 36s23.333 21.333 36 30s24 15 34 19h24z" />
    <glyph glyph-name="Idotaccent" unicode="&#x130;" horiz-adv-x="208" 
d="M218 674h21l-131 -674h-21zM237 772c1.33301 6 4.00098 10.999 8.00098 14.999s9 6 15 6c5.33301 0 9.66602 -2 12.999 -6s4.33301 -9 3 -15c-1.33301 -5.33301 -4.33301 -9.66602 -9 -12.999s-9.66699 -5 -15 -5c-12 0 -17 6 -15 18z" />
    <glyph glyph-name="dotlessi" unicode="&#x131;" horiz-adv-x="206" 
d="M91 0l93 480h22l-93 -480h-22z" />
    <glyph glyph-name="IJ" unicode="&#x132;" horiz-adv-x="546" 
d="M218 674h21l-131 -674h-21zM226 22c6.66699 -3.33301 16.1699 -6.33301 28.5029 -9s23.5 -4 33.5 -4c23.333 0 46 4.83301 68 14.5s41 23.5 57 41.5c8.66699 10 16.167 21.833 22.5 35.5s11.666 27.667 15.999 42s8 28.333 11 42s5.5 25.834 7.5 36.501l89 453h21
l-89 -453c-2 -11.333 -4.5 -24.333 -7.5 -39s-7 -29.667 -12 -45s-11.167 -30.333 -18.5 -45s-16 -28 -26 -40c-18 -20.667 -39.5 -36.334 -64.5 -47.001s-50.833 -16 -77.5 -16c-10.667 0 -22.334 1.16699 -35.001 3.5s-23.334 5.5 -32.001 9.5z" />
    <glyph glyph-name="ij" unicode="&#x133;" horiz-adv-x="417" 
d="M173 476l-92 -476h21l92 476h-21zM233 622c-0.666992 -5.33301 -3.16797 -9.83301 -7.50098 -13.5s-9.83301 -5.5 -16.5 -5.5c-7.33301 0 -12.5 1.83301 -15.5 5.5s-4.16699 8.16699 -3.5 13.5c2.66699 13.333 11.334 20 26.001 20c14 0 19.667 -6.66699 17 -20z
M128.999 -184c31.333 0 57.001 6.33398 77.001 19.001s36.5 29 49.5 49s23 42 30 66s12.833 47.667 17.5 71l88 455h21l-88 -455c-4.66699 -24 -11 -49.167 -19 -75.5s-19.333 -50.5 -34 -72.5s-33.334 -40.333 -56.001 -55s-51.667 -22.334 -87 -23.001zM451 622.001
c-0.666992 -5.33301 -3.16797 -9.83301 -7.50098 -13.5s-9.83301 -5.5 -16.5 -5.5c-7.33301 0 -12.5 1.83301 -15.5 5.5s-4.16699 8.16699 -3.5 13.5c2.66699 13.333 11.334 20 26.001 20c14 0 19.667 -6.66699 17 -20z" />
    <glyph glyph-name="Jcircumflex" unicode="&#x134;" horiz-adv-x="338" 
d="M18 22c6.66699 -3.33301 16.1699 -6.33301 28.5029 -9s23.5 -4 33.5 -4c23.333 0 46 4.83301 68 14.5s41 23.5 57 41.5c8.66699 10 16.167 21.833 22.5 35.5s11.666 27.667 15.999 42s8 28.333 11 42s5.5 25.834 7.5 36.501l89 453h21l-89 -453
c-2 -11.333 -4.5 -24.333 -7.5 -39s-7 -29.667 -12 -45s-11.167 -30.333 -18.5 -45s-16 -28 -26 -40c-18 -20.667 -39.5 -36.334 -64.5 -47.001s-50.833 -16 -77.5 -16c-10.667 0 -22.334 1.16699 -35.001 3.5s-23.334 5.5 -32.001 9.5zM413.003 844l5.5 -9l13.5 -22.5
l17 -29l17 -29c5.33301 -9 9.83301 -16.333 13.5 -22l5.5 -8.5h-24l-63 107l-109 -107h-21l119 120h26z" />
    <glyph glyph-name="jcircumflex" unicode="&#x135;" horiz-adv-x="211" 
d="M-70 -195c20 3.33301 39 9.16992 57 17.5029s33.667 19.166 47 32.499c8.66699 8 16.667 17 24 27s14 22.667 20 38s11.833 34 17.5 56s11.5 49.333 17.5 82l82 422h20l-89 -455c-8.66699 -44.667 -18.667 -81.834 -30 -111.501s-28.666 -55.167 -51.999 -76.5
c-20 -16.667 -40.833 -29.334 -62.5 -38.001s-38.834 -13.667 -51.501 -15v21zM249 650.004l5.5 -9l13.5 -22.5l17 -29l17 -29c5.33301 -9 9.83301 -16.333 13.5 -22l5.5 -8.5h-24l-63 107l-109 -107h-21l119 120h26z" />
    <glyph glyph-name="Kcedilla" unicode="&#x136;" horiz-adv-x="489" 
d="M215 674h21l-68 -349l383 349h29l-315 -285l207 -389h-23l-201 373l-87 -80l1 3l-57 -296h-21zM167 -215l22.501 42.999l27.5 54.5c9.33301 19 18.166 38 26.499 57s15.166 36.167 20.499 51.5l32 8l-29 -60.5l-32 -63.5c-10.667 -20.667 -20.667 -39.167 -30 -55.5
s-16.666 -28.166 -21.999 -35.499z" />
    <glyph glyph-name="kcedilla" unicode="&#x137;" horiz-adv-x="416" 
d="M201 264l-60 -53l-41 -211h-21l137 708h21l-91 -467l276 235h28l-230 -198l168 -278h-27zM136 -214l22.501 42.999l27.5 54.5c9.33301 19 18.166 38 26.499 57s15.166 36.167 20.499 51.5l32 8l-29 -60.5l-32 -63.5c-10.667 -20.667 -20.667 -39.167 -30 -55.5
s-16.666 -28.166 -21.999 -35.499z" />
    <glyph glyph-name="kgreenlandic" unicode="&#x138;" horiz-adv-x="416" 
d="M159 231l286 249h29l-224 -195l82.5 -143l82.5 -142h-28l-154 270l-80 -66l-39 -204h-22l93 480h22z" />
    <glyph glyph-name="Lacute" unicode="&#x139;" horiz-adv-x="440" 
d="M409 0h-322l131 674h21l-127 -653h301zM461 861l-16 -16.5l-25 -26l-29.5 -31l-28 -30l-21.5 -23l-10 -10.5l-16 1l113 136h33z" />
    <glyph glyph-name="lacute" unicode="&#x13a;" horiz-adv-x="206" 
d="M245 708l-137 -708h-21l137 708h21zM320 896l-16 -16.5l-25 -26l-29.5 -31l-28 -30l-21.5 -23l-10 -10.5l-16 1l113 136h33z" />
    <glyph glyph-name="Lcedilla" unicode="&#x13b;" horiz-adv-x="440" 
d="M409 0h-322l131 674h21l-127 -653h301zM147 -243l22.501 42.999l27.5 54.5c9.33301 19 18.166 38 26.499 57s15.166 36.167 20.499 51.5l32 8l-29 -60.5l-32 -63.5c-10.667 -20.667 -20.667 -39.167 -30 -55.5s-16.666 -28.166 -21.999 -35.499z" />
    <glyph glyph-name="lcedilla" unicode="&#x13c;" horiz-adv-x="206" 
d="M245 708l-137 -708h-21l137 708h21zM-14 -258l22.501 42.999l27.5 54.5c9.33301 19 18.166 38 26.499 57s15.166 36.167 20.499 51.5l32 8l-29 -60.5l-32 -63.5c-10.667 -20.667 -20.667 -39.167 -30 -55.5s-16.666 -28.166 -21.999 -35.499z" />
    <glyph glyph-name="Lcaron" unicode="&#x13d;" horiz-adv-x="440" 
d="M409 0h-322l131 674h21l-127 -653h301zM358 722l-67.001 137h30l53 -120l66 79c14.667 18 26.334 31.667 35.001 41h28l-59 -68.5l-59 -68.5h-27z" />
    <glyph glyph-name="lcaron" unicode="&#x13e;" horiz-adv-x="206" 
d="M245 708l-137 -708h-21l137 708h21zM236 758l-67.001 137h30l53 -120l66 79c14.667 18 26.334 31.667 35.001 41h28l-59 -68.5l-59 -68.5h-27z" />
    <glyph glyph-name="Ldot" unicode="&#x13f;" horiz-adv-x="440" 
d="M347 405c1.33301 7.33301 4.83301 13.5 10.5 18.5s12.167 7.5 19.5 7.5s13 -2.5 17 -7.5s5.33301 -11.167 4 -18.5c-3.33301 -16.667 -13.333 -25 -30 -25c-7.33301 0 -13 2.33301 -17 7s-5.33301 10.667 -4 18zM409 0h-322l131 674h21l-127 -653h301z" />
    <glyph glyph-name="ldot" unicode="&#x140;" horiz-adv-x="347" 
d="M321 405c1.33301 7.33301 4.83301 13.5 10.5 18.5s12.167 7.5 19.5 7.5s13 -2.5 17 -7.5s5.33301 -11.167 4 -18.5c-3.33301 -16.667 -13.333 -25 -30 -25c-7.33301 0 -13 2.33301 -17 7s-5.33301 10.667 -4 18zM245 708l-137 -708h-21l137 708h21z" />
    <glyph glyph-name="Lslash" unicode="&#x141;" horiz-adv-x="443" 
d="M96 0l59 305l-105 -70l5 24l104 70l68 345h21l-65 -330l163 107l-4 -24l-163 -107l-58 -299h303l-4 -21h-324z" />
    <glyph glyph-name="lslash" unicode="&#x142;" horiz-adv-x="211" 
d="M97 0l67 349l-39.5 -31l-46.5 -36l5 22l86 68l67 347h22l-64 -331l88 68l-4 -21l-88 -68l-71 -367h-22z" />
    <glyph glyph-name="Nacute" unicode="&#x143;" horiz-adv-x="624" 
d="M215 674h13l284 -629l123 629h21l-131 -674h-16l-283 624l-121 -624h-21zM523 861l-16 -16.5l-25 -26l-29.5 -31l-28 -30l-21.5 -23l-10 -10.5l-16 1l113 136h33z" />
    <glyph glyph-name="nacute" unicode="&#x144;" horiz-adv-x="525" 
d="M194 476c-0.666992 -10 -2.49805 -23.167 -5.49805 -39.5l-9.5 -50.5c23.333 33.333 50.666 58.833 81.999 76.5s66.666 26.5 105.999 26.5c34 0 61.833 -9.16699 83.5 -27.5s35.834 -43.5 42.501 -75.5c2 -16 2 -32.167 0 -48.5s-4.33301 -31.833 -7 -46.5l-56 -291h-20
l56 291c4.66699 23.333 7.16699 41.833 7.5 55.5s-1.16699 26.5 -4.5 38.5c-1.33301 6 -3.83301 13.833 -7.5 23.5s-9.66699 18.834 -18 27.501s-19.333 16.167 -33 22.5s-30.834 9.5 -51.501 9.5c-29.333 0 -55.5 -5.83301 -78.5 -17.5s-42.833 -26.167 -59.5 -43.5
s-30 -35.833 -40 -55.5s-16.333 -37.167 -19 -52.5l-58 -299h-20l59 304l6.5 34c3 16 6 33 9 51l8.5 51.5c2.66699 16.333 4 28.166 4 35.499h23zM438.002 678l-16 -16.5l-25 -26l-29.5 -31l-28 -30l-21.5 -23l-10 -10.5l-16 1l113 136h33z" />
    <glyph glyph-name="Ncedilla" unicode="&#x145;" horiz-adv-x="624" 
d="M215 674h13l284 -629l123 629h21l-131 -674h-16l-283 624l-121 -624h-21zM204 -216l22.501 42.999l27.5 54.5c9.33301 19 18.166 38 26.499 57s15.166 36.167 20.499 51.5l32 8l-29 -60.5l-32 -63.5c-10.667 -20.667 -20.667 -39.167 -30 -55.5
s-16.666 -28.166 -21.999 -35.499z" />
    <glyph glyph-name="ncedilla" unicode="&#x146;" horiz-adv-x="525" 
d="M194 476c-0.666992 -10 -2.49805 -23.167 -5.49805 -39.5l-9.5 -50.5c23.333 33.333 50.666 58.833 81.999 76.5s66.666 26.5 105.999 26.5c34 0 61.833 -9.16699 83.5 -27.5s35.834 -43.5 42.501 -75.5c2 -16 2 -32.167 0 -48.5s-4.33301 -31.833 -7 -46.5l-56 -291h-20
l56 291c4.66699 23.333 7.16699 41.833 7.5 55.5s-1.16699 26.5 -4.5 38.5c-1.33301 6 -3.83301 13.833 -7.5 23.5s-9.66699 18.834 -18 27.501s-19.333 16.167 -33 22.5s-30.834 9.5 -51.501 9.5c-29.333 0 -55.5 -5.83301 -78.5 -17.5s-42.833 -26.167 -59.5 -43.5
s-30 -35.833 -40 -55.5s-16.333 -37.167 -19 -52.5l-58 -299h-20l59 304l6.5 34c3 16 6 33 9 51l8.5 51.5c2.66699 16.333 4 28.166 4 35.499h23zM152.002 -238l22.501 42.999l27.5 54.5c9.33301 19 18.166 38 26.499 57s15.166 36.167 20.499 51.5l32 8l-29 -60.5
l-32 -63.5c-10.667 -20.667 -20.667 -39.167 -30 -55.5s-16.666 -28.166 -21.999 -35.499z" />
    <glyph glyph-name="Ncaron" unicode="&#x147;" horiz-adv-x="624" 
d="M215 674h13l284 -629l123 629h21l-131 -674h-16l-283 624l-121 -624h-21zM439 723l-67.001 137h30l53 -120l66 79c14.667 18 26.334 31.667 35.001 41h28l-59 -68.5l-59 -68.5h-27z" />
    <glyph glyph-name="ncaron" unicode="&#x148;" horiz-adv-x="525" 
d="M194 476c-0.666992 -10 -2.49805 -23.167 -5.49805 -39.5l-9.5 -50.5c23.333 33.333 50.666 58.833 81.999 76.5s66.666 26.5 105.999 26.5c34 0 61.833 -9.16699 83.5 -27.5s35.834 -43.5 42.501 -75.5c2 -16 2 -32.167 0 -48.5s-4.33301 -31.833 -7 -46.5l-56 -291h-20
l56 291c4.66699 23.333 7.16699 41.833 7.5 55.5s-1.16699 26.5 -4.5 38.5c-1.33301 6 -3.83301 13.833 -7.5 23.5s-9.66699 18.834 -18 27.501s-19.333 16.167 -33 22.5s-30.834 9.5 -51.501 9.5c-29.333 0 -55.5 -5.83301 -78.5 -17.5s-42.833 -26.167 -59.5 -43.5
s-30 -35.833 -40 -55.5s-16.333 -37.167 -19 -52.5l-58 -299h-20l59 304l6.5 34c3 16 6 33 9 51l8.5 51.5c2.66699 16.333 4 28.166 4 35.499h23zM354.002 540l-67.001 137h30l53 -120l66 79c14.667 18 26.334 31.667 35.001 41h28l-59 -68.5l-59 -68.5h-27z" />
    <glyph glyph-name="napostrophe" unicode="&#x149;" horiz-adv-x="698" 
d="M271 688l-29.499 -59.5l-32.5 -63c-10.667 -20.333 -20.834 -38.833 -30.501 -55.5s-17.167 -29 -22.5 -37h-8.5c-3 0 -5.16699 -0.333008 -6.5 -1l24 46.5c9.33301 18.333 18.5 37.333 27.5 57s17.5 39.167 25.5 58.5l20 50zM367.001 476
c-0.666992 -10 -2.49805 -23.167 -5.49805 -39.5l-9.5 -50.5c23.333 33.333 50.666 58.833 81.999 76.5s66.666 26.5 105.999 26.5c34 0 61.833 -9.16699 83.5 -27.5s35.834 -43.5 42.501 -75.5c2 -16 2 -32.167 0 -48.5s-4.33301 -31.833 -7 -46.5l-56 -291h-20l56 291
c4.66699 23.333 7.16699 41.833 7.5 55.5s-1.16699 26.5 -4.5 38.5c-1.33301 6 -3.83301 13.833 -7.5 23.5s-9.66699 18.834 -18 27.501s-19.333 16.167 -33 22.5s-30.834 9.5 -51.501 9.5c-29.333 0 -55.5 -5.83301 -78.5 -17.5s-42.833 -26.167 -59.5 -43.5
s-30 -35.833 -40 -55.5s-16.333 -37.167 -19 -52.5l-58 -299h-20l59 304l6.5 34c3 16 6 33 9 51l8.5 51.5c2.66699 16.333 4 28.166 4 35.499h23z" />
    <glyph glyph-name="Eng" unicode="&#x14a;" horiz-adv-x="624" 
d="M215 674l12.999 0.000976562l284 -629l123 629h21l-130 -666c-6.66699 -23.333 -11.834 -40.833 -15.501 -52.5s-6.83398 -20.834 -9.50098 -27.501c-6 -14 -13.667 -27.5 -23 -40.5s-19.333 -24.167 -30 -33.5c-9.33301 -8.66699 -19.5 -16.167 -30.5 -22.5
s-22 -11.5 -33 -15.5s-21.5 -7.16699 -31.5 -9.5s-19 -3.5 -27 -3.5l1 16c18.667 2.66699 38.834 8.66699 60.501 18s39.167 20.333 52.5 33c6 6 11.833 12.5 17.5 19.5s10.834 15 15.501 24s9.33398 19.5 14.001 31.5s9 26.667 13 44l5 18l-279 617l-121 -624h-21z" />
    <glyph glyph-name="eng" unicode="&#x14b;" horiz-adv-x="525" 
d="M194 476c-0.666992 -10 -2.66309 -23.3291 -5.99609 -39.9961l-9 -50c23.333 33.333 50.666 58.833 81.999 76.5s66.666 26.5 105.999 26.5c34 0 61.833 -9.16699 83.5 -27.5s35.834 -43.5 42.501 -75.5c2 -16 2 -32.167 0 -48.5s-4.33301 -31.833 -7 -46.5l-58 -297
c-4 -18 -10.333 -36.667 -19 -56c-11.333 -27.333 -28 -51 -50 -71c-9.33301 -8 -19.333 -14.833 -30 -20.5s-21.167 -10.334 -31.5 -14.001s-20.333 -6.33398 -30 -8.00098s-17.834 -2.5 -24.501 -2.5l3 18c22 2.66699 42 7.66699 60 15s33.667 17.666 47 30.999
c7.33301 7.33301 14.5 15.5 21.5 24.5s13.167 20.667 18.5 35s10.666 32.166 15.999 53.499l1 1l56 291c4.66699 23.333 7.16699 41.833 7.5 55.5s-1.16699 26.5 -4.5 38.5c-1.33301 6 -3.83301 13.833 -7.5 23.5s-9.66699 18.834 -18 27.501s-19.333 16.167 -33 22.5
s-30.834 9.5 -51.501 9.5c-29.333 0 -55.5 -5.83301 -78.5 -17.5s-42.833 -26.167 -59.5 -43.5s-30 -35.833 -40 -55.5s-16.333 -37.167 -19 -52.5l-58 -299h-20l65 338c3.33301 16 6.5 33 9.5 51l8.5 51.5c2.66699 16.333 4 28.166 4 35.499h23z" />
    <glyph glyph-name="Omacron" unicode="&#x14c;" horiz-adv-x="654" 
d="M646 336c9.33301 49.333 11.834 94.167 7.50098 134.5s-15.333 74.833 -33 103.5s-40.834 50.667 -69.501 66s-62.667 23 -102 23c-38 0 -74.667 -8.16699 -110 -24.5s-67.333 -38.833 -96 -67.5s-53.334 -62.834 -74.001 -102.501s-35.667 -83.167 -45 -130.5
c-9.33301 -48 -11.666 -92.167 -6.99902 -132.5s15.334 -74.833 32.001 -103.5s39.167 -51 67.5 -67s61.166 -24 98.499 -24c40 0 77.833 8 113.5 24s68.167 38.333 97.5 67s54.333 62.834 75 102.501s35.667 83.5 45 131.5zM454.001 685.001
c42 0 78.6689 -8.50293 110.002 -25.5029s56.166 -40.667 74.499 -71s30 -67 35 -110s2.5 -90.5 -7.5 -142.5c-10 -49.333 -26 -95.166 -48 -137.499s-49.667 -79.5 -83 -111.5c-31.333 -32 -66.333 -56.333 -105 -73s-78.667 -25 -120 -25c-38 0 -72 8.33301 -102 25
s-54.667 40.334 -74 71.001c-20.667 32 -33.5 69.167 -38.5 111.5s-2.5 89.5 7.5 141.5c10 50 26.167 96.333 48.5 139s49.166 79.334 80.499 110.001s66 54.667 104 72s77.333 26 118 26zM589.003 762.998l-4 -18h-228l4 18h228z" />
    <glyph glyph-name="omacron" unicode="&#x14d;" horiz-adv-x="520" 
d="M491 237c6 34 7.33301 65 4 93s-11.333 52.167 -24 72.5s-29.5 36.166 -50.5 47.499s-45.5 17 -73.5 17s-54.833 -5.83301 -80.5 -17.5s-49 -27.667 -70 -48s-39.167 -44.5 -54.5 -72.5s-26 -58.667 -32 -92c-7.33301 -36.667 -8.66602 -69.167 -3.99902 -97.5
s13.667 -52.166 27 -71.499s30.166 -33.833 50.499 -43.5s42.5 -14.5 66.5 -14.5c30 0 58.333 5.66699 85 17s50.5 27.166 71.5 47.499s38.667 44.333 53 72s24.833 57.834 31.5 90.501zM351 488c30 0 56.6729 -6.16797 80.0059 -18.501s42.166 -29.5 56.499 -51.5
s23.666 -48.333 27.999 -79s3.16602 -64.667 -3.50098 -102c-7.33301 -36 -19.5 -69.167 -36.5 -99.5s-37.167 -56.5 -60.5 -78.5s-49.5 -39.333 -78.5 -52s-59.167 -19 -90.5 -19s-58.333 6.5 -81 19.5s-40.834 30.833 -54.501 53.5s-22.334 49.167 -26.001 79.5
s-2.16699 62.5 4.5 96.5c6.66699 36 18.5 69.167 35.5 99.5s37.167 56.833 60.5 79.5s49.166 40.334 77.499 53.001s57.833 19 88.5 19zM485.006 568.999l-4 -18h-228l4 18h228z" />
    <glyph glyph-name="Obreve" unicode="&#x14e;" horiz-adv-x="654" 
d="M646 336c9.33301 49.333 11.834 94.167 7.50098 134.5s-15.333 74.833 -33 103.5s-40.834 50.667 -69.501 66s-62.667 23 -102 23c-38 0 -74.667 -8.16699 -110 -24.5s-67.333 -38.833 -96 -67.5s-53.334 -62.834 -74.001 -102.501s-35.667 -83.167 -45 -130.5
c-9.33301 -48 -11.666 -92.167 -6.99902 -132.5s15.334 -74.833 32.001 -103.5s39.167 -51 67.5 -67s61.166 -24 98.499 -24c40 0 77.833 8 113.5 24s68.167 38.333 97.5 67s54.333 62.834 75 102.501s35.667 83.5 45 131.5zM454.001 685.001
c42 0 78.6689 -8.50293 110.002 -25.5029s56.166 -40.667 74.499 -71s30 -67 35 -110s2.5 -90.5 -7.5 -142.5c-10 -49.333 -26 -95.166 -48 -137.499s-49.667 -79.5 -83 -111.5c-31.333 -32 -66.333 -56.333 -105 -73s-78.667 -25 -120 -25c-38 0 -72 8.33301 -102 25
s-54.667 40.334 -74 71.001c-20.667 32 -33.5 69.167 -38.5 111.5s-2.5 89.5 7.5 141.5c10 50 26.167 96.333 48.5 139s49.166 79.334 80.499 110.001s66 54.667 104 72s77.333 26 118 26zM401.003 847.998c-0.666992 -22 5.33301 -40.498 18 -55.498s31 -22.5 55 -22.5
c28 0 50.833 7.66699 68.5 23s29.167 33.666 34.5 54.999h20c-6.66699 -30 -21.5 -54 -44.5 -72s-50.5 -27 -82.5 -27c-20 0 -36 3.66699 -48 11s-21.333 16.333 -28 27s-10.667 21.667 -12 33s-1.33301 20.666 0 27.999h19z" />
    <glyph glyph-name="obreve" unicode="&#x14f;" horiz-adv-x="520" 
d="M491 237c6 34 7.33301 65 4 93s-11.333 52.167 -24 72.5s-29.5 36.166 -50.5 47.499s-45.5 17 -73.5 17s-54.833 -5.83301 -80.5 -17.5s-49 -27.667 -70 -48s-39.167 -44.5 -54.5 -72.5s-26 -58.667 -32 -92c-7.33301 -36.667 -8.66602 -69.167 -3.99902 -97.5
s13.667 -52.166 27 -71.499s30.166 -33.833 50.499 -43.5s42.5 -14.5 66.5 -14.5c30 0 58.333 5.66699 85 17s50.5 27.166 71.5 47.499s38.667 44.333 53 72s24.833 57.834 31.5 90.501zM351 488c30 0 56.6729 -6.16797 80.0059 -18.501s42.166 -29.5 56.499 -51.5
s23.666 -48.333 27.999 -79s3.16602 -64.667 -3.50098 -102c-7.33301 -36 -19.5 -69.167 -36.5 -99.5s-37.167 -56.5 -60.5 -78.5s-49.5 -39.333 -78.5 -52s-59.167 -19 -90.5 -19s-58.333 6.5 -81 19.5s-40.834 30.833 -54.501 53.5s-22.334 49.167 -26.001 79.5
s-2.16699 62.5 4.5 96.5c6.66699 36 18.5 69.167 35.5 99.5s37.167 56.833 60.5 79.5s49.166 40.334 77.499 53.001s57.833 19 88.5 19zM297.006 653.999c-0.666992 -22 5.33301 -40.498 18 -55.498s31 -22.5 55 -22.5c28 0 50.833 7.66699 68.5 23
s29.167 33.666 34.5 54.999h20c-6.66699 -30 -21.5 -54 -44.5 -72s-50.5 -27 -82.5 -27c-20 0 -36 3.66699 -48 11s-21.333 16.333 -28 27s-10.667 21.667 -12 33s-1.33301 20.666 0 27.999h19z" />
    <glyph glyph-name="Ohungarumlaut" unicode="&#x150;" horiz-adv-x="654" 
d="M646 336c9.33301 49.333 11.834 94.167 7.50098 134.5s-15.333 74.833 -33 103.5s-40.834 50.667 -69.501 66s-62.667 23 -102 23c-38 0 -74.667 -8.16699 -110 -24.5s-67.333 -38.833 -96 -67.5s-53.334 -62.834 -74.001 -102.501s-35.667 -83.167 -45 -130.5
c-9.33301 -48 -11.666 -92.167 -6.99902 -132.5s15.334 -74.833 32.001 -103.5s39.167 -51 67.5 -67s61.166 -24 98.499 -24c40 0 77.833 8 113.5 24s68.167 38.333 97.5 67s54.333 62.834 75 102.501s35.667 83.5 45 131.5zM454.001 685.001
c42 0 78.6689 -8.50293 110.002 -25.5029s56.166 -40.667 74.499 -71s30 -67 35 -110s2.5 -90.5 -7.5 -142.5c-10 -49.333 -26 -95.166 -48 -137.499s-49.667 -79.5 -83 -111.5c-31.333 -32 -66.333 -56.333 -105 -73s-78.667 -25 -120 -25c-38 0 -72 8.33301 -102 25
s-54.667 40.334 -74 71.001c-20.667 32 -33.5 69.167 -38.5 111.5s-2.5 89.5 7.5 141.5c10 50 26.167 96.333 48.5 139s49.166 79.334 80.499 110.001s66 54.667 104 72s77.333 26 118 26z" />
    <glyph glyph-name="ohungarumlaut" unicode="&#x151;" horiz-adv-x="520" 
d="M491 237c6 34 7.33301 65 4 93s-11.333 52.167 -24 72.5s-29.5 36.166 -50.5 47.499s-45.5 17 -73.5 17s-54.833 -5.83301 -80.5 -17.5s-49 -27.667 -70 -48s-39.167 -44.5 -54.5 -72.5s-26 -58.667 -32 -92c-7.33301 -36.667 -8.66602 -69.167 -3.99902 -97.5
s13.667 -52.166 27 -71.499s30.166 -33.833 50.499 -43.5s42.5 -14.5 66.5 -14.5c30 0 58.333 5.66699 85 17s50.5 27.166 71.5 47.499s38.667 44.333 53 72s24.833 57.834 31.5 90.501zM351 488c30 0 56.6729 -6.16797 80.0059 -18.501s42.166 -29.5 56.499 -51.5
s23.666 -48.333 27.999 -79s3.16602 -64.667 -3.50098 -102c-7.33301 -36 -19.5 -69.167 -36.5 -99.5s-37.167 -56.5 -60.5 -78.5s-49.5 -39.333 -78.5 -52s-59.167 -19 -90.5 -19s-58.333 6.5 -81 19.5s-40.834 30.833 -54.501 53.5s-22.334 49.167 -26.001 79.5
s-2.16699 62.5 4.5 96.5c6.66699 36 18.5 69.167 35.5 99.5s37.167 56.833 60.5 79.5s49.166 40.334 77.499 53.001s57.833 19 88.5 19z" />
    <glyph glyph-name="OE" unicode="&#x152;" horiz-adv-x="849" 
d="M821 0h-314.002c-11.333 -0.666992 -23.166 -1.5 -35.499 -2.5s-24.166 -2.16699 -35.499 -3.5c-12 -1.33301 -25.5 -2.5 -40.5 -3.5s-29.833 -1.5 -44.5 -1.5c-47.333 0 -88.333 8.5 -123 25.5s-62.5 40.833 -83.5 71.5s-34.667 67 -41 109s-4.83301 87.667 4.5 137
c11.333 57.333 29.333 108 54 152s54.167 80.833 88.5 110.5s72.333 52.167 114 67.5s84.834 23 129.501 23c17.333 0 32.666 -0.5 45.999 -1.5s26.333 -2.16699 39 -3.5c24 -3.33301 45.333 -5.33301 64 -6h292l-4 -19h-288l-57 -291h273l-3 -19h-273l-64 -326h305z
M618.998 649l-0.999023 -0.00195312c-16.667 4.66699 -35 8.83398 -55 12.501s-45.667 5.5 -77 5.5c-46.667 0 -89.334 -8.16699 -128.001 -24.5s-73 -39.166 -103 -68.499s-55.167 -64.333 -75.5 -105s-35.166 -85 -44.499 -133c-10 -50.667 -12.167 -96.334 -6.5 -137.001
s18.167 -75.167 37.5 -103.5s45.833 -50.166 79.5 -65.499s73.5 -23 119.5 -23c23.333 0 46.666 1.5 69.999 4.5s44.333 7.83301 63 14.5h1z" />
    <glyph glyph-name="oe" unicode="&#x153;" horiz-adv-x="841" 
d="M354 492c43.333 0 79 -13.668 107 -41.001s45.333 -66 52 -116v-8c32.667 60 67.834 102.5 105.501 127.5s76.167 37.5 115.5 37.5c36 0 63.833 -8 83.5 -24s33.667 -35.167 42 -57.5s12.5 -45.666 12.5 -69.999s-1.66699 -44.833 -5 -61.5l-5 -23l-347 1h-2
c-9.33301 -41.333 -12.5 -77.5 -9.5 -108.5s11.167 -56.667 24.5 -77s31.333 -35.666 54 -45.999s48.667 -15.5 78 -15.5c30 0 54.333 2.83301 73 8.5s35.667 11.5 51 17.5l4 -19c-17.333 -8 -38.333 -14.5 -63 -19.5s-49.334 -7.5 -74.001 -7.5c-46 0 -84 12.833 -114 38.5
s-48.667 66.5 -56 122.5l-5 -8c-30.667 -54 -66 -93 -106 -117s-79 -36 -117 -36c-30 0 -56.667 5.83301 -80 17.5s-42.333 28.167 -57 49.5s-24.167 47.166 -28.5 77.499s-2.83301 64.5 4.5 102.5c8 40 20.667 75.833 38 107.5s37.833 58.5 61.5 80.5s49.5 38.667 77.5 50
s56.333 17 85 17zM348 471.999c-34 0 -64.499 -7.49902 -91.499 -22.499s-50.333 -34 -70 -57s-35.5 -48.167 -47.5 -75.5s-20.333 -53.333 -25 -78c-6 -32 -7 -61.833 -3 -89.5s12.333 -52 25 -73s29.334 -37.5 50.001 -49.5s44.667 -18 72 -18
c28 0 54.333 5.83301 79 17.5s47 27.667 67 48s37.167 44.666 51.5 72.999s24.833 59.5 31.5 93.5c5.33301 27.333 7.16602 54.833 5.49902 82.5s-7.66699 52.5 -18 74.5s-25.833 39.833 -46.5 53.5s-47.334 20.5 -80.001 20.5zM839.001 276
c4.66699 20 7.00098 41.501 7.00098 64.501s-4 44.167 -12 63.5s-20.667 35.5 -38 48.5s-41 19.5 -71 19.5c-28 0 -53.333 -6.66699 -76 -20s-42.834 -30 -60.501 -50s-32.5 -41.333 -44.5 -64s-21 -43.334 -27 -62.001h322z" />
    <glyph glyph-name="Racute" unicode="&#x154;" horiz-adv-x="496" 
d="M213 664c20 4 40.501 7.49902 61.501 10.499s42.833 4.5 65.5 4.5c25.333 0 50.5 -2.5 75.5 -7.5s46.333 -14 64 -27s30.667 -31.167 39 -54.5s8.83301 -53.666 1.5 -90.999c-8 -42 -27 -78.167 -57 -108.5s-66.667 -50.833 -110 -61.5
c52 -21.333 78.333 -68.333 79 -141l3.5 -78c1 -21.333 1.66699 -39.166 2 -53.499s1.16602 -25.833 2.49902 -34.5s3.33301 -16 6 -22h-24c-1.33301 7.33301 -2.5 15.333 -3.5 24s-2 20 -3 34s-1.66699 31.167 -2 51.5s-1.5 45.5 -3.5 75.5
c-1.33301 45.333 -12.5 79.166 -33.5 101.499s-54.833 33.5 -101.5 33.5h-108l-62 -320h-21zM504.001 541.999c-0.666992 23.333 -6.16602 42.5 -16.499 57.5s-23.5 26.833 -39.5 35.5s-33.833 14.667 -53.5 18s-39.834 5 -60.501 5c-19.333 0 -38 -1 -56 -3
s-34 -4.33301 -48 -7l-59 -307h116c26 0 50.833 3.66699 74.5 11s44.834 17.833 63.501 31.5s34.667 30.5 48 50.5s22.333 43 27 69c3.33301 14.667 4.66602 27.667 3.99902 39zM487.002 865.999l-16 -16.5l-25 -26l-29.5 -31l-28 -30l-21.5 -23l-10 -10.5l-16 1l113 136h33
z" />
    <glyph glyph-name="racute" unicode="&#x155;" horiz-adv-x="290" 
d="M345 468c-2.66699 0.666992 -5.16602 0.999023 -7.49902 0.999023h-6.5c-24.667 0 -46.834 -6.5 -66.501 -19.5s-36.834 -29 -51.501 -48s-26.5 -39.167 -35.5 -60.5s-15.167 -40.666 -18.5 -57.999l-55 -283h-21l58 301c0 0.666992 1.33301 8 4 22l9 49l10.5 57
c3.66699 19.333 5.83398 35 6.50098 47h21c-0.666992 -11.333 -2.5 -26.5 -5.5 -45.5s-6.16699 -36.5 -9.5 -52.5c7.33301 14 16.5 27.667 27.5 41s23.333 25.333 37 36s28.5 19.167 44.5 25.5s33 9.5 51 9.5h13zM352.001 677.999l-16 -16.5l-25 -26l-29.5 -31l-28 -30
l-21.5 -23l-10 -10.5l-16 1l113 136h33z" />
    <glyph glyph-name="Rcedilla" unicode="&#x156;" horiz-adv-x="496" 
d="M213 664c20 4 40.501 7.49902 61.501 10.499s42.833 4.5 65.5 4.5c25.333 0 50.5 -2.5 75.5 -7.5s46.333 -14 64 -27s30.667 -31.167 39 -54.5s8.83301 -53.666 1.5 -90.999c-8 -42 -27 -78.167 -57 -108.5s-66.667 -50.833 -110 -61.5
c52 -21.333 78.333 -68.333 79 -141l3.5 -78c1 -21.333 1.66699 -39.166 2 -53.499s1.16602 -25.833 2.49902 -34.5s3.33301 -16 6 -22h-24c-1.33301 7.33301 -2.5 15.333 -3.5 24s-2 20 -3 34s-1.66699 31.167 -2 51.5s-1.5 45.5 -3.5 75.5
c-1.33301 45.333 -12.5 79.166 -33.5 101.499s-54.833 33.5 -101.5 33.5h-108l-62 -320h-21zM504.001 541.999c-0.666992 23.333 -6.16602 42.5 -16.499 57.5s-23.5 26.833 -39.5 35.5s-33.833 14.667 -53.5 18s-39.834 5 -60.501 5c-19.333 0 -38 -1 -56 -3
s-34 -4.33301 -48 -7l-59 -307h116c26 0 50.833 3.66699 74.5 11s44.834 17.833 63.501 31.5s34.667 30.5 48 50.5s22.333 43 27 69c3.33301 14.667 4.66602 27.667 3.99902 39zM151.002 -222.001l22.501 42.999l27.5 54.5c9.33301 19 18.166 38 26.499 57
s15.166 36.167 20.499 51.5l32 8l-29 -60.5l-32 -63.5c-10.667 -20.667 -20.667 -39.167 -30 -55.5s-16.666 -28.166 -21.999 -35.499z" />
    <glyph glyph-name="rcedilla" unicode="&#x157;" horiz-adv-x="290" 
d="M345 468c-2.66699 0.666992 -5.16602 0.999023 -7.49902 0.999023h-6.5c-24.667 0 -46.834 -6.5 -66.501 -19.5s-36.834 -29 -51.501 -48s-26.5 -39.167 -35.5 -60.5s-15.167 -40.666 -18.5 -57.999l-55 -283h-21l58 301c0 0.666992 1.33301 8 4 22l9 49l10.5 57
c3.66699 19.333 5.83398 35 6.50098 47h21c-0.666992 -11.333 -2.5 -26.5 -5.5 -45.5s-6.16699 -36.5 -9.5 -52.5c7.33301 14 16.5 27.667 27.5 41s23.333 25.333 37 36s28.5 19.167 44.5 25.5s33 9.5 51 9.5h13zM97.001 -216.001l22.501 42.999l27.5 54.5
c9.33301 19 18.166 38 26.499 57s15.166 36.167 20.499 51.5l32 8l-29 -60.5l-32 -63.5c-10.667 -20.667 -20.667 -39.167 -30 -55.5s-16.666 -28.166 -21.999 -35.499z" />
    <glyph glyph-name="Rcaron" unicode="&#x158;" horiz-adv-x="496" 
d="M213 664c20 4 40.501 7.49902 61.501 10.499s42.833 4.5 65.5 4.5c25.333 0 50.5 -2.5 75.5 -7.5s46.333 -14 64 -27s30.667 -31.167 39 -54.5s8.83301 -53.666 1.5 -90.999c-8 -42 -27 -78.167 -57 -108.5s-66.667 -50.833 -110 -61.5
c52 -21.333 78.333 -68.333 79 -141l3.5 -78c1 -21.333 1.66699 -39.166 2 -53.499s1.16602 -25.833 2.49902 -34.5s3.33301 -16 6 -22h-24c-1.33301 7.33301 -2.5 15.333 -3.5 24s-2 20 -3 34s-1.66699 31.167 -2 51.5s-1.5 45.5 -3.5 75.5
c-1.33301 45.333 -12.5 79.166 -33.5 101.499s-54.833 33.5 -101.5 33.5h-108l-62 -320h-21zM504.001 541.999c-0.666992 23.333 -6.16602 42.5 -16.499 57.5s-23.5 26.833 -39.5 35.5s-33.833 14.667 -53.5 18s-39.834 5 -60.501 5c-19.333 0 -38 -1 -56 -3
s-34 -4.33301 -48 -7l-59 -307h116c26 0 50.833 3.66699 74.5 11s44.834 17.833 63.501 31.5s34.667 30.5 48 50.5s22.333 43 27 69c3.33301 14.667 4.66602 27.667 3.99902 39zM403.002 727.999l-67.001 137h30l53 -120l66 79c14.667 18 26.334 31.667 35.001 41h28
l-59 -68.5l-59 -68.5h-27z" />
    <glyph glyph-name="rcaron" unicode="&#x159;" horiz-adv-x="290" 
d="M345 468c-2.66699 0.666992 -5.16602 0.999023 -7.49902 0.999023h-6.5c-24.667 0 -46.834 -6.5 -66.501 -19.5s-36.834 -29 -51.501 -48s-26.5 -39.167 -35.5 -60.5s-15.167 -40.666 -18.5 -57.999l-55 -283h-21l58 301c0 0.666992 1.33301 8 4 22l9 49l10.5 57
c3.66699 19.333 5.83398 35 6.50098 47h21c-0.666992 -11.333 -2.5 -26.5 -5.5 -45.5s-6.16699 -36.5 -9.5 -52.5c7.33301 14 16.5 27.667 27.5 41s23.333 25.333 37 36s28.5 19.167 44.5 25.5s33 9.5 51 9.5h13zM268.001 539.999l-67.001 137h30l53 -120l66 79
c14.667 18 26.334 31.667 35.001 41h28l-59 -68.5l-59 -68.5h-27z" />
    <glyph glyph-name="Sacute" unicode="&#x15a;" horiz-adv-x="455" 
d="M58 54c13.333 -13.333 32.5 -24.334 57.5 -33.001s50.167 -13 75.5 -13c24.667 0 48.334 3.83301 71.001 11.5s43.167 18.834 61.5 33.501s33.833 32.167 46.5 52.5s21.334 42.833 26.001 67.5c4 21.333 4.33301 40.333 1 57s-10.166 31.667 -20.499 45
s-24.166 25.666 -41.499 36.999s-37.666 22.333 -60.999 33c-28.667 13.333 -51.5 26.666 -68.5 39.999s-29.667 27.166 -38 41.499s-13.333 29 -15 44s-0.833984 30.5 2.49902 46.5c4.66699 24 13.667 46.167 27 66.5s29.5 37.833 48.5 52.5s40.167 26.167 63.5 34.5
s47.333 12.5 72 12.5c17.333 0 35.833 -2.33301 55.5 -7s36.834 -12.667 51.501 -24l-10 -19c-13.333 10.667 -29.5 18.334 -48.5 23.001s-36.5 7 -52.5 7c-22 0 -43.333 -3.5 -64 -10.5s-39.334 -16.667 -56.001 -29s-30.834 -27.166 -42.501 -44.499
s-19.5 -36.666 -23.5 -57.999c-4 -20.667 -3.83301 -38.667 0.5 -54s11.666 -29.166 21.999 -41.499s23.166 -23.333 38.499 -33s32 -19.167 50 -28.5c26 -12 48.167 -24 66.5 -36s32.833 -25.5 43.5 -40.5s17.667 -31.667 21 -50s2.66602 -39.5 -2.00098 -63.5
c-4.66699 -26.667 -14.167 -51.5 -28.5 -74.5s-31.666 -42.667 -51.999 -59s-43.166 -29.166 -68.499 -38.499s-52 -14 -80 -14c-14.667 0 -29.167 1.16699 -43.5 3.5s-27.833 5.66602 -40.5 9.99902s-23.834 9.16602 -33.501 14.499s-16.834 11 -21.501 17zM438 870.999
l-16 -16.5l-25 -26l-29.5 -31l-28 -30l-21.5 -23l-10 -10.5l-16 1l113 136h33z" />
    <glyph glyph-name="sacute" unicode="&#x15b;" horiz-adv-x="366" 
d="M356 442c-9.33301 8 -21.5029 14.1709 -36.5029 18.5039s-30.167 6.5 -45.5 6.5c-9.33301 0 -20.333 -1.5 -33 -4.5s-25.5 -8.33301 -38.5 -16s-24.667 -17.834 -35 -30.501s-17.5 -28.667 -21.5 -48c-5.33301 -26 -1.16602 -47.333 12.501 -64s37.834 -32 72.501 -46
c14.667 -6 28.167 -13 40.5 -21s22.666 -17.5 30.999 -28.5s14.166 -23.5 17.499 -37.5s3 -30.333 -1 -49c-2 -12.667 -6.83301 -26.667 -14.5 -42s-18.667 -29.833 -33 -43.5s-32 -25 -53 -34s-45.5 -13.5 -73.5 -13.5c-19.333 0 -36.833 2.83301 -52.5 8.5
s-30.167 13.5 -43.5 23.5l10 20c12 -8.66699 25.667 -15.834 41 -21.501s32 -8.5 50 -8.5c24.667 0 45.834 3.66699 63.501 11s32.334 16.5 44.001 27.5s20.834 23 27.501 36s11 24.833 13 35.5c3.33301 16.667 3.66602 31 0.999023 43s-7.66699 22.5 -15 31.5
s-16.666 17 -27.999 24s-24 13.5 -38 19.5c-12 5.33301 -24.5 11.333 -37.5 18s-24.167 14.667 -33.5 24s-16.333 21 -21 35s-5 31 -1 51c4.66699 23.333 13.167 42.666 25.5 57.999s26.166 27.666 41.499 36.999s30.833 16 46.5 20s28.834 6 39.501 6
c36 0 65.667 -8.66699 89 -26zM357.997 678.004l-16 -16.5l-25 -26l-29.5 -31l-28 -30l-21.5 -23l-10 -10.5l-16 1l113 136h33z" />
    <glyph glyph-name="Scircumflex" unicode="&#x15c;" horiz-adv-x="455" 
d="M58 54c13.333 -13.333 32.5 -24.334 57.5 -33.001s50.167 -13 75.5 -13c24.667 0 48.334 3.83301 71.001 11.5s43.167 18.834 61.5 33.501s33.833 32.167 46.5 52.5s21.334 42.833 26.001 67.5c4 21.333 4.33301 40.333 1 57s-10.166 31.667 -20.499 45
s-24.166 25.666 -41.499 36.999s-37.666 22.333 -60.999 33c-28.667 13.333 -51.5 26.666 -68.5 39.999s-29.667 27.166 -38 41.499s-13.333 29 -15 44s-0.833984 30.5 2.49902 46.5c4.66699 24 13.667 46.167 27 66.5s29.5 37.833 48.5 52.5s40.167 26.167 63.5 34.5
s47.333 12.5 72 12.5c17.333 0 35.833 -2.33301 55.5 -7s36.834 -12.667 51.501 -24l-10 -19c-13.333 10.667 -29.5 18.334 -48.5 23.001s-36.5 7 -52.5 7c-22 0 -43.333 -3.5 -64 -10.5s-39.334 -16.667 -56.001 -29s-30.834 -27.166 -42.501 -44.499
s-19.5 -36.666 -23.5 -57.999c-4 -20.667 -3.83301 -38.667 0.5 -54s11.666 -29.166 21.999 -41.499s23.166 -23.333 38.499 -33s32 -19.167 50 -28.5c26 -12 48.167 -24 66.5 -36s32.833 -25.5 43.5 -40.5s17.667 -31.667 21 -50s2.66602 -39.5 -2.00098 -63.5
c-4.66699 -26.667 -14.167 -51.5 -28.5 -74.5s-31.666 -42.667 -51.999 -59s-43.166 -29.166 -68.499 -38.499s-52 -14 -80 -14c-14.667 0 -29.167 1.16699 -43.5 3.5s-27.833 5.66602 -40.5 9.99902s-23.834 9.16602 -33.501 14.499s-16.834 11 -21.501 17zM404 870.999
l67 -136h-29l-53 120l-102 -120h-27l117 136h27z" />
    <glyph glyph-name="scircumflex" unicode="&#x15d;" horiz-adv-x="366" 
d="M356 442c-9.33301 8 -21.5029 14.1709 -36.5029 18.5039s-30.167 6.5 -45.5 6.5c-9.33301 0 -20.333 -1.5 -33 -4.5s-25.5 -8.33301 -38.5 -16s-24.667 -17.834 -35 -30.501s-17.5 -28.667 -21.5 -48c-5.33301 -26 -1.16602 -47.333 12.501 -64s37.834 -32 72.501 -46
c14.667 -6 28.167 -13 40.5 -21s22.666 -17.5 30.999 -28.5s14.166 -23.5 17.499 -37.5s3 -30.333 -1 -49c-2 -12.667 -6.83301 -26.667 -14.5 -42s-18.667 -29.833 -33 -43.5s-32 -25 -53 -34s-45.5 -13.5 -73.5 -13.5c-19.333 0 -36.833 2.83301 -52.5 8.5
s-30.167 13.5 -43.5 23.5l10 20c12 -8.66699 25.667 -15.834 41 -21.501s32 -8.5 50 -8.5c24.667 0 45.834 3.66699 63.501 11s32.334 16.5 44.001 27.5s20.834 23 27.501 36s11 24.833 13 35.5c3.33301 16.667 3.66602 31 0.999023 43s-7.66699 22.5 -15 31.5
s-16.666 17 -27.999 24s-24 13.5 -38 19.5c-12 5.33301 -24.5 11.333 -37.5 18s-24.167 14.667 -33.5 24s-16.333 21 -21 35s-5 31 -1 51c4.66699 23.333 13.167 42.666 25.5 57.999s26.166 27.666 41.499 36.999s30.833 16 46.5 20s28.834 6 39.501 6
c36 0 65.667 -8.66699 89 -26zM323.997 678.004l67 -136h-29l-53 120l-102 -120h-27l117 136h27z" />
    </font>
</defs>
</svg>
