<?xml version="1.0" encoding="utf-8"?>
<!-- Generator: Adobe Illustrator 19.0.0, SVG Export Plug-In . SVG Version: 6.00 Build 0)  -->
<svg version="1.1" id="图形" xmlns="http://www.w3.org/2000/svg" xmlns:xlink="http://www.w3.org/1999/xlink" x="0px" y="0px"
	 viewBox="15.167 -16.333 1000.637 1000.678" enable-background="new 15.167 -16.333 1000.637 1000.678" xml:space="preserve">
<g id="XMLID_1_">
	<g id="XMLID_5_">
		<path id="XMLID_6_" d="M78.86,427.885c3.378-0.787,7.264-1.378,11.656-1.774c4.392-0.393,8.502-0.591,12.331-0.591
			c7.32,0,13.372,0.789,18.16,2.365c4.786,1.578,8.755,3.943,11.91,7.095c2.423,2.365,4.326,5.35,5.704,8.954
			c1.378,3.605,2.067,7.377,2.067,11.317c0,7.771-2.022,14.105-6.066,19.005c-4.043,4.899-9.32,8.475-15.834,10.727v0.338
			c4.616,1.465,8.333,4.281,11.148,8.446c2.815,4.168,4.899,9.518,6.25,16.049c1.914,8.898,3.49,15.655,4.73,20.271
			c1.239,4.619,2.476,7.998,3.717,10.135h-8.447c-0.903-1.689-1.942-4.925-3.125-9.714c-1.182-4.784-2.507-10.782-3.97-17.991
			c-1.802-8.333-4.616-14.414-8.441-18.243c-3.825-3.827-9.441-5.913-16.848-6.251H86.799v52.199h-7.94V427.885z M86.799,481.604
			h17.4c8.67,0,15.597-2.259,20.777-6.779c5.178-4.519,7.771-10.621,7.771-18.307c0-8.59-2.787-14.832-8.361-18.731
			c-5.575-3.898-12.812-5.848-21.708-5.848c-3.716,0-6.926,0.171-9.628,0.51c-2.703,0.337-4.788,0.678-6.25,1.016V481.604z"/>
		<path id="XMLID_9_" d="M163.996,498.666c0,6.675,0.816,12.306,2.45,16.888c1.632,4.582,3.827,8.346,6.589,11.286
			c2.758,2.94,5.968,5.063,9.628,6.364c3.658,1.301,7.518,1.95,11.572,1.95c5.406,0,9.824-0.506,13.261-1.52
			c3.433-1.013,6.276-2.027,8.531-3.041l2.027,6.208c-1.578,0.881-4.421,1.953-8.531,3.215c-4.112,1.262-9.545,1.895-16.301,1.895
			c-5.744,0-10.896-1.014-15.456-3.033c-4.562-2.022-8.457-4.833-11.686-8.43c-3.231-3.595-5.706-7.895-7.432-12.897
			s-2.59-10.482-2.59-16.439c0-6.741,0.9-12.782,2.703-18.122c1.8-5.338,4.278-9.92,7.432-13.741
			c3.152-3.822,6.897-6.743,11.234-8.766c4.334-2.022,9.037-3.036,14.105-3.036c6.53,0,11.796,1.347,15.795,4.039
			c3.997,2.692,7.122,5.917,9.375,9.674c2.251,3.758,3.772,7.713,4.561,11.862c0.787,4.149,1.183,7.739,1.183,10.767
			c0,1.122,0,2.019,0,2.692s-0.059,1.457-0.169,2.355L163.996,498.666z M214.167,492.415c0-2.946-0.337-6.089-1.011-9.431
			c-0.673-3.341-1.909-6.427-3.704-9.26c-1.794-2.831-4.209-5.184-7.24-7.053c-3.031-1.869-6.902-2.806-11.617-2.806
			c-4.265,0-7.969,0.908-11.109,2.719c-3.143,1.813-5.781,4.107-7.913,6.884c-2.132,2.777-3.762,5.834-4.882,9.175
			c-1.125,3.342-1.853,6.599-2.189,9.772H214.167z"/>
		<path id="XMLID_12_" d="M292.043,520.964c0,3.268,0.056,6.532,0.169,9.797c0.11,3.268,0.449,6.419,1.013,9.46h-7.432
			l-1.183-11.487h-0.337c-1.014,1.578-2.309,3.154-3.885,4.73c-1.578,1.578-3.408,3.014-5.49,4.307
			c-2.086,1.297-4.451,2.338-7.095,3.125c-2.648,0.787-5.548,1.183-8.7,1.183c-3.943,0-7.407-0.647-10.389-1.935
			c-2.985-1.291-5.434-2.975-7.348-5.052c-1.916-2.075-3.352-4.461-4.308-7.156c-0.958-2.692-1.436-5.387-1.436-8.082
			c0-9.428,4.054-16.752,12.162-21.973c8.109-5.222,20.213-7.718,36.32-7.495v-2.209c0-2.154-0.198-4.619-0.594-7.395
			c-0.395-2.777-1.272-5.411-2.629-7.905c-1.357-2.494-3.394-4.593-6.108-6.293c-2.713-1.699-6.389-2.55-11.025-2.55
			c-3.508,0-6.987,0.535-10.434,1.605c-3.45,1.072-6.589,2.563-9.415,4.476l-2.533-5.912c3.61-2.476,7.334-4.25,11.177-5.321
			c3.843-1.07,7.855-1.605,12.036-1.605c5.652,0,10.257,0.958,13.818,2.871c3.558,1.916,6.355,4.392,8.39,7.433
			c2.032,3.041,3.418,6.447,4.152,10.22c0.733,3.774,1.103,7.517,1.103,11.233V520.964z M284.103,496.807
			c-4.297-0.11-8.794,0.058-13.488,0.508c-4.693,0.451-9.019,1.436-12.978,2.956c-3.96,1.52-7.237,3.745-9.837,6.672
			c-2.603,2.93-3.902,6.816-3.902,11.657c0,2.929,0.452,5.434,1.357,7.517c0.903,2.086,2.091,3.801,3.564,5.152
			c1.47,1.352,3.167,2.365,5.089,3.042c1.921,0.676,3.901,1.013,5.939,1.013c3.278,0,6.218-0.448,8.821-1.351
			c2.602-0.9,4.865-2.111,6.786-3.632c1.922-1.52,3.535-3.236,4.836-5.153c1.299-1.913,2.288-3.885,2.969-5.912
			c0.562-2.028,0.845-3.658,0.845-4.899V496.807z"/>
		<path id="XMLID_15_" d="M372.451,537.131c-1.688,0.881-4.505,1.898-8.446,3.051c-3.943,1.151-8.784,1.73-14.527,1.73
			c-5.744,0-10.955-0.985-15.626-2.952c-4.675-1.967-8.674-4.774-11.994-8.427c-3.323-3.654-5.886-8.009-7.686-13.066
			c-1.803-5.057-2.703-10.68-2.703-16.861c0-6.404,1.014-12.247,3.041-17.531c2.028-5.282,4.841-9.806,8.447-13.572
			c3.603-3.764,7.91-6.715,12.922-8.85c5.009-2.136,10.499-3.205,16.47-3.205c4.841,0,9.093,0.523,12.754,1.566
			c3.658,1.045,6.277,2.117,7.855,3.214l-2.871,6.708c-1.917-1.125-4.393-2.196-7.433-3.21c-3.041-1.014-6.757-1.52-11.149-1.52
			c-5.294,0-9.94,0.989-13.936,2.964c-3.999,1.974-7.349,4.601-10.051,7.874c-2.703,3.273-4.73,7.084-6.082,11.429
			c-1.351,4.347-2.027,8.89-2.027,13.63c0,5.308,0.76,10.136,2.28,14.48c1.52,4.345,3.687,8.042,6.504,11.091
			c2.814,3.048,6.137,5.389,9.966,7.026c3.827,1.636,8.051,2.454,12.67,2.454c4.73,0,8.615-0.506,11.656-1.52
			c3.041-1.013,5.686-1.969,7.94-2.871L372.451,537.131z"/>
		<path id="XMLID_17_" d="M391.371,420.453h7.94v52.873h0.338c2.591-4.901,6.135-8.773,10.64-11.616
			c4.505-2.84,9.91-4.264,16.218-4.264c1.914,0,4.421,0.367,7.519,1.096c3.094,0.731,6.108,2.277,9.037,4.638
			c2.929,2.359,5.462,5.733,7.604,10.114c2.137,4.384,3.21,10.228,3.21,17.531v49.396h-7.942V491.74c0-3.604-0.365-7.066-1.1-10.389
			c-0.73-3.321-1.941-6.25-3.628-8.784c-1.692-2.534-3.918-4.561-6.673-6.081c-2.76-1.52-6.166-2.28-10.221-2.28
			c-5.743,0-10.729,1.774-14.949,5.321c-4.225,3.548-7.181,7.855-8.868,12.923c-0.792,2.254-1.184,4.898-1.184,7.939v49.834h-7.94
			V420.453z"/>
		<path id="XMLID_19_" d="M574.318,486.165c-0.227-4.279-0.479-8.727-0.759-13.345c-0.283-4.616-0.536-9.148-0.761-13.599
			c-0.227-4.447-0.394-8.671-0.505-12.67c-0.114-3.995-0.169-7.572-0.169-10.727h-0.508c-1.916,6.308-4.082,12.868-6.504,19.68
			c-2.422,6.815-5.209,14.444-8.36,22.89l-23.481,61.827h-5.576l-21.96-60.307c-3.154-8.896-5.912-16.864-8.278-23.904
			c-2.364-7.037-4.392-13.767-6.081-20.186h-0.505c-0.114,6.757-0.367,14.754-0.761,23.987c-0.396,9.236-0.928,18.583-1.605,28.043
			l-3.548,52.367h-7.771l8.109-113.857h9.122l23.988,65.206c2.589,7.322,4.899,13.911,6.927,19.765
			c2.026,5.856,3.826,11.6,5.404,17.23h0.508c1.462-5.406,3.181-10.98,5.153-16.724c1.968-5.744,4.418-12.443,7.348-20.102
			l24.663-65.375h9.629l7.601,113.857h-7.94L574.318,486.165z"/>
		<path id="XMLID_21_" d="M658.612,520.964c0,3.268,0.056,6.532,0.169,9.797c0.111,3.268,0.447,6.419,1.013,9.46h-7.432
			l-1.182-11.487h-0.338c-1.013,1.578-2.31,3.154-3.886,4.73c-1.578,1.578-3.406,3.014-5.489,4.307
			c-2.086,1.297-4.45,2.338-7.096,3.125c-2.647,0.787-5.547,1.183-8.699,1.183c-3.944,0-7.405-0.647-10.388-1.935
			c-2.987-1.291-5.436-2.975-7.35-5.052c-1.916-2.075-3.352-4.461-4.307-7.156c-0.957-2.692-1.436-5.387-1.436-8.082
			c0-9.428,4.053-16.752,12.162-21.973c8.109-5.222,20.213-7.718,36.32-7.495v-2.209c0-2.154-0.198-4.619-0.594-7.395
			c-0.396-2.777-1.271-5.411-2.629-7.905c-1.356-2.494-3.394-4.593-6.108-6.293c-2.713-1.699-6.39-2.55-11.025-2.55
			c-3.508,0-6.987,0.535-10.435,1.605c-3.448,1.072-6.586,2.563-9.413,4.476l-2.535-5.912c3.61-2.476,7.336-4.25,11.178-5.321
			c3.844-1.07,7.855-1.605,12.038-1.605c5.649,0,10.257,0.958,13.816,2.871c3.559,1.916,6.357,4.392,8.392,7.433
			c2.032,3.041,3.419,6.447,4.151,10.22c0.734,3.774,1.104,7.517,1.104,11.233V520.964z M650.672,496.807
			c-4.296-0.11-8.794,0.058-13.489,0.508c-4.692,0.451-9.017,1.436-12.977,2.956c-3.96,1.52-7.239,3.745-9.838,6.672
			c-2.602,2.93-3.9,6.816-3.9,11.657c0,2.929,0.45,5.434,1.356,7.517c0.904,2.086,2.09,3.801,3.564,5.152
			c1.471,1.352,3.167,2.365,5.088,3.042c1.923,0.676,3.902,1.013,5.939,1.013c3.279,0,6.219-0.448,8.821-1.351
			c2.604-0.9,4.866-2.111,6.787-3.632c1.921-1.52,3.535-3.236,4.837-5.153c1.298-1.913,2.288-3.885,2.969-5.912
			c0.561-2.028,0.844-3.658,0.844-4.899V496.807z"/>
		<path id="XMLID_24_" d="M683.613,459.136l13.682,19.765c1.689,2.365,3.236,4.645,4.645,6.841c1.407,2.197,2.842,4.535,4.309,7.01
			h0.336c1.576-2.589,3.125-4.983,4.645-7.178c1.52-2.197,3.067-4.419,4.645-6.673l13.516-19.765h8.952l-27.703,39.529
			l28.549,41.556h-9.124l-14.021-20.44c-1.803-2.59-3.49-5.123-5.066-7.601c-1.58-2.476-3.21-5.01-4.899-7.602h-0.338
			c-1.465,2.592-2.985,5.068-4.561,7.433c-1.578,2.365-3.323,4.957-5.237,7.771l-13.852,20.44h-9.122l29.054-41.387l-27.365-39.698
			H683.613z"/>
	</g>
	<g id="XMLID_2_">
		<path id="XMLID_26_" d="M832.907,424.506c7.081,0,13.544,1.437,19.392,4.308c5.843,2.871,10.82,6.87,14.924,11.994
			c4.1,5.125,7.276,11.317,9.524,18.582c2.25,7.264,3.374,15.287,3.374,24.072c0,8.447-1.155,16.247-3.459,23.396
			c-2.306,7.154-5.596,13.346-9.865,18.583c-4.271,5.236-9.386,9.32-15.347,12.247c-5.959,2.927-12.534,4.393-19.73,4.393
			c-7.305,0-13.825-1.52-19.559-4.562c-5.732-3.041-10.593-7.205-14.584-12.501c-3.991-5.292-7.056-11.513-9.191-18.666
			c-2.137-7.151-3.203-14.892-3.203-23.227c0-8.447,1.18-16.272,3.539-23.481c2.359-7.206,5.678-13.401,9.952-18.583
			c4.271-5.178,9.302-9.233,15.091-12.162C819.556,425.972,825.936,424.506,832.907,424.506z M832.907,428.054
			c-6.433,0-12.356,1.401-17.771,4.199c-5.418,2.798-10.072,6.633-13.963,11.5c-3.893,4.87-6.94,10.691-9.142,17.463
			c-2.201,6.773-3.299,14.074-3.299,21.908c0,7.726,1.013,14.947,3.045,21.662c2.03,6.714,4.908,12.564,8.632,17.544
			c3.724,4.98,8.267,8.927,13.625,11.835c5.358,2.911,11.423,4.366,18.197,4.366c6.658,0,12.721-1.399,18.194-4.197
			c5.471-2.798,10.154-6.659,14.047-11.585c3.891-4.925,6.88-10.745,8.968-17.463c2.088-6.714,3.134-13.992,3.134-21.826
			c0-8.282-1.046-15.839-3.134-22.667c-2.088-6.826-5.019-12.675-8.799-17.545c-3.78-4.867-8.378-8.617-13.794-11.25
			C845.43,429.371,839.449,428.054,832.907,428.054z"/>
		<path id="XMLID_29_" d="M894.918,530.954c2.702,2.246,6.306,4.099,10.811,5.559c4.503,1.459,8.895,2.188,13.175,2.188
			c4.154,0,7.995-0.644,11.532-1.938c3.535-1.291,6.62-3.17,9.26-5.64c2.638-2.471,4.685-5.417,6.146-8.842
			c1.456-3.423,2.188-7.214,2.188-11.369c0-3.591-0.563-6.791-1.685-9.599c-1.124-2.806-2.78-5.332-4.968-7.578
			c-2.188-2.244-4.908-4.322-8.162-6.232c-3.254-1.908-7.069-3.761-11.445-5.556c-5.162-2.246-9.418-4.493-12.761-6.739
			c-3.346-2.244-5.979-4.574-7.906-6.987c-1.928-2.412-3.259-4.882-3.995-7.411c-0.739-2.526-1.106-5.136-1.106-7.832
			c0-4.067,0.788-7.823,2.371-11.271c1.58-3.445,3.753-6.411,6.52-8.897c2.765-2.487,5.983-4.435,9.651-5.847
			c3.668-1.411,7.595-2.119,11.773-2.119c2.916,0,6.086,0.406,9.509,1.22c3.423,0.812,6.595,2.206,9.513,4.18l-1.177,3.2
			c-2.58-1.795-5.529-3.086-8.839-3.872c-3.31-0.787-6.315-1.181-9.006-1.181c-3.706,0-7.185,0.592-10.439,1.768
			c-3.254,1.181-6.09,2.809-8.501,4.886c-2.413,2.078-4.323,4.574-5.723,7.493c-1.405,2.919-2.103,6.175-2.103,9.766
			c0,3.482,0.614,6.515,1.85,9.096c1.235,2.582,2.918,4.913,5.051,6.989c2.135,2.078,4.656,3.931,7.577,5.557
			c2.916,1.628,6.057,3.228,9.424,4.798c4.714,2.022,8.826,4.044,12.336,6.065c3.51,2.022,6.424,4.295,8.743,6.821
			c2.322,2.525,4.076,5.331,5.264,8.419c1.186,3.088,1.783,6.652,1.783,10.693c0,4.519-0.817,8.723-2.453,12.618
			c-1.638,3.896-3.924,7.227-6.858,9.993c-2.936,2.767-6.377,4.941-10.326,6.523c-3.949,1.578-8.294,2.369-13.035,2.369
			c-2.477,0-4.982-0.203-7.517-0.601c-2.533-0.404-4.928-0.979-7.178-1.724c-2.255-0.747-4.283-1.581-6.081-2.5
			c-1.803-0.918-3.21-1.898-4.225-2.933L894.918,530.954z"/>
	</g>
</g>
</svg>
