<?xml version="1.0" encoding="utf-8"?>
<!-- Generator: Adobe Illustrator 19.0.0, SVG Export Plug-In . SVG Version: 6.00 Build 0)  -->
<svg version="1.1" id="图形" xmlns="http://www.w3.org/2000/svg" xmlns:xlink="http://www.w3.org/1999/xlink" x="0px" y="0px"
	 viewBox="15.167 -16.333 1000.637 1000.678" enable-background="new 15.167 -16.333 1000.637 1000.678" xml:space="preserve">
<g id="XMLID_2_">
	<path id="XMLID_33_" fill-rule="evenodd" clip-rule="evenodd" fill="#B5B5B5" d="M221.92,476.431
		c-26.41,0-33.87,27.192-33.87,32.372h66.127C254.177,491.107,239.863,476.431,221.92,476.431z"/>
	<path id="XMLID_30_" fill-rule="evenodd" clip-rule="evenodd" fill="#B5B5B5" d="M301.152,539.449
		c0,12.302,11.088,18.561,21.168,18.561c25.806,0,32.459-17.698,32.459-34.316v-6.69h-13.306
		C321.312,517.004,301.152,522.399,301.152,539.449z"/>
	<path id="XMLID_27_" fill-rule="evenodd" clip-rule="evenodd" fill="#B5B5B5" d="M78.378,456.501v25.109h28.225
		c28.023,0,33.467-16.617,33.467-27.193c0-10.575-5.443-27.193-33.467-27.193h-3.185C92.854,436.578,84.427,446.366,78.378,456.501z
		"/>
	<path id="XMLID_9_" fill-rule="evenodd" clip-rule="evenodd" fill="#B5B5B5" d="M922.298,521.968l-31.854,45.106h-14.516
		l38.708-53.954l-33.264-45.753h15.524l25.806,37.768l25.604-37.768h0.432c-33.841-80.806-217.022-142.548-437.934-142.548
		c-170.283,0-318.152,36.684-392.485,90.507c15.524,2.488,35.057,10.868,35.057,39.091c0,29.135-20.765,37.121-36.491,39.279
		l41.531,73.378h-15.121l-40.12-72.515H78.378v37.699c45.012,75.412,221.527,131.683,432.426,131.683
		c201.783,0,372.086-51.512,425.857-122.014L922.298,521.968z M266.273,520.458H188.05c0,10.791,7.056,37.553,35.281,37.553
		c12.298,0,25.201-6.907,31.249-17.698l8.871,7.985c-9.475,15.107-23.79,21.366-40.321,21.366c-28.426,0-47.176-21.798-47.176-52.66
		c0-29.783,19.354-52.227,46.571-52.227c28.628,0,43.748,23.524,43.748,46.617V520.458z M356.19,567.074
		c-0.807-4.964-1.209-10.575-1.209-16.186h-0.403c-6.855,12.733-16.935,18.776-32.66,18.776c-15.927,0-32.862-8.417-32.862-29.567
		c0-30.43,33.264-33.452,51.611-33.452h14.113v-6.043c0-17.265-11.29-24.171-26.208-24.171c-10.887,0-20.161,3.668-28.427,11.222
		l-7.056-8.849c8.871-9.064,23.386-14.027,35.483-14.027c22.58,0,37.095,10.79,37.095,36.041v24.387
		c0,19.424,0.403,30.43,1.814,41.869H356.19z M441.671,558.01c10.081,0,18.749-5.612,24.999-13.812l9.274,8.201
		c-9.073,11.654-20.967,17.266-34.274,17.266c-28.628,0-48.99-22.014-48.99-52.444c0-30.43,20.363-52.444,48.99-52.444
		c13.508,0,25.604,6.258,34.676,17.265l-9.677,7.77c-7.056-8.202-15.322-13.38-24.999-13.38c-22.781,0-36.894,18.344-36.894,40.789
		C404.777,539.665,418.89,558.01,441.671,558.01z M574.73,567.074h-12.097v-58.703c0-16.186-4.233-31.94-23.386-31.94
		c-17.942,0-32.256,13.38-32.256,40.789v49.854h-12.097V403.916h12.097v80.931h0.403c4.839-11.007,16.733-20.071,31.853-20.071
		c29.031,0,35.483,21.149,35.483,42.947V567.074z M751.941,567.074h-13.306v-134.67h-0.404l-54.433,134.67h-5.847l-55.24-134.67
		h-0.403v134.67h-13.306V414.275h19.959l52.015,128.196l52.014-128.196h18.951V567.074z M849.115,567.074
		c-0.807-4.964-1.21-10.575-1.21-16.186h-0.403c-6.855,12.733-16.935,18.776-32.66,18.776c-15.927,0-32.862-8.417-32.862-29.567
		c0-30.43,33.265-33.452,51.611-33.452h14.112v-6.043c0-17.265-11.29-24.171-26.208-24.171c-10.887,0-20.161,3.668-28.427,11.222
		l-7.056-8.849c8.87-9.064,23.386-14.027,35.483-14.027c22.58,0,37.095,10.79,37.095,36.041v24.387
		c0,19.424,0.403,30.43,1.814,41.869H849.115z"/>
	<path id="XMLID_6_" fill-rule="evenodd" clip-rule="evenodd" fill="#B5B5B5" d="M794.076,539.449
		c0,12.302,11.088,18.561,21.169,18.561c25.806,0,32.458-17.698,32.458-34.316v-6.69h-13.306
		C814.237,517.004,794.076,522.399,794.076,539.449z"/>
	<path id="XMLID_3_" fill-rule="evenodd" clip-rule="evenodd" fill="#B5B5B5" d="M943.891,531.133
		c6.84-11.834,10.453-24.132,10.453-36.753c0-4.261-0.416-8.484-1.223-12.666l-22.557,31.406L943.891,531.133z"/>
</g>
</svg>
